ISO-10303-21;
HEADER;
FILE_DESCRIPTION (( 'STEP AP214' ),
    '1' );
FILE_NAME ('pcbtestprint.STEP',
    '2025-12-09T20:40:42',
    ( '' ),
    ( '' ),
    'SwSTEP 2.0',
    'SolidWorks 2025',
    '' );
FILE_SCHEMA (( 'AUTOMOTIVE_DESIGN' ));
ENDSEC;

DATA;
#1 = EDGE_CURVE ( 'NONE', #726, #710, #549, .T. ) ;
#2 = CARTESIAN_POINT ( 'NONE',  ( 76.79999999999999716, 62.50000000000000000, 4.000000000000000000 ) ) ;
#3 = ORIENTED_EDGE ( 'NONE', *, *, #405, .F. ) ;
#4 = CARTESIAN_POINT ( 'NONE',  ( 0.000000000000000000, 0.000000000000000000, 0.000000000000000000 ) ) ;
#5 = CARTESIAN_POINT ( 'NONE',  ( 72.79999999999998295, 70.50000000000000000, 4.000000000000000000 ) ) ;
#6 = ORIENTED_EDGE ( 'NONE', *, *, #409, .T. ) ;
#7 = SURFACE_SIDE_STYLE ('',( #699 ) ) ;
#8 = CARTESIAN_POINT ( 'NONE',  ( 4.000000000000007105, 0.000000000000000000, 0.000000000000000000 ) ) ;
#9 = CIRCLE ( 'NONE', #200, 1.250000000000001110 ) ;
#10 = DIRECTION ( 'NONE',  ( 0.000000000000000000, 1.000000000000000000, 0.000000000000000000 ) ) ;
#11 = DIRECTION ( 'NONE',  ( -0.000000000000000000, -0.000000000000000000, 1.000000000000000000 ) ) ;
#12 = DIRECTION ( 'NONE',  ( 1.000000000000000000, 0.000000000000000000, 0.000000000000000000 ) ) ;
#13 = CARTESIAN_POINT ( 'NONE',  ( 0.000000000000000000, 4.000000000000000000, 4.000000000000000000 ) ) ;
#14 = EDGE_CURVE ( 'NONE', #666, #136, #255, .T. ) ;
#15 = LINE ( 'NONE', #532, #16 ) ;
#16 = VECTOR ( 'NONE', #292, 1000.000000000000000 ) ;
#17 = LINE ( 'NONE', #308, #303 ) ;
#18 = VECTOR ( 'NONE', #620, 1000.000000000000000 ) ;
#19 = FACE_OUTER_BOUND ( 'NONE', #168, .T. ) ;
#20 = VECTOR ( 'NONE', #619, 1000.000000000000000 ) ;
#21 = LINE ( 'NONE', #315, #444 ) ;
#22 = ORIENTED_EDGE ( 'NONE', *, *, #467, .T. ) ;
#23 = CARTESIAN_POINT ( 'NONE',  ( 4.000000000000007105, 4.000000000000005329, 0.000000000000000000 ) ) ;
#24 = LINE ( 'NONE', #451, #43 ) ;
#25 = EDGE_LOOP ( 'NONE', ( #377, #366, #419, #125, #437 ) ) ;
#26 =( NAMED_UNIT ( * ) SI_UNIT ( $, .STERADIAN. ) SOLID_ANGLE_UNIT ( ) );
#27 = CARTESIAN_POINT ( 'NONE',  ( 72.79999999999998295, 66.50000000000000000, 0.000000000000000000 ) ) ;
#28 = ORIENTED_EDGE ( 'NONE', *, *, #14, .T. ) ;
#29 = EDGE_CURVE ( 'NONE', #149, #67, #21, .T. ) ;
#30 = AXIS2_PLACEMENT_3D ( 'NONE', #348, #415, #650 ) ;
#31 = ORIENTED_EDGE ( 'NONE', *, *, #276, .T. ) ;
#32 = ORIENTED_EDGE ( 'NONE', *, *, #372, .F. ) ;
#33 = CARTESIAN_POINT ( 'NONE',  ( 76.79999999999999716, 66.50000000000000000, 4.000000000000000000 ) ) ;
#34 = CARTESIAN_POINT ( 'NONE',  ( 80.79999999999999716, 70.50000000000000000, 4.000000000000000000 ) ) ;
#35 = DIRECTION ( 'NONE',  ( 1.000000000000000000, 0.000000000000000000, 0.000000000000000000 ) ) ;
#36 = EDGE_CURVE ( 'NONE', #181, #138, #262, .T. ) ;
#37 = ORIENTED_EDGE ( 'NONE', *, *, #230, .T. ) ;
#38 = CARTESIAN_POINT ( 'NONE',  ( 72.79999999999998295, 66.50000000000000000, 4.000000000000000000 ) ) ;
#39 = CARTESIAN_POINT ( 'NONE',  ( -4.000000000000000000, 4.000000000000006217, -10.00000000000000000 ) ) ;
#40 = CARTESIAN_POINT ( 'NONE',  ( 4.000000000000007105, 4.000000000000005329, -7.000000000000000000 ) ) ;
#41 = VERTEX_POINT ( 'NONE', #611 ) ;
#42 = CARTESIAN_POINT ( 'NONE',  ( -4.000000000000000888, 3.999999999999999112, 4.000000000000000000 ) ) ;
#43 = VECTOR ( 'NONE', #389, 1000.000000000000000 ) ;
#44 = VECTOR ( 'NONE', #376, 1000.000000000000000 ) ;
#45 = DIRECTION ( 'NONE',  ( 1.000000000000000000, 0.000000000000000000, 0.000000000000000000 ) ) ;
#46 = ORIENTED_EDGE ( 'NONE', *, *, #552, .T. ) ;
#47 = DIRECTION ( 'NONE',  ( -1.000000000000000000, 0.000000000000000000, 0.000000000000000000 ) ) ;
#48 = EDGE_CURVE ( 'NONE', #612, #751, #307, .T. ) ;
#49 = CARTESIAN_POINT ( 'NONE',  ( 4.000000000000007105, -4.000000000000001776, -10.00000000000000000 ) ) ;
#50 = VERTEX_POINT ( 'NONE', #251 ) ;
#51 = DIRECTION ( 'NONE',  ( -0.000000000000000000, -0.000000000000000000, -1.000000000000000000 ) ) ;
#52 = LINE ( 'NONE', #226, #274 ) ;
#53 = ORIENTED_EDGE ( 'NONE', *, *, #230, .F. ) ;
#54 = CARTESIAN_POINT ( 'NONE',  ( 80.79999999999999716, 62.50000000000000000, 4.000000000000000000 ) ) ;
#55 = EDGE_CURVE ( 'NONE', #710, #661, #429, .T. ) ;
#56 = DIRECTION ( 'NONE',  ( 0.000000000000000000, 1.000000000000000000, 0.000000000000000000 ) ) ;
#57 = ORIENTED_EDGE ( 'NONE', *, *, #170, .F. ) ;
#58 = VECTOR ( 'NONE', #746, 1000.000000000000000 ) ;
#59 = CARTESIAN_POINT ( 'NONE',  ( 71.54999999999998295, 64.15000000000000568, 4.000000000000000000 ) ) ;
#60 = EDGE_CURVE ( 'NONE', #212, #672, #557, .T. ) ;
#61 = PRODUCT_DEFINITION ( 'UNKNOWN', '', #704, #142 ) ;
#62 = DIRECTION ( 'NONE',  ( -0.000000000000000000, 0.000000000000000000, -1.000000000000000000 ) ) ;
#63 = ADVANCED_FACE ( 'NONE', ( #259 ), #493, .F. ) ;
#64 = ORIENTED_EDGE ( 'NONE', *, *, #533, .F. ) ;
#65 = CARTESIAN_POINT ( 'NONE',  ( 4.000000000000000000, -4.000000000000000000, 4.000000000000000000 ) ) ;
#66 = PLANE ( 'NONE',  #76 ) ;
#67 = VERTEX_POINT ( 'NONE', #668 ) ;
#68 = LINE ( 'NONE', #594, #714 ) ;
#69 = EDGE_CURVE ( 'NONE', #181, #136, #86, .T. ) ;
#70 = CARTESIAN_POINT ( 'NONE',  ( 67.79999999999999716, 70.50000000000000000, 0.000000000000000000 ) ) ;
#71 = CARTESIAN_POINT ( 'NONE',  ( 67.79999999999999716, 70.50000000000000000, 0.000000000000000000 ) ) ;
#72 = DIRECTION ( 'NONE',  ( -1.000000000000000000, 0.000000000000000000, 0.000000000000000000 ) ) ;
#73 = DIRECTION ( 'NONE',  ( -1.000000000000000000, 0.000000000000000000, 0.000000000000000000 ) ) ;
#74 =( NAMED_UNIT ( * ) PLANE_ANGLE_UNIT ( ) SI_UNIT ( $, .RADIAN. ) );
#75 = DIRECTION ( 'NONE',  ( -0.000000000000000000, -0.000000000000000000, -1.000000000000000000 ) ) ;
#76 = AXIS2_PLACEMENT_3D ( 'NONE', #124, #288, #62 ) ;
#77 = CARTESIAN_POINT ( 'NONE',  ( 76.79999999999999716, 62.50000000000000000, 4.000000000000000000 ) ) ;
#78 = AXIS2_PLACEMENT_3D ( 'NONE', #195, #82, #203 ) ;
#79 = VERTEX_POINT ( 'NONE', #459 ) ;
#80 = ORIENTED_EDGE ( 'NONE', *, *, #248, .F. ) ;
#81 = CARTESIAN_POINT ( 'NONE',  ( 71.54999999999998295, 64.15000000000000568, 4.000000000000000000 ) ) ;
#82 = DIRECTION ( 'NONE',  ( -1.000000000000000000, 0.000000000000000000, 0.000000000000000000 ) ) ;
#83 = EDGE_CURVE ( 'NONE', #710, #562, #152, .T. ) ;
#84 = ORIENTED_EDGE ( 'NONE', *, *, #247, .T. ) ;
#85 = PRODUCT_CONTEXT ( 'NONE', #593, 'mechanical' ) ;
#86 = LINE ( 'NONE', #732, #114 ) ;
#87 = VECTOR ( 'NONE', #174, 1000.000000000000000 ) ;
#88 = ORIENTED_EDGE ( 'NONE', *, *, #590, .F. ) ;
#89 = LINE ( 'NONE', #676, #58 ) ;
#90 = ADVANCED_FACE ( 'NONE', ( #561 ), #108, .F. ) ;
#91 = VERTEX_POINT ( 'NONE', #393 ) ;
#92 = ORIENTED_EDGE ( 'NONE', *, *, #276, .F. ) ;
#93 = FACE_OUTER_BOUND ( 'NONE', #426, .T. ) ;
#94 = CARTESIAN_POINT ( 'NONE',  ( -4.000000000000000000, -4.000000000000000000, 4.000000000000000000 ) ) ;
#95 = ORIENTED_EDGE ( 'NONE', *, *, #247, .F. ) ;
#96 = PLANE ( 'NONE',  #482 ) ;
#97 = CARTESIAN_POINT ( 'NONE',  ( -4.000000000000000000, 4.000000000000006217, -7.000000000000000000 ) ) ;
#98 = ORIENTED_EDGE ( 'NONE', *, *, #431, .F. ) ;
#99 = PLANE ( 'NONE',  #153 ) ;
#100 = VECTOR ( 'NONE', #507, 1000.000000000000000 ) ;
#101 = CARTESIAN_POINT ( 'NONE',  ( 80.79999999999999716, 70.50000000000000000, -10.00000000000000000 ) ) ;
#102 = ORIENTED_EDGE ( 'NONE', *, *, #546, .T. ) ;
#103 = DIRECTION ( 'NONE',  ( -0.000000000000000000, -0.000000000000000000, -1.000000000000000000 ) ) ;
#104 = PLANE ( 'NONE',  #177 ) ;
#105 = ADVANCED_FACE ( 'NONE', ( #335 ), #104, .F. ) ;
#106 = EDGE_LOOP ( 'NONE', ( #608, #102, #436, #706, #616, #184 ) ) ;
#107 = DIRECTION ( 'NONE',  ( 1.000000000000000000, 0.000000000000000000, -0.000000000000000000 ) ) ;
#108 = PLANE ( 'NONE',  #506 ) ;
#109 = ORIENTED_EDGE ( 'NONE', *, *, #48, .T. ) ;
#110 = LINE ( 'NONE', #573, #642 ) ;
#111 = VECTOR ( 'NONE', #471, 1000.000000000000000 ) ;
#112 = CARTESIAN_POINT ( 'NONE',  ( 80.79999999999999716, 70.50000000000000000, -10.00000000000000000 ) ) ;
#113 = EDGE_CURVE ( 'NONE', #562, #547, #285, .T. ) ;
#114 = VECTOR ( 'NONE', #207, 1000.000000000000000 ) ;
#115 = ADVANCED_FACE ( 'NONE', ( #269 ), #750, .T. ) ;
#116 =( GEOMETRIC_REPRESENTATION_CONTEXT ( 3 ) GLOBAL_UNCERTAINTY_ASSIGNED_CONTEXT ( ( #425 ) ) GLOBAL_UNIT_ASSIGNED_CONTEXT ( ( #485, #74, #445 ) ) REPRESENTATION_CONTEXT ( 'NONE', 'WORKASPACE' ) );
#117 = EDGE_CURVE ( 'NONE', #306, #686, #695, .T. ) ;
#118 = LINE ( 'NONE', #183, #701 ) ;
#119 = EDGE_LOOP ( 'NONE', ( #84, #545, #354, #443, #289, #22 ) ) ;
#120 = CARTESIAN_POINT ( 'NONE',  ( -4.000000000000000000, 4.000000000000006217, -10.00000000000000000 ) ) ;
#121 = DIRECTION ( 'NONE',  ( 0.000000000000000000, 0.000000000000000000, 1.000000000000000000 ) ) ;
#122 = CARTESIAN_POINT ( 'NONE',  ( 71.54999999999998295, 64.15000000000000568, 4.000000000000000000 ) ) ;
#123 = EDGE_CURVE ( 'NONE', #138, #387, #52, .T. ) ;
#124 = CARTESIAN_POINT ( 'NONE',  ( 72.79999999999998295, 70.50000000000000000, 4.000000000000000000 ) ) ;
#125 = ORIENTED_EDGE ( 'NONE', *, *, #552, .F. ) ;
#126 = AXIS2_PLACEMENT_3D ( 'NONE', #434, #328, #727 ) ;
#127 = CARTESIAN_POINT ( 'NONE',  ( 4.000000000000007105, -4.000000000000001776, -10.00000000000000000 ) ) ;
#128 = LINE ( 'NONE', #531, #304 ) ;
#129 = EDGE_CURVE ( 'NONE', #50, #212, #741, .T. ) ;
#130 = DIRECTION ( 'NONE',  ( 1.000000000000000000, -0.000000000000000000, -0.000000000000000000 ) ) ;
#131 = DIRECTION ( 'NONE',  ( -0.7559813147020388868, -0.6545931956729895695, -0.000000000000000000 ) ) ;
#132 = ORIENTED_EDGE ( 'NONE', *, *, #48, .F. ) ;
#133 = DIRECTION ( 'NONE',  ( 0.000000000000000000, 1.000000000000000000, 0.000000000000000000 ) ) ;
#134 = EDGE_CURVE ( 'NONE', #599, #360, #516, .T. ) ;
#135 = VECTOR ( 'NONE', #297, 1000.000000000000000 ) ;
#136 = VERTEX_POINT ( 'NONE', #381 ) ;
#137 = CLOSED_SHELL ( 'NONE', ( #654, #731, #416, #512 ) ) ;
#138 = VERTEX_POINT ( 'NONE', #2 ) ;
#139 = ORIENTED_EDGE ( 'NONE', *, *, #69, .T. ) ;
#140 = DIRECTION ( 'NONE',  ( 1.000000000000000000, 0.000000000000000000, 0.000000000000000000 ) ) ;
#141 = VERTEX_POINT ( 'NONE', #217 ) ;
#142 = PRODUCT_DEFINITION_CONTEXT ( 'detailed design', #319, 'design' ) ;
#143 = ORIENTED_EDGE ( 'NONE', *, *, #518, .F. ) ;
#144 = PLANE ( 'NONE',  #651 ) ;
#145 = EDGE_CURVE ( 'NONE', #726, #500, #447, .T. ) ;
#146 = SURFACE_STYLE_FILL_AREA ( #556 ) ;
#147 = ORIENTED_EDGE ( 'NONE', *, *, #397, .T. ) ;
#148 = AXIS2_PLACEMENT_3D ( 'NONE', #122, #351, #73 ) ;
#149 = VERTEX_POINT ( 'NONE', #101 ) ;
#150 = CARTESIAN_POINT ( 'NONE',  ( 4.000000000000007105, -4.000000000000001776, -10.00000000000000000 ) ) ;
#151 = AXIS2_PLACEMENT_3D ( 'NONE', #747, #685, #331 ) ;
#152 = LINE ( 'NONE', #97, #539 ) ;
#153 = AXIS2_PLACEMENT_3D ( 'NONE', #384, #717, #209 ) ;
#154 = EDGE_LOOP ( 'NONE', ( #558, #132 ) ) ;
#155 = DIRECTION ( 'NONE',  ( 0.000000000000000000, 0.000000000000000000, 1.000000000000000000 ) ) ;
#156 = DIRECTION ( 'NONE',  ( -0.000000000000000000, -1.000000000000000000, -0.000000000000000000 ) ) ;
#157 = CARTESIAN_POINT ( 'NONE',  ( -4.000000000000000888, 3.999999999999999112, 4.000000000000000000 ) ) ;
#158 = ORIENTED_EDGE ( 'NONE', *, *, #330, .T. ) ;
#159 = SURFACE_STYLE_USAGE ( .BOTH. , #379 ) ;
#160 = CARTESIAN_POINT ( 'NONE',  ( 76.79999999999999716, 66.50000000000000000, 4.000000000000000000 ) ) ;
#161 = ORIENTED_EDGE ( 'NONE', *, *, #1, .F. ) ;
#162 = CARTESIAN_POINT ( 'NONE',  ( 71.54999999999998295, 64.15000000000000568, 0.000000000000000000 ) ) ;
#163 = EDGE_CURVE ( 'NONE', #500, #494, #386, .T. ) ;
#164 = DIRECTION ( 'NONE',  ( 1.000000000000000000, -1.084202172485503448E-16, 0.000000000000000000 ) ) ;
#165 = ORIENTED_EDGE ( 'NONE', *, *, #194, .F. ) ;
#166 = CARTESIAN_POINT ( 'NONE',  ( 0.000000000000000000, 0.000000000000000000, 4.000000000000000000 ) ) ;
#167 = CARTESIAN_POINT ( 'NONE',  ( 67.79999999999999716, 70.50000000000000000, -10.00000000000000000 ) ) ;
#168 = EDGE_LOOP ( 'NONE', ( #277, #605, #481, #541 ) ) ;
#169 = LINE ( 'NONE', #515, #249 ) ;
#170 = EDGE_CURVE ( 'NONE', #338, #726, #513, .T. ) ;
#171 = EDGE_CURVE ( 'NONE', #625, #79, #24, .T. ) ;
#172 = CARTESIAN_POINT ( 'NONE',  ( 4.000000000000007105, -4.000000000000001776, -10.00000000000000000 ) ) ;
#173 = ORIENTED_EDGE ( 'NONE', *, *, #295, .F. ) ;
#174 = DIRECTION ( 'NONE',  ( -0.000000000000000000, -0.000000000000000000, -1.000000000000000000 ) ) ;
#175 = VECTOR ( 'NONE', #470, 1000.000000000000000 ) ;
#176 = LINE ( 'NONE', #187, #333 ) ;
#177 = AXIS2_PLACEMENT_3D ( 'NONE', #509, #340, #228 ) ;
#178 = ORIENTED_EDGE ( 'NONE', *, *, #492, .F. ) ;
#179 = DIRECTION ( 'NONE',  ( 0.7559813147020388868, 0.6545931956729895695, 0.000000000000000000 ) ) ;
#180 = EDGE_CURVE ( 'NONE', #79, #638, #754, .T. ) ;
#181 = VERTEX_POINT ( 'NONE', #160 ) ;
#182 = CARTESIAN_POINT ( 'NONE',  ( 0.000000000000000000, 0.000000000000000000, 0.000000000000000000 ) ) ;
#183 = CARTESIAN_POINT ( 'NONE',  ( 4.000000000000000000, 0.000000000000000000, 0.000000000000000000 ) ) ;
#184 = ORIENTED_EDGE ( 'NONE', *, *, #571, .F. ) ;
#185 = PLANE ( 'NONE',  #30 ) ;
#186 = MECHANICAL_DESIGN_GEOMETRIC_PRESENTATION_REPRESENTATION (  '', ( #758 ), #243 ) ;
#187 = CARTESIAN_POINT ( 'NONE',  ( 4.000000000000007105, -4.000000000000001776, 0.000000000000000000 ) ) ;
#188 = EDGE_CURVE ( 'NONE', #360, #661, #574, .T. ) ;
#189 = DIRECTION ( 'NONE',  ( -1.000000000000000000, 0.000000000000000000, -0.000000000000000000 ) ) ;
#190 = COLOUR_RGB ( '',0.7921568627450980005, 0.8196078431372548767, 0.9333333333333333481 ) ;
#191 = PLANE ( 'NONE',  #682 ) ;
#192 = ORIENTED_EDGE ( 'NONE', *, *, #497, .T. ) ;
#193 = CARTESIAN_POINT ( 'NONE',  ( 67.79999999999999716, 66.17057291666668561, -10.00000000000000000 ) ) ;
#194 = EDGE_CURVE ( 'NONE', #500, #672, #689, .T. ) ;
#195 = CARTESIAN_POINT ( 'NONE',  ( 4.000000000000000000, -4.000000000000000000, 4.000000000000000000 ) ) ;
#196 = ORIENTED_EDGE ( 'NONE', *, *, #295, .T. ) ;
#197 = PLANE ( 'NONE',  #636 ) ;
#198 = EDGE_CURVE ( 'NONE', #686, #547, #279, .T. ) ;
#199 = DIRECTION ( 'NONE',  ( 1.000000000000000000, 0.000000000000000000, 0.000000000000000000 ) ) ;
#200 = AXIS2_PLACEMENT_3D ( 'NONE', #643, #121, #357 ) ;
#201 = VERTEX_POINT ( 'NONE', #325 ) ;
#202 = DIRECTION ( 'NONE',  ( 0.7559813147020388868, 0.6545931956729895695, 0.000000000000000000 ) ) ;
#203 = DIRECTION ( 'NONE',  ( 0.000000000000000000, 0.000000000000000000, 1.000000000000000000 ) ) ;
#204 = EDGE_CURVE ( 'NONE', #625, #661, #697, .T. ) ;
#205 = ORIENTED_EDGE ( 'NONE', *, *, #225, .T. ) ;
#206 = CARTESIAN_POINT ( 'NONE',  ( 71.54999999999998295, 64.15000000000000568, 0.000000000000000000 ) ) ;
#207 = DIRECTION ( 'NONE',  ( -0.000000000000000000, -0.000000000000000000, -1.000000000000000000 ) ) ;
#208 = ORIENTED_EDGE ( 'NONE', *, *, #577, .T. ) ;
#209 = DIRECTION ( 'NONE',  ( 1.000000000000000000, 0.000000000000000000, -0.000000000000000000 ) ) ;
#210 = ORIENTED_EDGE ( 'NONE', *, *, #123, .F. ) ;
#211 = VECTOR ( 'NONE', #362, 1000.000000000000000 ) ;
#212 = VERTEX_POINT ( 'NONE', #172 ) ;
#213 = CIRCLE ( 'NONE', #428, 1.250000000000001110 ) ;
#214 = DIRECTION ( 'NONE',  ( 1.000000000000000000, 0.000000000000000000, -0.000000000000000000 ) ) ;
#215 = CARTESIAN_POINT ( 'NONE',  ( 67.79999999999999716, 62.50000000000000000, -7.000000000000000000 ) ) ;
#216 = VECTOR ( 'NONE', #432, 1000.000000000000000 ) ;
#217 = CARTESIAN_POINT ( 'NONE',  ( 4.000000000000000000, 0.000000000000000000, 4.000000000000000000 ) ) ;
#218 = VECTOR ( 'NONE', #334, 1000.000000000000000 ) ;
#219 = EDGE_LOOP ( 'NONE', ( #729, #696, #398, #37 ) ) ;
#220 = CARTESIAN_POINT ( 'NONE',  ( 0.000000000000000000, 0.000000000000000000, 4.000000000000000000 ) ) ;
#221 = CARTESIAN_POINT ( 'NONE',  ( 76.79999999999999716, 66.50000000000000000, 0.000000000000000000 ) ) ;
#222 = CARTESIAN_POINT ( 'NONE',  ( 67.79999999999999716, 62.50000000000000000, -7.000000000000000000 ) ) ;
#223 = EDGE_LOOP ( 'NONE', ( #316, #452, #373, #368, #291, #567, #723 ) ) ;
#224 = CARTESIAN_POINT ( 'NONE',  ( 4.000000000000000000, -4.000000000000000000, 4.000000000000000000 ) ) ;
#225 = EDGE_CURVE ( 'NONE', #201, #666, #592, .T. ) ;
#226 = CARTESIAN_POINT ( 'NONE',  ( 76.79999999999999716, 62.50000000000000000, 4.000000000000000000 ) ) ;
#227 = ORIENTED_EDGE ( 'NONE', *, *, #518, .T. ) ;
#228 = DIRECTION ( 'NONE',  ( 0.000000000000000000, 0.000000000000000000, -1.000000000000000000 ) ) ;
#229 = ORIENTED_EDGE ( 'NONE', *, *, #385, .T. ) ;
#230 = EDGE_CURVE ( 'NONE', #480, #710, #524, .T. ) ;
#231 = CARTESIAN_POINT ( 'NONE',  ( 0.000000000000000000, 4.000000000000000000, 4.000000000000000000 ) ) ;
#232 = ORIENTED_EDGE ( 'NONE', *, *, #180, .T. ) ;
#233 = DIRECTION ( 'NONE',  ( -0.000000000000000000, -1.000000000000000000, -0.000000000000000000 ) ) ;
#234 = FILL_AREA_STYLE_COLOUR ( '', #407 ) ;
#235 = VECTOR ( 'NONE', #164, 1000.000000000000000 ) ;
#236 = PLANE ( 'NONE',  #468 ) ;
#237 = LINE ( 'NONE', #77, #479 ) ;
#238 = DIRECTION ( 'NONE',  ( -1.084202172485504434E-16, 1.000000000000000000, 0.000000000000000000 ) ) ;
#239 = CARTESIAN_POINT ( 'NONE',  ( 76.79999999999999716, 62.50000000000000000, 4.000000000000000000 ) ) ;
#240 = EDGE_CURVE ( 'NONE', #480, #625, #241, .T. ) ;
#241 = LINE ( 'NONE', #647, #538 ) ;
#242 = FACE_OUTER_BOUND ( 'NONE', #25, .T. ) ;
#243 =( GEOMETRIC_REPRESENTATION_CONTEXT ( 3 ) GLOBAL_UNCERTAINTY_ASSIGNED_CONTEXT ( ( #341 ) ) GLOBAL_UNIT_ASSIGNED_CONTEXT ( ( #694, #284, #278 ) ) REPRESENTATION_CONTEXT ( 'NONE', 'WORKASPACE' ) );
#244 = LINE ( 'NONE', #34, #287 ) ;
#245 = VECTOR ( 'NONE', #442, 1000.000000000000000 ) ;
#246 = PLANE ( 'NONE',  #375 ) ;
#247 = EDGE_CURVE ( 'NONE', #141, #91, #128, .T. ) ;
#248 = EDGE_CURVE ( 'NONE', #719, #550, #9, .T. ) ;
#249 = VECTOR ( 'NONE', #103, 1000.000000000000000 ) ;
#250 = FACE_OUTER_BOUND ( 'NONE', #649, .T. ) ;
#251 = CARTESIAN_POINT ( 'NONE',  ( 80.79999999999999716, 62.50000000000000000, -10.00000000000000000 ) ) ;
#252 = ADVANCED_FACE ( 'NONE', ( #300 ), #345, .F. ) ;
#253 = ORIENTED_EDGE ( 'NONE', *, *, #409, .F. ) ;
#254 = PLANE ( 'NONE',  #441 ) ;
#255 = LINE ( 'NONE', #27, #702 ) ;
#256 = ORIENTED_EDGE ( 'NONE', *, *, #83, .F. ) ;
#257 = CARTESIAN_POINT ( 'NONE',  ( 72.79999999999998295, 64.15000000000000568, 4.000000000000000000 ) ) ;
#258 = EDGE_CURVE ( 'NONE', #338, #686, #466, .T. ) ;
#259 = FACE_OUTER_BOUND ( 'NONE', #260, .T. ) ;
#260 = EDGE_LOOP ( 'NONE', ( #46, #369, #508, #31, #143, #476 ) ) ;
#261 = CARTESIAN_POINT ( 'NONE',  ( 0.000000000000000000, 0.000000000000000000, 0.000000000000000000 ) ) ;
#262 = LINE ( 'NONE', #489, #44 ) ;
#263 = EDGE_LOOP ( 'NONE', ( #80, #657, #109, #88 ) ) ;
#264 = SHAPE_DEFINITION_REPRESENTATION ( #484, #748 ) ;
#265 = LINE ( 'NONE', #221, #745 ) ;
#266 = EDGE_CURVE ( 'NONE', #294, #306, #118, .T. ) ;
#267 = ORIENTED_EDGE ( 'NONE', *, *, #380, .T. ) ;
#268 = CARTESIAN_POINT ( 'NONE',  ( 80.79999999999999716, 70.50000000000000000, 0.000000000000000000 ) ) ;
#269 = FACE_OUTER_BOUND ( 'NONE', #223, .T. ) ;
#270 = ORIENTED_EDGE ( 'NONE', *, *, #180, .F. ) ;
#271 = AXIS2_PLACEMENT_3D ( 'NONE', #347, #534, #238 ) ;
#272 = CARTESIAN_POINT ( 'NONE',  ( -4.000000000000000000, 4.000000000000006217, -10.00000000000000000 ) ) ;
#273 = ADVANCED_FACE ( 'NONE', ( #349 ), #418, .F. ) ;
#274 = VECTOR ( 'NONE', #396, 1000.000000000000000 ) ;
#275 = DIRECTION ( 'NONE',  ( -0.000000000000000000, -0.000000000000000000, 1.000000000000000000 ) ) ;
#276 = EDGE_CURVE ( 'NONE', #547, #294, #176, .T. ) ;
#277 = ORIENTED_EDGE ( 'NONE', *, *, #117, .T. ) ;
#278 =( NAMED_UNIT ( * ) SI_UNIT ( $, .STERADIAN. ) SOLID_ANGLE_UNIT ( ) );
#279 = LINE ( 'NONE', #692, #235 ) ;
#280 = EDGE_LOOP ( 'NONE', ( #147, #210, #473, #139 ) ) ;
#281 = DIRECTION ( 'NONE',  ( 2.168404344971008375E-16, -1.000000000000000000, 0.000000000000000000 ) ) ;
#282 = ADVANCED_FACE ( 'NONE', ( #582 ), #236, .F. ) ;
#283 = EDGE_LOOP ( 'NONE', ( #633, #92, #555, #733 ) ) ;
#284 =( NAMED_UNIT ( * ) PLANE_ANGLE_UNIT ( ) SI_UNIT ( $, .RADIAN. ) );
#285 = LINE ( 'NONE', #40, #568 ) ;
#286 = ORIENTED_EDGE ( 'NONE', *, *, #69, .F. ) ;
#287 = VECTOR ( 'NONE', #687, 1000.000000000000000 ) ;
#288 = DIRECTION ( 'NONE',  ( 1.000000000000000000, 0.000000000000000000, -0.000000000000000000 ) ) ;
#289 = ORIENTED_EDGE ( 'NONE', *, *, #163, .T. ) ;
#290 = CARTESIAN_POINT ( 'NONE',  ( 0.000000000000000000, 0.000000000000000000, 0.000000000000000000 ) ) ;
#291 = ORIENTED_EDGE ( 'NONE', *, *, #431, .T. ) ;
#292 = DIRECTION ( 'NONE',  ( -0.000000000000000000, -1.000000000000000000, -0.000000000000000000 ) ) ;
#293 = LINE ( 'NONE', #70, #135 ) ;
#294 = VERTEX_POINT ( 'NONE', #8 ) ;
#295 = EDGE_CURVE ( 'NONE', #550, #719, #213, .T. ) ;
#296 = CARTESIAN_POINT ( 'NONE',  ( 67.79999999999999716, 66.17057291666668561, -7.000000000000000000 ) ) ;
#297 = DIRECTION ( 'NONE',  ( -0.000000000000000000, 1.000000000000000000, -0.000000000000000000 ) ) ;
#298 = ORIENTED_EDGE ( 'NONE', *, *, #380, .F. ) ;
#299 = CARTESIAN_POINT ( 'NONE',  ( -4.000000000000000000, -4.000000000000000000, -10.00000000000000000 ) ) ;
#300 = FACE_OUTER_BOUND ( 'NONE', #313, .T. ) ;
#301 = ADVANCED_FACE ( 'NONE', ( #644 ), #66, .F. ) ;
#302 = CARTESIAN_POINT ( 'NONE',  ( 80.79999999999999716, 62.50000000000000000, -7.000000000000000000 ) ) ;
#303 = VECTOR ( 'NONE', #646, 1000.000000000000000 ) ;
#304 = VECTOR ( 'NONE', #72, 1000.000000000000000 ) ;
#305 = CARTESIAN_POINT ( 'NONE',  ( 80.79999999999999716, 62.50000000000000000, 4.000000000000000000 ) ) ;
#306 = VERTEX_POINT ( 'NONE', #290 ) ;
#307 = CIRCLE ( 'NONE', #344, 1.250000000000001110 ) ;
#308 = CARTESIAN_POINT ( 'NONE',  ( 0.000000000000000000, 0.000000000000000000, 4.000000000000000000 ) ) ;
#309 = AXIS2_PLACEMENT_3D ( 'NONE', #166, #47, #343 ) ;
#310 = CARTESIAN_POINT ( 'NONE',  ( -4.000000000000000888, 3.999999999999999112, 4.000000000000000000 ) ) ;
#311 = ORIENTED_EDGE ( 'NONE', *, *, #258, .T. ) ;
#312 = CARTESIAN_POINT ( 'NONE',  ( 70.29999999999998295, 64.15000000000000568, 0.000000000000000000 ) ) ;
#313 = EDGE_LOOP ( 'NONE', ( #424, #53, #98, #165, #336 ) ) ;
#314 = ORIENTED_EDGE ( 'NONE', *, *, #29, .T. ) ;
#315 = CARTESIAN_POINT ( 'NONE',  ( 80.79999999999999716, 70.50000000000000000, -10.00000000000000000 ) ) ;
#316 = ORIENTED_EDGE ( 'NONE', *, *, #533, .T. ) ;
#317 = AXIS2_PLACEMENT_3D ( 'NONE', #81, #670, #563 ) ;
#318 = EDGE_CURVE ( 'NONE', #674, #743, #520, .T. ) ;
#319 = APPLICATION_CONTEXT ( 'automotive_design' ) ;
#320 = DIRECTION ( 'NONE',  ( 0.000000000000000000, 0.000000000000000000, -1.000000000000000000 ) ) ;
#321 = EDGE_LOOP ( 'NONE', ( #448, #579, #510, #522, #208, #253 ) ) ;
#322 = VERTEX_POINT ( 'NONE', #352 ) ;
#323 = FACE_OUTER_BOUND ( 'NONE', #219, .T. ) ;
#324 = CARTESIAN_POINT ( 'NONE',  ( 4.000000000000007105, -4.000000000000001776, -7.000000000000000000 ) ) ;
#325 = CARTESIAN_POINT ( 'NONE',  ( 72.79999999999998295, 70.50000000000000000, 0.000000000000000000 ) ) ;
#326 = EDGE_CURVE ( 'NONE', #360, #322, #410, .T. ) ;
#327 = EDGE_LOOP ( 'NONE', ( #196, #660 ) ) ;
#328 = DIRECTION ( 'NONE',  ( 0.000000000000000000, 0.000000000000000000, -1.000000000000000000 ) ) ;
#329 = PRODUCT_RELATED_PRODUCT_CATEGORY ( 'part', '', ( #597 ) ) ;
#330 = EDGE_CURVE ( 'NONE', #322, #638, #293, .T. ) ;
#331 = DIRECTION ( 'NONE',  ( -1.000000000000000000, 0.000000000000000000, -0.000000000000000000 ) ) ;
#332 = ORIENTED_EDGE ( 'NONE', *, *, #266, .T. ) ;
#333 = VECTOR ( 'NONE', #233, 1000.000000000000000 ) ;
#334 = DIRECTION ( 'NONE',  ( -0.000000000000000000, 1.000000000000000000, -0.000000000000000000 ) ) ;
#335 = FACE_OUTER_BOUND ( 'NONE', #430, .T. ) ;
#336 = ORIENTED_EDGE ( 'NONE', *, *, #145, .F. ) ;
#337 = DIRECTION ( 'NONE',  ( 1.084202172485504434E-16, -1.000000000000000000, 0.000000000000000000 ) ) ;
#338 = VERTEX_POINT ( 'NONE', #13 ) ;
#339 = CARTESIAN_POINT ( 'NONE',  ( 4.000000000000000000, 0.000000000000000000, 4.000000000000000000 ) ) ;
#340 = DIRECTION ( 'NONE',  ( 1.000000000000000000, -0.000000000000000000, 0.000000000000000000 ) ) ;
#341 = UNCERTAINTY_MEASURE_WITH_UNIT (LENGTH_MEASURE( 1.000000000000000082E-05 ), #694, 'distance_accuracy_value', 'NONE');
#342 = VECTOR ( 'NONE', #752, 1000.000000000000000 ) ;
#343 = DIRECTION ( 'NONE',  ( 0.000000000000000000, 0.000000000000000000, 1.000000000000000000 ) ) ;
#344 = AXIS2_PLACEMENT_3D ( 'NONE', #725, #496, #199 ) ;
#345 = PLANE ( 'NONE',  #271 ) ;
#346 = STYLED_ITEM ( 'NONE', ( #595 ), #361 ) ;
#347 = CARTESIAN_POINT ( 'NONE',  ( -4.000000000000000888, 3.999999999999999112, 4.000000000000000000 ) ) ;
#348 = CARTESIAN_POINT ( 'NONE',  ( 72.79999999999998295, 66.50000000000000000, 4.000000000000000000 ) ) ;
#349 = FACE_OUTER_BOUND ( 'NONE', #414, .T. ) ;
#350 = EDGE_CURVE ( 'NONE', #743, #666, #564, .T. ) ;
#351 = DIRECTION ( 'NONE',  ( -0.000000000000000000, -0.000000000000000000, -1.000000000000000000 ) ) ;
#352 = CARTESIAN_POINT ( 'NONE',  ( 67.79999999999999716, 62.50000000000000000, 0.000000000000000000 ) ) ;
#353 = AXIS2_PLACEMENT_3D ( 'NONE', #220, #370, #491 ) ;
#354 = ORIENTED_EDGE ( 'NONE', *, *, #170, .T. ) ;
#355 = LINE ( 'NONE', #591, #417 ) ;
#356 = ADVANCED_FACE ( 'NONE', ( #440 ), #96, .F. ) ;
#357 = DIRECTION ( 'NONE',  ( 1.000000000000000000, 0.000000000000000000, 0.000000000000000000 ) ) ;
#358 = DIRECTION ( 'NONE',  ( -0.000000000000000000, -0.000000000000000000, -1.000000000000000000 ) ) ;
#359 = FILL_AREA_STYLE_COLOUR ( '', #190 ) ;
#360 = VERTEX_POINT ( 'NONE', #215 ) ;
#361 = MANIFOLD_SOLID_BREP ( 'Boss-Extrude4', #137 ) ;
#362 = DIRECTION ( 'NONE',  ( -0.000000000000000000, -0.000000000000000000, -1.000000000000000000 ) ) ;
#363 = VECTOR ( 'NONE', #705, 1000.000000000000000 ) ;
#364 = EDGE_LOOP ( 'NONE', ( #554, #715, #463, #192, #390, #756 ) ) ;
#365 = VECTOR ( 'NONE', #337, 1000.000000000000000 ) ;
#366 = ORIENTED_EDGE ( 'NONE', *, *, #60, .F. ) ;
#367 = FACE_OUTER_BOUND ( 'NONE', #364, .T. ) ;
#368 = ORIENTED_EDGE ( 'NONE', *, *, #60, .T. ) ;
#369 = ORIENTED_EDGE ( 'NONE', *, *, #577, .F. ) ;
#370 = DIRECTION ( 'NONE',  ( 0.000000000000000000, 0.000000000000000000, -1.000000000000000000 ) ) ;
#371 = DIRECTION ( 'NONE',  ( -0.000000000000000000, -0.000000000000000000, 1.000000000000000000 ) ) ;
#372 = EDGE_CURVE ( 'NONE', #67, #674, #244, .T. ) ;
#373 = ORIENTED_EDGE ( 'NONE', *, *, #129, .T. ) ;
#374 = PLANE ( 'NONE',  #755 ) ;
#375 = AXIS2_PLACEMENT_3D ( 'NONE', #182, #720, #189 ) ;
#376 = DIRECTION ( 'NONE',  ( 0.000000000000000000, -1.000000000000000000, 0.000000000000000000 ) ) ;
#377 = ORIENTED_EDGE ( 'NONE', *, *, #194, .T. ) ;
#378 = DIRECTION ( 'NONE',  ( 0.000000000000000000, -0.000000000000000000, -1.000000000000000000 ) ) ;
#379 = SURFACE_SIDE_STYLE ('',( #146 ) ) ;
#380 = EDGE_CURVE ( 'NONE', #674, #201, #89, .T. ) ;
#381 = CARTESIAN_POINT ( 'NONE',  ( 76.79999999999999716, 66.50000000000000000, 0.000000000000000000 ) ) ;
#382 = ORIENTED_EDGE ( 'NONE', *, *, #350, .F. ) ;
#383 = FACE_OUTER_BOUND ( 'NONE', #607, .T. ) ;
#384 = CARTESIAN_POINT ( 'NONE',  ( 71.54999999999998295, 64.15000000000000568, 4.000000000000000000 ) ) ;
#385 = EDGE_CURVE ( 'NONE', #638, #201, #683, .T. ) ;
#386 = LINE ( 'NONE', #566, #580 ) ;
#387 = VERTEX_POINT ( 'NONE', #623 ) ;
#388 = DIRECTION ( 'NONE',  ( -0.000000000000000000, -0.000000000000000000, -1.000000000000000000 ) ) ;
#389 = DIRECTION ( 'NONE',  ( 0.000000000000000000, 1.000000000000000000, 0.000000000000000000 ) ) ;
#390 = ORIENTED_EDGE ( 'NONE', *, *, #372, .T. ) ;
#391 = EDGE_CURVE ( 'NONE', #149, #50, #721, .T. ) ;
#392 = DIRECTION ( 'NONE',  ( 0.000000000000000000, 0.000000000000000000, 1.000000000000000000 ) ) ;
#393 = CARTESIAN_POINT ( 'NONE',  ( 0.000000000000000000, 0.000000000000000000, 4.000000000000000000 ) ) ;
#394 = ORIENTED_EDGE ( 'NONE', *, *, #129, .F. ) ;
#395 = CARTESIAN_POINT ( 'NONE',  ( -4.000000000000000000, -4.000000000000000000, 4.000000000000000000 ) ) ;
#396 = DIRECTION ( 'NONE',  ( -0.000000000000000000, -0.000000000000000000, -1.000000000000000000 ) ) ;
#397 = EDGE_CURVE ( 'NONE', #136, #387, #265, .T. ) ;
#398 = ORIENTED_EDGE ( 'NONE', *, *, #240, .F. ) ;
#399 = PLANE ( 'NONE',  #578 ) ;
#400 = DIRECTION ( 'NONE',  ( 0.000000000000000000, 0.000000000000000000, -1.000000000000000000 ) ) ;
#401 = ORIENTED_EDGE ( 'NONE', *, *, #188, .F. ) ;
#402 = VECTOR ( 'NONE', #11, 1000.000000000000000 ) ;
#403 = CLOSED_SHELL ( 'NONE', ( #356, #737, #458, #90, #252, #544, #63, #684, #627, #273, #282, #439, #742, #105, #115, #665, #673, #596, #301, #708, #528 ) ) ;
#404 = CARTESIAN_POINT ( 'NONE',  ( 72.79999999999998295, 70.50000000000000000, 0.000000000000000000 ) ) ;
#405 = EDGE_CURVE ( 'NONE', #743, #181, #671, .T. ) ;
#406 =( GEOMETRIC_REPRESENTATION_CONTEXT ( 3 ) GLOBAL_UNCERTAINTY_ASSIGNED_CONTEXT ( ( #604 ) ) GLOBAL_UNIT_ASSIGNED_CONTEXT ( ( #548, #609, #26 ) ) REPRESENTATION_CONTEXT ( 'NONE', 'WORKASPACE' ) );
#407 = COLOUR_RGB ( '',0.7921568627450980005, 0.8196078431372548767, 0.9333333333333333481 ) ;
#408 = CARTESIAN_POINT ( 'NONE',  ( 0.000000000000000000, 0.000000000000000000, 4.000000000000000000 ) ) ;
#409 = EDGE_CURVE ( 'NONE', #599, #41, #503, .T. ) ;
#410 = LINE ( 'NONE', #589, #175 ) ;
#411 = ORIENTED_EDGE ( 'NONE', *, *, #171, .F. ) ;
#412 = FACE_OUTER_BOUND ( 'NONE', #263, .T. ) ;
#413 = DIRECTION ( 'NONE',  ( 0.000000000000000000, 0.000000000000000000, 1.000000000000000000 ) ) ;
#414 = EDGE_LOOP ( 'NONE', ( #232, #229, #298, #32, #584, #64 ) ) ;
#415 = DIRECTION ( 'NONE',  ( 0.000000000000000000, 1.000000000000000000, 0.000000000000000000 ) ) ;
#416 = ADVANCED_FACE ( 'NONE', ( #450 ), #99, .T. ) ;
#417 = VECTOR ( 'NONE', #130, 1000.000000000000000 ) ;
#418 = PLANE ( 'NONE',  #526 ) ;
#419 = ORIENTED_EDGE ( 'NONE', *, *, #610, .T. ) ;
#420 = PRESENTATION_LAYER_ASSIGNMENT (  '', '', ( #758 ) ) ;
#421 = FACE_OUTER_BOUND ( 'NONE', #280, .T. ) ;
#422 = DIRECTION ( 'NONE',  ( -0.6545931956729895695, 0.7559813147020389978, 0.000000000000000000 ) ) ;
#423 = DIRECTION ( 'NONE',  ( 0.000000000000000000, -0.000000000000000000, 1.000000000000000000 ) ) ;
#424 = ORIENTED_EDGE ( 'NONE', *, *, #1, .T. ) ;
#425 = UNCERTAINTY_MEASURE_WITH_UNIT (LENGTH_MEASURE( 1.000000000000000082E-05 ), #485, 'distance_accuracy_value', 'NONE');
#426 = EDGE_LOOP ( 'NONE', ( #680, #173, #525, #713 ) ) ;
#427 = FACE_OUTER_BOUND ( 'NONE', #283, .T. ) ;
#428 = AXIS2_PLACEMENT_3D ( 'NONE', #59, #413, #586 ) ;
#429 = LINE ( 'NONE', #728, #216 ) ;
#430 = EDGE_LOOP ( 'NONE', ( #629, #401, #690, #158, #270, #411 ) ) ;
#431 = EDGE_CURVE ( 'NONE', #672, #480, #540, .T. ) ;
#432 = DIRECTION ( 'NONE',  ( 0.7559813147020388868, 0.6545931956729895695, 0.000000000000000000 ) ) ;
#433 = ORIENTED_EDGE ( 'NONE', *, *, #521, .F. ) ;
#434 = CARTESIAN_POINT ( 'NONE',  ( 0.000000000000000000, 0.000000000000000000, 4.000000000000000000 ) ) ;
#435 = CARTESIAN_POINT ( 'NONE',  ( 80.79999999999999716, 62.50000000000000000, -10.00000000000000000 ) ) ;
#436 = ORIENTED_EDGE ( 'NONE', *, *, #326, .F. ) ;
#437 = ORIENTED_EDGE ( 'NONE', *, *, #163, .F. ) ;
#438 = CARTESIAN_POINT ( 'NONE',  ( 72.79999999999998295, 70.50000000000000000, 4.000000000000000000 ) ) ;
#439 = ADVANCED_FACE ( 'NONE', ( #250 ), #191, .F. ) ;
#440 = FACE_OUTER_BOUND ( 'NONE', #321, .T. ) ;
#441 = AXIS2_PLACEMENT_3D ( 'NONE', #239, #133, #716 ) ;
#442 = DIRECTION ( 'NONE',  ( -1.000000000000000000, -2.168404344971008375E-16, 0.000000000000000000 ) ) ;
#443 = ORIENTED_EDGE ( 'NONE', *, *, #145, .T. ) ;
#444 = VECTOR ( 'NONE', #371, 1000.000000000000000 ) ;
#445 =( NAMED_UNIT ( * ) SI_UNIT ( $, .STERADIAN. ) SOLID_ANGLE_UNIT ( ) );
#446 = VECTOR ( 'NONE', #156, 1000.000000000000000 ) ;
#447 = LINE ( 'NONE', #157, #365 ) ;
#448 = ORIENTED_EDGE ( 'NONE', *, *, #134, .T. ) ;
#449 = DIRECTION ( 'NONE',  ( 0.000000000000000000, -1.000000000000000000, 0.000000000000000000 ) ) ;
#450 = FACE_OUTER_BOUND ( 'NONE', #327, .T. ) ;
#451 = CARTESIAN_POINT ( 'NONE',  ( 67.79999999999999716, 66.17057291666668561, -10.00000000000000000 ) ) ;
#452 = ORIENTED_EDGE ( 'NONE', *, *, #391, .T. ) ;
#453 = FILL_AREA_STYLE ('',( #234 ) ) ;
#454 = CARTESIAN_POINT ( 'NONE',  ( 0.000000000000000000, 4.000000000000000000, 4.000000000000000000 ) ) ;
#455 = VERTEX_POINT ( 'NONE', #305 ) ;
#456 = AXIS2_PLACEMENT_3D ( 'NONE', #33, #214, #559 ) ;
#457 = SURFACE_STYLE_USAGE ( .BOTH. , #7 ) ;
#458 = ADVANCED_FACE ( 'NONE', ( #19 ), #634, .F. ) ;
#459 = CARTESIAN_POINT ( 'NONE',  ( 67.79999999999999716, 70.50000000000000000, -10.00000000000000000 ) ) ;
#460 = ORIENTED_EDGE ( 'NONE', *, *, #546, .F. ) ;
#461 = DIRECTION ( 'NONE',  ( 0.000000000000000000, 1.000000000000000000, 0.000000000000000000 ) ) ;
#462 = DIRECTION ( 'NONE',  ( -0.000000000000000000, -0.000000000000000000, -1.000000000000000000 ) ) ;
#463 = ORIENTED_EDGE ( 'NONE', *, *, #571, .T. ) ;
#464 = DIRECTION ( 'NONE',  ( -0.000000000000000000, 0.000000000000000000, 1.000000000000000000 ) ) ;
#465 = EDGE_CURVE ( 'NONE', #719, #612, #169, .T. ) ;
#466 = LINE ( 'NONE', #231, #663 ) ;
#467 = EDGE_CURVE ( 'NONE', #494, #141, #110, .T. ) ;
#468 = AXIS2_PLACEMENT_3D ( 'NONE', #700, #472, #712 ) ;
#469 = VECTOR ( 'NONE', #664, 1000.000000000000000 ) ;
#470 = DIRECTION ( 'NONE',  ( -0.000000000000000000, -0.000000000000000000, 1.000000000000000000 ) ) ;
#471 = DIRECTION ( 'NONE',  ( -0.000000000000000000, -0.000000000000000000, 1.000000000000000000 ) ) ;
#472 = DIRECTION ( 'NONE',  ( -1.000000000000000000, 0.000000000000000000, 0.000000000000000000 ) ) ;
#473 = ORIENTED_EDGE ( 'NONE', *, *, #36, .F. ) ;
#474 = DIRECTION ( 'NONE',  ( -1.000000000000000000, -0.000000000000000000, -0.000000000000000000 ) ) ;
#475 = DIRECTION ( 'NONE',  ( 0.000000000000000000, -1.000000000000000000, -0.000000000000000000 ) ) ;
#476 = ORIENTED_EDGE ( 'NONE', *, *, #467, .F. ) ;
#477 = MANIFOLD_SOLID_BREP ( 'Boss-Extrude3', #403 ) ;
#478 = DIRECTION ( 'NONE',  ( -0.000000000000000000, -0.000000000000000000, -1.000000000000000000 ) ) ;
#479 = VECTOR ( 'NONE', #12, 1000.000000000000000 ) ;
#480 = VERTEX_POINT ( 'NONE', #120 ) ;
#481 = ORIENTED_EDGE ( 'NONE', *, *, #659, .F. ) ;
#482 = AXIS2_PLACEMENT_3D ( 'NONE', #560, #320, #626 ) ;
#483 = CARTESIAN_POINT ( 'NONE',  ( 72.79999999999998295, 66.50000000000000000, 0.000000000000000000 ) ) ;
#484 = PRODUCT_DEFINITION_SHAPE ( 'NONE', 'NONE',  #61 ) ;
#485 =( LENGTH_UNIT ( ) NAMED_UNIT ( * ) SI_UNIT ( .MILLI., .METRE. ) );
#486 = ORIENTED_EDGE ( 'NONE', *, *, #198, .T. ) ;
#487 = ORIENTED_EDGE ( 'NONE', *, *, #397, .F. ) ;
#488 = LINE ( 'NONE', #127, #111 ) ;
#489 = CARTESIAN_POINT ( 'NONE',  ( 76.79999999999999716, 66.50000000000000000, 4.000000000000000000 ) ) ;
#490 = ORIENTED_EDGE ( 'NONE', *, *, #14, .F. ) ;
#491 = DIRECTION ( 'NONE',  ( -1.000000000000000000, 0.000000000000000000, -0.000000000000000000 ) ) ;
#492 = EDGE_CURVE ( 'NONE', #91, #306, #749, .T. ) ;
#493 = PLANE ( 'NONE',  #78 ) ;
#494 = VERTEX_POINT ( 'NONE', #224 ) ;
#495 = CARTESIAN_POINT ( 'NONE',  ( -4.000000000000000000, 4.000000000000006217, -7.000000000000000000 ) ) ;
#496 = DIRECTION ( 'NONE',  ( 0.000000000000000000, 0.000000000000000000, 1.000000000000000000 ) ) ;
#497 = EDGE_CURVE ( 'NONE', #455, #67, #569, .T. ) ;
#498 = EDGE_LOOP ( 'NONE', ( #28, #286, #3, #501 ) ) ;
#499 = CARTESIAN_POINT ( 'NONE',  ( 72.79999999999998295, 66.50000000000000000, 4.000000000000000000 ) ) ;
#500 = VERTEX_POINT ( 'NONE', #395 ) ;
#501 = ORIENTED_EDGE ( 'NONE', *, *, #350, .T. ) ;
#502 = DIRECTION ( 'NONE',  ( 0.6545931956729895695, -0.7559813147020388868, 0.000000000000000000 ) ) ;
#503 = LINE ( 'NONE', #324, #581 ) ;
#504 = VECTOR ( 'NONE', #652, 1000.000000000000000 ) ;
#505 = DIRECTION ( 'NONE',  ( 1.000000000000000000, 2.168404344971008375E-16, 0.000000000000000000 ) ) ;
#506 = AXIS2_PLACEMENT_3D ( 'NONE', #624, #281, #505 ) ;
#507 = DIRECTION ( 'NONE',  ( -0.000000000000000000, 1.000000000000000000, -0.000000000000000000 ) ) ;
#508 = ORIENTED_EDGE ( 'NONE', *, *, #113, .T. ) ;
#509 = CARTESIAN_POINT ( 'NONE',  ( 67.79999999999999716, 66.17057291666668561, -10.00000000000000000 ) ) ;
#510 = ORIENTED_EDGE ( 'NONE', *, *, #55, .F. ) ;
#511 = CARTESIAN_POINT ( 'NONE',  ( 80.79999999999999716, 62.50000000000000000, -10.00000000000000000 ) ) ;
#512 = ADVANCED_FACE ( 'NONE', ( #691 ), #631, .F. ) ;
#513 = LINE ( 'NONE', #454, #245 ) ;
#514 = AXIS2_PLACEMENT_3D ( 'NONE', #162, #392, #107 ) ;
#515 = CARTESIAN_POINT ( 'NONE',  ( 72.79999999999998295, 64.15000000000000568, 4.000000000000000000 ) ) ;
#516 = LINE ( 'NONE', #222, #18 ) ;
#517 = ORIENTED_EDGE ( 'NONE', *, *, #385, .F. ) ;
#518 = EDGE_CURVE ( 'NONE', #141, #294, #519, .T. ) ;
#519 = LINE ( 'NONE', #339, #677 ) ;
#520 = LINE ( 'NONE', #5, #504 ) ;
#521 = EDGE_CURVE ( 'NONE', #50, #599, #757, .T. ) ;
#522 = ORIENTED_EDGE ( 'NONE', *, *, #83, .T. ) ;
#523 = DIRECTION ( 'NONE',  ( 0.000000000000000000, 1.000000000000000000, 0.000000000000000000 ) ) ;
#524 = LINE ( 'NONE', #709, #601 ) ;
#525 = ORIENTED_EDGE ( 'NONE', *, *, #590, .T. ) ;
#526 = AXIS2_PLACEMENT_3D ( 'NONE', #112, #475, #400 ) ;
#527 = FACE_OUTER_BOUND ( 'NONE', #106, .T. ) ;
#528 = ADVANCED_FACE ( 'NONE', ( #575 ), #399, .T. ) ;
#529 = CARTESIAN_POINT ( 'NONE',  ( 67.79999999999999716, 66.17057291666668561, -10.00000000000000000 ) ) ;
#530 = LINE ( 'NONE', #65, #211 ) ;
#531 = CARTESIAN_POINT ( 'NONE',  ( 4.000000000000000000, 0.000000000000000000, 4.000000000000000000 ) ) ;
#532 = CARTESIAN_POINT ( 'NONE',  ( 4.000000000000007105, -4.000000000000001776, -7.000000000000000000 ) ) ;
#533 = EDGE_CURVE ( 'NONE', #79, #149, #355, .T. ) ;
#534 = DIRECTION ( 'NONE',  ( 1.000000000000000000, 1.084202172485504434E-16, -0.000000000000000000 ) ) ;
#535 = ORIENTED_EDGE ( 'NONE', *, *, #391, .F. ) ;
#536 = CARTESIAN_POINT ( 'NONE',  ( 4.000000000000007105, 4.000000000000005329, -7.000000000000000000 ) ) ;
#537 = VECTOR ( 'NONE', #358, 1000.000000000000000 ) ;
#538 = VECTOR ( 'NONE', #179, 1000.000000000000000 ) ;
#539 = VECTOR ( 'NONE', #632, 1000.000000000000000 ) ;
#540 = LINE ( 'NONE', #39, #218 ) ;
#541 = ORIENTED_EDGE ( 'NONE', *, *, #492, .T. ) ;
#542 = VECTOR ( 'NONE', #734, 1000.000000000000000 ) ;
#543 = PLANE ( 'NONE',  #456 ) ;
#544 = ADVANCED_FACE ( 'NONE', ( #242 ), #197, .F. ) ;
#545 = ORIENTED_EDGE ( 'NONE', *, *, #659, .T. ) ;
#546 = EDGE_CURVE ( 'NONE', #387, #322, #588, .T. ) ;
#547 = VERTEX_POINT ( 'NONE', #23 ) ;
#548 =( LENGTH_UNIT ( ) NAMED_UNIT ( * ) SI_UNIT ( .MILLI., .METRE. ) );
#549 = LINE ( 'NONE', #310, #639 ) ;
#550 = VERTEX_POINT ( 'NONE', #724 ) ;
#551 = PLANE ( 'NONE',  #353 ) ;
#552 = EDGE_CURVE ( 'NONE', #494, #41, #530, .T. ) ;
#553 = CIRCLE ( 'NONE', #693, 1.250000000000001110 ) ;
#554 = ORIENTED_EDGE ( 'NONE', *, *, #405, .T. ) ;
#555 = ORIENTED_EDGE ( 'NONE', *, *, #198, .F. ) ;
#556 = FILL_AREA_STYLE ('',( #359 ) ) ;
#557 = LINE ( 'NONE', #722, #469 ) ;
#558 = ORIENTED_EDGE ( 'NONE', *, *, #688, .F. ) ;
#559 = DIRECTION ( 'NONE',  ( -0.000000000000000000, 0.000000000000000000, -1.000000000000000000 ) ) ;
#560 = CARTESIAN_POINT ( 'NONE',  ( 0.000000000000000000, 0.000000000000000000, -7.000000000000000000 ) ) ;
#561 = FACE_OUTER_BOUND ( 'NONE', #698, .T. ) ;
#562 = VERTEX_POINT ( 'NONE', #536 ) ;
#563 = DIRECTION ( 'NONE',  ( -1.000000000000000000, 0.000000000000000000, 0.000000000000000000 ) ) ;
#564 = LINE ( 'NONE', #499, #565 ) ;
#565 = VECTOR ( 'NONE', #388, 1000.000000000000000 ) ;
#566 = CARTESIAN_POINT ( 'NONE',  ( -4.000000000000000000, -4.000000000000000000, 4.000000000000000000 ) ) ;
#567 = ORIENTED_EDGE ( 'NONE', *, *, #240, .T. ) ;
#568 = VECTOR ( 'NONE', #576, 1000.000000000000000 ) ;
#569 = LINE ( 'NONE', #54, #753 ) ;
#570 = CARTESIAN_POINT ( 'NONE',  ( 0.000000000000000000, 0.000000000000000000, 0.000000000000000000 ) ) ;
#571 = EDGE_CURVE ( 'NONE', #138, #455, #237, .T. ) ;
#572 = EDGE_LOOP ( 'NONE', ( #314, #735, #587, #433, #535 ) ) ;
#573 = CARTESIAN_POINT ( 'NONE',  ( 4.000000000000000000, -4.000000000000000000, 4.000000000000000000 ) ) ;
#574 = LINE ( 'NONE', #679, #100 ) ;
#575 = FACE_OUTER_BOUND ( 'NONE', #598, .T. ) ;
#576 = DIRECTION ( 'NONE',  ( -0.000000000000000000, -0.000000000000000000, 1.000000000000000000 ) ) ;
#577 = EDGE_CURVE ( 'NONE', #562, #41, #15, .T. ) ;
#578 = AXIS2_PLACEMENT_3D ( 'NONE', #4, #464, #640 ) ;
#579 = ORIENTED_EDGE ( 'NONE', *, *, #188, .T. ) ;
#580 = VECTOR ( 'NONE', #45, 1000.000000000000000 ) ;
#581 = VECTOR ( 'NONE', #131, 1000.000000000000114 ) ;
#582 = FACE_OUTER_BOUND ( 'NONE', #572, .T. ) ;
#583 = DIRECTION ( 'NONE',  ( -1.000000000000000000, 0.000000000000000000, 0.000000000000000000 ) ) ;
#584 = ORIENTED_EDGE ( 'NONE', *, *, #29, .F. ) ;
#585 = CARTESIAN_POINT ( 'NONE',  ( -4.000000000000000000, -4.000000000000000000, 4.000000000000000000 ) ) ;
#586 = DIRECTION ( 'NONE',  ( 1.000000000000000000, 0.000000000000000000, 0.000000000000000000 ) ) ;
#587 = ORIENTED_EDGE ( 'NONE', *, *, #648, .T. ) ;
#588 = LINE ( 'NONE', #658, #739 ) ;
#589 = CARTESIAN_POINT ( 'NONE',  ( 67.79999999999999716, 62.50000000000000000, -7.000000000000000000 ) ) ;
#590 = EDGE_CURVE ( 'NONE', #550, #751, #68, .T. ) ;
#591 = CARTESIAN_POINT ( 'NONE',  ( 80.79999999999999716, 70.50000000000000000, -10.00000000000000000 ) ) ;
#592 = LINE ( 'NONE', #404, #363 ) ;
#593 = APPLICATION_CONTEXT ( 'automotive_design' ) ;
#594 = CARTESIAN_POINT ( 'NONE',  ( 70.29999999999998295, 64.15000000000000568, 4.000000000000000000 ) ) ;
#595 = PRESENTATION_STYLE_ASSIGNMENT (( #159 ) ) ;
#596 = ADVANCED_FACE ( 'NONE', ( #527 ), #254, .F. ) ;
#597 = PRODUCT ( 'pcbtestprint', 'pcbtestprint', '', ( #85 ) ) ;
#598 = EDGE_LOOP ( 'NONE', ( #656, #517, #645, #460, #487, #490 ) ) ;
#599 = VERTEX_POINT ( 'NONE', #302 ) ;
#600 = CARTESIAN_POINT ( 'NONE',  ( 80.79999999999999716, 62.50000000000000000, 4.000000000000000000 ) ) ;
#601 = VECTOR ( 'NONE', #635, 1000.000000000000000 ) ;
#602 = VECTOR ( 'NONE', #56, 1000.000000000000000 ) ;
#603 = ORIENTED_EDGE ( 'NONE', *, *, #113, .F. ) ;
#604 = UNCERTAINTY_MEASURE_WITH_UNIT (LENGTH_MEASURE( 1.000000000000000082E-05 ), #548, 'distance_accuracy_value', 'NONE');
#605 = ORIENTED_EDGE ( 'NONE', *, *, #258, .F. ) ;
#606 = PLANE ( 'NONE',  #126 ) ;
#607 = EDGE_LOOP ( 'NONE', ( #332, #178, #95, #227 ) ) ;
#608 = ORIENTED_EDGE ( 'NONE', *, *, #123, .T. ) ;
#609 =( NAMED_UNIT ( * ) PLANE_ANGLE_UNIT ( ) SI_UNIT ( $, .RADIAN. ) );
#610 = EDGE_CURVE ( 'NONE', #212, #41, #488, .T. ) ;
#611 = CARTESIAN_POINT ( 'NONE',  ( 4.000000000000007105, -4.000000000000001776, -7.000000000000000000 ) ) ;
#612 = VERTEX_POINT ( 'NONE', #707 ) ;
#613 = CARTESIAN_POINT ( 'NONE',  ( 0.000000000000000000, 4.000000000000000000, 0.000000000000000000 ) ) ;
#614 = CARTESIAN_POINT ( 'NONE',  ( 72.79999999999998295, 66.50000000000000000, 4.000000000000000000 ) ) ;
#615 = ORIENTED_EDGE ( 'NONE', *, *, #521, .T. ) ;
#616 = ORIENTED_EDGE ( 'NONE', *, *, #648, .F. ) ;
#617 = FACE_OUTER_BOUND ( 'NONE', #119, .T. ) ;
#618 = MECHANICAL_DESIGN_GEOMETRIC_PRESENTATION_REPRESENTATION (  '', ( #346 ), #116 ) ;
#619 = DIRECTION ( 'NONE',  ( 1.000000000000000000, -0.000000000000000000, -0.000000000000000000 ) ) ;
#620 = DIRECTION ( 'NONE',  ( -1.000000000000000000, -0.000000000000000000, -0.000000000000000000 ) ) ;
#621 = EDGE_LOOP ( 'NONE', ( #205, #382, #669, #267 ) ) ;
#622 = APPLICATION_PROTOCOL_DEFINITION ( 'draft international standard', 'automotive_design', 1998, #319 ) ;
#623 = CARTESIAN_POINT ( 'NONE',  ( 76.79999999999999716, 62.50000000000000000, 0.000000000000000000 ) ) ;
#624 = CARTESIAN_POINT ( 'NONE',  ( 0.000000000000000000, 4.000000000000000000, 4.000000000000000000 ) ) ;
#625 = VERTEX_POINT ( 'NONE', #193 ) ;
#626 = DIRECTION ( 'NONE',  ( -1.000000000000000000, 0.000000000000000000, -0.000000000000000000 ) ) ;
#627 = ADVANCED_FACE ( 'NONE', ( #427 ), #246, .F. ) ;
#628 = DIRECTION ( 'NONE',  ( -0.000000000000000000, -0.000000000000000000, -1.000000000000000000 ) ) ;
#629 = ORIENTED_EDGE ( 'NONE', *, *, #204, .T. ) ;
#630 = DIRECTION ( 'NONE',  ( -0.7559813147020388868, -0.6545931956729895695, -0.000000000000000000 ) ) ;
#631 = PLANE ( 'NONE',  #514 ) ;
#632 = DIRECTION ( 'NONE',  ( 1.000000000000000000, -1.084202172485503448E-16, 0.000000000000000000 ) ) ;
#633 = ORIENTED_EDGE ( 'NONE', *, *, #266, .F. ) ;
#634 = PLANE ( 'NONE',  #309 ) ;
#635 = DIRECTION ( 'NONE',  ( -0.000000000000000000, -0.000000000000000000, 1.000000000000000000 ) ) ;
#636 = AXIS2_PLACEMENT_3D ( 'NONE', #585, #10, #423 ) ;
#637 = VECTOR ( 'NONE', #628, 1000.000000000000000 ) ;
#638 = VERTEX_POINT ( 'NONE', #71 ) ;
#639 = VECTOR ( 'NONE', #75, 1000.000000000000000 ) ;
#640 = DIRECTION ( 'NONE',  ( 1.000000000000000000, 0.000000000000000000, 0.000000000000000000 ) ) ;
#641 = AXIS2_PLACEMENT_3D ( 'NONE', #261, #155, #730 ) ;
#642 = VECTOR ( 'NONE', #523, 1000.000000000000000 ) ;
#643 = CARTESIAN_POINT ( 'NONE',  ( 71.54999999999998295, 64.15000000000000568, 4.000000000000000000 ) ) ;
#644 = FACE_OUTER_BOUND ( 'NONE', #621, .T. ) ;
#645 = ORIENTED_EDGE ( 'NONE', *, *, #330, .F. ) ;
#646 = DIRECTION ( 'NONE',  ( 0.000000000000000000, 1.000000000000000000, 0.000000000000000000 ) ) ;
#647 = CARTESIAN_POINT ( 'NONE',  ( -4.000000000000000000, 4.000000000000006217, -10.00000000000000000 ) ) ;
#648 = EDGE_CURVE ( 'NONE', #455, #599, #662, .T. ) ;
#649 = EDGE_LOOP ( 'NONE', ( #6, #736, #394, #615 ) ) ;
#650 = DIRECTION ( 'NONE',  ( 0.000000000000000000, -0.000000000000000000, 1.000000000000000000 ) ) ;
#651 = AXIS2_PLACEMENT_3D ( 'NONE', #744, #449, #378 ) ;
#652 = DIRECTION ( 'NONE',  ( 0.000000000000000000, -1.000000000000000000, 0.000000000000000000 ) ) ;
#653 = CYLINDRICAL_SURFACE ( 'NONE', #148, 1.250000000000001110 ) ;
#654 = ADVANCED_FACE ( 'NONE', ( #412 ), #653, .T. ) ;
#655 = DIRECTION ( 'NONE',  ( -0.7559813147020389978, -0.6545931956729895695, 0.000000000000000000 ) ) ;
#656 = ORIENTED_EDGE ( 'NONE', *, *, #225, .F. ) ;
#657 = ORIENTED_EDGE ( 'NONE', *, *, #465, .T. ) ;
#658 = CARTESIAN_POINT ( 'NONE',  ( 67.79999999999999716, 62.50000000000000000, 0.000000000000000000 ) ) ;
#659 = EDGE_CURVE ( 'NONE', #91, #338, #17, .T. ) ;
#660 = ORIENTED_EDGE ( 'NONE', *, *, #248, .T. ) ;
#661 = VERTEX_POINT ( 'NONE', #296 ) ;
#662 = LINE ( 'NONE', #600, #537 ) ;
#663 = VECTOR ( 'NONE', #462, 1000.000000000000000 ) ;
#664 = DIRECTION ( 'NONE',  ( -1.000000000000000000, 2.168404344971006896E-16, -0.000000000000000000 ) ) ;
#665 = ADVANCED_FACE ( 'NONE', ( #711 ), #185, .F. ) ;
#666 = VERTEX_POINT ( 'NONE', #483 ) ;
#667 = APPLICATION_PROTOCOL_DEFINITION ( 'draft international standard', 'automotive_design', 1998, #593 ) ;
#668 = CARTESIAN_POINT ( 'NONE',  ( 80.79999999999999716, 70.50000000000000000, 4.000000000000000000 ) ) ;
#669 = ORIENTED_EDGE ( 'NONE', *, *, #318, .F. ) ;
#670 = DIRECTION ( 'NONE',  ( -0.000000000000000000, -0.000000000000000000, -1.000000000000000000 ) ) ;
#671 = LINE ( 'NONE', #614, #542 ) ;
#672 = VERTEX_POINT ( 'NONE', #299 ) ;
#673 = ADVANCED_FACE ( 'NONE', ( #421 ), #543, .F. ) ;
#674 = VERTEX_POINT ( 'NONE', #438 ) ;
#675 = DIRECTION ( 'NONE',  ( 0.000000000000000000, 0.000000000000000000, 1.000000000000000000 ) ) ;
#676 = CARTESIAN_POINT ( 'NONE',  ( 72.79999999999998295, 70.50000000000000000, 4.000000000000000000 ) ) ;
#677 = VECTOR ( 'NONE', #51, 1000.000000000000000 ) ;
#678 = VECTOR ( 'NONE', #630, 1000.000000000000114 ) ;
#679 = CARTESIAN_POINT ( 'NONE',  ( 67.79999999999999716, 70.50000000000000000, -7.000000000000000000 ) ) ;
#680 = ORIENTED_EDGE ( 'NONE', *, *, #465, .F. ) ;
#681 = CYLINDRICAL_SURFACE ( 'NONE', #317, 1.250000000000001110 ) ;
#682 = AXIS2_PLACEMENT_3D ( 'NONE', #150, #422, #655 ) ;
#683 = LINE ( 'NONE', #268, #20 ) ;
#684 = ADVANCED_FACE ( 'NONE', ( #617 ), #606, .F. ) ;
#685 = DIRECTION ( 'NONE',  ( 0.000000000000000000, 0.000000000000000000, -1.000000000000000000 ) ) ;
#686 = VERTEX_POINT ( 'NONE', #613 ) ;
#687 = DIRECTION ( 'NONE',  ( -1.000000000000000000, 0.000000000000000000, 0.000000000000000000 ) ) ;
#688 = EDGE_CURVE ( 'NONE', #751, #612, #553, .T. ) ;
#689 = LINE ( 'NONE', #94, #637 ) ;
#690 = ORIENTED_EDGE ( 'NONE', *, *, #326, .T. ) ;
#691 = FACE_OUTER_BOUND ( 'NONE', #154, .T. ) ;
#692 = CARTESIAN_POINT ( 'NONE',  ( -4.000000000000000000, 4.000000000000006217, 0.000000000000000000 ) ) ;
#693 = AXIS2_PLACEMENT_3D ( 'NONE', #206, #675, #140 ) ;
#694 =( LENGTH_UNIT ( ) NAMED_UNIT ( * ) SI_UNIT ( .MILLI., .METRE. ) );
#695 = LINE ( 'NONE', #570, #602 ) ;
#696 = ORIENTED_EDGE ( 'NONE', *, *, #204, .F. ) ;
#697 = LINE ( 'NONE', #529, #402 ) ;
#698 = EDGE_LOOP ( 'NONE', ( #311, #486, #603, #256, #161, #57 ) ) ;
#699 = SURFACE_STYLE_FILL_AREA ( #453 ) ;
#700 = CARTESIAN_POINT ( 'NONE',  ( 80.79999999999999716, 62.50000000000000000, -10.00000000000000000 ) ) ;
#701 = VECTOR ( 'NONE', #583, 1000.000000000000000 ) ;
#702 = VECTOR ( 'NONE', #35, 1000.000000000000000 ) ;
#703 = PRESENTATION_STYLE_ASSIGNMENT (( #457 ) ) ;
#704 = PRODUCT_DEFINITION_FORMATION_WITH_SPECIFIED_SOURCE ( 'ANY', '', #597, .NOT_KNOWN. ) ;
#705 = DIRECTION ( 'NONE',  ( 0.000000000000000000, -1.000000000000000000, 0.000000000000000000 ) ) ;
#706 = ORIENTED_EDGE ( 'NONE', *, *, #134, .F. ) ;
#707 = CARTESIAN_POINT ( 'NONE',  ( 72.79999999999998295, 64.15000000000000568, 0.000000000000000000 ) ) ;
#708 = ADVANCED_FACE ( 'NONE', ( #367 ), #551, .F. ) ;
#709 = CARTESIAN_POINT ( 'NONE',  ( -4.000000000000000000, 4.000000000000006217, -10.00000000000000000 ) ) ;
#710 = VERTEX_POINT ( 'NONE', #495 ) ;
#711 = FACE_OUTER_BOUND ( 'NONE', #498, .T. ) ;
#712 = DIRECTION ( 'NONE',  ( 0.000000000000000000, 0.000000000000000000, 1.000000000000000000 ) ) ;
#713 = ORIENTED_EDGE ( 'NONE', *, *, #688, .T. ) ;
#714 = VECTOR ( 'NONE', #478, 1000.000000000000000 ) ;
#715 = ORIENTED_EDGE ( 'NONE', *, *, #36, .T. ) ;
#716 = DIRECTION ( 'NONE',  ( 0.000000000000000000, -0.000000000000000000, 1.000000000000000000 ) ) ;
#717 = DIRECTION ( 'NONE',  ( 0.000000000000000000, 0.000000000000000000, 1.000000000000000000 ) ) ;
#718 = PRESENTATION_LAYER_ASSIGNMENT (  '', '', ( #346 ) ) ;
#719 = VERTEX_POINT ( 'NONE', #257 ) ;
#720 = DIRECTION ( 'NONE',  ( 0.000000000000000000, 0.000000000000000000, -1.000000000000000000 ) ) ;
#721 = LINE ( 'NONE', #435, #446 ) ;
#722 = CARTESIAN_POINT ( 'NONE',  ( -4.000000000000000000, -4.000000000000000000, -10.00000000000000000 ) ) ;
#723 = ORIENTED_EDGE ( 'NONE', *, *, #171, .T. ) ;
#724 = CARTESIAN_POINT ( 'NONE',  ( 70.29999999999998295, 64.15000000000000568, 4.000000000000000000 ) ) ;
#725 = CARTESIAN_POINT ( 'NONE',  ( 71.54999999999998295, 64.15000000000000568, 0.000000000000000000 ) ) ;
#726 = VERTEX_POINT ( 'NONE', #42 ) ;
#727 = DIRECTION ( 'NONE',  ( -1.000000000000000000, 0.000000000000000000, -0.000000000000000000 ) ) ;
#728 = CARTESIAN_POINT ( 'NONE',  ( -4.000000000000000000, 4.000000000000006217, -7.000000000000000000 ) ) ;
#729 = ORIENTED_EDGE ( 'NONE', *, *, #55, .T. ) ;
#730 = DIRECTION ( 'NONE',  ( 1.000000000000000000, 0.000000000000000000, 0.000000000000000000 ) ) ;
#731 = ADVANCED_FACE ( 'NONE', ( #93 ), #681, .T. ) ;
#732 = CARTESIAN_POINT ( 'NONE',  ( 76.79999999999999716, 66.50000000000000000, 4.000000000000000000 ) ) ;
#733 = ORIENTED_EDGE ( 'NONE', *, *, #117, .F. ) ;
#734 = DIRECTION ( 'NONE',  ( 1.000000000000000000, 0.000000000000000000, 0.000000000000000000 ) ) ;
#735 = ORIENTED_EDGE ( 'NONE', *, *, #497, .F. ) ;
#736 = ORIENTED_EDGE ( 'NONE', *, *, #610, .F. ) ;
#737 = ADVANCED_FACE ( 'NONE', ( #383 ), #144, .F. ) ;
#738 = DIRECTION ( 'NONE',  ( 0.000000000000000000, -1.000000000000000000, 0.000000000000000000 ) ) ;
#739 = VECTOR ( 'NONE', #474, 1000.000000000000000 ) ;
#740 = VECTOR ( 'NONE', #275, 1000.000000000000000 ) ;
#741 = LINE ( 'NONE', #49, #678 ) ;
#742 = ADVANCED_FACE ( 'NONE', ( #323 ), #374, .F. ) ;
#743 = VERTEX_POINT ( 'NONE', #38 ) ;
#744 = CARTESIAN_POINT ( 'NONE',  ( 4.000000000000000000, 0.000000000000000000, 4.000000000000000000 ) ) ;
#745 = VECTOR ( 'NONE', #738, 1000.000000000000000 ) ;
#746 = DIRECTION ( 'NONE',  ( -0.000000000000000000, -0.000000000000000000, -1.000000000000000000 ) ) ;
#747 = CARTESIAN_POINT ( 'NONE',  ( 0.000000000000000000, 0.000000000000000000, -10.00000000000000000 ) ) ;
#748 = ADVANCED_BREP_SHAPE_REPRESENTATION ( 'pcbtestprint', ( #477, #361, #641 ), #406 ) ;
#749 = LINE ( 'NONE', #408, #87 ) ;
#750 = PLANE ( 'NONE',  #151 ) ;
#751 = VERTEX_POINT ( 'NONE', #312 ) ;
#752 = DIRECTION ( 'NONE',  ( -0.000000000000000000, -0.000000000000000000, 1.000000000000000000 ) ) ;
#753 = VECTOR ( 'NONE', #461, 1000.000000000000000 ) ;
#754 = LINE ( 'NONE', #167, #740 ) ;
#755 = AXIS2_PLACEMENT_3D ( 'NONE', #272, #502, #202 ) ;
#756 = ORIENTED_EDGE ( 'NONE', *, *, #318, .T. ) ;
#757 = LINE ( 'NONE', #511, #342 ) ;
#758 = STYLED_ITEM ( 'NONE', ( #703 ), #477 ) ;
ENDSEC;
END-ISO-10303-21;
