ISO-10303-21;
HEADER;
FILE_DESCRIPTION (( 'STEP AP214' ),
    '1' );
FILE_NAME ('testprintagain.STEP',
    '2025-12-31T00:01:33',
    ( '' ),
    ( '' ),
    'SwSTEP 2.0',
    'SolidWorks 2025',
    '' );
FILE_SCHEMA (( 'AUTOMOTIVE_DESIGN' ));
ENDSEC;

DATA;
#1 = CARTESIAN_POINT ( 'NONE',  ( 0.000000000000000000, 0.000000000000000000, 3.000000000000000000 ) ) ;
#2 = CIRCLE ( 'NONE', #555, 2.049999999999999378 ) ;
#3 = VERTEX_POINT ( 'NONE', #571 ) ;
#4 = VECTOR ( 'NONE', #641, 1000.000000000000000 ) ;
#5 = DIRECTION ( 'NONE',  ( 1.000000000000000000, 0.000000000000000000, 0.000000000000000000 ) ) ;
#6 = ORIENTED_EDGE ( 'NONE', *, *, #633, .F. ) ;
#7 = DIRECTION ( 'NONE',  ( -0.000000000000000000, -0.000000000000000000, -1.000000000000000000 ) ) ;
#8 = EDGE_CURVE ( 'NONE', #682, #274, #757, .T. ) ;
#9 = DIRECTION ( 'NONE',  ( -3.210249818568650033E-16, -1.000000000000000000, 0.000000000000000000 ) ) ;
#10 = ORIENTED_EDGE ( 'NONE', *, *, #592, .F. ) ;
#11 = VECTOR ( 'NONE', #327, 1000.000000000000000 ) ;
#12 = DIRECTION ( 'NONE',  ( -0.000000000000000000, -0.000000000000000000, -1.000000000000000000 ) ) ;
#13 = PLANE ( 'NONE',  #603 ) ;
#14 = CYLINDRICAL_SURFACE ( 'NONE', #817, 2.049999999999999822 ) ;
#15 = ADVANCED_FACE ( 'NONE', ( #643 ), #512, .F. ) ;
#16 = VECTOR ( 'NONE', #304, 1000.000000000000000 ) ;
#17 = CARTESIAN_POINT ( 'NONE',  ( 0.000000000000000000, 8.000000000000000000, 3.000000000000000000 ) ) ;
#18 = LINE ( 'NONE', #356, #830 ) ;
#19 = CARTESIAN_POINT ( 'NONE',  ( 9.500000000000000000, 4.000000000000000000, 3.000000000000000000 ) ) ;
#20 = AXIS2_PLACEMENT_3D ( 'NONE', #258, #181, #798 ) ;
#21 = LINE ( 'NONE', #235, #627 ) ;
#22 = LINE ( 'NONE', #497, #568 ) ;
#23 = LINE ( 'NONE', #238, #214 ) ;
#24 = ORIENTED_EDGE ( 'NONE', *, *, #192, .F. ) ;
#25 = EDGE_CURVE ( 'NONE', #659, #471, #22, .T. ) ;
#26 = DIRECTION ( 'NONE',  ( -0.000000000000000000, -0.000000000000000000, -1.000000000000000000 ) ) ;
#27 = FACE_OUTER_BOUND ( 'NONE', #689, .T. ) ;
#28 = CARTESIAN_POINT ( 'NONE',  ( 17.60000000000000142, 4.000000000000000000, 0.000000000000000000 ) ) ;
#29 = ORIENTED_EDGE ( 'NONE', *, *, #78, .T. ) ;
#30 = EDGE_CURVE ( 'NONE', #833, #751, #849, .T. ) ;
#31 = AXIS2_PLACEMENT_3D ( 'NONE', #184, #206, #738 ) ;
#32 = CARTESIAN_POINT ( 'NONE',  ( 13.40000000000000036, 4.000000000000000000, 0.000000000000000000 ) ) ;
#33 = ORIENTED_EDGE ( 'NONE', *, *, #794, .F. ) ;
#34 = LINE ( 'NONE', #265, #496 ) ;
#35 = DIRECTION ( 'NONE',  ( -1.000000000000000000, 0.000000000000000000, 0.000000000000000000 ) ) ;
#36 = EDGE_CURVE ( 'NONE', #796, #311, #528, .T. ) ;
#37 = ORIENTED_EDGE ( 'NONE', *, *, #428, .F. ) ;
#38 = CARTESIAN_POINT ( 'NONE',  ( 16.86014705087354315, 5.600000000000000533, 0.000000000000000000 ) ) ;
#39 = VERTEX_POINT ( 'NONE', #17 ) ;
#40 = DIRECTION ( 'NONE',  ( 0.000000000000000000, 0.000000000000000000, 1.000000000000000000 ) ) ;
#41 = ORIENTED_EDGE ( 'NONE', *, *, #769, .T. ) ;
#42 = DIRECTION ( 'NONE',  ( 0.000000000000000000, 0.000000000000000000, 1.000000000000000000 ) ) ;
#43 = ORIENTED_EDGE ( 'NONE', *, *, #399, .F. ) ;
#44 =( NAMED_UNIT ( * ) SI_UNIT ( $, .STERADIAN. ) SOLID_ANGLE_UNIT ( ) );
#45 = VECTOR ( 'NONE', #303, 1000.000000000000000 ) ;
#46 = ORIENTED_EDGE ( 'NONE', *, *, #122, .F. ) ;
#47 = PLANE ( 'NONE',  #347 ) ;
#48 = EDGE_CURVE ( 'NONE', #172, #334, #298, .T. ) ;
#49 = FACE_OUTER_BOUND ( 'NONE', #199, .T. ) ;
#50 = ORIENTED_EDGE ( 'NONE', *, *, #72, .F. ) ;
#51 = VERTEX_POINT ( 'NONE', #309 ) ;
#52 = EDGE_CURVE ( 'NONE', #625, #140, #845, .T. ) ;
#53 = DIRECTION ( 'NONE',  ( 1.000000000000000000, 0.000000000000000000, 0.000000000000000000 ) ) ;
#54 = AXIS2_PLACEMENT_3D ( 'NONE', #333, #540, #614 ) ;
#55 = ORIENTED_EDGE ( 'NONE', *, *, #888, .F. ) ;
#56 = ORIENTED_EDGE ( 'NONE', *, *, #615, .F. ) ;
#57 = CARTESIAN_POINT ( 'NONE',  ( 8.149074391389369509, 5.575000000000000178, 3.000000000000000000 ) ) ;
#58 = EDGE_CURVE ( 'NONE', #751, #172, #221, .T. ) ;
#59 = CIRCLE ( 'NONE', #718, 2.049999999999999378 ) ;
#60 = CARTESIAN_POINT ( 'NONE',  ( 11.57499999999999929, 4.000000000000000000, 0.000000000000000000 ) ) ;
#61 = ORIENTED_EDGE ( 'NONE', *, *, #25, .F. ) ;
#62 = APPLICATION_CONTEXT ( 'automotive_design' ) ;
#63 = DIRECTION ( 'NONE',  ( 0.000000000000000000, 0.000000000000000000, 1.000000000000000000 ) ) ;
#64 = ORIENTED_EDGE ( 'NONE', *, *, #610, .F. ) ;
#65 = CARTESIAN_POINT ( 'NONE',  ( 8.149074391389369509, 5.575000000000000178, 3.000000000000000000 ) ) ;
#66 = ADVANCED_FACE ( 'NONE', ( #502 ), #152, .F. ) ;
#67 = DIRECTION ( 'NONE',  ( 1.000000000000000000, 0.000000000000000000, 0.000000000000000000 ) ) ;
#68 = ORIENTED_EDGE ( 'NONE', *, *, #422, .T. ) ;
#69 = VECTOR ( 'NONE', #495, 1000.000000000000000 ) ;
#70 = DIRECTION ( 'NONE',  ( -1.000000000000000000, -0.000000000000000000, -0.000000000000000000 ) ) ;
#71 = AXIS2_PLACEMENT_3D ( 'NONE', #539, #135, #389 ) ;
#72 = EDGE_CURVE ( 'NONE', #75, #39, #657, .T. ) ;
#73 = FACE_BOUND ( 'NONE', #233, .T. ) ;
#74 = CARTESIAN_POINT ( 'NONE',  ( 15.50000000000000000, 4.000000000000000000, 3.000000000000000000 ) ) ;
#75 = VERTEX_POINT ( 'NONE', #155 ) ;
#76 = DIRECTION ( 'NONE',  ( 0.000000000000000000, -1.000000000000000000, 0.000000000000000000 ) ) ;
#77 = VECTOR ( 'NONE', #157, 1000.000000000000000 ) ;
#78 = EDGE_CURVE ( 'NONE', #323, #3, #426, .T. ) ;
#79 = FACE_OUTER_BOUND ( 'NONE', #613, .T. ) ;
#80 = DIRECTION ( 'NONE',  ( 0.000000000000000000, 0.000000000000000000, 1.000000000000000000 ) ) ;
#81 = ORIENTED_EDGE ( 'NONE', *, *, #338, .F. ) ;
#82 =( NAMED_UNIT ( * ) PLANE_ANGLE_UNIT ( ) SI_UNIT ( $, .RADIAN. ) );
#83 = FACE_BOUND ( 'NONE', #359, .T. ) ;
#84 = ADVANCED_FACE ( 'NONE', ( #27 ), #587, .F. ) ;
#85 = ORIENTED_EDGE ( 'NONE', *, *, #122, .T. ) ;
#86 = AXIS2_PLACEMENT_3D ( 'NONE', #569, #287, #505 ) ;
#87 = DIRECTION ( 'NONE',  ( -0.000000000000000000, -0.000000000000000000, -1.000000000000000000 ) ) ;
#88 = DIRECTION ( 'NONE',  ( 0.000000000000000000, 0.000000000000000000, 1.000000000000000000 ) ) ;
#89 = DIRECTION ( 'NONE',  ( -1.000000000000000000, 0.000000000000000000, 0.000000000000000000 ) ) ;
#90 = EDGE_CURVE ( 'NONE', #334, #833, #517, .T. ) ;
#91 = CARTESIAN_POINT ( 'NONE',  ( 14.13985294912645507, 5.599999999999999645, 3.000000000000000000 ) ) ;
#92 = VECTOR ( 'NONE', #666, 1000.000000000000000 ) ;
#93 = ORIENTED_EDGE ( 'NONE', *, *, #443, .F. ) ;
#94 = SURFACE_SIDE_STYLE ('',( #187 ) ) ;
#95 = CARTESIAN_POINT ( 'NONE',  ( 0.000000000000000000, 0.000000000000000000, 0.000000000000000000 ) ) ;
#96 = CARTESIAN_POINT ( 'NONE',  ( 8.149074391389369509, 5.575000000000000178, 0.000000000000000000 ) ) ;
#97 = VECTOR ( 'NONE', #664, 1000.000000000000000 ) ;
#98 = ORIENTED_EDGE ( 'NONE', *, *, #216, .T. ) ;
#99 = CARTESIAN_POINT ( 'NONE',  ( 21.50000000000000000, 4.000000000000000000, 3.000000000000000000 ) ) ;
#100 = LINE ( 'NONE', #436, #97 ) ;
#101 = ORIENTED_EDGE ( 'NONE', *, *, #453, .F. ) ;
#102 =( NAMED_UNIT ( * ) PLANE_ANGLE_UNIT ( ) SI_UNIT ( $, .RADIAN. ) );
#103 = CIRCLE ( 'NONE', #545, 2.124999999999998224 ) ;
#104 = FACE_OUTER_BOUND ( 'NONE', #133, .T. ) ;
#105 = EDGE_LOOP ( 'NONE', ( #759, #64, #46, #546 ) ) ;
#106 = CARTESIAN_POINT ( 'NONE',  ( 15.50000000000000000, 4.000000000000000000, 3.000000000000000000 ) ) ;
#107 = ORIENTED_EDGE ( 'NONE', *, *, #580, .F. ) ;
#108 = LINE ( 'NONE', #857, #469 ) ;
#109 = ORIENTED_EDGE ( 'NONE', *, *, #252, .F. ) ;
#110 = DIRECTION ( 'NONE',  ( 0.000000000000000000, 0.000000000000000000, 1.000000000000000000 ) ) ;
#111 = VERTEX_POINT ( 'NONE', #429 ) ;
#112 = CARTESIAN_POINT ( 'NONE',  ( 17.60000000000000142, 4.000000000000000000, 3.000000000000000000 ) ) ;
#113 = EDGE_CURVE ( 'NONE', #831, #334, #21, .T. ) ;
#114 = ORIENTED_EDGE ( 'NONE', *, *, #90, .F. ) ;
#115 = CARTESIAN_POINT ( 'NONE',  ( 4.841640786499873172, 5.549999999999999822, 3.000000000000000000 ) ) ;
#116 = DIRECTION ( 'NONE',  ( 0.000000000000000000, -1.000000000000000000, 0.000000000000000000 ) ) ;
#117 = VECTOR ( 'NONE', #230, 1000.000000000000000 ) ;
#118 = VECTOR ( 'NONE', #570, 1000.000000000000000 ) ;
#119 = ORIENTED_EDGE ( 'NONE', *, *, #399, .T. ) ;
#120 = AXIS2_PLACEMENT_3D ( 'NONE', #690, #811, #462 ) ;
#121 = EDGE_LOOP ( 'NONE', ( #802, #81, #163, #481 ) ) ;
#122 = EDGE_CURVE ( 'NONE', #659, #280, #876, .T. ) ;
#123 = DIRECTION ( 'NONE',  ( -1.000000000000000000, 0.000000000000000000, -0.000000000000000000 ) ) ;
#124 = ORIENTED_EDGE ( 'NONE', *, *, #410, .T. ) ;
#125 = ORIENTED_EDGE ( 'NONE', *, *, #299, .T. ) ;
#126 = LINE ( 'NONE', #404, #11 ) ;
#127 = AXIS2_PLACEMENT_3D ( 'NONE', #795, #716, #730 ) ;
#128 = VERTEX_POINT ( 'NONE', #500 ) ;
#129 = ORIENTED_EDGE ( 'NONE', *, *, #763, .T. ) ;
#130 = DIRECTION ( 'NONE',  ( 0.000000000000000000, 0.000000000000000000, 1.000000000000000000 ) ) ;
#131 = ADVANCED_FACE ( 'NONE', ( #710 ), #423, .F. ) ;
#132 = LINE ( 'NONE', #115, #699 ) ;
#133 = EDGE_LOOP ( 'NONE', ( #810, #874, #10, #541 ) ) ;
#134 = CIRCLE ( 'NONE', #483, 2.124999999999998224 ) ;
#135 = DIRECTION ( 'NONE',  ( 0.000000000000000000, 0.000000000000000000, 1.000000000000000000 ) ) ;
#136 = ORIENTED_EDGE ( 'NONE', *, *, #648, .T. ) ;
#137 = CARTESIAN_POINT ( 'NONE',  ( 3.500000000000000000, 4.000000000000000000, 3.000000000000000000 ) ) ;
#138 = CIRCLE ( 'NONE', #639, 2.149999999999999023 ) ;
#139 = FACE_OUTER_BOUND ( 'NONE', #827, .T. ) ;
#140 = VERTEX_POINT ( 'NONE', #781 ) ;
#141 = ADVANCED_FACE ( 'NONE', ( #489, #83, #559, #73, #834, #766 ), #13, .T. ) ;
#142 = CARTESIAN_POINT ( 'NONE',  ( 3.500000000000000000, 4.000000000000000000, 3.000000000000000000 ) ) ;
#143 = LINE ( 'NONE', #300, #678 ) ;
#144 = CARTESIAN_POINT ( 'NONE',  ( 9.500000000000000000, 4.000000000000000000, 0.000000000000000000 ) ) ;
#145 = ORIENTED_EDGE ( 'NONE', *, *, #434, .F. ) ;
#146 = AXIS2_PLACEMENT_3D ( 'NONE', #144, #297, #5 ) ;
#147 = CARTESIAN_POINT ( 'NONE',  ( 30.99999999999999645, 0.000000000000000000, 3.000000000000000000 ) ) ;
#148 = EDGE_CURVE ( 'NONE', #831, #75, #143, .T. ) ;
#149 = CIRCLE ( 'NONE', #419, 2.100000000000000977 ) ;
#150 = DIRECTION ( 'NONE',  ( 1.000000000000000000, 0.000000000000000000, 0.000000000000000000 ) ) ;
#151 = CARTESIAN_POINT ( 'NONE',  ( 3.500000000000000000, 4.000000000000000000, 3.000000000000000000 ) ) ;
#152 = CYLINDRICAL_SURFACE ( 'NONE', #344, 2.149999999999999023 ) ;
#153 = DIRECTION ( 'NONE',  ( 1.000000000000000000, 0.000000000000000000, 0.000000000000000000 ) ) ;
#154 = DIRECTION ( 'NONE',  ( 1.000000000000000000, 3.188485162068863013E-16, 0.000000000000000000 ) ) ;
#155 = CARTESIAN_POINT ( 'NONE',  ( 30.99999999999999645, 8.000000000000000000, 3.000000000000000000 ) ) ;
#156 = SHAPE_DEFINITION_REPRESENTATION ( #381, #460 ) ;
#157 = DIRECTION ( 'NONE',  ( -0.000000000000000000, -0.000000000000000000, -1.000000000000000000 ) ) ;
#158 = DIRECTION ( 'NONE',  ( 0.000000000000000000, 0.000000000000000000, 1.000000000000000000 ) ) ;
#159 = ADVANCED_FACE ( 'NONE', ( #365 ), #432, .F. ) ;
#160 = ORIENTED_EDGE ( 'NONE', *, *, #36, .T. ) ;
#161 = AXIS2_PLACEMENT_3D ( 'NONE', #646, #640, #154 ) ;
#162 = DIRECTION ( 'NONE',  ( 0.000000000000000000, -0.000000000000000000, -1.000000000000000000 ) ) ;
#163 = ORIENTED_EDGE ( 'NONE', *, *, #179, .F. ) ;
#164 = PRESENTATION_STYLE_ASSIGNMENT (( #448 ) ) ;
#165 = PRODUCT_DEFINITION ( 'UNKNOWN', '', #894, #322 ) ;
#166 = CARTESIAN_POINT ( 'NONE',  ( 28.87840487520902144, 5.650000000000000355, 3.000000000000000000 ) ) ;
#167 = CARTESIAN_POINT ( 'NONE',  ( 1.450000000000000400, 4.000000000000000000, 0.000000000000000000 ) ) ;
#168 = ORIENTED_EDGE ( 'NONE', *, *, #192, .T. ) ;
#169 = DIRECTION ( 'NONE',  ( 0.000000000000000000, 0.000000000000000000, 1.000000000000000000 ) ) ;
#170 = DIRECTION ( 'NONE',  ( 0.000000000000000000, 0.000000000000000000, 1.000000000000000000 ) ) ;
#171 = AXIS2_PLACEMENT_3D ( 'NONE', #463, #681, #123 ) ;
#172 = VERTEX_POINT ( 'NONE', #296 ) ;
#173 = EDGE_CURVE ( 'NONE', #547, #856, #18, .T. ) ;
#174 = DIRECTION ( 'NONE',  ( 0.000000000000000000, 0.000000000000000000, 1.000000000000000000 ) ) ;
#175 = AXIS2_PLACEMENT_3D ( 'NONE', #19, #793, #231 ) ;
#176 = DIRECTION ( 'NONE',  ( 1.000000000000000000, 0.000000000000000000, 0.000000000000000000 ) ) ;
#177 = ORIENTED_EDGE ( 'NONE', *, *, #48, .T. ) ;
#178 = FACE_OUTER_BOUND ( 'NONE', #534, .T. ) ;
#179 = EDGE_CURVE ( 'NONE', #547, #687, #394, .T. ) ;
#180 = ORIENTED_EDGE ( 'NONE', *, *, #434, .T. ) ;
#181 = DIRECTION ( 'NONE',  ( -0.000000000000000000, -0.000000000000000000, -1.000000000000000000 ) ) ;
#182 = EDGE_CURVE ( 'NONE', #737, #682, #839, .T. ) ;
#183 = ORIENTED_EDGE ( 'NONE', *, *, #825, .F. ) ;
#184 = CARTESIAN_POINT ( 'NONE',  ( 9.500000000000000000, 4.000000000000000000, 3.000000000000000000 ) ) ;
#185 = AXIS2_PLACEMENT_3D ( 'NONE', #99, #234, #520 ) ;
#186 = EDGE_LOOP ( 'NONE', ( #374, #561, #452, #318 ) ) ;
#187 = SURFACE_STYLE_FILL_AREA ( #677 ) ;
#188 = EDGE_CURVE ( 'NONE', #201, #744, #219, .T. ) ;
#189 = ORIENTED_EDGE ( 'NONE', *, *, #350, .F. ) ;
#190 = CARTESIAN_POINT ( 'NONE',  ( 14.13985294912645507, 5.599999999999999645, 3.000000000000000000 ) ) ;
#191 = PLANE ( 'NONE',  #171 ) ;
#192 = EDGE_CURVE ( 'NONE', #856, #671, #2, .T. ) ;
#193 = ORIENTED_EDGE ( 'NONE', *, *, #337, .F. ) ;
#194 = CARTESIAN_POINT ( 'NONE',  ( 2.158359213500126828, 5.549999999999999822, 0.000000000000000000 ) ) ;
#195 = CARTESIAN_POINT ( 'NONE',  ( 0.000000000000000000, 0.000000000000000000, 3.000000000000000000 ) ) ;
#196 = AXIS2_PLACEMENT_3D ( 'NONE', #680, #110, #600 ) ;
#197 = ORIENTED_EDGE ( 'NONE', *, *, #660, .T. ) ;
#198 = CIRCLE ( 'NONE', #120, 2.149999999999999023 ) ;
#199 = EDGE_LOOP ( 'NONE', ( #691, #189, #431, #669 ) ) ;
#200 = CARTESIAN_POINT ( 'NONE',  ( 14.13985294912645507, 5.599999999999999645, 0.000000000000000000 ) ) ;
#201 = VERTEX_POINT ( 'NONE', #494 ) ;
#202 = ORIENTED_EDGE ( 'NONE', *, *, #148, .T. ) ;
#203 = ADVANCED_FACE ( 'NONE', ( #79 ), #848, .T. ) ;
#204 = DIRECTION ( 'NONE',  ( -1.000000000000000000, -0.000000000000000000, -0.000000000000000000 ) ) ;
#205 = EDGE_LOOP ( 'NONE', ( #599, #608, #383, #24 ) ) ;
#206 = DIRECTION ( 'NONE',  ( 0.000000000000000000, 0.000000000000000000, 1.000000000000000000 ) ) ;
#207 = VERTEX_POINT ( 'NONE', #775 ) ;
#208 = CARTESIAN_POINT ( 'NONE',  ( 30.99999999999999645, 8.000000000000000000, 0.000000000000000000 ) ) ;
#209 = MECHANICAL_DESIGN_GEOMETRIC_PRESENTATION_REPRESENTATION (  '', ( #533 ), #261 ) ;
#210 = EDGE_CURVE ( 'NONE', #471, #341, #240, .T. ) ;
#211 = CARTESIAN_POINT ( 'NONE',  ( 20.13069360623708448, 5.625000000000000000, 0.000000000000000000 ) ) ;
#212 = ORIENTED_EDGE ( 'NONE', *, *, #736, .F. ) ;
#213 = CARTESIAN_POINT ( 'NONE',  ( 30.99999999999999645, 0.000000000000000000, 0.000000000000000000 ) ) ;
#214 = VECTOR ( 'NONE', #790, 1000.000000000000000 ) ;
#215 = DIRECTION ( 'NONE',  ( 0.000000000000000000, -1.000000000000000000, 0.000000000000000000 ) ) ;
#216 = EDGE_CURVE ( 'NONE', #698, #323, #379, .T. ) ;
#217 = VERTEX_POINT ( 'NONE', #844 ) ;
#218 = DIRECTION ( 'NONE',  ( 0.000000000000000000, 0.000000000000000000, 1.000000000000000000 ) ) ;
#219 = LINE ( 'NONE', #650, #45 ) ;
#220 = CYLINDRICAL_SURFACE ( 'NONE', #395, 2.049999999999999822 ) ;
#221 = LINE ( 'NONE', #715, #743 ) ;
#222 = CARTESIAN_POINT ( 'NONE',  ( 9.500000000000000000, 4.000000000000000000, 0.000000000000000000 ) ) ;
#223 = ADVANCED_FACE ( 'NONE', ( #283 ), #220, .F. ) ;
#224 = CARTESIAN_POINT ( 'NONE',  ( 9.500000000000000000, 4.000000000000000000, 3.000000000000000000 ) ) ;
#225 = CARTESIAN_POINT ( 'NONE',  ( 0.000000000000000000, 8.000000000000000000, 3.000000000000000000 ) ) ;
#226 = AXIS2_PLACEMENT_3D ( 'NONE', #804, #169, #672 ) ;
#227 = CARTESIAN_POINT ( 'NONE',  ( 7.424999999999999822, 4.000000000000000000, 3.000000000000000000 ) ) ;
#228 = DIRECTION ( 'NONE',  ( 0.000000000000000000, 0.000000000000000000, 1.000000000000000000 ) ) ;
#229 = EDGE_CURVE ( 'NONE', #245, #311, #624, .T. ) ;
#230 = DIRECTION ( 'NONE',  ( 0.000000000000000000, 1.000000000000000000, 0.000000000000000000 ) ) ;
#231 = DIRECTION ( 'NONE',  ( -1.000000000000000000, 0.000000000000000000, 0.000000000000000000 ) ) ;
#232 = DIRECTION ( 'NONE',  ( 0.000000000000000000, 0.000000000000000000, 1.000000000000000000 ) ) ;
#233 = EDGE_LOOP ( 'NONE', ( #197, #68, #442, #160 ) ) ;
#234 = DIRECTION ( 'NONE',  ( -0.000000000000000000, -0.000000000000000000, -1.000000000000000000 ) ) ;
#235 = CARTESIAN_POINT ( 'NONE',  ( 30.99999999999999645, 0.000000000000000000, 3.000000000000000000 ) ) ;
#236 = DIRECTION ( 'NONE',  ( 1.000000000000000000, 0.000000000000000000, 0.000000000000000000 ) ) ;
#237 = AXIS2_PLACEMENT_3D ( 'NONE', #224, #158, #150 ) ;
#238 = CARTESIAN_POINT ( 'NONE',  ( 22.86930639376291197, 5.625000000000000000, 3.000000000000000000 ) ) ;
#239 = ORIENTED_EDGE ( 'NONE', *, *, #443, .T. ) ;
#240 = CIRCLE ( 'NONE', #146, 2.074999999999998845 ) ;
#241 = CIRCLE ( 'NONE', #71, 2.100000000000000977 ) ;
#242 = FACE_OUTER_BOUND ( 'NONE', #186, .T. ) ;
#243 = DIRECTION ( 'NONE',  ( -1.000000000000000000, 0.000000000000000000, 0.000000000000000000 ) ) ;
#244 = CARTESIAN_POINT ( 'NONE',  ( 19.37500000000000000, 4.000000000000000000, 3.000000000000000000 ) ) ;
#245 = VERTEX_POINT ( 'NONE', #767 ) ;
#246 = VECTOR ( 'NONE', #290, 1000.000000000000000 ) ;
#247 = DIRECTION ( 'NONE',  ( -0.000000000000000000, -0.000000000000000000, -1.000000000000000000 ) ) ;
#248 = EDGE_CURVE ( 'NONE', #637, #831, #636, .T. ) ;
#249 = CARTESIAN_POINT ( 'NONE',  ( 26.12159512479097501, 5.650000000000000355, 3.000000000000000000 ) ) ;
#250 = ORIENTED_EDGE ( 'NONE', *, *, #777, .T. ) ;
#251 = DIRECTION ( 'NONE',  ( -1.000000000000000000, -0.000000000000000000, -0.000000000000000000 ) ) ;
#252 = EDGE_CURVE ( 'NONE', #51, #245, #629, .T. ) ;
#253 = ORIENTED_EDGE ( 'NONE', *, *, #851, .T. ) ;
#254 = VECTOR ( 'NONE', #841, 1000.000000000000000 ) ;
#255 = ORIENTED_EDGE ( 'NONE', *, *, #777, .F. ) ;
#256 = DIRECTION ( 'NONE',  ( -0.000000000000000000, -0.000000000000000000, -1.000000000000000000 ) ) ;
#257 = EDGE_LOOP ( 'NONE', ( #183, #98, #29, #475 ) ) ;
#258 = CARTESIAN_POINT ( 'NONE',  ( 27.49999999999999645, 4.000000000000000000, 3.000000000000000000 ) ) ;
#259 = ORIENTED_EDGE ( 'NONE', *, *, #667, .T. ) ;
#260 = CARTESIAN_POINT ( 'NONE',  ( 2.158359213500126828, 5.549999999999999822, 3.000000000000000000 ) ) ;
#261 =( GEOMETRIC_REPRESENTATION_CONTEXT ( 3 ) GLOBAL_UNCERTAINTY_ASSIGNED_CONTEXT ( ( #673 ) ) GLOBAL_UNIT_ASSIGNED_CONTEXT ( ( #597, #102, #44 ) ) REPRESENTATION_CONTEXT ( 'NONE', 'WORKASPACE' ) );
#262 = ADVANCED_FACE ( 'NONE', ( #139 ), #840, .F. ) ;
#263 = LINE ( 'NONE', #270, #686 ) ;
#264 = ORIENTED_EDGE ( 'NONE', *, *, #592, .T. ) ;
#265 = CARTESIAN_POINT ( 'NONE',  ( 0.000000000000000000, 8.000000000000000000, 3.000000000000000000 ) ) ;
#266 = VECTOR ( 'NONE', #305, 1000.000000000000000 ) ;
#267 = FACE_BOUND ( 'NONE', #526, .T. ) ;
#268 = ORIENTED_EDGE ( 'NONE', *, *, #642, .T. ) ;
#269 = ORIENTED_EDGE ( 'NONE', *, *, #566, .F. ) ;
#270 = CARTESIAN_POINT ( 'NONE',  ( 8.149074391389369509, 5.575000000000000178, 3.000000000000000000 ) ) ;
#271 = AXIS2_PLACEMENT_3D ( 'NONE', #74, #80, #288 ) ;
#272 = VERTEX_POINT ( 'NONE', #702 ) ;
#273 = AXIS2_PLACEMENT_3D ( 'NONE', #325, #605, #409 ) ;
#274 = VERTEX_POINT ( 'NONE', #556 ) ;
#275 = CARTESIAN_POINT ( 'NONE',  ( 20.13069360623708448, 5.625000000000000000, 3.000000000000000000 ) ) ;
#276 = VECTOR ( 'NONE', #558, 1000.000000000000000 ) ;
#277 = ORIENTED_EDGE ( 'NONE', *, *, #598, .T. ) ;
#278 = EDGE_CURVE ( 'NONE', #727, #764, #501, .T. ) ;
#279 = CARTESIAN_POINT ( 'NONE',  ( 3.500000000000000000, 4.000000000000000000, 3.000000000000000000 ) ) ;
#280 = VERTEX_POINT ( 'NONE', #565 ) ;
#281 = ADVANCED_FACE ( 'NONE', ( #693 ), #14, .F. ) ;
#282 = VECTOR ( 'NONE', #439, 1000.000000000000000 ) ;
#283 = FACE_OUTER_BOUND ( 'NONE', #871, .T. ) ;
#284 = ORIENTED_EDGE ( 'NONE', *, *, #90, .T. ) ;
#285 = FACE_OUTER_BOUND ( 'NONE', #205, .T. ) ;
#286 = ADVANCED_FACE ( 'NONE', ( #832 ), #413, .T. ) ;
#287 = DIRECTION ( 'NONE',  ( -0.000000000000000000, -0.000000000000000000, -1.000000000000000000 ) ) ;
#288 = DIRECTION ( 'NONE',  ( 1.000000000000000000, 0.000000000000000000, 0.000000000000000000 ) ) ;
#289 = EDGE_LOOP ( 'NONE', ( #180, #119, #269, #584 ) ) ;
#290 = DIRECTION ( 'NONE',  ( -1.000000000000000000, -0.000000000000000000, -0.000000000000000000 ) ) ;
#291 = CARTESIAN_POINT ( 'NONE',  ( 3.500000000000000000, 4.000000000000000000, 3.000000000000000000 ) ) ;
#292 = AXIS2_PLACEMENT_3D ( 'NONE', #611, #130, #53 ) ;
#293 = DIRECTION ( 'NONE',  ( 0.000000000000000000, -0.000000000000000000, -1.000000000000000000 ) ) ;
#294 = VERTEX_POINT ( 'NONE', #211 ) ;
#295 = LINE ( 'NONE', #355, #865 ) ;
#296 = CARTESIAN_POINT ( 'NONE',  ( 0.000000000000000000, 0.000000000000000000, 0.000000000000000000 ) ) ;
#297 = DIRECTION ( 'NONE',  ( 0.000000000000000000, 0.000000000000000000, 1.000000000000000000 ) ) ;
#298 = LINE ( 'NONE', #95, #645 ) ;
#299 = EDGE_CURVE ( 'NONE', #476, #727, #586, .T. ) ;
#300 = CARTESIAN_POINT ( 'NONE',  ( 30.99999999999999645, 0.000000000000000000, 3.000000000000000000 ) ) ;
#301 = CARTESIAN_POINT ( 'NONE',  ( 0.000000000000000000, 8.000000000000000000, 0.000000000000000000 ) ) ;
#302 =( NAMED_UNIT ( * ) SI_UNIT ( $, .STERADIAN. ) SOLID_ANGLE_UNIT ( ) );
#303 = DIRECTION ( 'NONE',  ( -1.000000000000000000, -0.000000000000000000, -0.000000000000000000 ) ) ;
#304 = DIRECTION ( 'NONE',  ( -1.000000000000000000, -0.000000000000000000, -0.000000000000000000 ) ) ;
#305 = DIRECTION ( 'NONE',  ( -0.000000000000000000, -0.000000000000000000, -1.000000000000000000 ) ) ;
#306 = ORIENTED_EDGE ( 'NONE', *, *, #278, .F. ) ;
#307 = EDGE_CURVE ( 'NONE', #217, #294, #346, .T. ) ;
#308 = DIRECTION ( 'NONE',  ( 1.000000000000000000, 0.000000000000000000, 0.000000000000000000 ) ) ;
#309 = CARTESIAN_POINT ( 'NONE',  ( 17.60000000000000142, 4.000000000000000000, 3.000000000000000000 ) ) ;
#310 = CARTESIAN_POINT ( 'NONE',  ( 0.000000000000000000, 8.000000000000000000, 0.000000000000000000 ) ) ;
#311 = VERTEX_POINT ( 'NONE', #38 ) ;
#312 = DIRECTION ( 'NONE',  ( 1.000000000000000000, 0.000000000000000000, 0.000000000000000000 ) ) ;
#313 = ORIENTED_EDGE ( 'NONE', *, *, #606, .T. ) ;
#314 = DIRECTION ( 'NONE',  ( 1.000000000000000000, 0.000000000000000000, 0.000000000000000000 ) ) ;
#315 = ORIENTED_EDGE ( 'NONE', *, *, #566, .T. ) ;
#316 = CIRCLE ( 'NONE', #749, 2.049999999999999378 ) ;
#317 = DIRECTION ( 'NONE',  ( 1.000000000000000000, 0.000000000000000000, 0.000000000000000000 ) ) ;
#318 = ORIENTED_EDGE ( 'NONE', *, *, #537, .F. ) ;
#319 = DIRECTION ( 'NONE',  ( 0.000000000000000000, 1.000000000000000000, 0.000000000000000000 ) ) ;
#320 = ORIENTED_EDGE ( 'NONE', *, *, #633, .T. ) ;
#321 = DIRECTION ( 'NONE',  ( 1.000000000000000000, 0.000000000000000000, 0.000000000000000000 ) ) ;
#322 = PRODUCT_DEFINITION_CONTEXT ( 'detailed design', #466, 'design' ) ;
#323 = VERTEX_POINT ( 'NONE', #384 ) ;
#324 = ADVANCED_FACE ( 'NONE', ( #882 ), #480, .F. ) ;
#325 = CARTESIAN_POINT ( 'NONE',  ( 21.50000000000000000, 4.000000000000000000, 3.000000000000000000 ) ) ;
#326 = ORIENTED_EDGE ( 'NONE', *, *, #499, .F. ) ;
#327 = DIRECTION ( 'NONE',  ( -0.000000000000000000, -0.000000000000000000, -1.000000000000000000 ) ) ;
#328 = ORIENTED_EDGE ( 'NONE', *, *, #113, .T. ) ;
#329 = CARTESIAN_POINT ( 'NONE',  ( 0.000000000000000000, 0.000000000000000000, 3.000000000000000000 ) ) ;
#330 = DIRECTION ( 'NONE',  ( -0.000000000000000000, -0.000000000000000000, -1.000000000000000000 ) ) ;
#331 = ORIENTED_EDGE ( 'NONE', *, *, #248, .T. ) ;
#332 = VECTOR ( 'NONE', #652, 1000.000000000000000 ) ;
#333 = CARTESIAN_POINT ( 'NONE',  ( 9.500000000000000000, 4.000000000000000000, 0.000000000000000000 ) ) ;
#334 = VERTEX_POINT ( 'NONE', #829 ) ;
#335 = ORIENTED_EDGE ( 'NONE', *, *, #610, .T. ) ;
#336 = CARTESIAN_POINT ( 'NONE',  ( 4.841640786499873172, 5.549999999999999822, 3.000000000000000000 ) ) ;
#337 = EDGE_CURVE ( 'NONE', #128, #682, #543, .T. ) ;
#338 = EDGE_CURVE ( 'NONE', #687, #748, #801, .T. ) ;
#339 = ORIENTED_EDGE ( 'NONE', *, *, #897, .T. ) ;
#340 = DIRECTION ( 'NONE',  ( 0.000000000000000000, 0.000000000000000000, 1.000000000000000000 ) ) ;
#341 = VERTEX_POINT ( 'NONE', #525 ) ;
#342 = DIRECTION ( 'NONE',  ( -0.000000000000000000, -0.000000000000000000, -1.000000000000000000 ) ) ;
#343 = ORIENTED_EDGE ( 'NONE', *, *, #504, .T. ) ;
#344 = AXIS2_PLACEMENT_3D ( 'NONE', #506, #782, #89 ) ;
#345 = AXIS2_PLACEMENT_3D ( 'NONE', #595, #758, #741 ) ;
#346 = LINE ( 'NONE', #631, #511 ) ;
#347 = AXIS2_PLACEMENT_3D ( 'NONE', #329, #319, #814 ) ;
#348 = ORIENTED_EDGE ( 'NONE', *, *, #188, .T. ) ;
#349 = PRODUCT_CONTEXT ( 'NONE', #62, 'mechanical' ) ;
#350 = EDGE_CURVE ( 'NONE', #687, #671, #132, .T. ) ;
#351 = DIRECTION ( 'NONE',  ( -1.000000000000000000, 0.000000000000000000, -0.000000000000000000 ) ) ;
#352 = CARTESIAN_POINT ( 'NONE',  ( 27.49999999999999645, 4.000000000000000000, 3.000000000000000000 ) ) ;
#353 = AXIS2_PLACEMENT_3D ( 'NONE', #482, #76, #572 ) ;
#354 = ORIENTED_EDGE ( 'NONE', *, *, #113, .F. ) ;
#355 = CARTESIAN_POINT ( 'NONE',  ( 29.64999999999999503, 4.000000000000000000, 3.000000000000000000 ) ) ;
#356 = CARTESIAN_POINT ( 'NONE',  ( 5.549999999999998934, 4.000000000000000000, 3.000000000000000000 ) ) ;
#357 = EDGE_CURVE ( 'NONE', #625, #659, #662, .T. ) ;
#358 = CARTESIAN_POINT ( 'NONE',  ( 8.149074391389369509, 5.575000000000000178, 3.000000000000000000 ) ) ;
#359 = EDGE_LOOP ( 'NONE', ( #679, #816, #268, #168 ) ) ;
#360 = CARTESIAN_POINT ( 'NONE',  ( 5.549999999999998934, 4.000000000000000000, 0.000000000000000000 ) ) ;
#361 = DIRECTION ( 'NONE',  ( 0.000000000000000000, 0.000000000000000000, 1.000000000000000000 ) ) ;
#362 = AXIS2_PLACEMENT_3D ( 'NONE', #861, #708, #243 ) ;
#363 = ORIENTED_EDGE ( 'NONE', *, *, #728, .T. ) ;
#364 = AXIS2_PLACEMENT_3D ( 'NONE', #647, #651, #367 ) ;
#365 = FACE_OUTER_BOUND ( 'NONE', #289, .T. ) ;
#366 = CIRCLE ( 'NONE', #226, 2.074999999999998845 ) ;
#367 = DIRECTION ( 'NONE',  ( 1.000000000000000000, 0.000000000000000000, 0.000000000000000000 ) ) ;
#368 = FACE_OUTER_BOUND ( 'NONE', #447, .T. ) ;
#369 = VERTEX_POINT ( 'NONE', #393 ) ;
#370 = LINE ( 'NONE', #852, #92 ) ;
#371 = VECTOR ( 'NONE', #204, 1000.000000000000000 ) ;
#372 = DIRECTION ( 'NONE',  ( -0.000000000000000000, -1.000000000000000000, -0.000000000000000000 ) ) ;
#373 = DIRECTION ( 'NONE',  ( -1.000000000000000000, 3.210249818568650033E-16, -0.000000000000000000 ) ) ;
#374 = ORIENTED_EDGE ( 'NONE', *, *, #504, .F. ) ;
#375 = ADVANCED_FACE ( 'NONE', ( #670 ), #47, .F. ) ;
#376 = CARTESIAN_POINT ( 'NONE',  ( 19.37500000000000000, 4.000000000000000000, 0.000000000000000000 ) ) ;
#377 = CARTESIAN_POINT ( 'NONE',  ( 21.50000000000000000, 4.000000000000000000, 0.000000000000000000 ) ) ;
#378 = ORIENTED_EDGE ( 'NONE', *, *, #667, .F. ) ;
#379 = CIRCLE ( 'NONE', #417, 2.149999999999999023 ) ;
#380 = AXIS2_PLACEMENT_3D ( 'NONE', #622, #895, #314 ) ;
#381 = PRODUCT_DEFINITION_SHAPE ( 'NONE', 'NONE',  #165 ) ;
#382 = CARTESIAN_POINT ( 'NONE',  ( 27.49999999999999645, 4.000000000000000000, 0.000000000000000000 ) ) ;
#383 = ORIENTED_EDGE ( 'NONE', *, *, #350, .T. ) ;
#384 = CARTESIAN_POINT ( 'NONE',  ( 28.87840487520902144, 5.650000000000000355, 3.000000000000000000 ) ) ;
#385 = ORIENTED_EDGE ( 'NONE', *, *, #307, .T. ) ;
#386 = AXIS2_PLACEMENT_3D ( 'NONE', #838, #218, #770 ) ;
#387 = CYLINDRICAL_SURFACE ( 'NONE', #880, 2.099999999999999645 ) ;
#388 = ORIENTED_EDGE ( 'NONE', *, *, #872, .T. ) ;
#389 = DIRECTION ( 'NONE',  ( 1.000000000000000000, 0.000000000000000000, 0.000000000000000000 ) ) ;
#390 = ORIENTED_EDGE ( 'NONE', *, *, #648, .F. ) ;
#391 = DIRECTION ( 'NONE',  ( -0.000000000000000000, -0.000000000000000000, -1.000000000000000000 ) ) ;
#392 = ORIENTED_EDGE ( 'NONE', *, *, #8, .F. ) ;
#393 = CARTESIAN_POINT ( 'NONE',  ( 14.13985294912645507, 5.599999999999999645, -0.000000000000000000 ) ) ;
#394 = CIRCLE ( 'NONE', #479, 2.049999999999999378 ) ;
#395 = AXIS2_PLACEMENT_3D ( 'NONE', #151, #342, #560 ) ;
#396 = DIRECTION ( 'NONE',  ( 0.000000000000000000, 0.000000000000000000, 1.000000000000000000 ) ) ;
#397 = ORIENTED_EDGE ( 'NONE', *, *, #606, .F. ) ;
#398 = ORIENTED_EDGE ( 'NONE', *, *, #210, .F. ) ;
#399 = EDGE_CURVE ( 'NONE', #712, #529, #873, .T. ) ;
#400 = CARTESIAN_POINT ( 'NONE',  ( 2.158359213500126828, 5.549999999999999822, 3.000000000000000000 ) ) ;
#401 = ORIENTED_EDGE ( 'NONE', *, *, #428, .T. ) ;
#402 = ORIENTED_EDGE ( 'NONE', *, *, #8, .T. ) ;
#403 = CIRCLE ( 'NONE', #292, 2.049999999999999378 ) ;
#404 = CARTESIAN_POINT ( 'NONE',  ( 26.12159512479097501, 5.650000000000000355, 3.000000000000000000 ) ) ;
#405 = ORIENTED_EDGE ( 'NONE', *, *, #229, .F. ) ;
#406 = CARTESIAN_POINT ( 'NONE',  ( 21.50000000000000000, 4.000000000000000000, 3.000000000000000000 ) ) ;
#407 = ORIENTED_EDGE ( 'NONE', *, *, #422, .F. ) ;
#408 = VECTOR ( 'NONE', #585, 1000.000000000000000 ) ;
#409 = DIRECTION ( 'NONE',  ( 1.000000000000000000, 0.000000000000000000, 0.000000000000000000 ) ) ;
#410 = EDGE_CURVE ( 'NONE', #727, #51, #149, .T. ) ;
#411 = ORIENTED_EDGE ( 'NONE', *, *, #229, .T. ) ;
#412 = FACE_OUTER_BOUND ( 'NONE', #617, .T. ) ;
#413 = PLANE ( 'NONE',  #858 ) ;
#414 = ORIENTED_EDGE ( 'NONE', *, *, #410, .F. ) ;
#415 = CYLINDRICAL_SURFACE ( 'NONE', #474, 2.074999999999999734 ) ;
#416 = DIRECTION ( 'NONE',  ( 0.000000000000000000, 0.000000000000000000, -1.000000000000000000 ) ) ;
#417 = AXIS2_PLACEMENT_3D ( 'NONE', #352, #63, #418 ) ;
#418 = DIRECTION ( 'NONE',  ( 1.000000000000000000, 0.000000000000000000, 0.000000000000000000 ) ) ;
#419 = AXIS2_PLACEMENT_3D ( 'NONE', #451, #42, #878 ) ;
#420 = VERTEX_POINT ( 'NONE', #194 ) ;
#421 = APPLICATION_PROTOCOL_DEFINITION ( 'draft international standard', 'automotive_design', 1998, #62 ) ;
#422 = EDGE_CURVE ( 'NONE', #369, #764, #241, .T. ) ;
#423 = CYLINDRICAL_SURFACE ( 'NONE', #86, 2.099999999999999645 ) ;
#424 = CARTESIAN_POINT ( 'NONE',  ( 13.40000000000000036, 4.000000000000000000, 3.000000000000000000 ) ) ;
#425 = AXIS2_PLACEMENT_3D ( 'NONE', #222, #228, #503 ) ;
#426 = LINE ( 'NONE', #166, #282 ) ;
#427 = CARTESIAN_POINT ( 'NONE',  ( 26.12159512479097501, 5.650000000000000355, 3.000000000000000000 ) ) ;
#428 = EDGE_CURVE ( 'NONE', #476, #369, #530, .T. ) ;
#429 = CARTESIAN_POINT ( 'NONE',  ( 1.450000000000000400, 4.000000000000000000, 3.000000000000000000 ) ) ;
#430 = PRODUCT ( 'testprintagain', 'testprintagain', '', ( #349 ) ) ;
#431 = ORIENTED_EDGE ( 'NONE', *, *, #338, .T. ) ;
#432 = CYLINDRICAL_SURFACE ( 'NONE', #786, 2.124999999999998224 ) ;
#433 = VECTOR ( 'NONE', #714, 1000.000000000000000 ) ;
#434 = EDGE_CURVE ( 'NONE', #744, #712, #772, .T. ) ;
#435 = CARTESIAN_POINT ( 'NONE',  ( 15.50000000000000000, 4.000000000000000000, 0.000000000000000000 ) ) ;
#436 = CARTESIAN_POINT ( 'NONE',  ( 0.000000000000000000, 0.000000000000000000, 3.000000000000000000 ) ) ;
#437 = ORIENTED_EDGE ( 'NONE', *, *, #888, .T. ) ;
#438 = DIRECTION ( 'NONE',  ( -1.000000000000000000, 0.000000000000000000, 0.000000000000000000 ) ) ;
#439 = DIRECTION ( 'NONE',  ( -0.000000000000000000, -0.000000000000000000, -1.000000000000000000 ) ) ;
#440 = EDGE_CURVE ( 'NONE', #39, #751, #34, .T. ) ;
#441 = CARTESIAN_POINT ( 'NONE',  ( 29.64999999999999503, 4.000000000000000000, 3.000000000000000000 ) ) ;
#442 = ORIENTED_EDGE ( 'NONE', *, *, #736, .T. ) ;
#443 = EDGE_CURVE ( 'NONE', #712, #207, #103, .T. ) ;
#444 = FILL_AREA_STYLE_COLOUR ( '', #576 ) ;
#445 = VECTOR ( 'NONE', #373, 1000.000000000000000 ) ;
#446 = CARTESIAN_POINT ( 'NONE',  ( 15.50000000000000000, 4.000000000000000000, 0.000000000000000000 ) ) ;
#447 = EDGE_LOOP ( 'NONE', ( #284, #6, #739, #328 ) ) ;
#448 = SURFACE_STYLE_USAGE ( .BOTH. , #94 ) ;
#449 = PLANE ( 'NONE',  #612 ) ;
#450 = ORIENTED_EDGE ( 'NONE', *, *, #216, .F. ) ;
#451 = CARTESIAN_POINT ( 'NONE',  ( 15.50000000000000000, 4.000000000000000000, 3.000000000000000000 ) ) ;
#452 = ORIENTED_EDGE ( 'NONE', *, *, #788, .T. ) ;
#453 = EDGE_CURVE ( 'NONE', #737, #698, #198, .T. ) ;
#454 = CARTESIAN_POINT ( 'NONE',  ( 3.500000000000000000, 4.000000000000000000, 0.000000000000000000 ) ) ;
#455 = AXIS2_PLACEMENT_3D ( 'NONE', #864, #174, #317 ) ;
#456 = UNCERTAINTY_MEASURE_WITH_UNIT (LENGTH_MEASURE( 1.000000000000000082E-05 ), #709, 'distance_accuracy_value', 'NONE');
#457 = DIRECTION ( 'NONE',  ( -0.000000000000000000, -0.000000000000000000, -1.000000000000000000 ) ) ;
#458 = ORIENTED_EDGE ( 'NONE', *, *, #825, .T. ) ;
#459 = DIRECTION ( 'NONE',  ( -0.000000000000000000, -0.000000000000000000, -1.000000000000000000 ) ) ;
#460 = ADVANCED_BREP_SHAPE_REPRESENTATION ( 'testprintagain', ( #575, #386 ), #634 ) ;
#461 = EDGE_LOOP ( 'NONE', ( #124, #623, #212, #306 ) ) ;
#462 = DIRECTION ( 'NONE',  ( 1.000000000000000000, 0.000000000000000000, 0.000000000000000000 ) ) ;
#463 = CARTESIAN_POINT ( 'NONE',  ( 0.000000000000000000, 0.000000000000000000, 3.000000000000000000 ) ) ;
#464 = ORIENTED_EDGE ( 'NONE', *, *, #788, .F. ) ;
#465 = DIRECTION ( 'NONE',  ( -1.000000000000000000, -0.000000000000000000, -0.000000000000000000 ) ) ;
#466 = APPLICATION_CONTEXT ( 'automotive_design' ) ;
#467 = AXIS2_PLACEMENT_3D ( 'NONE', #225, #215, #293 ) ;
#468 = CARTESIAN_POINT ( 'NONE',  ( 26.12159512479097501, 5.650000000000000355, 0.000000000000000000 ) ) ;
#469 = VECTOR ( 'NONE', #26, 1000.000000000000000 ) ;
#470 = EDGE_LOOP ( 'NONE', ( #313, #478, #193, #378 ) ) ;
#471 = VERTEX_POINT ( 'NONE', #60 ) ;
#472 = EDGE_CURVE ( 'NONE', #207, #201, #860, .T. ) ;
#473 = DIRECTION ( 'NONE',  ( -1.000000000000000000, -3.188485162068863013E-16, -0.000000000000000000 ) ) ;
#474 = AXIS2_PLACEMENT_3D ( 'NONE', #696, #12, #846 ) ;
#475 = ORIENTED_EDGE ( 'NONE', *, *, #728, .F. ) ;
#476 = VERTEX_POINT ( 'NONE', #869 ) ;
#477 = CARTESIAN_POINT ( 'NONE',  ( 27.49999999999999645, 4.000000000000000000, 3.000000000000000000 ) ) ;
#478 = ORIENTED_EDGE ( 'NONE', *, *, #182, .T. ) ;
#479 = AXIS2_PLACEMENT_3D ( 'NONE', #291, #361, #564 ) ;
#480 = CYLINDRICAL_SURFACE ( 'NONE', #345, 2.074999999999999734 ) ;
#481 = ORIENTED_EDGE ( 'NONE', *, *, #485, .F. ) ;
#482 = CARTESIAN_POINT ( 'NONE',  ( 20.13069360623708448, 5.625000000000000000, 3.000000000000000000 ) ) ;
#483 = AXIS2_PLACEMENT_3D ( 'NONE', #532, #40, #321 ) ;
#484 = CARTESIAN_POINT ( 'NONE',  ( 3.500000000000000000, 4.000000000000000000, 3.000000000000000000 ) ) ;
#485 = EDGE_CURVE ( 'NONE', #111, #547, #745, .T. ) ;
#486 = ORIENTED_EDGE ( 'NONE', *, *, #615, .T. ) ;
#487 = CARTESIAN_POINT ( 'NONE',  ( 10.85092560861063049, 5.574999999999999289, 3.000000000000000000 ) ) ;
#488 = AXIS2_PLACEMENT_3D ( 'NONE', #249, #593, #162 ) ;
#489 = FACE_OUTER_BOUND ( 'NONE', #542, .T. ) ;
#490 = DIRECTION ( 'NONE',  ( 1.000000000000000000, -3.210249818568650033E-16, 0.000000000000000000 ) ) ;
#491 = ORIENTED_EDGE ( 'NONE', *, *, #357, .T. ) ;
#492 = ADVANCED_FACE ( 'NONE', ( #178 ), #732, .F. ) ;
#493 = DIRECTION ( 'NONE',  ( -1.000000000000000000, 0.000000000000000000, 0.000000000000000000 ) ) ;
#494 = CARTESIAN_POINT ( 'NONE',  ( 22.86930639376291197, 5.625000000000000000, 3.000000000000000000 ) ) ;
#495 = DIRECTION ( 'NONE',  ( 1.000000000000000000, 0.000000000000000000, 0.000000000000000000 ) ) ;
#496 = VECTOR ( 'NONE', #755, 1000.000000000000000 ) ;
#497 = CARTESIAN_POINT ( 'NONE',  ( 11.57499999999999929, 4.000000000000000000, 3.000000000000000000 ) ) ;
#498 = DIRECTION ( 'NONE',  ( 0.000000000000000000, 0.000000000000000000, 1.000000000000000000 ) ) ;
#499 = EDGE_CURVE ( 'NONE', #111, #791, #108, .T. ) ;
#500 = CARTESIAN_POINT ( 'NONE',  ( 26.12159512479097501, 5.650000000000000355, 0.000000000000000000 ) ) ;
#501 = LINE ( 'NONE', #424, #4 ) ;
#502 = FACE_OUTER_BOUND ( 'NONE', #257, .T. ) ;
#503 = DIRECTION ( 'NONE',  ( 1.000000000000000000, 0.000000000000000000, 0.000000000000000000 ) ) ;
#504 = EDGE_CURVE ( 'NONE', #207, #665, #602, .T. ) ;
#505 = DIRECTION ( 'NONE',  ( -1.000000000000000000, 0.000000000000000000, 0.000000000000000000 ) ) ;
#506 = CARTESIAN_POINT ( 'NONE',  ( 27.49999999999999645, 4.000000000000000000, 3.000000000000000000 ) ) ;
#507 = CARTESIAN_POINT ( 'NONE',  ( 2.158359213500126828, 5.549999999999999822, 3.000000000000000000 ) ) ;
#508 = ORIENTED_EDGE ( 'NONE', *, *, #307, .F. ) ;
#509 = ADVANCED_FACE ( 'NONE', ( #242 ), #516, .F. ) ;
#510 = VECTOR ( 'NONE', #779, 1000.000000000000000 ) ;
#511 = VECTOR ( 'NONE', #465, 1000.000000000000000 ) ;
#512 = CYLINDRICAL_SURFACE ( 'NONE', #175, 2.074999999999999734 ) ;
#513 = AXIS2_PLACEMENT_3D ( 'NONE', #279, #553, #806 ) ;
#514 = CARTESIAN_POINT ( 'NONE',  ( 0.000000000000000000, 0.000000000000000000, 3.000000000000000000 ) ) ;
#515 = ORIENTED_EDGE ( 'NONE', *, *, #252, .T. ) ;
#516 = CYLINDRICAL_SURFACE ( 'NONE', #185, 2.124999999999998224 ) ;
#517 = LINE ( 'NONE', #213, #117 ) ;
#518 = DIRECTION ( 'NONE',  ( 0.000000000000000000, 0.000000000000000000, -1.000000000000000000 ) ) ;
#519 = ORIENTED_EDGE ( 'NONE', *, *, #499, .T. ) ;
#520 = DIRECTION ( 'NONE',  ( -1.000000000000000000, 0.000000000000000000, 0.000000000000000000 ) ) ;
#521 = VECTOR ( 'NONE', #330, 1000.000000000000000 ) ;
#522 = PLANE ( 'NONE',  #127 ) ;
#523 = EDGE_LOOP ( 'NONE', ( #264, #331, #202, #582 ) ) ;
#524 = ADVANCED_FACE ( 'NONE', ( #591 ), #719, .F. ) ;
#525 = CARTESIAN_POINT ( 'NONE',  ( 10.85092560861063049, 5.574999999999999289, 0.000000000000000000 ) ) ;
#526 = EDGE_LOOP ( 'NONE', ( #800, #255, #109, #414 ) ) ;
#527 = CARTESIAN_POINT ( 'NONE',  ( 0.000000000000000000, 0.000000000000000000, 3.000000000000000000 ) ) ;
#528 = CIRCLE ( 'NONE', #803, 2.100000000000000977 ) ;
#529 = VERTEX_POINT ( 'NONE', #376 ) ;
#530 = LINE ( 'NONE', #190, #588 ) ;
#531 = EDGE_LOOP ( 'NONE', ( #277, #752, #390, #590 ) ) ;
#532 = CARTESIAN_POINT ( 'NONE',  ( 21.50000000000000000, 4.000000000000000000, 0.000000000000000000 ) ) ;
#533 = STYLED_ITEM ( 'NONE', ( #164 ), #575 ) ;
#534 = EDGE_LOOP ( 'NONE', ( #125, #685, #407, #37 ) ) ;
#535 = DIRECTION ( 'NONE',  ( 1.000000000000000000, 0.000000000000000000, 0.000000000000000000 ) ) ;
#536 = LINE ( 'NONE', #468, #371 ) ;
#537 = EDGE_CURVE ( 'NONE', #665, #217, #134, .T. ) ;
#538 = ORIENTED_EDGE ( 'NONE', *, *, #769, .F. ) ;
#539 = CARTESIAN_POINT ( 'NONE',  ( 15.50000000000000000, 4.000000000000000000, 0.000000000000000000 ) ) ;
#540 = DIRECTION ( 'NONE',  ( 0.000000000000000000, 0.000000000000000000, 1.000000000000000000 ) ) ;
#541 = ORIENTED_EDGE ( 'NONE', *, *, #440, .T. ) ;
#542 = EDGE_LOOP ( 'NONE', ( #785, #892, #114, #620 ) ) ;
#543 = CIRCLE ( 'NONE', #196, 2.149999999999999023 ) ;
#544 = FACE_BOUND ( 'NONE', #121, .T. ) ;
#545 = AXIS2_PLACEMENT_3D ( 'NONE', #406, #340, #535 ) ;
#546 = ORIENTED_EDGE ( 'NONE', *, *, #357, .F. ) ;
#547 = VERTEX_POINT ( 'NONE', #792 ) ;
#548 = EDGE_CURVE ( 'NONE', #51, #796, #809, .T. ) ;
#549 = CARTESIAN_POINT ( 'NONE',  ( 4.841640786499873172, 5.549999999999999822, 0.000000000000000000 ) ) ;
#550 = AXIS2_PLACEMENT_3D ( 'NONE', #137, #567, #842 ) ;
#551 = ORIENTED_EDGE ( 'NONE', *, *, #660, .F. ) ;
#552 = ADVANCED_FACE ( 'NONE', ( #725 ), #387, .F. ) ;
#553 = DIRECTION ( 'NONE',  ( 0.000000000000000000, 0.000000000000000000, 1.000000000000000000 ) ) ;
#554 = EDGE_LOOP ( 'NONE', ( #177, #354, #557, #129 ) ) ;
#555 = AXIS2_PLACEMENT_3D ( 'NONE', #577, #88, #581 ) ;
#556 = CARTESIAN_POINT ( 'NONE',  ( 29.64999999999999503, 4.000000000000000000, 0.000000000000000000 ) ) ;
#557 = ORIENTED_EDGE ( 'NONE', *, *, #248, .F. ) ;
#558 = DIRECTION ( 'NONE',  ( -0.000000000000000000, -0.000000000000000000, -1.000000000000000000 ) ) ;
#559 = FACE_BOUND ( 'NONE', #818, .T. ) ;
#560 = DIRECTION ( 'NONE',  ( -1.000000000000000000, 0.000000000000000000, 0.000000000000000000 ) ) ;
#561 = ORIENTED_EDGE ( 'NONE', *, *, #472, .T. ) ;
#562 = LINE ( 'NONE', #427, #705 ) ;
#563 = VECTOR ( 'NONE', #473, 1000.000000000000000 ) ;
#564 = DIRECTION ( 'NONE',  ( 1.000000000000000000, 0.000000000000000000, 0.000000000000000000 ) ) ;
#565 = CARTESIAN_POINT ( 'NONE',  ( 10.85092560861063049, 5.574999999999999289, 3.000000000000000000 ) ) ;
#566 = EDGE_CURVE ( 'NONE', #294, #529, #847, .T. ) ;
#567 = DIRECTION ( 'NONE',  ( -0.000000000000000000, -0.000000000000000000, -1.000000000000000000 ) ) ;
#568 = VECTOR ( 'NONE', #854, 1000.000000000000000 ) ;
#569 = CARTESIAN_POINT ( 'NONE',  ( 15.50000000000000000, 4.000000000000000000, 3.000000000000000000 ) ) ;
#570 = DIRECTION ( 'NONE',  ( -0.000000000000000000, -0.000000000000000000, -1.000000000000000000 ) ) ;
#571 = CARTESIAN_POINT ( 'NONE',  ( 28.87840487520902144, 5.650000000000000355, 0.000000000000000000 ) ) ;
#572 = DIRECTION ( 'NONE',  ( 0.000000000000000000, -0.000000000000000000, -1.000000000000000000 ) ) ;
#573 = CLOSED_SHELL ( 'NONE', ( #524, #893, #84, #159, #552, #492, #859, #324, #281, #223, #619, #141, #711, #375, #723, #262, #828, #628, #15, #286, #131, #203, #509, #808, #66, #753 ) ) ;
#574 = EDGE_CURVE ( 'NONE', #420, #791, #59, .T. ) ;
#575 = MANIFOLD_SOLID_BREP ( 'Boss-Extrude1', #573 ) ;
#576 = COLOUR_RGB ( '',0.7921568627450980005, 0.8196078431372548767, 0.9333333333333333481 ) ;
#577 = CARTESIAN_POINT ( 'NONE',  ( 3.500000000000000000, 4.000000000000000000, 0.000000000000000000 ) ) ;
#578 = DIRECTION ( 'NONE',  ( 1.000000000000000000, 0.000000000000000000, 0.000000000000000000 ) ) ;
#579 = CYLINDRICAL_SURFACE ( 'NONE', #550, 2.049999999999999822 ) ;
#580 = EDGE_CURVE ( 'NONE', #748, #420, #370, .T. ) ;
#581 = DIRECTION ( 'NONE',  ( 1.000000000000000000, 0.000000000000000000, 0.000000000000000000 ) ) ;
#582 = ORIENTED_EDGE ( 'NONE', *, *, #72, .T. ) ;
#583 = CARTESIAN_POINT ( 'NONE',  ( 20.13069360623708448, 5.625000000000000000, 3.000000000000000000 ) ) ;
#584 = ORIENTED_EDGE ( 'NONE', *, *, #695, .F. ) ;
#585 = DIRECTION ( 'NONE',  ( -0.000000000000000000, -1.000000000000000000, -0.000000000000000000 ) ) ;
#586 = CIRCLE ( 'NONE', #787, 2.100000000000000977 ) ;
#587 = CYLINDRICAL_SURFACE ( 'NONE', #362, 2.124999999999998224 ) ;
#588 = VECTOR ( 'NONE', #457, 1000.000000000000000 ) ;
#589 = CARTESIAN_POINT ( 'NONE',  ( 8.149074391389369509, 5.575000000000000178, 0.000000000000000000 ) ) ;
#590 = ORIENTED_EDGE ( 'NONE', *, *, #897, .F. ) ;
#591 = FACE_OUTER_BOUND ( 'NONE', #604, .T. ) ;
#592 = EDGE_CURVE ( 'NONE', #39, #637, #656, .T. ) ;
#593 = DIRECTION ( 'NONE',  ( 0.000000000000000000, -1.000000000000000000, 0.000000000000000000 ) ) ;
#594 = EDGE_LOOP ( 'NONE', ( #836, #515, #411, #747 ) ) ;
#595 = CARTESIAN_POINT ( 'NONE',  ( 9.500000000000000000, 4.000000000000000000, 3.000000000000000000 ) ) ;
#596 = ORIENTED_EDGE ( 'NONE', *, *, #337, .T. ) ;
#597 =( LENGTH_UNIT ( ) NAMED_UNIT ( * ) SI_UNIT ( .MILLI., .METRE. ) );
#598 = EDGE_CURVE ( 'NONE', #683, #625, #366, .T. ) ;
#599 = ORIENTED_EDGE ( 'NONE', *, *, #173, .F. ) ;
#600 = DIRECTION ( 'NONE',  ( 1.000000000000000000, 0.000000000000000000, 0.000000000000000000 ) ) ;
#601 = ORIENTED_EDGE ( 'NONE', *, *, #210, .T. ) ;
#602 = LINE ( 'NONE', #734, #700 ) ;
#603 = AXIS2_PLACEMENT_3D ( 'NONE', #773, #416, #351 ) ;
#604 = EDGE_LOOP ( 'NONE', ( #885, #458, #392, #822 ) ) ;
#605 = DIRECTION ( 'NONE',  ( 0.000000000000000000, 0.000000000000000000, 1.000000000000000000 ) ) ;
#606 = EDGE_CURVE ( 'NONE', #272, #737, #735, .T. ) ;
#607 = FACE_OUTER_BOUND ( 'NONE', #523, .T. ) ;
#608 = ORIENTED_EDGE ( 'NONE', *, *, #179, .T. ) ;
#609 = CARTESIAN_POINT ( 'NONE',  ( 19.37500000000000000, 4.000000000000000000, 3.000000000000000000 ) ) ;
#610 = EDGE_CURVE ( 'NONE', #280, #683, #263, .T. ) ;
#611 = CARTESIAN_POINT ( 'NONE',  ( 3.500000000000000000, 4.000000000000000000, 0.000000000000000000 ) ) ;
#612 = AXIS2_PLACEMENT_3D ( 'NONE', #514, #799, #518 ) ;
#613 = EDGE_LOOP ( 'NONE', ( #551, #405, #250, #401 ) ) ;
#614 = DIRECTION ( 'NONE',  ( 1.000000000000000000, 0.000000000000000000, 0.000000000000000000 ) ) ;
#615 = EDGE_CURVE ( 'NONE', #3, #128, #536, .T. ) ;
#616 = ORIENTED_EDGE ( 'NONE', *, *, #25, .T. ) ;
#617 = EDGE_LOOP ( 'NONE', ( #491, #616, #674, #868 ) ) ;
#618 = LINE ( 'NONE', #275, #266 ) ;
#619 = ADVANCED_FACE ( 'NONE', ( #742, #815, #607, #544, #267, #879 ), #191, .F. ) ;
#620 = ORIENTED_EDGE ( 'NONE', *, *, #48, .F. ) ;
#621 = AXIS2_PLACEMENT_3D ( 'NONE', #776, #87, #493 ) ;
#622 = CARTESIAN_POINT ( 'NONE',  ( 21.50000000000000000, 4.000000000000000000, 3.000000000000000000 ) ) ;
#623 = ORIENTED_EDGE ( 'NONE', *, *, #548, .T. ) ;
#624 = LINE ( 'NONE', #835, #118 ) ;
#625 = VERTEX_POINT ( 'NONE', #684 ) ;
#626 = LINE ( 'NONE', #65, #77 ) ;
#627 = VECTOR ( 'NONE', #843, 1000.000000000000000 ) ;
#628 = ADVANCED_FACE ( 'NONE', ( #49 ), #746, .T. ) ;
#629 = CIRCLE ( 'NONE', #271, 2.100000000000000977 ) ;
#630 = AXIS2_PLACEMENT_3D ( 'NONE', #106, #391, #438 ) ;
#631 = CARTESIAN_POINT ( 'NONE',  ( 20.13069360623708448, 5.625000000000000000, 0.000000000000000000 ) ) ;
#632 = EDGE_LOOP ( 'NONE', ( #508, #464, #348, #813 ) ) ;
#633 = EDGE_CURVE ( 'NONE', #75, #833, #820, .T. ) ;
#634 =( GEOMETRIC_REPRESENTATION_CONTEXT ( 3 ) GLOBAL_UNCERTAINTY_ASSIGNED_CONTEXT ( ( #456 ) ) GLOBAL_UNIT_ASSIGNED_CONTEXT ( ( #709, #82, #302 ) ) REPRESENTATION_CONTEXT ( 'NONE', 'WORKASPACE' ) );
#635 = DIRECTION ( 'NONE',  ( -1.000000000000000000, 0.000000000000000000, 0.000000000000000000 ) ) ;
#636 = LINE ( 'NONE', #1, #69 ) ;
#637 = VERTEX_POINT ( 'NONE', #195 ) ;
#638 = LINE ( 'NONE', #761, #246 ) ;
#639 = AXIS2_PLACEMENT_3D ( 'NONE', #382, #170, #176 ) ;
#640 = DIRECTION ( 'NONE',  ( 3.188485162068863013E-16, -1.000000000000000000, 0.000000000000000000 ) ) ;
#641 = DIRECTION ( 'NONE',  ( -0.000000000000000000, -0.000000000000000000, -1.000000000000000000 ) ) ;
#642 = EDGE_CURVE ( 'NONE', #791, #856, #403, .T. ) ;
#643 = FACE_OUTER_BOUND ( 'NONE', #731, .T. ) ;
#644 = LINE ( 'NONE', #487, #276 ) ;
#645 = VECTOR ( 'NONE', #236, 1000.000000000000000 ) ;
#646 = CARTESIAN_POINT ( 'NONE',  ( 14.13985294912645507, 5.599999999999999645, 3.000000000000000000 ) ) ;
#647 = CARTESIAN_POINT ( 'NONE',  ( 27.49999999999999645, 4.000000000000000000, 0.000000000000000000 ) ) ;
#648 = EDGE_CURVE ( 'NONE', #807, #140, #797, .T. ) ;
#649 = FACE_OUTER_BOUND ( 'NONE', #470, .T. ) ;
#650 = CARTESIAN_POINT ( 'NONE',  ( 20.13069360623708448, 5.625000000000000000, 3.000000000000000000 ) ) ;
#651 = DIRECTION ( 'NONE',  ( 0.000000000000000000, 0.000000000000000000, 1.000000000000000000 ) ) ;
#652 = DIRECTION ( 'NONE',  ( -1.000000000000000000, -3.188485162068863013E-16, -0.000000000000000000 ) ) ;
#653 = PRODUCT_RELATED_PRODUCT_CATEGORY ( 'part', '', ( #430 ) ) ;
#654 = EDGE_LOOP ( 'NONE', ( #33, #55, #335, #339 ) ) ;
#655 = AXIS2_PLACEMENT_3D ( 'NONE', #400, #116, #754 ) ;
#656 = LINE ( 'NONE', #527, #408 ) ;
#657 = LINE ( 'NONE', #789, #510 ) ;
#658 = DIRECTION ( 'NONE',  ( 0.000000000000000000, 0.000000000000000000, 1.000000000000000000 ) ) ;
#659 = VERTEX_POINT ( 'NONE', #891 ) ;
#660 = EDGE_CURVE ( 'NONE', #311, #369, #887, .T. ) ;
#661 = CARTESIAN_POINT ( 'NONE',  ( 15.50000000000000000, 4.000000000000000000, 3.000000000000000000 ) ) ;
#662 = CIRCLE ( 'NONE', #31, 2.074999999999998845 ) ;
#663 = VECTOR ( 'NONE', #256, 1000.000000000000000 ) ;
#664 = DIRECTION ( 'NONE',  ( -0.000000000000000000, -0.000000000000000000, -1.000000000000000000 ) ) ;
#665 = VERTEX_POINT ( 'NONE', #750 ) ;
#666 = DIRECTION ( 'NONE',  ( -0.000000000000000000, -0.000000000000000000, -1.000000000000000000 ) ) ;
#667 = EDGE_CURVE ( 'NONE', #272, #128, #126, .T. ) ;
#668 = DIRECTION ( 'NONE',  ( 1.000000000000000000, 0.000000000000000000, 0.000000000000000000 ) ) ;
#669 = ORIENTED_EDGE ( 'NONE', *, *, #580, .T. ) ;
#670 = FACE_OUTER_BOUND ( 'NONE', #554, .T. ) ;
#671 = VERTEX_POINT ( 'NONE', #549 ) ;
#672 = DIRECTION ( 'NONE',  ( 1.000000000000000000, 0.000000000000000000, 0.000000000000000000 ) ) ;
#673 = UNCERTAINTY_MEASURE_WITH_UNIT (LENGTH_MEASURE( 1.000000000000000082E-05 ), #597, 'distance_accuracy_value', 'NONE');
#674 = ORIENTED_EDGE ( 'NONE', *, *, #872, .F. ) ;
#675 = DIRECTION ( 'NONE',  ( -0.000000000000000000, -0.000000000000000000, -1.000000000000000000 ) ) ;
#676 = ORIENTED_EDGE ( 'NONE', *, *, #574, .F. ) ;
#677 = FILL_AREA_STYLE ('',( #444 ) ) ;
#678 = VECTOR ( 'NONE', #853, 1000.000000000000000 ) ;
#679 = ORIENTED_EDGE ( 'NONE', *, *, #823, .T. ) ;
#680 = CARTESIAN_POINT ( 'NONE',  ( 27.49999999999999645, 4.000000000000000000, 0.000000000000000000 ) ) ;
#681 = DIRECTION ( 'NONE',  ( 0.000000000000000000, 0.000000000000000000, -1.000000000000000000 ) ) ;
#682 = VERTEX_POINT ( 'NONE', #688 ) ;
#683 = VERTEX_POINT ( 'NONE', #57 ) ;
#684 = CARTESIAN_POINT ( 'NONE',  ( 7.424999999999999822, 4.000000000000000000, 3.000000000000000000 ) ) ;
#685 = ORIENTED_EDGE ( 'NONE', *, *, #278, .T. ) ;
#686 = VECTOR ( 'NONE', #883, 1000.000000000000000 ) ;
#687 = VERTEX_POINT ( 'NONE', #336 ) ;
#688 = CARTESIAN_POINT ( 'NONE',  ( 25.34999999999999787, 4.000000000000000000, 0.000000000000000000 ) ) ;
#689 = EDGE_LOOP ( 'NONE', ( #239, #343, #538, #43 ) ) ;
#690 = CARTESIAN_POINT ( 'NONE',  ( 27.49999999999999645, 4.000000000000000000, 3.000000000000000000 ) ) ;
#691 = ORIENTED_EDGE ( 'NONE', *, *, #823, .F. ) ;
#692 = PRESENTATION_LAYER_ASSIGNMENT (  '', '', ( #533 ) ) ;
#693 = FACE_OUTER_BOUND ( 'NONE', #768, .T. ) ;
#694 = ORIENTED_EDGE ( 'NONE', *, *, #866, .T. ) ;
#695 = EDGE_CURVE ( 'NONE', #744, #294, #618, .T. ) ;
#696 = CARTESIAN_POINT ( 'NONE',  ( 9.500000000000000000, 4.000000000000000000, 3.000000000000000000 ) ) ;
#697 = DIRECTION ( 'NONE',  ( 0.000000000000000000, 0.000000000000000000, 1.000000000000000000 ) ) ;
#698 = VERTEX_POINT ( 'NONE', #441 ) ;
#699 = VECTOR ( 'NONE', #675, 1000.000000000000000 ) ;
#700 = VECTOR ( 'NONE', #875, 1000.000000000000000 ) ;
#701 = CARTESIAN_POINT ( 'NONE',  ( 21.50000000000000000, 4.000000000000000000, 3.000000000000000000 ) ) ;
#702 = CARTESIAN_POINT ( 'NONE',  ( 26.12159512479097501, 5.650000000000000355, 3.000000000000000000 ) ) ;
#703 = ORIENTED_EDGE ( 'NONE', *, *, #472, .F. ) ;
#704 = DIRECTION ( 'NONE',  ( -0.000000000000000000, -0.000000000000000000, -1.000000000000000000 ) ) ;
#705 = VECTOR ( 'NONE', #70, 1000.000000000000000 ) ;
#706 = DIRECTION ( 'NONE',  ( -0.000000000000000000, -0.000000000000000000, -1.000000000000000000 ) ) ;
#707 = DIRECTION ( 'NONE',  ( -1.000000000000000000, 0.000000000000000000, 0.000000000000000000 ) ) ;
#708 = DIRECTION ( 'NONE',  ( -0.000000000000000000, -0.000000000000000000, -1.000000000000000000 ) ) ;
#709 =( LENGTH_UNIT ( ) NAMED_UNIT ( * ) SI_UNIT ( .MILLI., .METRE. ) );
#710 = FACE_OUTER_BOUND ( 'NONE', #594, .T. ) ;
#711 = ADVANCED_FACE ( 'NONE', ( #104 ), #449, .F. ) ;
#712 = VERTEX_POINT ( 'NONE', #244 ) ;
#713 = PLANE ( 'NONE',  #353 ) ;
#714 = DIRECTION ( 'NONE',  ( -0.000000000000000000, -0.000000000000000000, -1.000000000000000000 ) ) ;
#715 = CARTESIAN_POINT ( 'NONE',  ( 0.000000000000000000, 0.000000000000000000, 0.000000000000000000 ) ) ;
#716 = DIRECTION ( 'NONE',  ( -1.000000000000000000, 0.000000000000000000, 0.000000000000000000 ) ) ;
#717 = ORIENTED_EDGE ( 'NONE', *, *, #642, .F. ) ;
#718 = AXIS2_PLACEMENT_3D ( 'NONE', #454, #729, #308 ) ;
#719 = CYLINDRICAL_SURFACE ( 'NONE', #20, 2.149999999999999023 ) ;
#720 = DIRECTION ( 'NONE',  ( 0.000000000000000000, 0.000000000000000000, 1.000000000000000000 ) ) ;
#721 = LINE ( 'NONE', #96, #445 ) ;
#722 = ORIENTED_EDGE ( 'NONE', *, *, #188, .F. ) ;
#723 = ADVANCED_FACE ( 'NONE', ( #368 ), #522, .F. ) ;
#724 = AXIS2_PLACEMENT_3D ( 'NONE', #377, #232, #312 ) ;
#725 = FACE_OUTER_BOUND ( 'NONE', #461, .T. ) ;
#726 = FACE_OUTER_BOUND ( 'NONE', #877, .T. ) ;
#727 = VERTEX_POINT ( 'NONE', #784 ) ;
#728 = EDGE_CURVE ( 'NONE', #274, #3, #138, .T. ) ;
#729 = DIRECTION ( 'NONE',  ( 0.000000000000000000, 0.000000000000000000, 1.000000000000000000 ) ) ;
#730 = DIRECTION ( 'NONE',  ( 0.000000000000000000, 0.000000000000000000, 1.000000000000000000 ) ) ;
#731 = EDGE_LOOP ( 'NONE', ( #61, #85, #437, #398 ) ) ;
#732 = CYLINDRICAL_SURFACE ( 'NONE', #630, 2.099999999999999645 ) ;
#733 = EDGE_LOOP ( 'NONE', ( #486, #596, #402, #363 ) ) ;
#734 = CARTESIAN_POINT ( 'NONE',  ( 23.62499999999999645, 4.000000000000000000, 3.000000000000000000 ) ) ;
#735 = CIRCLE ( 'NONE', #819, 2.149999999999999023 ) ;
#736 = EDGE_CURVE ( 'NONE', #764, #796, #765, .T. ) ;
#737 = VERTEX_POINT ( 'NONE', #850 ) ;
#738 = DIRECTION ( 'NONE',  ( 1.000000000000000000, 0.000000000000000000, 0.000000000000000000 ) ) ;
#739 = ORIENTED_EDGE ( 'NONE', *, *, #148, .F. ) ;
#740 = ORIENTED_EDGE ( 'NONE', *, *, #851, .F. ) ;
#741 = DIRECTION ( 'NONE',  ( -1.000000000000000000, 0.000000000000000000, 0.000000000000000000 ) ) ;
#742 = FACE_BOUND ( 'NONE', #886, .T. ) ;
#743 = VECTOR ( 'NONE', #372, 1000.000000000000000 ) ;
#744 = VERTEX_POINT ( 'NONE', #583 ) ;
#745 = CIRCLE ( 'NONE', #513, 2.049999999999999378 ) ;
#746 = PLANE ( 'NONE',  #655 ) ;
#747 = ORIENTED_EDGE ( 'NONE', *, *, #36, .F. ) ;
#748 = VERTEX_POINT ( 'NONE', #507 ) ;
#749 = AXIS2_PLACEMENT_3D ( 'NONE', #142, #498, #153 ) ;
#750 = CARTESIAN_POINT ( 'NONE',  ( 23.62499999999999645, 4.000000000000000000, 0.000000000000000000 ) ) ;
#751 = VERTEX_POINT ( 'NONE', #310 ) ;
#752 = ORIENTED_EDGE ( 'NONE', *, *, #52, .T. ) ;
#753 = ADVANCED_FACE ( 'NONE', ( #726 ), #867, .T. ) ;
#754 = DIRECTION ( 'NONE',  ( 0.000000000000000000, -0.000000000000000000, -1.000000000000000000 ) ) ;
#755 = DIRECTION ( 'NONE',  ( -0.000000000000000000, -0.000000000000000000, -1.000000000000000000 ) ) ;
#756 = ORIENTED_EDGE ( 'NONE', *, *, #537, .T. ) ;
#757 = CIRCLE ( 'NONE', #364, 2.149999999999999023 ) ;
#758 = DIRECTION ( 'NONE',  ( -0.000000000000000000, -0.000000000000000000, -1.000000000000000000 ) ) ;
#759 = ORIENTED_EDGE ( 'NONE', *, *, #598, .F. ) ;
#760 = VECTOR ( 'NONE', #459, 1000.000000000000000 ) ;
#761 = CARTESIAN_POINT ( 'NONE',  ( 2.158359213500126828, 5.549999999999999822, 0.000000000000000000 ) ) ;
#762 = CARTESIAN_POINT ( 'NONE',  ( 15.50000000000000000, 4.000000000000000000, 3.000000000000000000 ) ) ;
#763 = EDGE_CURVE ( 'NONE', #637, #172, #100, .T. ) ;
#764 = VERTEX_POINT ( 'NONE', #32 ) ;
#765 = CIRCLE ( 'NONE', #884, 2.100000000000000977 ) ;
#766 = FACE_BOUND ( 'NONE', #733, .T. ) ;
#767 = CARTESIAN_POINT ( 'NONE',  ( 16.86014705087354315, 5.600000000000000533, 3.000000000000000000 ) ) ;
#768 = EDGE_LOOP ( 'NONE', ( #821, #896, #717, #326 ) ) ;
#769 = EDGE_CURVE ( 'NONE', #529, #665, #837, .T. ) ;
#770 = DIRECTION ( 'NONE',  ( 1.000000000000000000, 0.000000000000000000, 0.000000000000000000 ) ) ;
#771 = VECTOR ( 'NONE', #251, 1000.000000000000000 ) ;
#772 = CIRCLE ( 'NONE', #273, 2.124999999999998224 ) ;
#773 = CARTESIAN_POINT ( 'NONE',  ( 0.000000000000000000, 0.000000000000000000, 0.000000000000000000 ) ) ;
#774 = DIRECTION ( 'NONE',  ( -0.000000000000000000, -0.000000000000000000, -1.000000000000000000 ) ) ;
#775 = CARTESIAN_POINT ( 'NONE',  ( 23.62499999999999645, 4.000000000000000000, 3.000000000000000000 ) ) ;
#776 = CARTESIAN_POINT ( 'NONE',  ( 27.49999999999999645, 4.000000000000000000, 3.000000000000000000 ) ) ;
#777 = EDGE_CURVE ( 'NONE', #245, #476, #855, .T. ) ;
#778 = CARTESIAN_POINT ( 'NONE',  ( 25.34999999999999787, 4.000000000000000000, 3.000000000000000000 ) ) ;
#779 = DIRECTION ( 'NONE',  ( -1.000000000000000000, -0.000000000000000000, -0.000000000000000000 ) ) ;
#780 = CYLINDRICAL_SURFACE ( 'NONE', #621, 2.149999999999999023 ) ;
#781 = CARTESIAN_POINT ( 'NONE',  ( 7.424999999999999822, 4.000000000000000000, 0.000000000000000000 ) ) ;
#782 = DIRECTION ( 'NONE',  ( -0.000000000000000000, -0.000000000000000000, -1.000000000000000000 ) ) ;
#783 = APPLICATION_PROTOCOL_DEFINITION ( 'draft international standard', 'automotive_design', 1998, #466 ) ;
#784 = CARTESIAN_POINT ( 'NONE',  ( 13.40000000000000036, 4.000000000000000000, 3.000000000000000000 ) ) ;
#785 = ORIENTED_EDGE ( 'NONE', *, *, #58, .F. ) ;
#786 = AXIS2_PLACEMENT_3D ( 'NONE', #701, #706, #635 ) ;
#787 = AXIS2_PLACEMENT_3D ( 'NONE', #762, #697, #67 ) ;
#788 = EDGE_CURVE ( 'NONE', #201, #217, #23, .T. ) ;
#789 = CARTESIAN_POINT ( 'NONE',  ( 0.000000000000000000, 8.000000000000000000, 3.000000000000000000 ) ) ;
#790 = DIRECTION ( 'NONE',  ( -0.000000000000000000, -0.000000000000000000, -1.000000000000000000 ) ) ;
#791 = VERTEX_POINT ( 'NONE', #167 ) ;
#792 = CARTESIAN_POINT ( 'NONE',  ( 5.549999999999998934, 4.000000000000000000, 3.000000000000000000 ) ) ;
#793 = DIRECTION ( 'NONE',  ( -0.000000000000000000, -0.000000000000000000, -1.000000000000000000 ) ) ;
#794 = EDGE_CURVE ( 'NONE', #341, #807, #721, .T. ) ;
#795 = CARTESIAN_POINT ( 'NONE',  ( 30.99999999999999645, 0.000000000000000000, 3.000000000000000000 ) ) ;
#796 = VERTEX_POINT ( 'NONE', #28 ) ;
#797 = CIRCLE ( 'NONE', #54, 2.074999999999998845 ) ;
#798 = DIRECTION ( 'NONE',  ( -1.000000000000000000, 0.000000000000000000, 0.000000000000000000 ) ) ;
#799 = DIRECTION ( 'NONE',  ( 1.000000000000000000, 0.000000000000000000, 0.000000000000000000 ) ) ;
#800 = ORIENTED_EDGE ( 'NONE', *, *, #299, .F. ) ;
#801 = LINE ( 'NONE', #260, #771 ) ;
#802 = ORIENTED_EDGE ( 'NONE', *, *, #866, .F. ) ;
#803 = AXIS2_PLACEMENT_3D ( 'NONE', #435, #720, #578 ) ;
#804 = CARTESIAN_POINT ( 'NONE',  ( 9.500000000000000000, 4.000000000000000000, 3.000000000000000000 ) ) ;
#805 = ORIENTED_EDGE ( 'NONE', *, *, #794, .T. ) ;
#806 = DIRECTION ( 'NONE',  ( 1.000000000000000000, 0.000000000000000000, 0.000000000000000000 ) ) ;
#807 = VERTEX_POINT ( 'NONE', #589 ) ;
#808 = ADVANCED_FACE ( 'NONE', ( #862 ), #713, .T. ) ;
#809 = LINE ( 'NONE', #112, #760 ) ;
#810 = ORIENTED_EDGE ( 'NONE', *, *, #58, .T. ) ;
#811 = DIRECTION ( 'NONE',  ( 0.000000000000000000, 0.000000000000000000, 1.000000000000000000 ) ) ;
#812 = CARTESIAN_POINT ( 'NONE',  ( 30.99999999999999645, 8.000000000000000000, 3.000000000000000000 ) ) ;
#813 = ORIENTED_EDGE ( 'NONE', *, *, #695, .T. ) ;
#814 = DIRECTION ( 'NONE',  ( 0.000000000000000000, -0.000000000000000000, 1.000000000000000000 ) ) ;
#815 = FACE_BOUND ( 'NONE', #105, .T. ) ;
#816 = ORIENTED_EDGE ( 'NONE', *, *, #574, .T. ) ;
#817 = AXIS2_PLACEMENT_3D ( 'NONE', #484, #774, #707 ) ;
#818 = EDGE_LOOP ( 'NONE', ( #805, #136, #388, #601 ) ) ;
#819 = AXIS2_PLACEMENT_3D ( 'NONE', #477, #396, #826 ) ;
#820 = LINE ( 'NONE', #812, #521 ) ;
#821 = ORIENTED_EDGE ( 'NONE', *, *, #485, .T. ) ;
#822 = ORIENTED_EDGE ( 'NONE', *, *, #182, .F. ) ;
#823 = EDGE_CURVE ( 'NONE', #671, #420, #638, .T. ) ;
#824 = CIRCLE ( 'NONE', #425, 2.074999999999998845 ) ;
#825 = EDGE_CURVE ( 'NONE', #698, #274, #295, .T. ) ;
#826 = DIRECTION ( 'NONE',  ( 1.000000000000000000, 0.000000000000000000, 0.000000000000000000 ) ) ;
#827 = EDGE_LOOP ( 'NONE', ( #890, #870, #50, #320 ) ) ;
#828 = ADVANCED_FACE ( 'NONE', ( #285 ), #579, .F. ) ;
#829 = CARTESIAN_POINT ( 'NONE',  ( 30.99999999999999645, 0.000000000000000000, 0.000000000000000000 ) ) ;
#830 = VECTOR ( 'NONE', #7, 1000.000000000000000 ) ;
#831 = VERTEX_POINT ( 'NONE', #147 ) ;
#832 = FACE_OUTER_BOUND ( 'NONE', #654, .T. ) ;
#833 = VERTEX_POINT ( 'NONE', #208 ) ;
#834 = FACE_BOUND ( 'NONE', #863, .T. ) ;
#835 = CARTESIAN_POINT ( 'NONE',  ( 16.86014705087354315, 5.600000000000000533, 3.000000000000000000 ) ) ;
#836 = ORIENTED_EDGE ( 'NONE', *, *, #548, .F. ) ;
#837 = CIRCLE ( 'NONE', #724, 2.124999999999998224 ) ;
#838 = CARTESIAN_POINT ( 'NONE',  ( 0.000000000000000000, 0.000000000000000000, 0.000000000000000000 ) ) ;
#839 = LINE ( 'NONE', #778, #433 ) ;
#840 = PLANE ( 'NONE',  #467 ) ;
#841 = DIRECTION ( 'NONE',  ( -0.000000000000000000, -0.000000000000000000, -1.000000000000000000 ) ) ;
#842 = DIRECTION ( 'NONE',  ( -1.000000000000000000, 0.000000000000000000, 0.000000000000000000 ) ) ;
#843 = DIRECTION ( 'NONE',  ( -0.000000000000000000, -0.000000000000000000, -1.000000000000000000 ) ) ;
#844 = CARTESIAN_POINT ( 'NONE',  ( 22.86930639376291197, 5.625000000000000000, 0.000000000000000000 ) ) ;
#845 = LINE ( 'NONE', #227, #254 ) ;
#846 = DIRECTION ( 'NONE',  ( -1.000000000000000000, 0.000000000000000000, 0.000000000000000000 ) ) ;
#847 = CIRCLE ( 'NONE', #455, 2.124999999999998224 ) ;
#848 = PLANE ( 'NONE',  #161 ) ;
#849 = LINE ( 'NONE', #301, #16 ) ;
#850 = CARTESIAN_POINT ( 'NONE',  ( 25.34999999999999787, 4.000000000000000000, 3.000000000000000000 ) ) ;
#851 = EDGE_CURVE ( 'NONE', #323, #272, #562, .T. ) ;
#852 = CARTESIAN_POINT ( 'NONE',  ( 2.158359213500126828, 5.549999999999999822, 3.000000000000000000 ) ) ;
#853 = DIRECTION ( 'NONE',  ( 0.000000000000000000, 1.000000000000000000, 0.000000000000000000 ) ) ;
#854 = DIRECTION ( 'NONE',  ( -0.000000000000000000, -0.000000000000000000, -1.000000000000000000 ) ) ;
#855 = LINE ( 'NONE', #91, #332 ) ;
#856 = VERTEX_POINT ( 'NONE', #360 ) ;
#857 = CARTESIAN_POINT ( 'NONE',  ( 1.450000000000000400, 4.000000000000000000, 3.000000000000000000 ) ) ;
#858 = AXIS2_PLACEMENT_3D ( 'NONE', #358, #9, #490 ) ;
#859 = ADVANCED_FACE ( 'NONE', ( #412 ), #415, .F. ) ;
#860 = CIRCLE ( 'NONE', #380, 2.124999999999998224 ) ;
#861 = CARTESIAN_POINT ( 'NONE',  ( 21.50000000000000000, 4.000000000000000000, 3.000000000000000000 ) ) ;
#862 = FACE_OUTER_BOUND ( 'NONE', #632, .T. ) ;
#863 = EDGE_LOOP ( 'NONE', ( #385, #315, #41, #756 ) ) ;
#864 = CARTESIAN_POINT ( 'NONE',  ( 21.50000000000000000, 4.000000000000000000, 0.000000000000000000 ) ) ;
#865 = VECTOR ( 'NONE', #704, 1000.000000000000000 ) ;
#866 = EDGE_CURVE ( 'NONE', #748, #111, #316, .T. ) ;
#867 = PLANE ( 'NONE',  #488 ) ;
#868 = ORIENTED_EDGE ( 'NONE', *, *, #52, .F. ) ;
#869 = CARTESIAN_POINT ( 'NONE',  ( 14.13985294912645507, 5.599999999999999645, 3.000000000000000000 ) ) ;
#870 = ORIENTED_EDGE ( 'NONE', *, *, #440, .F. ) ;
#871 = EDGE_LOOP ( 'NONE', ( #694, #519, #676, #107 ) ) ;
#872 = EDGE_CURVE ( 'NONE', #140, #471, #824, .T. ) ;
#873 = LINE ( 'NONE', #609, #663 ) ;
#874 = ORIENTED_EDGE ( 'NONE', *, *, #763, .F. ) ;
#875 = DIRECTION ( 'NONE',  ( -0.000000000000000000, -0.000000000000000000, -1.000000000000000000 ) ) ;
#876 = CIRCLE ( 'NONE', #237, 2.074999999999998845 ) ;
#877 = EDGE_LOOP ( 'NONE', ( #56, #881, #253, #259 ) ) ;
#878 = DIRECTION ( 'NONE',  ( 1.000000000000000000, 0.000000000000000000, 0.000000000000000000 ) ) ;
#879 = FACE_BOUND ( 'NONE', #889, .T. ) ;
#880 = AXIS2_PLACEMENT_3D ( 'NONE', #661, #247, #35 ) ;
#881 = ORIENTED_EDGE ( 'NONE', *, *, #78, .F. ) ;
#882 = FACE_OUTER_BOUND ( 'NONE', #531, .T. ) ;
#883 = DIRECTION ( 'NONE',  ( -1.000000000000000000, 3.210249818568650033E-16, -0.000000000000000000 ) ) ;
#884 = AXIS2_PLACEMENT_3D ( 'NONE', #446, #658, #668 ) ;
#885 = ORIENTED_EDGE ( 'NONE', *, *, #453, .T. ) ;
#886 = EDGE_LOOP ( 'NONE', ( #145, #722, #703, #93 ) ) ;
#887 = LINE ( 'NONE', #200, #563 ) ;
#888 = EDGE_CURVE ( 'NONE', #280, #341, #644, .T. ) ;
#889 = EDGE_LOOP ( 'NONE', ( #397, #740, #450, #101 ) ) ;
#890 = ORIENTED_EDGE ( 'NONE', *, *, #30, .T. ) ;
#891 = CARTESIAN_POINT ( 'NONE',  ( 11.57499999999999929, 4.000000000000000000, 3.000000000000000000 ) ) ;
#892 = ORIENTED_EDGE ( 'NONE', *, *, #30, .F. ) ;
#893 = ADVANCED_FACE ( 'NONE', ( #649 ), #780, .F. ) ;
#894 = PRODUCT_DEFINITION_FORMATION_WITH_SPECIFIED_SOURCE ( 'ANY', '', #430, .NOT_KNOWN. ) ;
#895 = DIRECTION ( 'NONE',  ( 0.000000000000000000, 0.000000000000000000, 1.000000000000000000 ) ) ;
#896 = ORIENTED_EDGE ( 'NONE', *, *, #173, .T. ) ;
#897 = EDGE_CURVE ( 'NONE', #683, #807, #626, .T. ) ;
ENDSEC;
END-ISO-10303-21;
