ISO-10303-21;
HEADER;
FILE_DESCRIPTION (( 'STEP AP214' ),
    '1' );
FILE_NAME ('testprint.STEP',
    '2025-12-13T03:10:21',
    ( '' ),
    ( '' ),
    'SwSTEP 2.0',
    'SolidWorks 2025',
    '' );
FILE_SCHEMA (( 'AUTOMOTIVE_DESIGN' ));
ENDSEC;

DATA;
#1 = ADVANCED_FACE ( 'NONE', ( #460 ), #559, .F. ) ;
#2 = DIRECTION ( 'NONE',  ( 0.000000000000000000, 1.000000000000000000, 0.000000000000000000 ) ) ;
#3 = VERTEX_POINT ( 'NONE', #633 ) ;
#4 = DIRECTION ( 'NONE',  ( 0.000000000000000000, 1.000000000000000000, 0.000000000000000000 ) ) ;
#5 = CARTESIAN_POINT ( 'NONE',  ( 4.383690821542281846, 5.000000000000000000, -17.64378460101573509 ) ) ;
#6 = AXIS2_PLACEMENT_3D ( 'NONE', #780, #330, #576 ) ;
#7 = EDGE_LOOP ( 'NONE', ( #443, #91, #1099, #963 ) ) ;
#8 = LINE ( 'NONE', #1084, #577 ) ;
#9 = CIRCLE ( 'NONE', #1016, 2.049999999999999822 ) ;
#10 = CARTESIAN_POINT ( 'NONE',  ( 30.00000000000000000, 5.000000000000000000, -20.00000000000000000 ) ) ;
#11 = ORIENTED_EDGE ( 'NONE', *, *, #1075, .F. ) ;
#12 = CARTESIAN_POINT ( 'NONE',  ( 20.70079576494985218, 5.000000000000000000, -17.64378460101573154 ) ) ;
#13 = DIRECTION ( 'NONE',  ( 0.000000000000000000, 0.000000000000000000, 1.000000000000000000 ) ) ;
#14 = VERTEX_POINT ( 'NONE', #819 ) ;
#15 = FACE_OUTER_BOUND ( 'NONE', #1050, .T. ) ;
#16 = DIRECTION ( 'NONE',  ( 0.000000000000000000, 1.000000000000000000, 0.000000000000000000 ) ) ;
#17 = AXIS2_PLACEMENT_3D ( 'NONE', #947, #316, #940 ) ;
#18 = EDGE_CURVE ( 'NONE', #547, #160, #19, .T. ) ;
#19 = LINE ( 'NONE', #1136, #1078 ) ;
#20 = ORIENTED_EDGE ( 'NONE', *, *, #18, .T. ) ;
#21 = DIRECTION ( 'NONE',  ( 0.000000000000000000, 0.000000000000000000, 1.000000000000000000 ) ) ;
#22 = AXIS2_PLACEMENT_3D ( 'NONE', #190, #809, #448 ) ;
#23 = CYLINDRICAL_SURFACE ( 'NONE', #281, 2.149999999999997691 ) ;
#24 = AXIS2_PLACEMENT_3D ( 'NONE', #536, #807, #968 ) ;
#25 = VERTEX_POINT ( 'NONE', #926 ) ;
#26 = EDGE_CURVE ( 'NONE', #522, #750, #1013, .T. ) ;
#27 = ORIENTED_EDGE ( 'NONE', *, *, #599, .F. ) ;
#28 = DIRECTION ( 'NONE',  ( -0.000000000000000000, 1.000000000000000000, -0.000000000000000000 ) ) ;
#29 = ADVANCED_FACE ( 'NONE', ( #145 ), #405, .F. ) ;
#30 = CARTESIAN_POINT ( 'NONE',  ( 5.725331608042155906, 5.000000000000000000, -4.387736866230691035 ) ) ;
#31 = AXIS2_PLACEMENT_3D ( 'NONE', #565, #855, #930 ) ;
#32 = VERTEX_POINT ( 'NONE', #770 ) ;
#33 = EDGE_CURVE ( 'NONE', #684, #1100, #234, .T. ) ;
#34 = ORIENTED_EDGE ( 'NONE', *, *, #162, .T. ) ;
#35 = LINE ( 'NONE', #1024, #442 ) ;
#36 = ORIENTED_EDGE ( 'NONE', *, *, #372, .T. ) ;
#37 = SURFACE_SIDE_STYLE ('',( #304 ) ) ;
#38 = ORIENTED_EDGE ( 'NONE', *, *, #599, .T. ) ;
#39 = VECTOR ( 'NONE', #101, 1000.000000000000000 ) ;
#40 = VERTEX_POINT ( 'NONE', #584 ) ;
#41 = CARTESIAN_POINT ( 'NONE',  ( 5.725331608042155906, 5.000000000000000000, -4.387736866230691035 ) ) ;
#42 = DIRECTION ( 'NONE',  ( 0.000000000000000000, 0.000000000000000000, 1.000000000000000000 ) ) ;
#43 = VECTOR ( 'NONE', #1077, 1000.000000000000000 ) ;
#44 = CARTESIAN_POINT ( 'NONE',  ( 27.44453044909004191, 0.000000000000000000, -11.35000000000000320 ) ) ;
#45 = PLANE ( 'NONE',  #652 ) ;
#46 = ADVANCED_FACE ( 'NONE', ( #784, #591, #679, #852, #317, #764, #949, #505, #55, #667, #1032, #226, #941 ), #45, .T. ) ;
#47 = CIRCLE ( 'NONE', #862, 2.100000000000000977 ) ;
#48 = ORIENTED_EDGE ( 'NONE', *, *, #233, .F. ) ;
#49 = FACE_OUTER_BOUND ( 'NONE', #237, .T. ) ;
#50 = EDGE_CURVE ( 'NONE', #195, #898, #1081, .T. ) ;
#51 = CARTESIAN_POINT ( 'NONE',  ( 27.44453044909004191, 0.000000000000000000, -14.79378460101573900 ) ) ;
#52 = AXIS2_PLACEMENT_3D ( 'NONE', #579, #754, #945 ) ;
#53 = FACE_BOUND ( 'NONE', #200, .T. ) ;
#54 = ADVANCED_FACE ( 'NONE', ( #422 ), #323, .F. ) ;
#55 = FACE_BOUND ( 'NONE', #958, .T. ) ;
#56 = ORIENTED_EDGE ( 'NONE', *, *, #1147, .T. ) ;
#57 = DIRECTION ( 'NONE',  ( 0.000000000000000000, 0.000000000000000000, 1.000000000000000000 ) ) ;
#58 = CARTESIAN_POINT ( 'NONE',  ( 12.73258358166613391, 0.000000000000000000, -12.10000000000000320 ) ) ;
#59 = DIRECTION ( 'NONE',  ( -0.000000000000000000, 1.000000000000000000, 0.000000000000000000 ) ) ;
#60 = DIRECTION ( 'NONE',  ( 0.000000000000000000, 1.000000000000000000, 0.000000000000000000 ) ) ;
#61 = EDGE_CURVE ( 'NONE', #479, #1167, #1034, .T. ) ;
#62 = EDGE_LOOP ( 'NONE', ( #464, #1116, #284, #86 ) ) ;
#63 = LINE ( 'NONE', #938, #580 ) ;
#64 = CARTESIAN_POINT ( 'NONE',  ( 7.103736483251178235, 0.000000000000000000, -6.037736866230691390 ) ) ;
#65 = CARTESIAN_POINT ( 'NONE',  ( 20.70079576494985218, 0.000000000000000000, -6.037736866230689614 ) ) ;
#66 = CARTESIAN_POINT ( 'NONE',  ( 12.73258358166613391, 0.000000000000000000, -16.09378460101573793 ) ) ;
#67 = AXIS2_PLACEMENT_3D ( 'NONE', #375, #640, #752 ) ;
#68 = EDGE_CURVE ( 'NONE', #593, #120, #978, .T. ) ;
#69 = VERTEX_POINT ( 'NONE', #493 ) ;
#70 = DIRECTION ( 'NONE',  ( 0.000000000000000000, 0.000000000000000000, 1.000000000000000000 ) ) ;
#71 = CARTESIAN_POINT ( 'NONE',  ( 20.70079576494985218, 5.000000000000000000, -4.387736866230691035 ) ) ;
#72 = ORIENTED_EDGE ( 'NONE', *, *, #686, .F. ) ;
#73 = DIRECTION ( 'NONE',  ( -1.000000000000000000, 0.000000000000000000, -0.000000000000000000 ) ) ;
#74 = CARTESIAN_POINT ( 'NONE',  ( 0.000000000000000000, 5.000000000000000000, 0.000000000000000000 ) ) ;
#75 = ORIENTED_EDGE ( 'NONE', *, *, #396, .T. ) ;
#76 = DIRECTION ( 'NONE',  ( 0.000000000000000000, 1.000000000000000000, 0.000000000000000000 ) ) ;
#77 = DIRECTION ( 'NONE',  ( 1.000000000000000000, 0.000000000000000000, 0.000000000000000000 ) ) ;
#78 = VECTOR ( 'NONE', #801, 1000.000000000000000 ) ;
#79 = EDGE_LOOP ( 'NONE', ( #512, #297, #1004, #837 ) ) ;
#80 = CARTESIAN_POINT ( 'NONE',  ( 12.73258358166613391, 0.000000000000000000, -14.04378460101573722 ) ) ;
#81 = CARTESIAN_POINT ( 'NONE',  ( 27.44453044909004191, 5.000000000000000000, -3.087736866230692989 ) ) ;
#82 = AXIS2_PLACEMENT_3D ( 'NONE', #365, #370, #729 ) ;
#83 = ORIENTED_EDGE ( 'NONE', *, *, #650, .F. ) ;
#84 = DIRECTION ( 'NONE',  ( -0.000000000000000000, 1.000000000000000000, -0.000000000000000000 ) ) ;
#85 = AXIS2_PLACEMENT_3D ( 'NONE', #241, #60, #139 ) ;
#86 = ORIENTED_EDGE ( 'NONE', *, *, #1115, .T. ) ;
#87 = DIRECTION ( 'NONE',  ( -1.000000000000000000, 0.000000000000000000, -0.000000000000000000 ) ) ;
#88 = CARTESIAN_POINT ( 'NONE',  ( 27.44453044909004191, 5.000000000000000000, -17.39378460101573509 ) ) ;
#89 = VECTOR ( 'NONE', #572, 1000.000000000000000 ) ;
#90 = AXIS2_PLACEMENT_3D ( 'NONE', #851, #654, #1018 ) ;
#91 = ORIENTED_EDGE ( 'NONE', *, *, #256, .T. ) ;
#92 = CARTESIAN_POINT ( 'NONE',  ( 4.383690821542281846, 0.000000000000000000, -17.64378460101573509 ) ) ;
#93 = ORIENTED_EDGE ( 'NONE', *, *, #832, .F. ) ;
#94 = DIRECTION ( 'NONE',  ( 0.000000000000000000, 0.000000000000000000, 1.000000000000000000 ) ) ;
#95 = CIRCLE ( 'NONE', #1090, 1.299999999999997380 ) ;
#96 = VECTOR ( 'NONE', #839, 1000.000000000000000 ) ;
#97 = CYLINDRICAL_SURFACE ( 'NONE', #695, 2.100000000000000977 ) ;
#98 = EDGE_LOOP ( 'NONE', ( #289, #189, #556, #1000 ) ) ;
#99 = DIRECTION ( 'NONE',  ( 0.000000000000000000, 0.000000000000000000, 1.000000000000000000 ) ) ;
#100 = CIRCLE ( 'NONE', #717, 2.150000000000000355 ) ;
#101 = DIRECTION ( 'NONE',  ( 0.000000000000000000, 0.000000000000000000, -1.000000000000000000 ) ) ;
#102 = ORIENTED_EDGE ( 'NONE', *, *, #413, .F. ) ;
#103 = ORIENTED_EDGE ( 'NONE', *, *, #143, .F. ) ;
#104 = CYLINDRICAL_SURFACE ( 'NONE', #322, 1.299999999999997380 ) ;
#105 = CARTESIAN_POINT ( 'NONE',  ( 5.725331608042151466, 0.000000000000000000, -16.09378460101573438 ) ) ;
#106 = EDGE_LOOP ( 'NONE', ( #447, #630, #951 ) ) ;
#107 = EDGE_LOOP ( 'NONE', ( #723, #677, #391, #1105 ) ) ;
#108 = FACE_OUTER_BOUND ( 'NONE', #112, .T. ) ;
#109 = DIRECTION ( 'NONE',  ( 0.000000000000000000, 0.000000000000000000, 1.000000000000000000 ) ) ;
#110 = EDGE_LOOP ( 'NONE', ( #728, #83, #889, #252 ) ) ;
#111 = EDGE_CURVE ( 'NONE', #495, #1058, #149, .T. ) ;
#112 = EDGE_LOOP ( 'NONE', ( #491, #552, #1083, #357 ) ) ;
#113 = CYLINDRICAL_SURFACE ( 'NONE', #231, 2.150000000000000355 ) ;
#114 = AXIS2_PLACEMENT_3D ( 'NONE', #596, #714, #614 ) ;
#115 = FACE_OUTER_BOUND ( 'NONE', #571, .T. ) ;
#116 = EDGE_LOOP ( 'NONE', ( #194, #866 ) ) ;
#117 = ORIENTED_EDGE ( 'NONE', *, *, #487, .F. ) ;
#118 = LINE ( 'NONE', #415, #759 ) ;
#119 = DIRECTION ( 'NONE',  ( 0.000000000000000000, 0.000000000000000000, 1.000000000000000000 ) ) ;
#120 = VERTEX_POINT ( 'NONE', #842 ) ;
#121 = ORIENTED_EDGE ( 'NONE', *, *, #373, .T. ) ;
#122 = CARTESIAN_POINT ( 'NONE',  ( 27.44453044909004191, 0.000000000000000000, -16.09378460101573793 ) ) ;
#123 = CARTESIAN_POINT ( 'NONE',  ( 12.73258358166613391, 0.000000000000000000, -4.387736866230691035 ) ) ;
#124 = ORIENTED_EDGE ( 'NONE', *, *, #33, .F. ) ;
#125 = FACE_BOUND ( 'NONE', #793, .T. ) ;
#126 = DIRECTION ( 'NONE',  ( 0.000000000000000000, -0.000000000000000000, 1.000000000000000000 ) ) ;
#127 = AXIS2_PLACEMENT_3D ( 'NONE', #678, #1048, #310 ) ;
#128 = PRODUCT ( 'testprint', 'testprint', '', ( #602 ) ) ;
#129 = VERTEX_POINT ( 'NONE', #215 ) ;
#130 = DIRECTION ( 'NONE',  ( -1.000000000000000000, -0.000000000000000000, -0.000000000000000000 ) ) ;
#131 = DIRECTION ( 'NONE',  ( 0.000000000000000000, 0.000000000000000000, 1.000000000000000000 ) ) ;
#132 = CIRCLE ( 'NONE', #689, 1.299999999999998268 ) ;
#133 = DIRECTION ( 'NONE',  ( 0.000000000000000000, 0.000000000000000000, 1.000000000000000000 ) ) ;
#134 = EDGE_LOOP ( 'NONE', ( #787, #919, #1132, #424 ) ) ;
#135 = FACE_OUTER_BOUND ( 'NONE', #239, .T. ) ;
#136 = ORIENTED_EDGE ( 'NONE', *, *, #273, .F. ) ;
#137 = AXIS2_PLACEMENT_3D ( 'NONE', #314, #1140, #142 ) ;
#138 = DIRECTION ( 'NONE',  ( 0.000000000000000000, 0.000000000000000000, -1.000000000000000000 ) ) ;
#139 = DIRECTION ( 'NONE',  ( 0.000000000000000000, 0.000000000000000000, 1.000000000000000000 ) ) ;
#140 = VECTOR ( 'NONE', #860, 1000.000000000000000 ) ;
#141 = VERTEX_POINT ( 'NONE', #1042 ) ;
#142 = DIRECTION ( 'NONE',  ( 0.000000000000000000, 0.000000000000000000, 1.000000000000000000 ) ) ;
#143 = EDGE_CURVE ( 'NONE', #762, #1163, #510, .T. ) ;
#144 = ADVANCED_FACE ( 'NONE', ( #563 ), #485, .F. ) ;
#145 = FACE_OUTER_BOUND ( 'NONE', #1068, .T. ) ;
#146 = EDGE_LOOP ( 'NONE', ( #740, #1037 ) ) ;
#147 = ORIENTED_EDGE ( 'NONE', *, *, #623, .F. ) ;
#148 = PRESENTATION_STYLE_ASSIGNMENT (( #240 ) ) ;
#149 = LINE ( 'NONE', #411, #270 ) ;
#150 = CLOSED_SHELL ( 'NONE', ( #644, #144, #1, #708, #718, #1174, #264, #216, #999, #722, #1040, #775, #701, #705, #412, #879, #46, #494, #29, #803, #615, #403, #980, #54, #636, #419, #376, #646, #1015, #1129, #749, #612, #970 ) ) ;
#151 = EDGE_CURVE ( 'NONE', #1087, #766, #733, .T. ) ;
#152 = CIRCLE ( 'NONE', #360, 2.099999999999999645 ) ;
#153 = ORIENTED_EDGE ( 'NONE', *, *, #888, .T. ) ;
#154 = DIRECTION ( 'NONE',  ( -1.000000000000000000, -0.000000000000000000, -0.000000000000000000 ) ) ;
#155 = ORIENTED_EDGE ( 'NONE', *, *, #1057, .F. ) ;
#156 = DIRECTION ( 'NONE',  ( 0.000000000000000000, 0.000000000000000000, 1.000000000000000000 ) ) ;
#157 = CARTESIAN_POINT ( 'NONE',  ( 0.000000000000000000, 0.000000000000000000, 0.000000000000000000 ) ) ;
#158 = DIRECTION ( 'NONE',  ( 0.000000000000000000, 0.000000000000000000, 1.000000000000000000 ) ) ;
#159 = DIRECTION ( 'NONE',  ( 0.000000000000000000, 0.000000000000000000, 1.000000000000000000 ) ) ;
#160 = VERTEX_POINT ( 'NONE', #622 ) ;
#161 = CARTESIAN_POINT ( 'NONE',  ( 5.725331608042155906, 0.000000000000000000, -10.00000000000000000 ) ) ;
#162 = EDGE_CURVE ( 'NONE', #830, #438, #824, .T. ) ;
#163 = DIRECTION ( 'NONE',  ( 0.000000000000000000, 0.000000000000000000, 1.000000000000000000 ) ) ;
#164 = EDGE_CURVE ( 'NONE', #390, #1118, #886, .T. ) ;
#165 = ORIENTED_EDGE ( 'NONE', *, *, #623, .T. ) ;
#166 = CARTESIAN_POINT ( 'NONE',  ( 20.70079576494985218, 0.000000000000000000, -6.037736866230689614 ) ) ;
#167 = VECTOR ( 'NONE', #138, 1000.000000000000000 ) ;
#168 = ORIENTED_EDGE ( 'NONE', *, *, #312, .T. ) ;
#169 = DIRECTION ( 'NONE',  ( 0.000000000000000000, 0.000000000000000000, 1.000000000000000000 ) ) ;
#170 = EDGE_CURVE ( 'NONE', #684, #547, #468, .T. ) ;
#171 = DIRECTION ( 'NONE',  ( 0.000000000000000000, 0.000000000000000000, 1.000000000000000000 ) ) ;
#172 = CIRCLE ( 'NONE', #936, 2.049999999999999822 ) ;
#173 = CARTESIAN_POINT ( 'NONE',  ( 12.73258358166613391, 0.000000000000000000, -7.900000000000000355 ) ) ;
#174 = AXIS2_PLACEMENT_3D ( 'NONE', #962, #514, #979 ) ;
#175 = ORIENTED_EDGE ( 'NONE', *, *, #887, .T. ) ;
#176 = FACE_OUTER_BOUND ( 'NONE', #595, .T. ) ;
#177 = EDGE_CURVE ( 'NONE', #160, #1100, #777, .T. ) ;
#178 = CARTESIAN_POINT ( 'NONE',  ( 12.73258358166613391, 5.000000000000000000, -4.387736866230691035 ) ) ;
#179 = DIRECTION ( 'NONE',  ( 0.000000000000000000, 0.000000000000000000, 1.000000000000000000 ) ) ;
#180 = EDGE_LOOP ( 'NONE', ( #335, #603 ) ) ;
#181 = CYLINDRICAL_SURFACE ( 'NONE', #1166, 1.350000000000002309 ) ;
#182 = DIRECTION ( 'NONE',  ( 0.000000000000000000, 1.000000000000000000, 0.000000000000000000 ) ) ;
#183 = EDGE_LOOP ( 'NONE', ( #1053, #168 ) ) ;
#184 = CYLINDRICAL_SURFACE ( 'NONE', #902, 2.049999999999999822 ) ;
#185 = VECTOR ( 'NONE', #685, 1000.000000000000000 ) ;
#186 = CARTESIAN_POINT ( 'NONE',  ( 12.73258358166613391, 0.000000000000000000, -2.237736866230693344 ) ) ;
#187 = VERTEX_POINT ( 'NONE', #5 ) ;
#188 = VECTOR ( 'NONE', #1120, 1000.000000000000000 ) ;
#189 = ORIENTED_EDGE ( 'NONE', *, *, #1030, .F. ) ;
#190 = CARTESIAN_POINT ( 'NONE',  ( 30.00000000000000000, 5.000000000000000000, 0.000000000000000000 ) ) ;
#191 = EDGE_CURVE ( 'NONE', #141, #555, #227, .T. ) ;
#192 = CIRCLE ( 'NONE', #209, 2.099999999999999645 ) ;
#193 = DIRECTION ( 'NONE',  ( -0.000000000000000000, 1.000000000000000000, -0.000000000000000000 ) ) ;
#194 = ORIENTED_EDGE ( 'NONE', *, *, #61, .F. ) ;
#195 = VERTEX_POINT ( 'NONE', #81 ) ;
#196 = DIRECTION ( 'NONE',  ( -1.000000000000000000, -0.000000000000000000, -0.000000000000000000 ) ) ;
#197 = DIRECTION ( 'NONE',  ( -0.000000000000000000, 1.000000000000000000, -0.000000000000000000 ) ) ;
#198 = ORIENTED_EDGE ( 'NONE', *, *, #932, .F. ) ;
#199 = EDGE_CURVE ( 'NONE', #3, #69, #380, .T. ) ;
#200 = EDGE_LOOP ( 'NONE', ( #811, #420, #211 ) ) ;
#201 = LINE ( 'NONE', #890, #573 ) ;
#202 = PRODUCT_RELATED_PRODUCT_CATEGORY ( 'part', '', ( #128 ) ) ;
#203 = DIRECTION ( 'NONE',  ( 0.000000000000000000, 0.000000000000000000, 1.000000000000000000 ) ) ;
#204 = EDGE_CURVE ( 'NONE', #843, #129, #152, .T. ) ;
#205 = ORIENTED_EDGE ( 'NONE', *, *, #1073, .T. ) ;
#206 = ORIENTED_EDGE ( 'NONE', *, *, #1173, .F. ) ;
#207 = FACE_OUTER_BOUND ( 'NONE', #613, .T. ) ;
#208 = DIRECTION ( 'NONE',  ( -1.000000000000000000, -0.000000000000000000, -0.000000000000000000 ) ) ;
#209 = AXIS2_PLACEMENT_3D ( 'NONE', #688, #359, #605 ) ;
#210 = VERTEX_POINT ( 'NONE', #796 ) ;
#211 = ORIENTED_EDGE ( 'NONE', *, *, #697, .T. ) ;
#212 = LINE ( 'NONE', #561, #829 ) ;
#213 = DIRECTION ( 'NONE',  ( 0.000000000000000000, 0.000000000000000000, 1.000000000000000000 ) ) ;
#214 = CARTESIAN_POINT ( 'NONE',  ( 27.44453044909004191, 0.000000000000000000, -17.39378460101573509 ) ) ;
#215 = CARTESIAN_POINT ( 'NONE',  ( 5.725331608042155906, 5.000000000000000000, -7.900000000000000355 ) ) ;
#216 = ADVANCED_FACE ( 'NONE', ( #891 ), #97, .F. ) ;
#217 = ORIENTED_EDGE ( 'NONE', *, *, #696, .T. ) ;
#218 = CARTESIAN_POINT ( 'NONE',  ( 27.44453044909004191, 0.000000000000000000, -4.387736866230691035 ) ) ;
#219 = CARTESIAN_POINT ( 'NONE',  ( 0.000000000000000000, 5.000000000000000000, 0.000000000000000000 ) ) ;
#220 = DIRECTION ( 'NONE',  ( 0.000000000000000000, 1.000000000000000000, 0.000000000000000000 ) ) ;
#221 = AXIS2_PLACEMENT_3D ( 'NONE', #421, #354, #604 ) ;
#222 = ORIENTED_EDGE ( 'NONE', *, *, #204, .T. ) ;
#223 = EDGE_CURVE ( 'NONE', #129, #265, #192, .T. ) ;
#224 = DIRECTION ( 'NONE',  ( 0.000000000000000000, 1.000000000000000000, 0.000000000000000000 ) ) ;
#225 = DIRECTION ( 'NONE',  ( 0.000000000000000000, 0.000000000000000000, 1.000000000000000000 ) ) ;
#226 = FACE_BOUND ( 'NONE', #651, .T. ) ;
#227 = CIRCLE ( 'NONE', #880, 2.149999999999997691 ) ;
#228 = EDGE_LOOP ( 'NONE', ( #825, #206 ) ) ;
#229 = DIRECTION ( 'NONE',  ( -0.000000000000000000, 1.000000000000000000, -0.000000000000000000 ) ) ;
#230 = EDGE_LOOP ( 'NONE', ( #461, #551 ) ) ;
#231 = AXIS2_PLACEMENT_3D ( 'NONE', #631, #549, #99 ) ;
#232 =( LENGTH_UNIT ( ) NAMED_UNIT ( * ) SI_UNIT ( .MILLI., .METRE. ) );
#233 = EDGE_CURVE ( 'NONE', #719, #762, #1082, .T. ) ;
#234 = LINE ( 'NONE', #569, #715 ) ;
#235 = CIRCLE ( 'NONE', #31, 2.099999999999999645 ) ;
#236 = EDGE_CURVE ( 'NONE', #210, #300, #868, .T. ) ;
#237 = EDGE_LOOP ( 'NONE', ( #904, #607, #548, #900 ) ) ;
#238 = CARTESIAN_POINT ( 'NONE',  ( 20.70079576494985218, 0.000000000000000000, -17.64378460101573154 ) ) ;
#239 = EDGE_LOOP ( 'NONE', ( #585, #994, #1079, #976 ) ) ;
#240 = SURFACE_STYLE_USAGE ( .BOTH. , #37 ) ;
#241 = CARTESIAN_POINT ( 'NONE',  ( 12.73258358166613391, 5.000000000000000000, -10.00000000000000178 ) ) ;
#242 = PRESENTATION_LAYER_ASSIGNMENT (  '', '', ( #687 ) ) ;
#243 = CIRCLE ( 'NONE', #248, 2.149999999999997691 ) ;
#244 = ORIENTED_EDGE ( 'NONE', *, *, #795, .F. ) ;
#245 = DIRECTION ( 'NONE',  ( -0.000000000000000000, -1.000000000000000000, -0.000000000000000000 ) ) ;
#246 = VERTEX_POINT ( 'NONE', #249 ) ;
#247 = PLANE ( 'NONE',  #371 ) ;
#248 = AXIS2_PLACEMENT_3D ( 'NONE', #123, #481, #42 ) ;
#249 = CARTESIAN_POINT ( 'NONE',  ( 27.44453044909004191, 0.000000000000000000, -3.087736866230692989 ) ) ;
#250 = AXIS2_PLACEMENT_3D ( 'NONE', #1108, #458, #13 ) ;
#251 = EDGE_LOOP ( 'NONE', ( #332, #564, #36, #259 ) ) ;
#252 = ORIENTED_EDGE ( 'NONE', *, *, #1036, .T. ) ;
#253 = DIRECTION ( 'NONE',  ( 0.000000000000000000, 0.000000000000000000, -1.000000000000000000 ) ) ;
#254 = CIRCLE ( 'NONE', #137, 2.150000000000000355 ) ;
#255 = CARTESIAN_POINT ( 'NONE',  ( 5.725331608042151466, 5.000000000000000000, -14.04378460101573367 ) ) ;
#256 = EDGE_CURVE ( 'NONE', #120, #1014, #1165, .T. ) ;
#257 = EDGE_CURVE ( 'NONE', #516, #1072, #100, .T. ) ;
#258 = ORIENTED_EDGE ( 'NONE', *, *, #426, .T. ) ;
#259 = ORIENTED_EDGE ( 'NONE', *, *, #1073, .F. ) ;
#260 = CARTESIAN_POINT ( 'NONE',  ( 4.365184557168610979, 0.000000000000000000, -11.60000000000000142 ) ) ;
#261 = CARTESIAN_POINT ( 'NONE',  ( 0.000000000000000000, 5.000000000000000000, 0.000000000000000000 ) ) ;
#262 = LINE ( 'NONE', #804, #1145 ) ;
#263 = LINE ( 'NONE', #166, #43 ) ;
#264 = ADVANCED_FACE ( 'NONE', ( #790 ), #1158, .F. ) ;
#265 = VERTEX_POINT ( 'NONE', #1076 ) ;
#266 = LINE ( 'NONE', #260, #78 ) ;
#267 = DIRECTION ( 'NONE',  ( 0.000000000000000000, 1.000000000000000000, 0.000000000000000000 ) ) ;
#268 = AXIS2_PLACEMENT_3D ( 'NONE', #783, #513, #806 ) ;
#269 = DIRECTION ( 'NONE',  ( -0.000000000000000000, 1.000000000000000000, -0.000000000000000000 ) ) ;
#270 = VECTOR ( 'NONE', #674, 1000.000000000000000 ) ;
#271 = ORIENTED_EDGE ( 'NONE', *, *, #1036, .F. ) ;
#272 = FACE_OUTER_BOUND ( 'NONE', #828, .T. ) ;
#273 = EDGE_CURVE ( 'NONE', #547, #684, #511, .T. ) ;
#274 = DIRECTION ( 'NONE',  ( 0.000000000000000000, 0.000000000000000000, 1.000000000000000000 ) ) ;
#275 = EDGE_LOOP ( 'NONE', ( #905, #72 ) ) ;
#276 = DIRECTION ( 'NONE',  ( 1.000000000000000000, 0.000000000000000000, 0.000000000000000000 ) ) ;
#277 = DIRECTION ( 'NONE',  ( -1.000000000000000000, 0.000000000000000000, -0.000000000000000000 ) ) ;
#278 = ORIENTED_EDGE ( 'NONE', *, *, #849, .T. ) ;
#279 = VERTEX_POINT ( 'NONE', #88 ) ;
#280 = DIRECTION ( 'NONE',  ( 0.000000000000000000, 0.000000000000000000, 1.000000000000000000 ) ) ;
#281 = AXIS2_PLACEMENT_3D ( 'NONE', #911, #363, #367 ) ;
#282 = AXIS2_PLACEMENT_3D ( 'NONE', #161, #1054, #444 ) ;
#283 = DIRECTION ( 'NONE',  ( 0.000000000000000000, 0.000000000000000000, -1.000000000000000000 ) ) ;
#284 = ORIENTED_EDGE ( 'NONE', *, *, #164, .F. ) ;
#285 = CIRCLE ( 'NONE', #1096, 2.049999999999999822 ) ;
#286 = ORIENTED_EDGE ( 'NONE', *, *, #472, .T. ) ;
#287 = FACE_OUTER_BOUND ( 'NONE', #971, .T. ) ;
#288 = CARTESIAN_POINT ( 'NONE',  ( 20.70079576494985218, 5.000000000000000000, -6.037736866230689614 ) ) ;
#289 = ORIENTED_EDGE ( 'NONE', *, *, #1035, .F. ) ;
#290 = CIRCLE ( 'NONE', #1102, 2.100000000000000977 ) ;
#291 = VERTEX_POINT ( 'NONE', #255 ) ;
#292 = EDGE_CURVE ( 'NONE', #438, #830, #1117, .T. ) ;
#293 = LINE ( 'NONE', #724, #670 ) ;
#294 = VECTOR ( 'NONE', #327, 1000.000000000000000 ) ;
#295 = DIRECTION ( 'NONE',  ( 0.000000000000000000, 1.000000000000000000, 0.000000000000000000 ) ) ;
#296 = EDGE_LOOP ( 'NONE', ( #1066, #313, #909, #1112 ) ) ;
#297 = ORIENTED_EDGE ( 'NONE', *, *, #1035, .T. ) ;
#298 = FACE_OUTER_BOUND ( 'NONE', #454, .T. ) ;
#299 = CARTESIAN_POINT ( 'NONE',  ( 4.365184557168610979, 0.000000000000000000, -11.60000000000000142 ) ) ;
#300 = VERTEX_POINT ( 'NONE', #1172 ) ;
#301 = EDGE_LOOP ( 'NONE', ( #378, #147, #1005, #534 ) ) ;
#302 = DIRECTION ( 'NONE',  ( 0.000000000000000000, 0.000000000000000000, 1.000000000000000000 ) ) ;
#303 = CYLINDRICAL_SURFACE ( 'NONE', #532, 2.049999999999999822 ) ;
#304 = SURFACE_STYLE_FILL_AREA ( #1041 ) ;
#305 = VECTOR ( 'NONE', #77, 1000.000000000000000 ) ;
#306 = ORIENTED_EDGE ( 'NONE', *, *, #869, .F. ) ;
#307 = EDGE_LOOP ( 'NONE', ( #743, #713 ) ) ;
#308 = CARTESIAN_POINT ( 'NONE',  ( 27.44453044909004191, 5.000000000000000000, -5.687736866230689081 ) ) ;
#309 = LINE ( 'NONE', #659, #934 ) ;
#310 = DIRECTION ( 'NONE',  ( 0.000000000000000000, 0.000000000000000000, 1.000000000000000000 ) ) ;
#311 = CARTESIAN_POINT ( 'NONE',  ( 20.70079576494985218, 5.000000000000000000, -10.00000000000000000 ) ) ;
#312 = EDGE_CURVE ( 'NONE', #32, #1161, #47, .T. ) ;
#313 = ORIENTED_EDGE ( 'NONE', *, *, #1109, .F. ) ;
#314 = CARTESIAN_POINT ( 'NONE',  ( 5.725331608042155906, 0.000000000000000000, -4.387736866230691035 ) ) ;
#315 = CARTESIAN_POINT ( 'NONE',  ( 5.725331608042151466, 0.000000000000000000, -16.09378460101573438 ) ) ;
#316 = DIRECTION ( 'NONE',  ( 0.000000000000000000, 1.000000000000000000, 0.000000000000000000 ) ) ;
#317 = FACE_BOUND ( 'NONE', #981, .T. ) ;
#318 = ORIENTED_EDGE ( 'NONE', *, *, #292, .T. ) ;
#319 = CARTESIAN_POINT ( 'NONE',  ( 12.73258358166613391, 0.000000000000000000, -14.04378460101573722 ) ) ;
#320 = EDGE_CURVE ( 'NONE', #560, #1014, #9, .T. ) ;
#321 = DIRECTION ( 'NONE',  ( -0.000000000000000000, 1.000000000000000000, -0.000000000000000000 ) ) ;
#322 = AXIS2_PLACEMENT_3D ( 'NONE', #741, #1107, #735 ) ;
#323 = CYLINDRICAL_SURFACE ( 'NONE', #672, 2.100000000000000977 ) ;
#324 = EDGE_CURVE ( 'NONE', #895, #129, #1097, .T. ) ;
#325 = ORIENTED_EDGE ( 'NONE', *, *, #273, .T. ) ;
#326 = CARTESIAN_POINT ( 'NONE',  ( 0.000000000000000000, 5.000000000000000000, -20.00000000000000000 ) ) ;
#327 = DIRECTION ( 'NONE',  ( -0.000000000000000000, -1.000000000000000000, -0.000000000000000000 ) ) ;
#328 = ORIENTED_EDGE ( 'NONE', *, *, #26, .F. ) ;
#329 = DIRECTION ( 'NONE',  ( 0.000000000000000000, 1.000000000000000000, 0.000000000000000000 ) ) ;
#330 = DIRECTION ( 'NONE',  ( -0.000000000000000000, 1.000000000000000000, -0.000000000000000000 ) ) ;
#331 = CIRCLE ( 'NONE', #983, 1.299999999999997380 ) ;
#332 = ORIENTED_EDGE ( 'NONE', *, *, #1085, .F. ) ;
#333 = LINE ( 'NONE', #58, #1169 ) ;
#334 = CARTESIAN_POINT ( 'NONE',  ( 12.73258358166613391, 0.000000000000000000, -16.09378460101573793 ) ) ;
#335 = ORIENTED_EDGE ( 'NONE', *, *, #351, .T. ) ;
#336 = DIRECTION ( 'NONE',  ( 0.000000000000000000, 1.000000000000000000, 0.000000000000000000 ) ) ;
#337 = DIRECTION ( 'NONE',  ( -0.000000000000000000, 1.000000000000000000, -0.000000000000000000 ) ) ;
#338 = AXIS2_PLACEMENT_3D ( 'NONE', #374, #1012, #827 ) ;
#339 = AXIS2_PLACEMENT_3D ( 'NONE', #404, #59, #409 ) ;
#340 = CARTESIAN_POINT ( 'NONE',  ( 5.725331608042155906, 0.000000000000000000, -10.00000000000000000 ) ) ;
#341 = EDGE_LOOP ( 'NONE', ( #1092, #386, #915, #698 ) ) ;
#342 = PLANE ( 'NONE',  #1033 ) ;
#343 = CIRCLE ( 'NONE', #894, 1.299999999999997380 ) ;
#344 = CARTESIAN_POINT ( 'NONE',  ( 5.725331608042155906, 5.000000000000000000, -10.00000000000000000 ) ) ;
#345 = VERTEX_POINT ( 'NONE', #1007 ) ;
#346 = ORIENTED_EDGE ( 'NONE', *, *, #592, .T. ) ;
#347 = DIRECTION ( 'NONE',  ( -0.000000000000000000, -1.000000000000000000, -0.000000000000000000 ) ) ;
#348 = CIRCLE ( 'NONE', #52, 1.350000000000002309 ) ;
#349 = CARTESIAN_POINT ( 'NONE',  ( 27.44453044909004191, 5.000000000000000000, -10.00000000000000000 ) ) ;
#350 = UNCERTAINTY_MEASURE_WITH_UNIT (LENGTH_MEASURE( 1.000000000000000082E-05 ), #1146, 'distance_accuracy_value', 'NONE');
#351 = EDGE_CURVE ( 'NONE', #401, #40, #655, .T. ) ;
#352 = ORIENTED_EDGE ( 'NONE', *, *, #1067, .F. ) ;
#353 = ORIENTED_EDGE ( 'NONE', *, *, #373, .F. ) ;
#354 = DIRECTION ( 'NONE',  ( -0.000000000000000000, 1.000000000000000000, -0.000000000000000000 ) ) ;
#355 = DIRECTION ( 'NONE',  ( 0.000000000000000000, 0.000000000000000000, 1.000000000000000000 ) ) ;
#356 = APPLICATION_PROTOCOL_DEFINITION ( 'draft international standard', 'automotive_design', 1998, #986 ) ;
#357 = ORIENTED_EDGE ( 'NONE', *, *, #650, .T. ) ;
#358 = CARTESIAN_POINT ( 'NONE',  ( 20.70079576494985218, 5.000000000000000000, -2.737736866230692456 ) ) ;
#359 = DIRECTION ( 'NONE',  ( 0.000000000000000000, 1.000000000000000000, 0.000000000000000000 ) ) ;
#360 = AXIS2_PLACEMENT_3D ( 'NONE', #344, #441, #355 ) ;
#361 = ORIENTED_EDGE ( 'NONE', *, *, #832, .T. ) ;
#362 = DIRECTION ( 'NONE',  ( -0.000000000000000000, 1.000000000000000000, -0.000000000000000000 ) ) ;
#363 = DIRECTION ( 'NONE',  ( -0.000000000000000000, 1.000000000000000000, -0.000000000000000000 ) ) ;
#364 = VERTEX_POINT ( 'NONE', #299 ) ;
#365 = CARTESIAN_POINT ( 'NONE',  ( 12.73258358166613391, 0.000000000000000000, -4.387736866230691035 ) ) ;
#366 = EDGE_CURVE ( 'NONE', #543, #898, #818, .T. ) ;
#367 = DIRECTION ( 'NONE',  ( 0.000000000000000000, 0.000000000000000000, 1.000000000000000000 ) ) ;
#368 = VERTEX_POINT ( 'NONE', #730 ) ;
#369 = VERTEX_POINT ( 'NONE', #288 ) ;
#370 = DIRECTION ( 'NONE',  ( -0.000000000000000000, 1.000000000000000000, -0.000000000000000000 ) ) ;
#371 = AXIS2_PLACEMENT_3D ( 'NONE', #621, #863, #87 ) ;
#372 = EDGE_CURVE ( 'NONE', #279, #966, #95, .T. ) ;
#373 = EDGE_CURVE ( 'NONE', #966, #279, #835, .T. ) ;
#374 = CARTESIAN_POINT ( 'NONE',  ( 4.365184557168610979, 0.000000000000000000, -11.60000000000000142 ) ) ;
#375 = CARTESIAN_POINT ( 'NONE',  ( 12.73258358166613391, 0.000000000000000000, -16.09378460101573793 ) ) ;
#376 = ADVANCED_FACE ( 'NONE', ( #649 ), #1003, .F. ) ;
#377 = CIRCLE ( 'NONE', #114, 2.149999999999997691 ) ;
#378 = ORIENTED_EDGE ( 'NONE', *, *, #956, .T. ) ;
#379 = CYLINDRICAL_SURFACE ( 'NONE', #774, 1.600000000000002531 ) ;
#380 = CIRCLE ( 'NONE', #24, 1.600000000000002531 ) ;
#381 = DIRECTION ( 'NONE',  ( -0.000000000000000000, 1.000000000000000000, -0.000000000000000000 ) ) ;
#382 = ORIENTED_EDGE ( 'NONE', *, *, #1159, .T. ) ;
#383 = ORIENTED_EDGE ( 'NONE', *, *, #68, .T. ) ;
#384 = CARTESIAN_POINT ( 'NONE',  ( 12.73258358166613391, 0.000000000000000000, -10.00000000000000178 ) ) ;
#385 = DIRECTION ( 'NONE',  ( 0.000000000000000000, 0.000000000000000000, 1.000000000000000000 ) ) ;
#386 = ORIENTED_EDGE ( 'NONE', *, *, #1131, .T. ) ;
#387 = ORIENTED_EDGE ( 'NONE', *, *, #696, .F. ) ;
#388 = LINE ( 'NONE', #761, #942 ) ;
#389 = COLOUR_RGB ( '',0.7921568627450980005, 0.8196078431372548767, 0.9333333333333333481 ) ;
#390 = VERTEX_POINT ( 'NONE', #645 ) ;
#391 = ORIENTED_EDGE ( 'NONE', *, *, #765, .T. ) ;
#392 = VECTOR ( 'NONE', #533, 1000.000000000000000 ) ;
#393 = ORIENTED_EDGE ( 'NONE', *, *, #1020, .F. ) ;
#394 = CARTESIAN_POINT ( 'NONE',  ( 0.000000000000000000, 5.000000000000000000, 0.000000000000000000 ) ) ;
#395 = CARTESIAN_POINT ( 'NONE',  ( 27.44453044909004191, 5.000000000000000000, -8.649999999999998579 ) ) ;
#396 = EDGE_CURVE ( 'NONE', #1009, #364, #463, .T. ) ;
#397 = FACE_BOUND ( 'NONE', #1023, .T. ) ;
#398 = VECTOR ( 'NONE', #193, 1000.000000000000000 ) ;
#399 = DIRECTION ( 'NONE',  ( -0.000000000000000000, 1.000000000000000000, -0.000000000000000000 ) ) ;
#400 = CIRCLE ( 'NONE', #525, 1.299999999999998268 ) ;
#401 = VERTEX_POINT ( 'NONE', #917 ) ;
#402 = CYLINDRICAL_SURFACE ( 'NONE', #676, 1.649999999999998579 ) ;
#403 = ADVANCED_FACE ( 'NONE', ( #554 ), #23, .F. ) ;
#404 = CARTESIAN_POINT ( 'NONE',  ( 0.000000000000000000, 0.000000000000000000, 0.000000000000000000 ) ) ;
#405 = CYLINDRICAL_SURFACE ( 'NONE', #6, 1.350000000000002309 ) ;
#406 = ORIENTED_EDGE ( 'NONE', *, *, #111, .T. ) ;
#407 = CARTESIAN_POINT ( 'NONE',  ( 27.44453044909004191, 5.000000000000000000, -14.79378460101573900 ) ) ;
#408 = DIRECTION ( 'NONE',  ( -0.000000000000000000, 1.000000000000000000, -0.000000000000000000 ) ) ;
#409 = DIRECTION ( 'NONE',  ( 0.000000000000000000, -0.000000000000000000, 1.000000000000000000 ) ) ;
#410 = EDGE_CURVE ( 'NONE', #1118, #345, #537, .T. ) ;
#411 = CARTESIAN_POINT ( 'NONE',  ( 0.000000000000000000, 5.000000000000000000, -20.00000000000000000 ) ) ;
#412 = ADVANCED_FACE ( 'NONE', ( #725 ), #897, .T. ) ;
#413 = EDGE_CURVE ( 'NONE', #401, #555, #632, .T. ) ;
#414 = VERTEX_POINT ( 'NONE', #10 ) ;
#415 = CARTESIAN_POINT ( 'NONE',  ( 7.085478658915699945, 0.000000000000000000, -11.60000000000000142 ) ) ;
#416 = CARTESIAN_POINT ( 'NONE',  ( 27.44453044909004191, 0.000000000000000000, -5.687736866230689081 ) ) ;
#417 = DIRECTION ( 'NONE',  ( 0.000000000000000000, 0.000000000000000000, 1.000000000000000000 ) ) ;
#418 = VECTOR ( 'NONE', #445, 1000.000000000000000 ) ;
#419 = ADVANCED_FACE ( 'NONE', ( #115 ), #823, .F. ) ;
#420 = ORIENTED_EDGE ( 'NONE', *, *, #410, .T. ) ;
#421 = CARTESIAN_POINT ( 'NONE',  ( 20.70079576494985218, 0.000000000000000000, -16.09378460101573793 ) ) ;
#422 = FACE_OUTER_BOUND ( 'NONE', #642, .T. ) ;
#423 = CARTESIAN_POINT ( 'NONE',  ( 0.000000000000000000, 0.000000000000000000, 0.000000000000000000 ) ) ;
#424 = ORIENTED_EDGE ( 'NONE', *, *, #984, .F. ) ;
#425 = DIRECTION ( 'NONE',  ( 0.000000000000000000, 0.000000000000000000, 1.000000000000000000 ) ) ;
#426 = EDGE_CURVE ( 'NONE', #800, #746, #1111, .T. ) ;
#427 = DIRECTION ( 'NONE',  ( 0.000000000000000000, 1.000000000000000000, 0.000000000000000000 ) ) ;
#428 = UNCERTAINTY_MEASURE_WITH_UNIT (LENGTH_MEASURE( 1.000000000000000082E-05 ), #232, 'distance_accuracy_value', 'NONE');
#429 =( GEOMETRIC_REPRESENTATION_CONTEXT ( 3 ) GLOBAL_UNCERTAINTY_ASSIGNED_CONTEXT ( ( #428 ) ) GLOBAL_UNIT_ASSIGNED_CONTEXT ( ( #232, #588, #933 ) ) REPRESENTATION_CONTEXT ( 'NONE', 'WORKASPACE' ) );
#430 = CARTESIAN_POINT ( 'NONE',  ( 7.085478658915699945, 0.000000000000000000, -11.60000000000000142 ) ) ;
#431 = APPLICATION_PROTOCOL_DEFINITION ( 'draft international standard', 'automotive_design', 1998, #478 ) ;
#432 = ORIENTED_EDGE ( 'NONE', *, *, #778, .F. ) ;
#433 = CARTESIAN_POINT ( 'NONE',  ( 4.383690821542281846, 0.000000000000000000, -17.64378460101573509 ) ) ;
#434 = DIRECTION ( 'NONE',  ( 0.000000000000000000, 0.000000000000000000, 1.000000000000000000 ) ) ;
#435 = VECTOR ( 'NONE', #347, 1000.000000000000000 ) ;
#436 = AXIS2_PLACEMENT_3D ( 'NONE', #957, #1144, #133 ) ;
#437 =( NAMED_UNIT ( * ) SI_UNIT ( $, .STERADIAN. ) SOLID_ANGLE_UNIT ( ) );
#438 = VERTEX_POINT ( 'NONE', #626 ) ;
#439 = DIRECTION ( 'NONE',  ( 0.000000000000000000, 0.000000000000000000, -1.000000000000000000 ) ) ;
#440 = VECTOR ( 'NONE', #502, 1000.000000000000000 ) ;
#441 = DIRECTION ( 'NONE',  ( 0.000000000000000000, 1.000000000000000000, 0.000000000000000000 ) ) ;
#442 = VECTOR ( 'NONE', #229, 1000.000000000000000 ) ;
#443 = ORIENTED_EDGE ( 'NONE', *, *, #581, .F. ) ;
#444 = DIRECTION ( 'NONE',  ( 0.000000000000000000, 0.000000000000000000, 1.000000000000000000 ) ) ;
#445 = DIRECTION ( 'NONE',  ( -1.000000000000000000, -0.000000000000000000, -0.000000000000000000 ) ) ;
#446 = EDGE_CURVE ( 'NONE', #300, #414, #540, .T. ) ;
#447 = ORIENTED_EDGE ( 'NONE', *, *, #582, .F. ) ;
#448 = DIRECTION ( 'NONE',  ( 0.000000000000000000, 0.000000000000000000, 1.000000000000000000 ) ) ;
#449 = DIRECTION ( 'NONE',  ( 0.000000000000000000, 0.000000000000000000, 1.000000000000000000 ) ) ;
#450 = AXIS2_PLACEMENT_3D ( 'NONE', #694, #1064, #171 ) ;
#451 = ORIENTED_EDGE ( 'NONE', *, *, #151, .F. ) ;
#452 = DIRECTION ( 'NONE',  ( 0.000000000000000000, 0.000000000000000000, 1.000000000000000000 ) ) ;
#453 = LINE ( 'NONE', #813, #482 ) ;
#454 = EDGE_LOOP ( 'NONE', ( #136, #20, #924, #124 ) ) ;
#455 = EDGE_CURVE ( 'NONE', #516, #800, #453, .T. ) ;
#456 = ORIENTED_EDGE ( 'NONE', *, *, #455, .T. ) ;
#457 = FACE_OUTER_BOUND ( 'NONE', #251, .T. ) ;
#458 = DIRECTION ( 'NONE',  ( 0.000000000000000000, 1.000000000000000000, 0.000000000000000000 ) ) ;
#459 = MANIFOLD_SOLID_BREP ( 'Cut-Extrude3', #150 ) ;
#460 = FACE_OUTER_BOUND ( 'NONE', #7, .T. ) ;
#461 = ORIENTED_EDGE ( 'NONE', *, *, #1152, .T. ) ;
#462 = DIRECTION ( 'NONE',  ( 0.000000000000000000, 1.000000000000000000, 0.000000000000000000 ) ) ;
#463 = LINE ( 'NONE', #550, #744 ) ;
#464 = ORIENTED_EDGE ( 'NONE', *, *, #1011, .T. ) ;
#465 = CIRCLE ( 'NONE', #732, 1.649999999999998579 ) ;
#466 = ORIENTED_EDGE ( 'NONE', *, *, #50, .F. ) ;
#467 = CARTESIAN_POINT ( 'NONE',  ( 30.00000000000000000, 0.000000000000000000, 0.000000000000000000 ) ) ;
#468 = CIRCLE ( 'NONE', #618, 1.350000000000002309 ) ;
#469 = DIRECTION ( 'NONE',  ( 0.000000000000000000, 0.000000000000000000, 1.000000000000000000 ) ) ;
#470 = EDGE_CURVE ( 'NONE', #291, #368, #836, .T. ) ;
#471 = VERTEX_POINT ( 'NONE', #846 ) ;
#472 = EDGE_CURVE ( 'NONE', #210, #495, #833, .T. ) ;
#473 = ORIENTED_EDGE ( 'NONE', *, *, #257, .F. ) ;
#474 = CARTESIAN_POINT ( 'NONE',  ( 20.70079576494985218, 0.000000000000000000, -4.387736866230691035 ) ) ;
#475 = AXIS2_PLACEMENT_3D ( 'NONE', #601, #859, #158 ) ;
#476 = CARTESIAN_POINT ( 'NONE',  ( 12.73258358166613391, 5.000000000000000000, -16.09378460101573793 ) ) ;
#477 = ORIENTED_EDGE ( 'NONE', *, *, #366, .T. ) ;
#478 = APPLICATION_CONTEXT ( 'automotive_design' ) ;
#479 = VERTEX_POINT ( 'NONE', #1021 ) ;
#480 = DIRECTION ( 'NONE',  ( 0.000000000000000000, 1.000000000000000000, 0.000000000000000000 ) ) ;
#481 = DIRECTION ( 'NONE',  ( 0.000000000000000000, 1.000000000000000000, 0.000000000000000000 ) ) ;
#482 = VECTOR ( 'NONE', #321, 1000.000000000000000 ) ;
#483 = CIRCLE ( 'NONE', #1155, 1.649999999999998579 ) ;
#484 = FACE_BOUND ( 'NONE', #1170, .T. ) ;
#485 = CYLINDRICAL_SURFACE ( 'NONE', #526, 2.150000000000000355 ) ;
#486 = VECTOR ( 'NONE', #245, 1000.000000000000000 ) ;
#487 = EDGE_CURVE ( 'NONE', #782, #279, #751, .T. ) ;
#488 = ORIENTED_EDGE ( 'NONE', *, *, #472, .F. ) ;
#489 = LINE ( 'NONE', #326, #440 ) ;
#490 = CARTESIAN_POINT ( 'NONE',  ( 4.346926732833133578, 0.000000000000000000, -6.037736866230691390 ) ) ;
#491 = ORIENTED_EDGE ( 'NONE', *, *, #143, .T. ) ;
#492 = FILL_AREA_STYLE_COLOUR ( '', #389 ) ;
#493 = CARTESIAN_POINT ( 'NONE',  ( 20.70079576494985218, 0.000000000000000000, -8.399999999999998579 ) ) ;
#494 = ADVANCED_FACE ( 'NONE', ( #925, #397, #673, #666, #125, #484, #955, #779, #497, #504, #53, #1031, #1026 ), #857, .F. ) ;
#495 = VERTEX_POINT ( 'NONE', #769 ) ;
#496 = CYLINDRICAL_SURFACE ( 'NONE', #90, 1.299999999999998268 ) ;
#497 = FACE_BOUND ( 'NONE', #230, .T. ) ;
#498 = PRODUCT_DEFINITION ( 'UNKNOWN', '', #583, #927 ) ;
#499 = DIRECTION ( 'NONE',  ( -0.000000000000000000, 1.000000000000000000, -0.000000000000000000 ) ) ;
#500 = EDGE_CURVE ( 'NONE', #25, #692, #665, .T. ) ;
#501 = ORIENTED_EDGE ( 'NONE', *, *, #223, .T. ) ;
#502 = DIRECTION ( 'NONE',  ( 1.000000000000000000, 0.000000000000000000, 0.000000000000000000 ) ) ;
#503 = LINE ( 'NONE', #1019, #140 ) ;
#504 = FACE_BOUND ( 'NONE', #180, .T. ) ;
#505 = FACE_BOUND ( 'NONE', #116, .T. ) ;
#506 = DIRECTION ( 'NONE',  ( 0.000000000000000000, 1.000000000000000000, 0.000000000000000000 ) ) ;
#507 = AXIS2_PLACEMENT_3D ( 'NONE', #1130, #220, #417 ) ;
#508 = ORIENTED_EDGE ( 'NONE', *, *, #706, .F. ) ;
#509 = CARTESIAN_POINT ( 'NONE',  ( 27.44453044909004191, 5.000000000000000000, -4.387736866230691035 ) ) ;
#510 = LINE ( 'NONE', #1022, #914 ) ;
#511 = CIRCLE ( 'NONE', #755, 1.350000000000002309 ) ;
#512 = ORIENTED_EDGE ( 'NONE', *, *, #199, .F. ) ;
#513 = DIRECTION ( 'NONE',  ( -0.000000000000000000, 1.000000000000000000, -0.000000000000000000 ) ) ;
#514 = DIRECTION ( 'NONE',  ( 0.000000000000000000, 1.000000000000000000, 0.000000000000000000 ) ) ;
#515 = DIRECTION ( 'NONE',  ( -0.000000000000000000, 1.000000000000000000, -0.000000000000000000 ) ) ;
#516 = VERTEX_POINT ( 'NONE', #575 ) ;
#517 = PLANE ( 'NONE',  #519 ) ;
#518 = CARTESIAN_POINT ( 'NONE',  ( 27.44453044909004191, 0.000000000000000000, -10.00000000000000000 ) ) ;
#519 = AXIS2_PLACEMENT_3D ( 'NONE', #433, #439, #73 ) ;
#520 = ORIENTED_EDGE ( 'NONE', *, *, #592, .F. ) ;
#521 = LINE ( 'NONE', #683, #392 ) ;
#522 = VERTEX_POINT ( 'NONE', #65 ) ;
#523 = DIRECTION ( 'NONE',  ( 0.000000000000000000, 0.000000000000000000, -1.000000000000000000 ) ) ;
#524 = DIRECTION ( 'NONE',  ( 0.000000000000000000, 1.000000000000000000, 0.000000000000000000 ) ) ;
#525 = AXIS2_PLACEMENT_3D ( 'NONE', #218, #224, #747 ) ;
#526 = AXIS2_PLACEMENT_3D ( 'NONE', #1123, #399, #758 ) ;
#527 = FACE_OUTER_BOUND ( 'NONE', #753, .T. ) ;
#528 = DIRECTION ( 'NONE',  ( 0.000000000000000000, 0.000000000000000000, 1.000000000000000000 ) ) ;
#529 = ORIENTED_EDGE ( 'NONE', *, *, #320, .T. ) ;
#530 = LINE ( 'NONE', #1164, #435 ) ;
#531 = CARTESIAN_POINT ( 'NONE',  ( 27.44453044909004191, 0.000000000000000000, -10.00000000000000000 ) ) ;
#532 = AXIS2_PLACEMENT_3D ( 'NONE', #315, #856, #748 ) ;
#533 = DIRECTION ( 'NONE',  ( -0.000000000000000000, 1.000000000000000000, -0.000000000000000000 ) ) ;
#534 = ORIENTED_EDGE ( 'NONE', *, *, #865, .T. ) ;
#535 = CARTESIAN_POINT ( 'NONE',  ( 27.44453044909004191, 0.000000000000000000, -17.39378460101573509 ) ) ;
#536 = CARTESIAN_POINT ( 'NONE',  ( 20.70079576494985218, 0.000000000000000000, -10.00000000000000000 ) ) ;
#537 = CIRCLE ( 'NONE', #567, 2.049999999999999822 ) ;
#538 = ORIENTED_EDGE ( 'NONE', *, *, #943, .F. ) ;
#539 = CARTESIAN_POINT ( 'NONE',  ( 5.725331608042151466, 0.000000000000000000, -16.09378460101573438 ) ) ;
#540 = LINE ( 'NONE', #545, #39 ) ;
#541 = ORIENTED_EDGE ( 'NONE', *, *, #682, .F. ) ;
#542 = VECTOR ( 'NONE', #874, 1000.000000000000000 ) ;
#543 = VERTEX_POINT ( 'NONE', #416 ) ;
#544 = CARTESIAN_POINT ( 'NONE',  ( 0.000000000000000000, 0.000000000000000000, 0.000000000000000000 ) ) ;
#545 = CARTESIAN_POINT ( 'NONE',  ( 30.00000000000000000, 5.000000000000000000, 0.000000000000000000 ) ) ;
#546 = VECTOR ( 'NONE', #362, 1000.000000000000000 ) ;
#547 = VERTEX_POINT ( 'NONE', #44 ) ;
#548 = ORIENTED_EDGE ( 'NONE', *, *, #1139, .T. ) ;
#549 = DIRECTION ( 'NONE',  ( -0.000000000000000000, 1.000000000000000000, -0.000000000000000000 ) ) ;
#550 = CARTESIAN_POINT ( 'NONE',  ( 4.365184557168610979, 0.000000000000000000, -11.60000000000000142 ) ) ;
#551 = ORIENTED_EDGE ( 'NONE', *, *, #932, .T. ) ;
#552 = ORIENTED_EDGE ( 'NONE', *, *, #1159, .F. ) ;
#553 = FACE_OUTER_BOUND ( 'NONE', #79, .T. ) ;
#554 = FACE_OUTER_BOUND ( 'NONE', #734, .T. ) ;
#555 = VERTEX_POINT ( 'NONE', #757 ) ;
#556 = ORIENTED_EDGE ( 'NONE', *, *, #853, .T. ) ;
#557 = DIRECTION ( 'NONE',  ( -0.000000000000000000, 1.000000000000000000, -0.000000000000000000 ) ) ;
#558 = CARTESIAN_POINT ( 'NONE',  ( 5.725331608042155906, 0.000000000000000000, -7.900000000000000355 ) ) ;
#559 = CYLINDRICAL_SURFACE ( 'NONE', #67, 2.049999999999999822 ) ;
#560 = VERTEX_POINT ( 'NONE', #1135 ) ;
#561 = CARTESIAN_POINT ( 'NONE',  ( 12.73258358166613391, 0.000000000000000000, -7.900000000000000355 ) ) ;
#562 = DIRECTION ( 'NONE',  ( -0.000000000000000000, 1.000000000000000000, -0.000000000000000000 ) ) ;
#563 = FACE_OUTER_BOUND ( 'NONE', #1047, .T. ) ;
#564 = ORIENTED_EDGE ( 'NONE', *, *, #487, .T. ) ;
#565 = CARTESIAN_POINT ( 'NONE',  ( 5.725331608042155906, 0.000000000000000000, -10.00000000000000000 ) ) ;
#566 = CARTESIAN_POINT ( 'NONE',  ( 20.70079576494985218, 5.000000000000000000, -10.00000000000000000 ) ) ;
#567 = AXIS2_PLACEMENT_3D ( 'NONE', #105, #737, #109 ) ;
#568 = CIRCLE ( 'NONE', #282, 2.099999999999999645 ) ;
#569 = CARTESIAN_POINT ( 'NONE',  ( 27.44453044909004191, 0.000000000000000000, -8.649999999999998579 ) ) ;
#570 = EDGE_CURVE ( 'NONE', #750, #522, #483, .T. ) ;
#571 = EDGE_LOOP ( 'NONE', ( #939, #808, #165, #222 ) ) ;
#572 = DIRECTION ( 'NONE',  ( -0.000000000000000000, 1.000000000000000000, -0.000000000000000000 ) ) ;
#573 = VECTOR ( 'NONE', #635, 1000.000000000000000 ) ;
#574 = AXIS2_PLACEMENT_3D ( 'NONE', #349, #985, #434 ) ;
#575 = CARTESIAN_POINT ( 'NONE',  ( 5.725331608042155906, 0.000000000000000000, -2.237736866230690680 ) ) ;
#576 = DIRECTION ( 'NONE',  ( 0.000000000000000000, 0.000000000000000000, 1.000000000000000000 ) ) ;
#577 = VECTOR ( 'NONE', #276, 1000.000000000000000 ) ;
#578 = ORIENTED_EDGE ( 'NONE', *, *, #606, .F. ) ;
#579 = CARTESIAN_POINT ( 'NONE',  ( 27.44453044909004191, 5.000000000000000000, -10.00000000000000000 ) ) ;
#580 = VECTOR ( 'NONE', #916, 1000.000000000000000 ) ;
#581 = EDGE_CURVE ( 'NONE', #120, #593, #629, .T. ) ;
#582 = EDGE_CURVE ( 'NONE', #187, #291, #789, .T. ) ;
#583 = PRODUCT_DEFINITION_FORMATION_WITH_SPECIFIED_SOURCE ( 'ANY', '', #128, .NOT_KNOWN. ) ;
#584 = CARTESIAN_POINT ( 'NONE',  ( 12.73258358166613391, 0.000000000000000000, -6.537736866230688726 ) ) ;
#585 = ORIENTED_EDGE ( 'NONE', *, *, #366, .F. ) ;
#586 = DIRECTION ( 'NONE',  ( -0.000000000000000000, 1.000000000000000000, -0.000000000000000000 ) ) ;
#587 = ORIENTED_EDGE ( 'NONE', *, *, #18, .F. ) ;
#588 =( NAMED_UNIT ( * ) PLANE_ANGLE_UNIT ( ) SI_UNIT ( $, .RADIAN. ) );
#589 = AXIS2_PLACEMENT_3D ( 'NONE', #996, #381, #1103 ) ;
#590 = AXIS2_PLACEMENT_3D ( 'NONE', #71, #2, #528 ) ;
#591 = FACE_BOUND ( 'NONE', #1017, .T. ) ;
#592 = EDGE_CURVE ( 'NONE', #40, #141, #961, .T. ) ;
#593 = VERTEX_POINT ( 'NONE', #80 ) ;
#594 = CARTESIAN_POINT ( 'NONE',  ( 12.73258358166613391, 5.000000000000000000, -12.10000000000000320 ) ) ;
#595 = EDGE_LOOP ( 'NONE', ( #328, #56, #1008, #1156 ) ) ;
#596 = CARTESIAN_POINT ( 'NONE',  ( 12.73258358166613391, 5.000000000000000000, -4.387736866230691035 ) ) ;
#597 = CARTESIAN_POINT ( 'NONE',  ( 5.725331608042155906, 0.000000000000000000, -4.387736866230691035 ) ) ;
#598 = AXIS2_PLACEMENT_3D ( 'NONE', #802, #267, #163 ) ;
#599 = EDGE_CURVE ( 'NONE', #895, #1009, #568, .T. ) ;
#600 = ORIENTED_EDGE ( 'NONE', *, *, #236, .T. ) ;
#601 = CARTESIAN_POINT ( 'NONE',  ( 27.44453044909004191, 0.000000000000000000, -4.387736866230691035 ) ) ;
#602 = PRODUCT_CONTEXT ( 'NONE', #986, 'mechanical' ) ;
#603 = ORIENTED_EDGE ( 'NONE', *, *, #1093, .T. ) ;
#604 = DIRECTION ( 'NONE',  ( 0.000000000000000000, 0.000000000000000000, 1.000000000000000000 ) ) ;
#605 = DIRECTION ( 'NONE',  ( 0.000000000000000000, 0.000000000000000000, 1.000000000000000000 ) ) ;
#606 = EDGE_CURVE ( 'NONE', #898, #195, #928, .T. ) ;
#607 = ORIENTED_EDGE ( 'NONE', *, *, #570, .F. ) ;
#608 = ORIENTED_EDGE ( 'NONE', *, *, #223, .F. ) ;
#609 = LINE ( 'NONE', #1069, #913 ) ;
#610 = DIRECTION ( 'NONE',  ( 0.000000000000000000, 0.000000000000000000, 1.000000000000000000 ) ) ;
#611 = CARTESIAN_POINT ( 'NONE',  ( 27.44453044909004191, 0.000000000000000000, -4.387736866230691035 ) ) ;
#612 = ADVANCED_FACE ( 'NONE', ( #1063 ), #247, .F. ) ;
#613 = EDGE_LOOP ( 'NONE', ( #387, #271, #286, #406 ) ) ;
#614 = DIRECTION ( 'NONE',  ( 0.000000000000000000, 0.000000000000000000, 1.000000000000000000 ) ) ;
#615 = ADVANCED_FACE ( 'NONE', ( #1080 ), #517, .F. ) ;
#616 = DIRECTION ( 'NONE',  ( 0.000000000000000000, 1.000000000000000000, 0.000000000000000000 ) ) ;
#617 = AXIS2_PLACEMENT_3D ( 'NONE', #1157, #794, #967 ) ;
#618 = AXIS2_PLACEMENT_3D ( 'NONE', #531, #182, #716 ) ;
#619 = FACE_OUTER_BOUND ( 'NONE', #834, .T. ) ;
#620 = EDGE_LOOP ( 'NONE', ( #600, #937, #883, #488 ) ) ;
#621 = CARTESIAN_POINT ( 'NONE',  ( 4.346926732833133578, 0.000000000000000000, -6.037736866230691390 ) ) ;
#622 = CARTESIAN_POINT ( 'NONE',  ( 27.44453044909004191, 5.000000000000000000, -11.35000000000000320 ) ) ;
#623 = EDGE_CURVE ( 'NONE', #364, #843, #266, .T. ) ;
#624 = ORIENTED_EDGE ( 'NONE', *, *, #570, .T. ) ;
#625 = CARTESIAN_POINT ( 'NONE',  ( 5.725331608042155906, 5.000000000000000000, -2.237736866230690680 ) ) ;
#626 = CARTESIAN_POINT ( 'NONE',  ( 20.70079576494985218, 5.000000000000000000, -14.54378460101573900 ) ) ;
#627 = ORIENTED_EDGE ( 'NONE', *, *, #869, .T. ) ;
#628 = MECHANICAL_DESIGN_GEOMETRIC_PRESENTATION_REPRESENTATION (  '', ( #687 ), #429 ) ;
#629 = CIRCLE ( 'NONE', #127, 2.049999999999999822 ) ;
#630 = ORIENTED_EDGE ( 'NONE', *, *, #1011, .F. ) ;
#631 = CARTESIAN_POINT ( 'NONE',  ( 5.725331608042155906, 0.000000000000000000, -4.387736866230691035 ) ) ;
#632 = LINE ( 'NONE', #186, #892 ) ;
#633 = CARTESIAN_POINT ( 'NONE',  ( 20.70079576494985218, 0.000000000000000000, -11.60000000000000320 ) ) ;
#634 = ORIENTED_EDGE ( 'NONE', *, *, #170, .T. ) ;
#635 = DIRECTION ( 'NONE',  ( -0.000000000000000000, 1.000000000000000000, -0.000000000000000000 ) ) ;
#636 = ADVANCED_FACE ( 'NONE', ( #272 ), #982, .F. ) ;
#637 = DIRECTION ( 'NONE',  ( 0.000000000000000000, 1.000000000000000000, 0.000000000000000000 ) ) ;
#638 = AXIS2_PLACEMENT_3D ( 'NONE', #41, #838, #773 ) ;
#639 = PRODUCT_DEFINITION_SHAPE ( 'NONE', 'NONE',  #498 ) ;
#640 = DIRECTION ( 'NONE',  ( -0.000000000000000000, 1.000000000000000000, -0.000000000000000000 ) ) ;
#641 = AXIS2_PLACEMENT_3D ( 'NONE', #699, #952, #70 ) ;
#642 = EDGE_LOOP ( 'NONE', ( #393, #432, #875, #709 ) ) ;
#643 = CARTESIAN_POINT ( 'NONE',  ( 27.44453044909004191, 0.000000000000000000, -10.00000000000000000 ) ) ;
#644 = ADVANCED_FACE ( 'NONE', ( #176 ), #710, .F. ) ;
#645 = CARTESIAN_POINT ( 'NONE',  ( 7.066972394542021974, 0.000000000000000000, -17.64378460101573509 ) ) ;
#646 = ADVANCED_FACE ( 'NONE', ( #972 ), #1074, .F. ) ;
#647 = ORIENTED_EDGE ( 'NONE', *, *, #372, .F. ) ;
#648 = DIRECTION ( 'NONE',  ( 0.000000000000000000, 1.000000000000000000, 0.000000000000000000 ) ) ;
#649 = FACE_OUTER_BOUND ( 'NONE', #301, .T. ) ;
#650 = EDGE_CURVE ( 'NONE', #300, #762, #530, .T. ) ;
#651 = EDGE_LOOP ( 'NONE', ( #93, #1061 ) ) ;
#652 = AXIS2_PLACEMENT_3D ( 'NONE', #74, #858, #126 ) ;
#653 = ORIENTED_EDGE ( 'NONE', *, *, #865, .F. ) ;
#654 = DIRECTION ( 'NONE',  ( -0.000000000000000000, 1.000000000000000000, -0.000000000000000000 ) ) ;
#655 = CIRCLE ( 'NONE', #250, 2.149999999999997691 ) ;
#656 = DIRECTION ( 'NONE',  ( 0.000000000000000000, 1.000000000000000000, 0.000000000000000000 ) ) ;
#657 = ORIENTED_EDGE ( 'NONE', *, *, #956, .F. ) ;
#658 = DIRECTION ( 'NONE',  ( 0.000000000000000000, 1.000000000000000000, 0.000000000000000000 ) ) ;
#659 = CARTESIAN_POINT ( 'NONE',  ( 7.066972394542021974, 0.000000000000000000, -17.64378460101573509 ) ) ;
#660 = CARTESIAN_POINT ( 'NONE',  ( 5.725331608042151466, 5.000000000000000000, -16.09378460101573438 ) ) ;
#661 = DIRECTION ( 'NONE',  ( 0.000000000000000000, 0.000000000000000000, 1.000000000000000000 ) ) ;
#662 = ORIENTED_EDGE ( 'NONE', *, *, #351, .F. ) ;
#663 = CARTESIAN_POINT ( 'NONE',  ( 5.725331608042155906, 0.000000000000000000, -7.900000000000000355 ) ) ;
#664 = VERTEX_POINT ( 'NONE', #358 ) ;
#665 = CIRCLE ( 'NONE', #991, 1.549999999999997602 ) ;
#666 = FACE_BOUND ( 'NONE', #146, .T. ) ;
#667 = FACE_BOUND ( 'NONE', #877, .T. ) ;
#668 = ORIENTED_EDGE ( 'NONE', *, *, #199, .T. ) ;
#669 = LINE ( 'NONE', #1113, #89 ) ;
#670 = VECTOR ( 'NONE', #196, 1000.000000000000000 ) ;
#671 = CARTESIAN_POINT ( 'NONE',  ( 27.44453044909004191, 0.000000000000000000, -3.087736866230692989 ) ) ;
#672 = AXIS2_PLACEMENT_3D ( 'NONE', #935, #1049, #1150 ) ;
#673 = FACE_BOUND ( 'NONE', #921, .T. ) ;
#674 = DIRECTION ( 'NONE',  ( -0.000000000000000000, -1.000000000000000000, -0.000000000000000000 ) ) ;
#675 = ORIENTED_EDGE ( 'NONE', *, *, #26, .T. ) ;
#676 = AXIS2_PLACEMENT_3D ( 'NONE', #474, #831, #302 ) ;
#677 = ORIENTED_EDGE ( 'NONE', *, *, #410, .F. ) ;
#678 = CARTESIAN_POINT ( 'NONE',  ( 12.73258358166613391, 0.000000000000000000, -16.09378460101573793 ) ) ;
#679 = FACE_BOUND ( 'NONE', #275, .T. ) ;
#680 = ORIENTED_EDGE ( 'NONE', *, *, #426, .F. ) ;
#681 = CYLINDRICAL_SURFACE ( 'NONE', #475, 1.299999999999998268 ) ;
#682 = EDGE_CURVE ( 'NONE', #555, #141, #377, .T. ) ;
#683 = CARTESIAN_POINT ( 'NONE',  ( 20.70079576494985218, 0.000000000000000000, -2.737736866230692456 ) ) ;
#684 = VERTEX_POINT ( 'NONE', #703 ) ;
#685 = DIRECTION ( 'NONE',  ( -0.000000000000000000, 1.000000000000000000, -0.000000000000000000 ) ) ;
#686 = EDGE_CURVE ( 'NONE', #1014, #560, #172, .T. ) ;
#687 = STYLED_ITEM ( 'NONE', ( #148 ), #459 ) ;
#688 = CARTESIAN_POINT ( 'NONE',  ( 5.725331608042155906, 5.000000000000000000, -10.00000000000000000 ) ) ;
#689 = AXIS2_PLACEMENT_3D ( 'NONE', #611, #1051, #179 ) ;
#690 = EDGE_LOOP ( 'NONE', ( #27, #954, #501, #653 ) ) ;
#691 = CARTESIAN_POINT ( 'NONE',  ( 30.00000000000000000, 0.000000000000000000, -20.00000000000000000 ) ) ;
#692 = VERTEX_POINT ( 'NONE', #884 ) ;
#693 = DIRECTION ( 'NONE',  ( -1.000000000000000000, 0.000000000000000000, -0.000000000000000000 ) ) ;
#694 = CARTESIAN_POINT ( 'NONE',  ( 20.70079576494985218, 0.000000000000000000, -16.09378460101573793 ) ) ;
#695 = AXIS2_PLACEMENT_3D ( 'NONE', #810, #337, #449 ) ;
#696 = EDGE_CURVE ( 'NONE', #719, #1058, #609, .T. ) ;
#697 = EDGE_CURVE ( 'NONE', #345, #390, #285, .T. ) ;
#698 = ORIENTED_EDGE ( 'NONE', *, *, #1115, .F. ) ;
#699 = CARTESIAN_POINT ( 'NONE',  ( 27.44453044909004191, 0.000000000000000000, -16.09378460101573793 ) ) ;
#700 = CIRCLE ( 'NONE', #848, 2.100000000000000977 ) ;
#701 = ADVANCED_FACE ( 'NONE', ( #788 ), #342, .F. ) ;
#702 = ORIENTED_EDGE ( 'NONE', *, *, #256, .F. ) ;
#703 = CARTESIAN_POINT ( 'NONE',  ( 27.44453044909004191, 0.000000000000000000, -8.649999999999998579 ) ) ;
#704 = DIRECTION ( 'NONE',  ( 0.000000000000000000, 1.000000000000000000, 0.000000000000000000 ) ) ;
#705 = ADVANCED_FACE ( 'NONE', ( #108 ), #1006, .F. ) ;
#706 = EDGE_CURVE ( 'NONE', #1072, #746, #201, .T. ) ;
#707 = ORIENTED_EDGE ( 'NONE', *, *, #292, .F. ) ;
#708 = ADVANCED_FACE ( 'NONE', ( #457 ), #104, .F. ) ;
#709 = ORIENTED_EDGE ( 'NONE', *, *, #61, .T. ) ;
#710 = CYLINDRICAL_SURFACE ( 'NONE', #617, 1.649999999999998579 ) ;
#711 = CARTESIAN_POINT ( 'NONE',  ( 12.73258358166613391, 0.000000000000000000, -10.00000000000000178 ) ) ;
#712 = SHAPE_DEFINITION_REPRESENTATION ( #639, #965 ) ;
#713 = ORIENTED_EDGE ( 'NONE', *, *, #918, .T. ) ;
#714 = DIRECTION ( 'NONE',  ( 0.000000000000000000, 1.000000000000000000, 0.000000000000000000 ) ) ;
#715 = VECTOR ( 'NONE', #499, 1000.000000000000000 ) ;
#716 = DIRECTION ( 'NONE',  ( 0.000000000000000000, 0.000000000000000000, 1.000000000000000000 ) ) ;
#717 = AXIS2_PLACEMENT_3D ( 'NONE', #597, #427, #610 ) ;
#718 = ADVANCED_FACE ( 'NONE', ( #553 ), #379, .F. ) ;
#719 = VERTEX_POINT ( 'NONE', #544 ) ;
#720 = CYLINDRICAL_SURFACE ( 'NONE', #82, 2.149999999999997691 ) ;
#721 = CARTESIAN_POINT ( 'NONE',  ( 27.44453044909004191, 5.000000000000000000, -16.09378460101573793 ) ) ;
#722 = ADVANCED_FACE ( 'NONE', ( #15 ), #720, .F. ) ;
#723 = ORIENTED_EDGE ( 'NONE', *, *, #1131, .F. ) ;
#724 = CARTESIAN_POINT ( 'NONE',  ( 4.346926732833133578, 5.000000000000000000, -6.037736866230691390 ) ) ;
#725 = FACE_OUTER_BOUND ( 'NONE', #814, .T. ) ;
#726 = EDGE_CURVE ( 'NONE', #664, #369, #465, .T. ) ;
#727 = ORIENTED_EDGE ( 'NONE', *, *, #68, .F. ) ;
#728 = ORIENTED_EDGE ( 'NONE', *, *, #233, .T. ) ;
#729 = DIRECTION ( 'NONE',  ( 0.000000000000000000, 0.000000000000000000, 1.000000000000000000 ) ) ;
#730 = CARTESIAN_POINT ( 'NONE',  ( 7.066972394542021974, 5.000000000000000000, -17.64378460101573509 ) ) ;
#731 = ORIENTED_EDGE ( 'NONE', *, *, #682, .T. ) ;
#732 = AXIS2_PLACEMENT_3D ( 'NONE', #1101, #910, #21 ) ;
#733 = CIRCLE ( 'NONE', #1137, 1.600000000000002531 ) ;
#734 = EDGE_LOOP ( 'NONE', ( #520, #662, #987, #731 ) ) ;
#735 = DIRECTION ( 'NONE',  ( 0.000000000000000000, 0.000000000000000000, 1.000000000000000000 ) ) ;
#736 = EDGE_CURVE ( 'NONE', #746, #14, #293, .T. ) ;
#737 = DIRECTION ( 'NONE',  ( 0.000000000000000000, 1.000000000000000000, 0.000000000000000000 ) ) ;
#738 = AXIS2_PLACEMENT_3D ( 'NONE', #1029, #658, #767 ) ;
#739 = AXIS2_PLACEMENT_3D ( 'NONE', #953, #506, #946 ) ;
#740 = ORIENTED_EDGE ( 'NONE', *, *, #998, .T. ) ;
#741 = CARTESIAN_POINT ( 'NONE',  ( 27.44453044909004191, 0.000000000000000000, -16.09378460101573793 ) ) ;
#742 = CARTESIAN_POINT ( 'NONE',  ( 27.44453044909004191, 0.000000000000000000, -5.687736866230689081 ) ) ;
#743 = ORIENTED_EDGE ( 'NONE', *, *, #500, .T. ) ;
#744 = VECTOR ( 'NONE', #208, 1000.000000000000000 ) ;
#745 = VECTOR ( 'NONE', #515, 1000.000000000000000 ) ;
#746 = VERTEX_POINT ( 'NONE', #1095 ) ;
#747 = DIRECTION ( 'NONE',  ( 0.000000000000000000, 0.000000000000000000, 1.000000000000000000 ) ) ;
#748 = DIRECTION ( 'NONE',  ( 0.000000000000000000, 0.000000000000000000, 1.000000000000000000 ) ) ;
#749 = ADVANCED_FACE ( 'NONE', ( #287 ), #113, .F. ) ;
#750 = VERTEX_POINT ( 'NONE', #1088 ) ;
#751 = LINE ( 'NONE', #214, #820 ) ;
#752 = DIRECTION ( 'NONE',  ( 0.000000000000000000, 0.000000000000000000, 1.000000000000000000 ) ) ;
#753 = EDGE_LOOP ( 'NONE', ( #117, #912, #205, #121 ) ) ;
#754 = DIRECTION ( 'NONE',  ( 0.000000000000000000, 1.000000000000000000, 0.000000000000000000 ) ) ;
#755 = AXIS2_PLACEMENT_3D ( 'NONE', #518, #524, #881 ) ;
#756 = LINE ( 'NONE', #490, #188 ) ;
#757 = CARTESIAN_POINT ( 'NONE',  ( 12.73258358166613391, 5.000000000000000000, -2.237736866230693344 ) ) ;
#758 = DIRECTION ( 'NONE',  ( 0.000000000000000000, 0.000000000000000000, 1.000000000000000000 ) ) ;
#759 = VECTOR ( 'NONE', #1010, 1000.000000000000000 ) ;
#760 = ORIENTED_EDGE ( 'NONE', *, *, #500, .F. ) ;
#761 = CARTESIAN_POINT ( 'NONE',  ( 4.346926732833133578, 0.000000000000000000, -6.037736866230691390 ) ) ;
#762 = VERTEX_POINT ( 'NONE', #467 ) ;
#763 = CARTESIAN_POINT ( 'NONE',  ( 0.000000000000000000, 5.000000000000000000, 0.000000000000000000 ) ) ;
#764 = FACE_BOUND ( 'NONE', #969, .T. ) ;
#765 = EDGE_CURVE ( 'NONE', #1118, #187, #901, .T. ) ;
#766 = VERTEX_POINT ( 'NONE', #906 ) ;
#767 = DIRECTION ( 'NONE',  ( 0.000000000000000000, 0.000000000000000000, 1.000000000000000000 ) ) ;
#768 = FACE_OUTER_BOUND ( 'NONE', #341, .T. ) ;
#769 = CARTESIAN_POINT ( 'NONE',  ( 0.000000000000000000, 5.000000000000000000, -20.00000000000000000 ) ) ;
#770 = CARTESIAN_POINT ( 'NONE',  ( 12.73258358166613391, 0.000000000000000000, -12.10000000000000320 ) ) ;
#771 = EDGE_CURVE ( 'NONE', #1167, #479, #290, .T. ) ;
#772 = EDGE_LOOP ( 'NONE', ( #48, #217, #1138, #103 ) ) ;
#773 = DIRECTION ( 'NONE',  ( 0.000000000000000000, 0.000000000000000000, 1.000000000000000000 ) ) ;
#774 = AXIS2_PLACEMENT_3D ( 'NONE', #1001, #28, #817 ) ;
#775 = ADVANCED_FACE ( 'NONE', ( #298 ), #181, .F. ) ;
#776 = LINE ( 'NONE', #51, #96 ) ;
#777 = CIRCLE ( 'NONE', #574, 1.350000000000002309 ) ;
#778 = EDGE_CURVE ( 'NONE', #1161, #32, #700, .T. ) ;
#779 = FACE_BOUND ( 'NONE', #183, .T. ) ;
#780 = CARTESIAN_POINT ( 'NONE',  ( 27.44453044909004191, 0.000000000000000000, -10.00000000000000000 ) ) ;
#781 = LINE ( 'NONE', #1162, #486 ) ;
#782 = VERTEX_POINT ( 'NONE', #535 ) ;
#783 = CARTESIAN_POINT ( 'NONE',  ( 20.70079576494985218, 0.000000000000000000, -10.00000000000000000 ) ) ;
#784 = FACE_BOUND ( 'NONE', #228, .T. ) ;
#785 = EDGE_LOOP ( 'NONE', ( #854, #1124, #34, #538 ) ) ;
#786 = DIRECTION ( 'NONE',  ( 0.000000000000000000, 0.000000000000000000, 1.000000000000000000 ) ) ;
#787 = ORIENTED_EDGE ( 'NONE', *, *, #312, .F. ) ;
#788 = FACE_OUTER_BOUND ( 'NONE', #110, .T. ) ;
#789 = CIRCLE ( 'NONE', #873, 2.049999999999999822 ) ;
#790 = FACE_OUTER_BOUND ( 'NONE', #785, .T. ) ;
#791 = AXIS2_PLACEMENT_3D ( 'NONE', #340, #269, #870 ) ;
#792 = CARTESIAN_POINT ( 'NONE',  ( 4.383690821542281846, 0.000000000000000000, -17.64378460101573509 ) ) ;
#793 = EDGE_LOOP ( 'NONE', ( #1071, #668 ) ) ;
#794 = DIRECTION ( 'NONE',  ( -0.000000000000000000, 1.000000000000000000, -0.000000000000000000 ) ) ;
#795 = EDGE_CURVE ( 'NONE', #1058, #1163, #8, .T. ) ;
#796 = CARTESIAN_POINT ( 'NONE',  ( 0.000000000000000000, 5.000000000000000000, 0.000000000000000000 ) ) ;
#797 = ORIENTED_EDGE ( 'NONE', *, *, #170, .F. ) ;
#798 = DIRECTION ( 'NONE',  ( 1.000000000000000000, 0.000000000000000000, 0.000000000000000000 ) ) ;
#799 = CIRCLE ( 'NONE', #638, 2.150000000000000355 ) ;
#800 = VERTEX_POINT ( 'NONE', #625 ) ;
#801 = DIRECTION ( 'NONE',  ( -0.000000000000000000, 1.000000000000000000, -0.000000000000000000 ) ) ;
#802 = CARTESIAN_POINT ( 'NONE',  ( 20.70079576494985218, 5.000000000000000000, -16.09378460101573793 ) ) ;
#803 = ADVANCED_FACE ( 'NONE', ( #988 ), #184, .F. ) ;
#804 = CARTESIAN_POINT ( 'NONE',  ( 4.383690821542281846, 5.000000000000000000, -17.64378460101573509 ) ) ;
#805 = ORIENTED_EDGE ( 'NONE', *, *, #191, .F. ) ;
#806 = DIRECTION ( 'NONE',  ( 0.000000000000000000, 0.000000000000000000, 1.000000000000000000 ) ) ;
#807 = DIRECTION ( 'NONE',  ( 0.000000000000000000, 1.000000000000000000, 0.000000000000000000 ) ) ;
#808 = ORIENTED_EDGE ( 'NONE', *, *, #948, .F. ) ;
#809 = DIRECTION ( 'NONE',  ( -1.000000000000000000, 0.000000000000000000, 0.000000000000000000 ) ) ;
#810 = CARTESIAN_POINT ( 'NONE',  ( 12.73258358166613391, 0.000000000000000000, -10.00000000000000178 ) ) ;
#811 = ORIENTED_EDGE ( 'NONE', *, *, #164, .T. ) ;
#812 = CARTESIAN_POINT ( 'NONE',  ( 12.73258358166613391, 5.000000000000000000, -10.00000000000000178 ) ) ;
#813 = CARTESIAN_POINT ( 'NONE',  ( 5.725331608042155906, 0.000000000000000000, -2.237736866230690680 ) ) ;
#814 = EDGE_LOOP ( 'NONE', ( #244, #816, #153, #382 ) ) ;
#815 = AXIS2_PLACEMENT_3D ( 'NONE', #423, #786, #798 ) ;
#816 = ORIENTED_EDGE ( 'NONE', *, *, #111, .F. ) ;
#817 = DIRECTION ( 'NONE',  ( 0.000000000000000000, 0.000000000000000000, 1.000000000000000000 ) ) ;
#818 = LINE ( 'NONE', #742, #899 ) ;
#819 = CARTESIAN_POINT ( 'NONE',  ( 4.346926732833133578, 5.000000000000000000, -6.037736866230691390 ) ) ;
#820 = VECTOR ( 'NONE', #562, 1000.000000000000000 ) ;
#821 = ORIENTED_EDGE ( 'NONE', *, *, #948, .T. ) ;
#822 = DIRECTION ( 'NONE',  ( 0.000000000000000000, 0.000000000000000000, 1.000000000000000000 ) ) ;
#823 = CYLINDRICAL_SURFACE ( 'NONE', #589, 2.099999999999999645 ) ;
#824 = CIRCLE ( 'NONE', #174, 1.549999999999997602 ) ;
#825 = ORIENTED_EDGE ( 'NONE', *, *, #726, .F. ) ;
#826 = DIRECTION ( 'NONE',  ( -0.000000000000000000, 1.000000000000000000, -0.000000000000000000 ) ) ;
#827 = DIRECTION ( 'NONE',  ( -1.000000000000000000, 0.000000000000000000, -0.000000000000000000 ) ) ;
#828 = EDGE_LOOP ( 'NONE', ( #11, #760, #1028, #318 ) ) ;
#829 = VECTOR ( 'NONE', #922, 1000.000000000000000 ) ;
#830 = VERTEX_POINT ( 'NONE', #12 ) ;
#831 = DIRECTION ( 'NONE',  ( -0.000000000000000000, 1.000000000000000000, -0.000000000000000000 ) ) ;
#832 = EDGE_CURVE ( 'NONE', #1100, #160, #348, .T. ) ;
#833 = LINE ( 'NONE', #763, #167 ) ;
#834 = EDGE_LOOP ( 'NONE', ( #702, #727, #845, #529 ) ) ;
#835 = CIRCLE ( 'NONE', #1052, 1.299999999999997380 ) ;
#836 = CIRCLE ( 'NONE', #17, 2.049999999999999822 ) ;
#837 = ORIENTED_EDGE ( 'NONE', *, *, #853, .F. ) ;
#838 = DIRECTION ( 'NONE',  ( 0.000000000000000000, 1.000000000000000000, 0.000000000000000000 ) ) ;
#839 = DIRECTION ( 'NONE',  ( -0.000000000000000000, 1.000000000000000000, -0.000000000000000000 ) ) ;
#840 = DIRECTION ( 'NONE',  ( 0.000000000000000000, 1.000000000000000000, 0.000000000000000000 ) ) ;
#841 = CIRCLE ( 'NONE', #893, 1.600000000000002531 ) ;
#842 = CARTESIAN_POINT ( 'NONE',  ( 12.73258358166613391, 0.000000000000000000, -18.14378460101573509 ) ) ;
#843 = VERTEX_POINT ( 'NONE', #1133 ) ;
#844 = LINE ( 'NONE', #319, #1104 ) ;
#845 = ORIENTED_EDGE ( 'NONE', *, *, #950, .T. ) ;
#846 = CARTESIAN_POINT ( 'NONE',  ( 4.346926732833133578, 0.000000000000000000, -6.037736866230691390 ) ) ;
#847 = DIRECTION ( 'NONE',  ( 0.000000000000000000, 1.000000000000000000, 0.000000000000000000 ) ) ;
#848 = AXIS2_PLACEMENT_3D ( 'NONE', #384, #648, #280 ) ;
#849 = EDGE_CURVE ( 'NONE', #1072, #471, #388, .T. ) ;
#850 = ORIENTED_EDGE ( 'NONE', *, *, #581, .T. ) ;
#851 = CARTESIAN_POINT ( 'NONE',  ( 27.44453044909004191, 0.000000000000000000, -4.387736866230691035 ) ) ;
#852 = FACE_BOUND ( 'NONE', #944, .T. ) ;
#853 = EDGE_CURVE ( 'NONE', #69, #1087, #669, .T. ) ;
#854 = ORIENTED_EDGE ( 'NONE', *, *, #918, .F. ) ;
#855 = DIRECTION ( 'NONE',  ( 0.000000000000000000, 1.000000000000000000, 0.000000000000000000 ) ) ;
#856 = DIRECTION ( 'NONE',  ( -0.000000000000000000, 1.000000000000000000, -0.000000000000000000 ) ) ;
#857 = PLANE ( 'NONE',  #339 ) ;
#858 = DIRECTION ( 'NONE',  ( -0.000000000000000000, 1.000000000000000000, 0.000000000000000000 ) ) ;
#859 = DIRECTION ( 'NONE',  ( -0.000000000000000000, 1.000000000000000000, -0.000000000000000000 ) ) ;
#860 = DIRECTION ( 'NONE',  ( -0.000000000000000000, 1.000000000000000000, -0.000000000000000000 ) ) ;
#861 = ORIENTED_EDGE ( 'NONE', *, *, #887, .F. ) ;
#862 = AXIS2_PLACEMENT_3D ( 'NONE', #711, #616, #989 ) ;
#863 = DIRECTION ( 'NONE',  ( 0.000000000000000000, 0.000000000000000000, -1.000000000000000000 ) ) ;
#864 = DIRECTION ( 'NONE',  ( -0.000000000000000000, 1.000000000000000000, -0.000000000000000000 ) ) ;
#865 = EDGE_CURVE ( 'NONE', #1009, #265, #118, .T. ) ;
#866 = ORIENTED_EDGE ( 'NONE', *, *, #771, .F. ) ;
#867 = CARTESIAN_POINT ( 'NONE',  ( 5.725331608042151466, 0.000000000000000000, -16.09378460101573438 ) ) ;
#868 = LINE ( 'NONE', #261, #305 ) ;
#869 = EDGE_CURVE ( 'NONE', #14, #800, #799, .T. ) ;
#870 = DIRECTION ( 'NONE',  ( 0.000000000000000000, 0.000000000000000000, 1.000000000000000000 ) ) ;
#871 = EDGE_LOOP ( 'NONE', ( #707, #929 ) ) ;
#872 = DIRECTION ( 'NONE',  ( 0.000000000000000000, 0.000000000000000000, 1.000000000000000000 ) ) ;
#873 = AXIS2_PLACEMENT_3D ( 'NONE', #660, #4, #872 ) ;
#874 = DIRECTION ( 'NONE',  ( -0.000000000000000000, 1.000000000000000000, -0.000000000000000000 ) ) ;
#875 = ORIENTED_EDGE ( 'NONE', *, *, #984, .T. ) ;
#876 = CARTESIAN_POINT ( 'NONE',  ( 5.725331608042151466, 0.000000000000000000, -14.04378460101573367 ) ) ;
#877 = EDGE_LOOP ( 'NONE', ( #541, #805 ) ) ;
#878 = CARTESIAN_POINT ( 'NONE',  ( 0.000000000000000000, 5.000000000000000000, 0.000000000000000000 ) ) ;
#879 = ADVANCED_FACE ( 'NONE', ( #207 ), #1125, .T. ) ;
#880 = AXIS2_PLACEMENT_3D ( 'NONE', #178, #704, #1055 ) ;
#881 = DIRECTION ( 'NONE',  ( 0.000000000000000000, 0.000000000000000000, 1.000000000000000000 ) ) ;
#882 = FACE_OUTER_BOUND ( 'NONE', #690, .T. ) ;
#883 = ORIENTED_EDGE ( 'NONE', *, *, #888, .F. ) ;
#884 = CARTESIAN_POINT ( 'NONE',  ( 20.70079576494985218, 0.000000000000000000, -17.64378460101573154 ) ) ;
#885 = VECTOR ( 'NONE', #1126, 1000.000000000000000 ) ;
#886 = LINE ( 'NONE', #92, #418 ) ;
#887 = EDGE_CURVE ( 'NONE', #471, #516, #254, .T. ) ;
#888 = EDGE_CURVE ( 'NONE', #495, #414, #489, .T. ) ;
#889 = ORIENTED_EDGE ( 'NONE', *, *, #236, .F. ) ;
#890 = CARTESIAN_POINT ( 'NONE',  ( 7.103736483251178235, 0.000000000000000000, -6.037736866230691390 ) ) ;
#891 = FACE_OUTER_BOUND ( 'NONE', #134, .T. ) ;
#892 = VECTOR ( 'NONE', #197, 1000.000000000000000 ) ;
#893 = AXIS2_PLACEMENT_3D ( 'NONE', #566, #1141, #131 ) ;
#894 = AXIS2_PLACEMENT_3D ( 'NONE', #931, #1114, #213 ) ;
#895 = VERTEX_POINT ( 'NONE', #663 ) ;
#896 = DIRECTION ( 'NONE',  ( -0.000000000000000000, 1.000000000000000000, -0.000000000000000000 ) ) ;
#897 = PLANE ( 'NONE',  #1154 ) ;
#898 = VERTEX_POINT ( 'NONE', #308 ) ;
#899 = VECTOR ( 'NONE', #903, 1000.000000000000000 ) ;
#900 = ORIENTED_EDGE ( 'NONE', *, *, #726, .T. ) ;
#901 = LINE ( 'NONE', #995, #546 ) ;
#902 = AXIS2_PLACEMENT_3D ( 'NONE', #539, #896, #452 ) ;
#903 = DIRECTION ( 'NONE',  ( -0.000000000000000000, 1.000000000000000000, -0.000000000000000000 ) ) ;
#904 = ORIENTED_EDGE ( 'NONE', *, *, #1147, .F. ) ;
#905 = ORIENTED_EDGE ( 'NONE', *, *, #320, .F. ) ;
#906 = CARTESIAN_POINT ( 'NONE',  ( 20.70079576494985218, 5.000000000000000000, -11.60000000000000320 ) ) ;
#907 = DIRECTION ( 'NONE',  ( 0.000000000000000000, 1.000000000000000000, 0.000000000000000000 ) ) ;
#908 = ORIENTED_EDGE ( 'NONE', *, *, #33, .T. ) ;
#909 = ORIENTED_EDGE ( 'NONE', *, *, #849, .F. ) ;
#910 = DIRECTION ( 'NONE',  ( 0.000000000000000000, 1.000000000000000000, 0.000000000000000000 ) ) ;
#911 = CARTESIAN_POINT ( 'NONE',  ( 12.73258358166613391, 0.000000000000000000, -4.387736866230691035 ) ) ;
#912 = ORIENTED_EDGE ( 'NONE', *, *, #998, .F. ) ;
#913 = VECTOR ( 'NONE', #523, 1000.000000000000000 ) ;
#914 = VECTOR ( 'NONE', #1027, 1000.000000000000000 ) ;
#915 = ORIENTED_EDGE ( 'NONE', *, *, #470, .T. ) ;
#916 = DIRECTION ( 'NONE',  ( -1.000000000000000000, -0.000000000000000000, -0.000000000000000000 ) ) ;
#917 = CARTESIAN_POINT ( 'NONE',  ( 12.73258358166613391, 0.000000000000000000, -2.237736866230693344 ) ) ;
#918 = EDGE_CURVE ( 'NONE', #692, #25, #1065, .T. ) ;
#919 = ORIENTED_EDGE ( 'NONE', *, *, #1020, .T. ) ;
#920 =( GEOMETRIC_REPRESENTATION_CONTEXT ( 3 ) GLOBAL_UNCERTAINTY_ASSIGNED_CONTEXT ( ( #350 ) ) GLOBAL_UNIT_ASSIGNED_CONTEXT ( ( #1146, #959, #437 ) ) REPRESENTATION_CONTEXT ( 'NONE', 'WORKASPACE' ) );
#921 = EDGE_LOOP ( 'NONE', ( #383, #850 ) ) ;
#922 = DIRECTION ( 'NONE',  ( -0.000000000000000000, 1.000000000000000000, -0.000000000000000000 ) ) ;
#923 = CARTESIAN_POINT ( 'NONE',  ( 0.000000000000000000, 0.000000000000000000, -20.00000000000000000 ) ) ;
#924 = ORIENTED_EDGE ( 'NONE', *, *, #177, .T. ) ;
#925 = FACE_BOUND ( 'NONE', #1110, .T. ) ;
#926 = CARTESIAN_POINT ( 'NONE',  ( 20.70079576494985218, 0.000000000000000000, -14.54378460101573900 ) ) ;
#927 = PRODUCT_DEFINITION_CONTEXT ( 'detailed design', #478, 'design' ) ;
#928 = CIRCLE ( 'NONE', #1091, 1.299999999999998268 ) ;
#929 = ORIENTED_EDGE ( 'NONE', *, *, #162, .F. ) ;
#930 = DIRECTION ( 'NONE',  ( 0.000000000000000000, 0.000000000000000000, 1.000000000000000000 ) ) ;
#931 = CARTESIAN_POINT ( 'NONE',  ( 27.44453044909004191, 0.000000000000000000, -16.09378460101573793 ) ) ;
#932 = EDGE_CURVE ( 'NONE', #543, #246, #400, .T. ) ;
#933 =( NAMED_UNIT ( * ) SI_UNIT ( $, .STERADIAN. ) SOLID_ANGLE_UNIT ( ) );
#934 = VECTOR ( 'NONE', #964, 1000.000000000000000 ) ;
#935 = CARTESIAN_POINT ( 'NONE',  ( 12.73258358166613391, 0.000000000000000000, -10.00000000000000178 ) ) ;
#936 = AXIS2_PLACEMENT_3D ( 'NONE', #1149, #336, #156 ) ;
#937 = ORIENTED_EDGE ( 'NONE', *, *, #446, .T. ) ;
#938 = CARTESIAN_POINT ( 'NONE',  ( 4.365184557168610979, 5.000000000000000000, -11.60000000000000142 ) ) ;
#939 = ORIENTED_EDGE ( 'NONE', *, *, #324, .F. ) ;
#940 = DIRECTION ( 'NONE',  ( 0.000000000000000000, 0.000000000000000000, 1.000000000000000000 ) ) ;
#941 = FACE_OUTER_BOUND ( 'NONE', #620, .T. ) ;
#942 = VECTOR ( 'NONE', #130, 1000.000000000000000 ) ;
#943 = EDGE_CURVE ( 'NONE', #25, #438, #35, .T. ) ;
#944 = EDGE_LOOP ( 'NONE', ( #353, #647 ) ) ;
#945 = DIRECTION ( 'NONE',  ( 0.000000000000000000, 0.000000000000000000, 1.000000000000000000 ) ) ;
#946 = DIRECTION ( 'NONE',  ( 0.000000000000000000, 0.000000000000000000, 1.000000000000000000 ) ) ;
#947 = CARTESIAN_POINT ( 'NONE',  ( 5.725331608042151466, 5.000000000000000000, -16.09378460101573438 ) ) ;
#948 = EDGE_CURVE ( 'NONE', #364, #895, #235, .T. ) ;
#949 = FACE_BOUND ( 'NONE', #871, .T. ) ;
#950 = EDGE_CURVE ( 'NONE', #593, #560, #844, .T. ) ;
#951 = ORIENTED_EDGE ( 'NONE', *, *, #470, .F. ) ;
#952 = DIRECTION ( 'NONE',  ( -0.000000000000000000, 1.000000000000000000, -0.000000000000000000 ) ) ;
#953 = CARTESIAN_POINT ( 'NONE',  ( 20.70079576494985218, 0.000000000000000000, -10.00000000000000000 ) ) ;
#954 = ORIENTED_EDGE ( 'NONE', *, *, #324, .T. ) ;
#955 = FACE_BOUND ( 'NONE', #307, .T. ) ;
#956 = EDGE_CURVE ( 'NONE', #265, #843, #63, .T. ) ;
#957 = CARTESIAN_POINT ( 'NONE',  ( 27.44453044909004191, 5.000000000000000000, -4.387736866230691035 ) ) ;
#958 = EDGE_LOOP ( 'NONE', ( #466, #578 ) ) ;
#959 =( NAMED_UNIT ( * ) PLANE_ANGLE_UNIT ( ) SI_UNIT ( $, .RADIAN. ) );
#960 = ORIENTED_EDGE ( 'NONE', *, *, #257, .T. ) ;
#961 = LINE ( 'NONE', #977, #185 ) ;
#962 = CARTESIAN_POINT ( 'NONE',  ( 20.70079576494985218, 5.000000000000000000, -16.09378460101573793 ) ) ;
#963 = ORIENTED_EDGE ( 'NONE', *, *, #950, .F. ) ;
#964 = DIRECTION ( 'NONE',  ( -0.000000000000000000, 1.000000000000000000, -0.000000000000000000 ) ) ;
#965 = ADVANCED_BREP_SHAPE_REPRESENTATION ( 'testprint', ( #459, #815 ), #920 ) ;
#966 = VERTEX_POINT ( 'NONE', #407 ) ;
#967 = DIRECTION ( 'NONE',  ( 0.000000000000000000, 0.000000000000000000, 1.000000000000000000 ) ) ;
#968 = DIRECTION ( 'NONE',  ( 0.000000000000000000, 0.000000000000000000, 1.000000000000000000 ) ) ;
#969 = EDGE_LOOP ( 'NONE', ( #1148, #657, #608 ) ) ;
#970 = ADVANCED_FACE ( 'NONE', ( #49 ), #402, .F. ) ;
#971 = EDGE_LOOP ( 'NONE', ( #1121, #861, #1106, #627 ) ) ;
#972 = FACE_OUTER_BOUND ( 'NONE', #98, .T. ) ;
#973 = CARTESIAN_POINT ( 'NONE',  ( 12.73258358166613391, 0.000000000000000000, -18.14378460101573509 ) ) ;
#974 = CARTESIAN_POINT ( 'NONE',  ( 12.73258358166613391, 5.000000000000000000, -18.14378460101573509 ) ) ;
#975 = CARTESIAN_POINT ( 'NONE',  ( 27.44453044909004191, 0.000000000000000000, -14.79378460101573900 ) ) ;
#976 = ORIENTED_EDGE ( 'NONE', *, *, #50, .T. ) ;
#977 = CARTESIAN_POINT ( 'NONE',  ( 12.73258358166613391, 0.000000000000000000, -6.537736866230688726 ) ) ;
#978 = CIRCLE ( 'NONE', #1098, 2.049999999999999822 ) ;
#979 = DIRECTION ( 'NONE',  ( 0.000000000000000000, 0.000000000000000000, 1.000000000000000000 ) ) ;
#980 = ADVANCED_FACE ( 'NONE', ( #135 ), #496, .F. ) ;
#981 = EDGE_LOOP ( 'NONE', ( #451, #352 ) ) ;
#982 = CYLINDRICAL_SURFACE ( 'NONE', #221, 1.549999999999997602 ) ;
#983 = AXIS2_PLACEMENT_3D ( 'NONE', #122, #480, #57 ) ;
#984 = EDGE_CURVE ( 'NONE', #1161, #479, #212, .T. ) ;
#985 = DIRECTION ( 'NONE',  ( 0.000000000000000000, 1.000000000000000000, 0.000000000000000000 ) ) ;
#986 = APPLICATION_CONTEXT ( 'automotive_design' ) ;
#987 = ORIENTED_EDGE ( 'NONE', *, *, #413, .T. ) ;
#988 = FACE_OUTER_BOUND ( 'NONE', #107, .T. ) ;
#989 = DIRECTION ( 'NONE',  ( 0.000000000000000000, 0.000000000000000000, 1.000000000000000000 ) ) ;
#990 = AXIS2_PLACEMENT_3D ( 'NONE', #30, #295, #385 ) ;
#991 = AXIS2_PLACEMENT_3D ( 'NONE', #1128, #840, #225 ) ;
#992 = ORIENTED_EDGE ( 'NONE', *, *, #736, .F. ) ;
#993 = AXIS2_PLACEMENT_3D ( 'NONE', #334, #84, #159 ) ;
#994 = ORIENTED_EDGE ( 'NONE', *, *, #1152, .F. ) ;
#995 = CARTESIAN_POINT ( 'NONE',  ( 4.383690821542281846, 0.000000000000000000, -17.64378460101573509 ) ) ;
#996 = CARTESIAN_POINT ( 'NONE',  ( 5.725331608042155906, 0.000000000000000000, -10.00000000000000000 ) ) ;
#997 = EDGE_LOOP ( 'NONE', ( #634, #325 ) ) ;
#998 = EDGE_CURVE ( 'NONE', #1142, #782, #331, .T. ) ;
#999 = ADVANCED_FACE ( 'NONE', ( #1059 ), #681, .F. ) ;
#1000 = ORIENTED_EDGE ( 'NONE', *, *, #151, .T. ) ;
#1001 = CARTESIAN_POINT ( 'NONE',  ( 20.70079576494985218, 0.000000000000000000, -10.00000000000000000 ) ) ;
#1002 = AXIS2_PLACEMENT_3D ( 'NONE', #394, #1119, #1038 ) ;
#1003 = PLANE ( 'NONE',  #338 ) ;
#1004 = ORIENTED_EDGE ( 'NONE', *, *, #1067, .T. ) ;
#1005 = ORIENTED_EDGE ( 'NONE', *, *, #396, .F. ) ;
#1006 = PLANE ( 'NONE',  #22 ) ;
#1007 = CARTESIAN_POINT ( 'NONE',  ( 5.725331608042151466, 0.000000000000000000, -14.04378460101573367 ) ) ;
#1008 = ORIENTED_EDGE ( 'NONE', *, *, #1173, .T. ) ;
#1009 = VERTEX_POINT ( 'NONE', #430 ) ;
#1010 = DIRECTION ( 'NONE',  ( -0.000000000000000000, 1.000000000000000000, -0.000000000000000000 ) ) ;
#1011 = EDGE_CURVE ( 'NONE', #368, #187, #262, .T. ) ;
#1012 = DIRECTION ( 'NONE',  ( 0.000000000000000000, 0.000000000000000000, -1.000000000000000000 ) ) ;
#1013 = CIRCLE ( 'NONE', #507, 1.649999999999998579 ) ;
#1014 = VERTEX_POINT ( 'NONE', #974 ) ;
#1015 = ADVANCED_FACE ( 'NONE', ( #527 ), #1045, .F. ) ;
#1016 = AXIS2_PLACEMENT_3D ( 'NONE', #476, #16, #469 ) ;
#1017 = EDGE_LOOP ( 'NONE', ( #306, #992, #680 ) ) ;
#1018 = DIRECTION ( 'NONE',  ( 0.000000000000000000, 0.000000000000000000, 1.000000000000000000 ) ) ;
#1019 = CARTESIAN_POINT ( 'NONE',  ( 20.70079576494985218, 0.000000000000000000, -11.60000000000000320 ) ) ;
#1020 = EDGE_CURVE ( 'NONE', #32, #1167, #333, .T. ) ;
#1021 = CARTESIAN_POINT ( 'NONE',  ( 12.73258358166613391, 5.000000000000000000, -7.900000000000000355 ) ) ;
#1022 = CARTESIAN_POINT ( 'NONE',  ( 30.00000000000000000, 0.000000000000000000, 0.000000000000000000 ) ) ;
#1023 = EDGE_LOOP ( 'NONE', ( #278, #175, #960 ) ) ;
#1024 = CARTESIAN_POINT ( 'NONE',  ( 20.70079576494985218, 0.000000000000000000, -14.54378460101573900 ) ) ;
#1025 = CARTESIAN_POINT ( 'NONE',  ( 20.70079576494985218, 5.000000000000000000, -8.399999999999998579 ) ) ;
#1026 = FACE_OUTER_BOUND ( 'NONE', #772, .T. ) ;
#1027 = DIRECTION ( 'NONE',  ( 0.000000000000000000, 0.000000000000000000, -1.000000000000000000 ) ) ;
#1028 = ORIENTED_EDGE ( 'NONE', *, *, #943, .T. ) ;
#1029 = CARTESIAN_POINT ( 'NONE',  ( 20.70079576494985218, 0.000000000000000000, -16.09378460101573793 ) ) ;
#1030 = EDGE_CURVE ( 'NONE', #69, #3, #1043, .T. ) ;
#1031 = FACE_BOUND ( 'NONE', #997, .T. ) ;
#1032 = FACE_BOUND ( 'NONE', #106, .T. ) ;
#1033 = AXIS2_PLACEMENT_3D ( 'NONE', #878, #253, #693 ) ;
#1034 = CIRCLE ( 'NONE', #85, 2.100000000000000977 ) ;
#1035 = EDGE_CURVE ( 'NONE', #3, #766, #503, .T. ) ;
#1036 = EDGE_CURVE ( 'NONE', #210, #719, #1039, .T. ) ;
#1037 = ORIENTED_EDGE ( 'NONE', *, *, #1085, .T. ) ;
#1038 = DIRECTION ( 'NONE',  ( 0.000000000000000000, 0.000000000000000000, 1.000000000000000000 ) ) ;
#1039 = LINE ( 'NONE', #219, #294 ) ;
#1040 = ADVANCED_FACE ( 'NONE', ( #768 ), #303, .F. ) ;
#1041 = FILL_AREA_STYLE ('',( #492 ) ) ;
#1042 = CARTESIAN_POINT ( 'NONE',  ( 12.73258358166613391, 5.000000000000000000, -6.537736866230688726 ) ) ;
#1043 = CIRCLE ( 'NONE', #739, 1.600000000000002531 ) ;
#1044 = EDGE_LOOP ( 'NONE', ( #198, #477, #1127, #155 ) ) ;
#1045 = CYLINDRICAL_SURFACE ( 'NONE', #641, 1.299999999999997380 ) ;
#1046 = LINE ( 'NONE', #238, #1056 ) ;
#1047 = EDGE_LOOP ( 'NONE', ( #473, #456, #258, #508 ) ) ;
#1048 = DIRECTION ( 'NONE',  ( 0.000000000000000000, 1.000000000000000000, 0.000000000000000000 ) ) ;
#1049 = DIRECTION ( 'NONE',  ( -0.000000000000000000, 1.000000000000000000, -0.000000000000000000 ) ) ;
#1050 = EDGE_LOOP ( 'NONE', ( #1094, #346, #1151, #102 ) ) ;
#1051 = DIRECTION ( 'NONE',  ( 0.000000000000000000, 1.000000000000000000, 0.000000000000000000 ) ) ;
#1052 = AXIS2_PLACEMENT_3D ( 'NONE', #721, #907, #119 ) ;
#1053 = ORIENTED_EDGE ( 'NONE', *, *, #778, .T. ) ;
#1054 = DIRECTION ( 'NONE',  ( 0.000000000000000000, 1.000000000000000000, 0.000000000000000000 ) ) ;
#1055 = DIRECTION ( 'NONE',  ( 0.000000000000000000, 0.000000000000000000, 1.000000000000000000 ) ) ;
#1056 = VECTOR ( 'NONE', #586, 1000.000000000000000 ) ;
#1057 = EDGE_CURVE ( 'NONE', #246, #195, #1134, .T. ) ;
#1058 = VERTEX_POINT ( 'NONE', #923 ) ;
#1059 = FACE_OUTER_BOUND ( 'NONE', #1044, .T. ) ;
#1060 = CYLINDRICAL_SURFACE ( 'NONE', #791, 2.099999999999999645 ) ;
#1061 = ORIENTED_EDGE ( 'NONE', *, *, #177, .F. ) ;
#1062 = VECTOR ( 'NONE', #1070, 1000.000000000000000 ) ;
#1063 = FACE_OUTER_BOUND ( 'NONE', #296, .T. ) ;
#1064 = DIRECTION ( 'NONE',  ( -0.000000000000000000, 1.000000000000000000, -0.000000000000000000 ) ) ;
#1065 = CIRCLE ( 'NONE', #738, 1.549999999999997602 ) ;
#1066 = ORIENTED_EDGE ( 'NONE', *, *, #736, .T. ) ;
#1067 = EDGE_CURVE ( 'NONE', #766, #1087, #841, .T. ) ;
#1068 = EDGE_LOOP ( 'NONE', ( #587, #797, #908, #361 ) ) ;
#1069 = CARTESIAN_POINT ( 'NONE',  ( 0.000000000000000000, 0.000000000000000000, 0.000000000000000000 ) ) ;
#1070 = DIRECTION ( 'NONE',  ( 1.000000000000000000, 0.000000000000000000, 0.000000000000000000 ) ) ;
#1071 = ORIENTED_EDGE ( 'NONE', *, *, #1030, .T. ) ;
#1072 = VERTEX_POINT ( 'NONE', #64 ) ;
#1073 = EDGE_CURVE ( 'NONE', #1142, #966, #776, .T. ) ;
#1074 = CYLINDRICAL_SURFACE ( 'NONE', #268, 1.600000000000002531 ) ;
#1075 = EDGE_CURVE ( 'NONE', #692, #830, #1046, .T. ) ;
#1076 = CARTESIAN_POINT ( 'NONE',  ( 7.085478658915699945, 5.000000000000000000, -11.60000000000000142 ) ) ;
#1077 = DIRECTION ( 'NONE',  ( -0.000000000000000000, 1.000000000000000000, -0.000000000000000000 ) ) ;
#1078 = VECTOR ( 'NONE', #864, 1000.000000000000000 ) ;
#1079 = ORIENTED_EDGE ( 'NONE', *, *, #1057, .T. ) ;
#1080 = FACE_OUTER_BOUND ( 'NONE', #62, .T. ) ;
#1081 = CIRCLE ( 'NONE', #436, 1.299999999999998268 ) ;
#1082 = LINE ( 'NONE', #157, #1062 ) ;
#1083 = ORIENTED_EDGE ( 'NONE', *, *, #446, .F. ) ;
#1084 = CARTESIAN_POINT ( 'NONE',  ( 0.000000000000000000, 0.000000000000000000, -20.00000000000000000 ) ) ;
#1085 = EDGE_CURVE ( 'NONE', #782, #1142, #343, .T. ) ;
#1086 = CARTESIAN_POINT ( 'NONE',  ( 27.44453044909004191, 5.000000000000000000, -16.09378460101573793 ) ) ;
#1087 = VERTEX_POINT ( 'NONE', #1025 ) ;
#1088 = CARTESIAN_POINT ( 'NONE',  ( 20.70079576494985218, 0.000000000000000000, -2.737736866230692456 ) ) ;
#1089 = CARTESIAN_POINT ( 'NONE',  ( 0.000000000000000000, 5.000000000000000000, -20.00000000000000000 ) ) ;
#1090 = AXIS2_PLACEMENT_3D ( 'NONE', #1086, #637, #203 ) ;
#1091 = AXIS2_PLACEMENT_3D ( 'NONE', #509, #1171, #169 ) ;
#1092 = ORIENTED_EDGE ( 'NONE', *, *, #697, .F. ) ;
#1093 = EDGE_CURVE ( 'NONE', #40, #401, #243, .T. ) ;
#1094 = ORIENTED_EDGE ( 'NONE', *, *, #1093, .F. ) ;
#1095 = CARTESIAN_POINT ( 'NONE',  ( 7.103736483251178235, 5.000000000000000000, -6.037736866230691390 ) ) ;
#1096 = AXIS2_PLACEMENT_3D ( 'NONE', #867, #76, #425 ) ;
#1097 = LINE ( 'NONE', #558, #398 ) ;
#1098 = AXIS2_PLACEMENT_3D ( 'NONE', #66, #656, #661 ) ;
#1099 = ORIENTED_EDGE ( 'NONE', *, *, #686, .T. ) ;
#1100 = VERTEX_POINT ( 'NONE', #395 ) ;
#1101 = CARTESIAN_POINT ( 'NONE',  ( 20.70079576494985218, 5.000000000000000000, -4.387736866230691035 ) ) ;
#1102 = AXIS2_PLACEMENT_3D ( 'NONE', #812, #462, #822 ) ;
#1103 = DIRECTION ( 'NONE',  ( 0.000000000000000000, 0.000000000000000000, 1.000000000000000000 ) ) ;
#1104 = VECTOR ( 'NONE', #557, 1000.000000000000000 ) ;
#1105 = ORIENTED_EDGE ( 'NONE', *, *, #582, .T. ) ;
#1106 = ORIENTED_EDGE ( 'NONE', *, *, #1109, .T. ) ;
#1107 = DIRECTION ( 'NONE',  ( -0.000000000000000000, 1.000000000000000000, -0.000000000000000000 ) ) ;
#1108 = CARTESIAN_POINT ( 'NONE',  ( 12.73258358166613391, 0.000000000000000000, -4.387736866230691035 ) ) ;
#1109 = EDGE_CURVE ( 'NONE', #471, #14, #756, .T. ) ;
#1110 = EDGE_LOOP ( 'NONE', ( #624, #675 ) ) ;
#1111 = CIRCLE ( 'NONE', #990, 2.150000000000000355 ) ;
#1112 = ORIENTED_EDGE ( 'NONE', *, *, #706, .T. ) ;
#1113 = CARTESIAN_POINT ( 'NONE',  ( 20.70079576494985218, 0.000000000000000000, -8.399999999999998579 ) ) ;
#1114 = DIRECTION ( 'NONE',  ( 0.000000000000000000, 1.000000000000000000, 0.000000000000000000 ) ) ;
#1115 = EDGE_CURVE ( 'NONE', #390, #368, #309, .T. ) ;
#1116 = ORIENTED_EDGE ( 'NONE', *, *, #765, .F. ) ;
#1117 = CIRCLE ( 'NONE', #598, 1.549999999999997602 ) ;
#1118 = VERTEX_POINT ( 'NONE', #792 ) ;
#1119 = DIRECTION ( 'NONE',  ( -1.000000000000000000, 0.000000000000000000, 0.000000000000000000 ) ) ;
#1120 = DIRECTION ( 'NONE',  ( -0.000000000000000000, 1.000000000000000000, -0.000000000000000000 ) ) ;
#1121 = ORIENTED_EDGE ( 'NONE', *, *, #455, .F. ) ;
#1122 = DIRECTION ( 'NONE',  ( 0.000000000000000000, 0.000000000000000000, 1.000000000000000000 ) ) ;
#1123 = CARTESIAN_POINT ( 'NONE',  ( 5.725331608042155906, 0.000000000000000000, -4.387736866230691035 ) ) ;
#1124 = ORIENTED_EDGE ( 'NONE', *, *, #1075, .T. ) ;
#1125 = PLANE ( 'NONE',  #1002 ) ;
#1126 = DIRECTION ( 'NONE',  ( -0.000000000000000000, 1.000000000000000000, -0.000000000000000000 ) ) ;
#1127 = ORIENTED_EDGE ( 'NONE', *, *, #606, .T. ) ;
#1128 = CARTESIAN_POINT ( 'NONE',  ( 20.70079576494985218, 0.000000000000000000, -16.09378460101573793 ) ) ;
#1129 = ADVANCED_FACE ( 'NONE', ( #619 ), #1168, .F. ) ;
#1130 = CARTESIAN_POINT ( 'NONE',  ( 20.70079576494985218, 0.000000000000000000, -4.387736866230691035 ) ) ;
#1131 = EDGE_CURVE ( 'NONE', #345, #291, #1153, .T. ) ;
#1132 = ORIENTED_EDGE ( 'NONE', *, *, #771, .T. ) ;
#1133 = CARTESIAN_POINT ( 'NONE',  ( 4.365184557168610979, 5.000000000000000000, -11.60000000000000142 ) ) ;
#1134 = LINE ( 'NONE', #671, #885 ) ;
#1135 = CARTESIAN_POINT ( 'NONE',  ( 12.73258358166613391, 5.000000000000000000, -14.04378460101573722 ) ) ;
#1136 = CARTESIAN_POINT ( 'NONE',  ( 27.44453044909004191, 0.000000000000000000, -11.35000000000000320 ) ) ;
#1137 = AXIS2_PLACEMENT_3D ( 'NONE', #311, #847, #274 ) ;
#1138 = ORIENTED_EDGE ( 'NONE', *, *, #795, .T. ) ;
#1139 = EDGE_CURVE ( 'NONE', #750, #664, #521, .T. ) ;
#1140 = DIRECTION ( 'NONE',  ( 0.000000000000000000, 1.000000000000000000, 0.000000000000000000 ) ) ;
#1141 = DIRECTION ( 'NONE',  ( 0.000000000000000000, 1.000000000000000000, 0.000000000000000000 ) ) ;
#1142 = VERTEX_POINT ( 'NONE', #975 ) ;
#1143 = CARTESIAN_POINT ( 'NONE',  ( 20.70079576494985218, 0.000000000000000000, -4.387736866230691035 ) ) ;
#1144 = DIRECTION ( 'NONE',  ( 0.000000000000000000, 1.000000000000000000, 0.000000000000000000 ) ) ;
#1145 = VECTOR ( 'NONE', #154, 1000.000000000000000 ) ;
#1146 =( LENGTH_UNIT ( ) NAMED_UNIT ( * ) SI_UNIT ( .MILLI., .METRE. ) );
#1147 = EDGE_CURVE ( 'NONE', #522, #369, #263, .T. ) ;
#1148 = ORIENTED_EDGE ( 'NONE', *, *, #204, .F. ) ;
#1149 = CARTESIAN_POINT ( 'NONE',  ( 12.73258358166613391, 5.000000000000000000, -16.09378460101573793 ) ) ;
#1150 = DIRECTION ( 'NONE',  ( 0.000000000000000000, 0.000000000000000000, 1.000000000000000000 ) ) ;
#1151 = ORIENTED_EDGE ( 'NONE', *, *, #191, .T. ) ;
#1152 = EDGE_CURVE ( 'NONE', #246, #543, #132, .T. ) ;
#1153 = LINE ( 'NONE', #876, #745 ) ;
#1154 = AXIS2_PLACEMENT_3D ( 'NONE', #1089, #283, #277 ) ;
#1155 = AXIS2_PLACEMENT_3D ( 'NONE', #1143, #329, #1122 ) ;
#1156 = ORIENTED_EDGE ( 'NONE', *, *, #1139, .F. ) ;
#1157 = CARTESIAN_POINT ( 'NONE',  ( 20.70079576494985218, 0.000000000000000000, -4.387736866230691035 ) ) ;
#1158 = CYLINDRICAL_SURFACE ( 'NONE', #450, 1.549999999999997602 ) ;
#1159 = EDGE_CURVE ( 'NONE', #414, #1163, #781, .T. ) ;
#1160 = CIRCLE ( 'NONE', #590, 1.649999999999998579 ) ;
#1161 = VERTEX_POINT ( 'NONE', #173 ) ;
#1162 = CARTESIAN_POINT ( 'NONE',  ( 30.00000000000000000, 5.000000000000000000, -20.00000000000000000 ) ) ;
#1163 = VERTEX_POINT ( 'NONE', #691 ) ;
#1164 = CARTESIAN_POINT ( 'NONE',  ( 30.00000000000000000, 5.000000000000000000, 0.000000000000000000 ) ) ;
#1165 = LINE ( 'NONE', #973, #542 ) ;
#1166 = AXIS2_PLACEMENT_3D ( 'NONE', #643, #826, #94 ) ;
#1167 = VERTEX_POINT ( 'NONE', #594 ) ;
#1168 = CYLINDRICAL_SURFACE ( 'NONE', #993, 2.049999999999999822 ) ;
#1169 = VECTOR ( 'NONE', #408, 1000.000000000000000 ) ;
#1170 = EDGE_LOOP ( 'NONE', ( #75, #821, #38 ) ) ;
#1171 = DIRECTION ( 'NONE',  ( 0.000000000000000000, 1.000000000000000000, 0.000000000000000000 ) ) ;
#1172 = CARTESIAN_POINT ( 'NONE',  ( 30.00000000000000000, 5.000000000000000000, 0.000000000000000000 ) ) ;
#1173 = EDGE_CURVE ( 'NONE', #369, #664, #1160, .T. ) ;
#1174 = ADVANCED_FACE ( 'NONE', ( #882 ), #1060, .F. ) ;
ENDSEC;
END-ISO-10303-21;
