ISO-10303-21;
HEADER;
FILE_DESCRIPTION (( 'STEP AP214' ),
    '1' );
FILE_NAME ('clamp2.STEP',
    '2025-12-12T15:36:34',
    ( '' ),
    ( '' ),
    'SwSTEP 2.0',
    'SolidWorks 2025',
    '' );
FILE_SCHEMA (( 'AUTOMOTIVE_DESIGN' ));
ENDSEC;

DATA;
#1 = AXIS2_PLACEMENT_3D ( 'NONE', #324, #270, #556 ) ;
#2 = EDGE_LOOP ( 'NONE', ( #345, #183, #450, #582 ) ) ;
#3 = LINE ( 'NONE', #505, #77 ) ;
#5 = EDGE_CURVE ( 'NONE', #611, #35, #733, .T. ) ;
#4 = DIRECTION ( 'NONE',  ( 0.000000000000000000, 0.000000000000000000, 1.000000000000000000 ) ) ;
#6 = ADVANCED_FACE ( 'NONE', ( #282 ), #619, .F. ) ;
#7 = ORIENTED_EDGE ( 'NONE', *, *, #393, .F. ) ;
#8 = ADVANCED_FACE ( 'NONE', ( #57 ), #516, .F. ) ;
#9 = CARTESIAN_POINT ( 'NONE',  ( 17.75000000000000000, -7.500000000000000888, 4.000000000000000000 ) ) ;
#10 = ORIENTED_EDGE ( 'NONE', *, *, #391, .F. ) ;
#11 = DIRECTION ( 'NONE',  ( 0.000000000000000000, 0.000000000000000000, 1.000000000000000000 ) ) ;
#12 = VERTEX_POINT ( 'NONE', #459 ) ;
#13 = VECTOR ( 'NONE', #366, 1000.000000000000000 ) ;
#14 = DIRECTION ( 'NONE',  ( 0.000000000000000000, 1.000000000000000000, 0.000000000000000000 ) ) ;
#15 = ORIENTED_EDGE ( 'NONE', *, *, #116, .T. ) ;
#16 = DIRECTION ( 'NONE',  ( 1.652117596168388002E-16, 1.000000000000000000, 0.000000000000000000 ) ) ;
#17 = ORIENTED_EDGE ( 'NONE', *, *, #707, .F. ) ;
#18 = DIRECTION ( 'NONE',  ( -0.000000000000000000, 1.000000000000000000, -0.000000000000000000 ) ) ;
#19 = DIRECTION ( 'NONE',  ( 1.000000000000000000, 0.000000000000000000, -0.000000000000000000 ) ) ;
#20 = ORIENTED_EDGE ( 'NONE', *, *, #359, .F. ) ;
#21 = CIRCLE ( 'NONE', #350, 10.19999999999999929 ) ;
#22 = AXIS2_PLACEMENT_3D ( 'NONE', #602, #377, #139 ) ;
#23 = CARTESIAN_POINT ( 'NONE',  ( 0.000000000000000000, 0.000000000000000000, 0.000000000000000000 ) ) ;
#24 = FILL_AREA_STYLE_COLOUR ( '', #50 ) ;
#25 = ADVANCED_FACE ( 'NONE', ( #329 ), #685, .F. ) ;
#26 = CARTESIAN_POINT ( 'NONE',  ( 0.000000000000000000, 0.000000000000000000, 8.000000000000000000 ) ) ;
#27 = DIRECTION ( 'NONE',  ( -0.000000000000000000, -0.000000000000000000, -1.000000000000000000 ) ) ;
#28 = CARTESIAN_POINT ( 'NONE',  ( -22.49999999999999645, -7.500000000000000888, 8.000000000000000000 ) ) ;
#29 = DIRECTION ( 'NONE',  ( 0.000000000000000000, 0.000000000000000000, 1.000000000000000000 ) ) ;
#30 = ADVANCED_FACE ( 'NONE', ( #222, #68 ), #624, .F. ) ;
#31 = AXIS2_PLACEMENT_3D ( 'NONE', #343, #184, #190 ) ;
#32 = CARTESIAN_POINT ( 'NONE',  ( -22.49999999999999645, -7.500000000000000888, 8.000000000000000000 ) ) ;
#33 = ADVANCED_FACE ( 'NONE', ( #119 ), #680, .F. ) ;
#34 = CIRCLE ( 'NONE', #451, 13.00000000000000000 ) ;
#35 = VERTEX_POINT ( 'NONE', #215 ) ;
#36 = EDGE_CURVE ( 'NONE', #342, #566, #437, .T. ) ;
#37 = LINE ( 'NONE', #423, #210 ) ;
#38 = PRODUCT ( 'clamp2', 'clamp2', '', ( #422 ) ) ;
#39 = LINE ( 'NONE', #722, #590 ) ;
#40 = ORIENTED_EDGE ( 'NONE', *, *, #113, .F. ) ;
#41 = DIRECTION ( 'NONE',  ( 0.000000000000000000, 0.000000000000000000, 1.000000000000000000 ) ) ;
#42 = EDGE_LOOP ( 'NONE', ( #526, #413 ) ) ;
#43 = UNCERTAINTY_MEASURE_WITH_UNIT (LENGTH_MEASURE( 1.000000000000000082E-05 ), #122, 'distance_accuracy_value', 'NONE');
#44 = LINE ( 'NONE', #357, #570 ) ;
#45 = ORIENTED_EDGE ( 'NONE', *, *, #479, .F. ) ;
#46 = DIRECTION ( 'NONE',  ( 0.000000000000000000, -1.000000000000000000, 0.000000000000000000 ) ) ;
#47 = ORIENTED_EDGE ( 'NONE', *, *, #530, .F. ) ;
#48 = CARTESIAN_POINT ( 'NONE',  ( 13.00000000000000000, 0.000000000000000000, 8.000000000000000000 ) ) ;
#49 = AXIS2_PLACEMENT_3D ( 'NONE', #340, #292, #16 ) ;
#50 = COLOUR_RGB ( '',0.7921568627450980005, 0.8196078431372548767, 0.9333333333333333481 ) ;
#51 = CARTESIAN_POINT ( 'NONE',  ( 22.49999999999999645, -7.500000000000000888, 8.000000000000000000 ) ) ;
#52 = ADVANCED_FACE ( 'NONE', ( #399 ), #628, .F. ) ;
#53 = LINE ( 'NONE', #732, #678 ) ;
#54 = DIRECTION ( 'NONE',  ( 0.000000000000000000, 1.000000000000000000, 0.000000000000000000 ) ) ;
#55 = VERTEX_POINT ( 'NONE', #51 ) ;
#56 = DIRECTION ( 'NONE',  ( 0.000000000000000000, 0.000000000000000000, 1.000000000000000000 ) ) ;
#57 = FACE_OUTER_BOUND ( 'NONE', #180, .T. ) ;
#58 = EDGE_LOOP ( 'NONE', ( #229, #152, #513, #692 ) ) ;
#59 = EDGE_CURVE ( 'NONE', #203, #478, #445, .T. ) ;
#60 = LINE ( 'NONE', #515, #739 ) ;
#61 = EDGE_CURVE ( 'NONE', #730, #12, #506, .T. ) ;
#62 = DIRECTION ( 'NONE',  ( -0.000000000000000000, -0.000000000000000000, -1.000000000000000000 ) ) ;
#63 = AXIS2_PLACEMENT_3D ( 'NONE', #682, #54, #518 ) ;
#64 = AXIS2_PLACEMENT_3D ( 'NONE', #121, #285, #74 ) ;
#65 = EDGE_CURVE ( 'NONE', #82, #611, #675, .T. ) ;
#66 = AXIS2_PLACEMENT_3D ( 'NONE', #108, #449, #571 ) ;
#67 = ORIENTED_EDGE ( 'NONE', *, *, #59, .T. ) ;
#68 = FACE_OUTER_BOUND ( 'NONE', #651, .T. ) ;
#69 = APPLICATION_CONTEXT ( 'automotive_design' ) ;
#70 = ORIENTED_EDGE ( 'NONE', *, *, #660, .F. ) ;
#71 = CARTESIAN_POINT ( 'NONE',  ( 10.19999999999999751, -10.50000000000000000, 0.000000000000000000 ) ) ;
#72 =( NAMED_UNIT ( * ) SI_UNIT ( $, .STERADIAN. ) SOLID_ANGLE_UNIT ( ) );
#73 = ORIENTED_EDGE ( 'NONE', *, *, #284, .F. ) ;
#74 = DIRECTION ( 'NONE',  ( 0.000000000000000000, 0.000000000000000000, 1.000000000000000000 ) ) ;
#75 =( NAMED_UNIT ( * ) PLANE_ANGLE_UNIT ( ) SI_UNIT ( $, .RADIAN. ) );
#76 = ORIENTED_EDGE ( 'NONE', *, *, #512, .F. ) ;
#77 = VECTOR ( 'NONE', #217, 1000.000000000000000 ) ;
#78 = DIRECTION ( 'NONE',  ( 1.000000000000000000, 0.000000000000000000, 0.000000000000000000 ) ) ;
#79 = ORIENTED_EDGE ( 'NONE', *, *, #136, .T. ) ;
#80 = CARTESIAN_POINT ( 'NONE',  ( 17.75000000000000000, -10.50000000000000000, 4.000000000000000000 ) ) ;
#81 = FACE_OUTER_BOUND ( 'NONE', #731, .T. ) ;
#82 = VERTEX_POINT ( 'NONE', #565 ) ;
#83 = DIRECTION ( 'NONE',  ( 1.000000000000000000, 0.000000000000000000, 0.000000000000000000 ) ) ;
#84 = EDGE_CURVE ( 'NONE', #612, #598, #511, .T. ) ;
#85 = DIRECTION ( 'NONE',  ( -1.000000000000000000, -0.000000000000000000, -0.000000000000000000 ) ) ;
#86 = CIRCLE ( 'NONE', #374, 2.100000000000000977 ) ;
#87 = FACE_OUTER_BOUND ( 'NONE', #58, .T. ) ;
#88 = CARTESIAN_POINT ( 'NONE',  ( -13.00000000000000000, -7.500000000000000888, 8.000000000000000000 ) ) ;
#89 = DIRECTION ( 'NONE',  ( -0.000000000000000000, -0.000000000000000000, -1.000000000000000000 ) ) ;
#90 = DIRECTION ( 'NONE',  ( 0.000000000000000000, -1.000000000000000000, 0.000000000000000000 ) ) ;
#91 = EDGE_CURVE ( 'NONE', #566, #342, #737, .T. ) ;
#92 = CARTESIAN_POINT ( 'NONE',  ( -10.19999999999999929, -7.122621931239990783E-14, 8.000000000000000000 ) ) ;
#93 = VERTEX_POINT ( 'NONE', #287 ) ;
#94 = LINE ( 'NONE', #665, #421 ) ;
#95 = VECTOR ( 'NONE', #581, 1000.000000000000000 ) ;
#96 = DIRECTION ( 'NONE',  ( 0.000000000000000000, -0.000000000000000000, -1.000000000000000000 ) ) ;
#97 = VECTOR ( 'NONE', #472, 1000.000000000000000 ) ;
#98 = ORIENTED_EDGE ( 'NONE', *, *, #510, .F. ) ;
#99 = DIRECTION ( 'NONE',  ( 0.000000000000000000, 0.000000000000000000, 1.000000000000000000 ) ) ;
#100 = FACE_OUTER_BOUND ( 'NONE', #496, .T. ) ;
#101 = ORIENTED_EDGE ( 'NONE', *, *, #656, .F. ) ;
#102 = PLANE ( 'NONE',  #327 ) ;
#103 = EDGE_LOOP ( 'NONE', ( #123, #380, #321, #626 ) ) ;
#104 = DIRECTION ( 'NONE',  ( 1.000000000000000000, 0.000000000000000000, 0.000000000000000000 ) ) ;
#105 = VERTEX_POINT ( 'NONE', #235 ) ;
#106 = ORIENTED_EDGE ( 'NONE', *, *, #659, .F. ) ;
#107 = CARTESIAN_POINT ( 'NONE',  ( -22.49999999999999645, -7.500000000000000888, 0.000000000000000000 ) ) ;
#108 = CARTESIAN_POINT ( 'NONE',  ( -17.75000000000000000, -10.50000000000000000, 4.000000000000000000 ) ) ;
#109 = ORIENTED_EDGE ( 'NONE', *, *, #293, .F. ) ;
#110 = DIRECTION ( 'NONE',  ( -0.000000000000000000, 1.000000000000000000, -0.000000000000000000 ) ) ;
#111 = ADVANCED_BREP_SHAPE_REPRESENTATION ( 'clamp2', ( #712, #410 ), #593 ) ;
#112 = DIRECTION ( 'NONE',  ( 1.000000000000000000, 0.000000000000000000, 0.000000000000000000 ) ) ;
#113 = EDGE_CURVE ( 'NONE', #149, #612, #21, .T. ) ;
#114 = VERTEX_POINT ( 'NONE', #534 ) ;
#115 = CARTESIAN_POINT ( 'NONE',  ( -22.49999999999999645, -7.500000000000000888, 8.000000000000000000 ) ) ;
#116 = EDGE_CURVE ( 'NONE', #271, #342, #520, .T. ) ;
#117 = ORIENTED_EDGE ( 'NONE', *, *, #261, .F. ) ;
#118 = EDGE_LOOP ( 'NONE', ( #392, #256, #15, #201 ) ) ;
#119 = FACE_OUTER_BOUND ( 'NONE', #470, .T. ) ;
#120 = ORIENTED_EDGE ( 'NONE', *, *, #454, .F. ) ;
#121 = CARTESIAN_POINT ( 'NONE',  ( -17.75000000000000000, -10.50000000000000000, 4.000000000000000000 ) ) ;
#122 =( LENGTH_UNIT ( ) NAMED_UNIT ( * ) SI_UNIT ( .MILLI., .METRE. ) );
#123 = ORIENTED_EDGE ( 'NONE', *, *, #583, .T. ) ;
#124 = LINE ( 'NONE', #177, #476 ) ;
#125 = LINE ( 'NONE', #477, #358 ) ;
#126 = ORIENTED_EDGE ( 'NONE', *, *, #189, .F. ) ;
#127 = DIRECTION ( 'NONE',  ( 0.000000000000000000, 0.000000000000000000, 1.000000000000000000 ) ) ;
#128 = VERTEX_POINT ( 'NONE', #642 ) ;
#129 = VECTOR ( 'NONE', #439, 1000.000000000000000 ) ;
#130 = CARTESIAN_POINT ( 'NONE',  ( -10.19999999999999929, -7.122621931239990783E-14, 0.000000000000000000 ) ) ;
#131 = CARTESIAN_POINT ( 'NONE',  ( -13.00000000000000000, -9.077851480992146724E-14, 8.000000000000000000 ) ) ;
#132 = ORIENTED_EDGE ( 'NONE', *, *, #428, .F. ) ;
#133 = EDGE_CURVE ( 'NONE', #114, #141, #696, .T. ) ;
#134 = EDGE_CURVE ( 'NONE', #462, #730, #206, .T. ) ;
#135 = CARTESIAN_POINT ( 'NONE',  ( 0.000000000000000000, 0.000000000000000000, 0.000000000000000000 ) ) ;
#136 = EDGE_CURVE ( 'NONE', #315, #271, #280, .T. ) ;
#137 = CARTESIAN_POINT ( 'NONE',  ( 22.50000000000000000, -10.50000000000000000, 0.000000000000000000 ) ) ;
#138 = DIRECTION ( 'NONE',  ( -0.000000000000000000, -0.000000000000000000, -1.000000000000000000 ) ) ;
#139 = DIRECTION ( 'NONE',  ( -1.000000000000000000, 0.000000000000000000, 0.000000000000000000 ) ) ;
#140 = PLANE ( 'NONE',  #475 ) ;
#141 = VERTEX_POINT ( 'NONE', #574 ) ;
#142 = DIRECTION ( 'NONE',  ( -1.000000000000000000, 0.000000000000000000, 0.000000000000000000 ) ) ;
#143 = LINE ( 'NONE', #32, #698 ) ;
#144 = ORIENTED_EDGE ( 'NONE', *, *, #446, .T. ) ;
#145 = CARTESIAN_POINT ( 'NONE',  ( 6.631553362523744610, 7.750000000000000000, 0.000000000000000000 ) ) ;
#146 = VECTOR ( 'NONE', #435, 1000.000000000000000 ) ;
#147 = CYLINDRICAL_SURFACE ( 'NONE', #709, 2.100000000000000977 ) ;
#148 = VECTOR ( 'NONE', #433, 1000.000000000000000 ) ;
#149 = VERTEX_POINT ( 'NONE', #130 ) ;
#150 = CYLINDRICAL_SURFACE ( 'NONE', #22, 10.19999999999999929 ) ;
#151 = FACE_OUTER_BOUND ( 'NONE', #2, .T. ) ;
#152 = ORIENTED_EDGE ( 'NONE', *, *, #717, .F. ) ;
#153 = EDGE_CURVE ( 'NONE', #199, #35, #243, .T. ) ;
#154 = ORIENTED_EDGE ( 'NONE', *, *, #508, .F. ) ;
#155 = PRODUCT_DEFINITION ( 'UNKNOWN', '', #616, #385 ) ;
#156 = DIRECTION ( 'NONE',  ( -1.000000000000000000, -0.000000000000000000, -0.000000000000000000 ) ) ;
#157 = ORIENTED_EDGE ( 'NONE', *, *, #59, .F. ) ;
#158 = EDGE_LOOP ( 'NONE', ( #605, #120, #117, #263 ) ) ;
#159 = CARTESIAN_POINT ( 'NONE',  ( -22.50000000000000000, -10.50000000000000000, 0.000000000000000000 ) ) ;
#161 = ADVANCED_FACE ( 'NONE', ( #474 ), #634, .F. ) ;
#160 = CARTESIAN_POINT ( 'NONE',  ( 10.19999999999999751, -10.50000000000000000, 8.000000000000000000 ) ) ;
#162 = AXIS2_PLACEMENT_3D ( 'NONE', #503, #614, #4 ) ;
#163 = EDGE_CURVE ( 'NONE', #271, #315, #86, .T. ) ;
#164 = ORIENTED_EDGE ( 'NONE', *, *, #61, .F. ) ;
#165 = EDGE_CURVE ( 'NONE', #638, #462, #124, .T. ) ;
#166 = UNCERTAINTY_MEASURE_WITH_UNIT (LENGTH_MEASURE( 1.000000000000000082E-05 ), #489, 'distance_accuracy_value', 'NONE');
#167 = DIRECTION ( 'NONE',  ( 1.000000000000000000, 0.000000000000000000, 0.000000000000000000 ) ) ;
#168 = ORIENTED_EDGE ( 'NONE', *, *, #446, .F. ) ;
#169 = ORIENTED_EDGE ( 'NONE', *, *, #284, .T. ) ;
#170 = ORIENTED_EDGE ( 'NONE', *, *, #418, .T. ) ;
#171 = ORIENTED_EDGE ( 'NONE', *, *, #501, .T. ) ;
#172 = ORIENTED_EDGE ( 'NONE', *, *, #153, .F. ) ;
#173 = VECTOR ( 'NONE', #654, 1000.000000000000000 ) ;
#174 = AXIS2_PLACEMENT_3D ( 'NONE', #88, #90, #658 ) ;
#175 = PRESENTATION_STYLE_ASSIGNMENT (( #344 ) ) ;
#176 = ORIENTED_EDGE ( 'NONE', *, *, #165, .T. ) ;
#177 = CARTESIAN_POINT ( 'NONE',  ( -10.19999999999999929, -7.122621931239990783E-14, 8.000000000000000000 ) ) ;
#178 = ADVANCED_FACE ( 'NONE', ( #468 ), #238, .F. ) ;
#179 = CARTESIAN_POINT ( 'NONE',  ( -6.631553362523744610, 7.750000000000000000, 8.000000000000000000 ) ) ;
#180 = EDGE_LOOP ( 'NONE', ( #544, #101, #157, #442 ) ) ;
#181 = CARTESIAN_POINT ( 'NONE',  ( 0.000000000000000000, 0.000000000000000000, 8.000000000000000000 ) ) ;
#182 = LINE ( 'NONE', #294, #409 ) ;
#183 = ORIENTED_EDGE ( 'NONE', *, *, #527, .F. ) ;
#184 = DIRECTION ( 'NONE',  ( -0.000000000000000000, 1.000000000000000000, -0.000000000000000000 ) ) ;
#185 = EDGE_CURVE ( 'NONE', #598, #569, #580, .T. ) ;
#186 = VECTOR ( 'NONE', #524, 1000.000000000000000 ) ;
#188 = ORIENTED_EDGE ( 'NONE', *, *, #629, .T. ) ;
#187 = ADVANCED_FACE ( 'NONE', ( #352 ), #528, .F. ) ;
#189 = EDGE_CURVE ( 'NONE', #319, #695, #276, .T. ) ;
#190 = DIRECTION ( 'NONE',  ( 0.000000000000000000, 0.000000000000000000, 1.000000000000000000 ) ) ;
#191 = ORIENTED_EDGE ( 'NONE', *, *, #312, .F. ) ;
#192 = DIRECTION ( 'NONE',  ( 1.000000000000000000, 0.000000000000000000, 0.000000000000000000 ) ) ;
#193 = LINE ( 'NONE', #484, #146 ) ;
#194 = CIRCLE ( 'NONE', #288, 2.100000000000000977 ) ;
#195 = CARTESIAN_POINT ( 'NONE',  ( 13.00000000000000000, 0.000000000000000000, 8.000000000000000000 ) ) ;
#196 = DIRECTION ( 'NONE',  ( -0.000000000000000000, -0.000000000000000000, -1.000000000000000000 ) ) ;
#197 = DIRECTION ( 'NONE',  ( -0.000000000000000000, 1.000000000000000000, -0.000000000000000000 ) ) ;
#198 = CARTESIAN_POINT ( 'NONE',  ( 13.00000000000000000, -7.500000000000000888, 0.000000000000000000 ) ) ;
#199 = VERTEX_POINT ( 'NONE', #693 ) ;
#200 = LINE ( 'NONE', #596, #148 ) ;
#201 = ORIENTED_EDGE ( 'NONE', *, *, #36, .T. ) ;
#202 = CARTESIAN_POINT ( 'NONE',  ( -17.75000000000000000, -10.50000000000000000, 1.899999999999999245 ) ) ;
#203 = VERTEX_POINT ( 'NONE', #247 ) ;
#204 = FACE_OUTER_BOUND ( 'NONE', #330, .T. ) ;
#205 = ORIENTED_EDGE ( 'NONE', *, *, #237, .T. ) ;
#206 = CIRCLE ( 'NONE', #300, 10.19999999999999929 ) ;
#207 = CIRCLE ( 'NONE', #723, 13.00000000000000000 ) ;
#208 = ADVANCED_FACE ( 'NONE', ( #584 ), #347, .F. ) ;
#209 = CARTESIAN_POINT ( 'NONE',  ( 17.75000000000000000, -7.500000000000000888, 6.100000000000001421 ) ) ;
#210 = VECTOR ( 'NONE', #539, 1000.000000000000000 ) ;
#211 = EDGE_LOOP ( 'NONE', ( #562, #73, #10, #370 ) ) ;
#212 = APPLICATION_CONTEXT ( 'automotive_design' ) ;
#213 = FACE_OUTER_BOUND ( 'NONE', #337, .T. ) ;
#214 = DIRECTION ( 'NONE',  ( -0.000000000000000000, -0.000000000000000000, -1.000000000000000000 ) ) ;
#215 = CARTESIAN_POINT ( 'NONE',  ( 22.50000000000000000, -10.50000000000000000, 0.000000000000000000 ) ) ;
#216 = EDGE_LOOP ( 'NONE', ( #286, #295, #373, #434 ) ) ;
#217 = DIRECTION ( 'NONE',  ( -0.000000000000000000, 1.000000000000000000, -0.000000000000000000 ) ) ;
#218 = CARTESIAN_POINT ( 'NONE',  ( -6.631553362523744610, 7.750000000000000000, 8.000000000000000000 ) ) ;
#219 = ORIENTED_EDGE ( 'NONE', *, *, #659, .T. ) ;
#220 = AXIS2_PLACEMENT_3D ( 'NONE', #135, #355, #78 ) ;
#221 = CARTESIAN_POINT ( 'NONE',  ( -22.50000000000000000, -10.50000000000000000, 8.000000000000000000 ) ) ;
#222 = FACE_BOUND ( 'NONE', #554, .T. ) ;
#223 = VECTOR ( 'NONE', #62, 1000.000000000000000 ) ;
#224 = ORIENTED_EDGE ( 'NONE', *, *, #707, .T. ) ;
#225 = CYLINDRICAL_SURFACE ( 'NONE', #326, 2.100000000000000977 ) ;
#226 = DIRECTION ( 'NONE',  ( 0.000000000000000000, -0.000000000000000000, 1.000000000000000000 ) ) ;
#227 = ORIENTED_EDGE ( 'NONE', *, *, #527, .T. ) ;
#228 = DIRECTION ( 'NONE',  ( 0.000000000000000000, 1.000000000000000000, 0.000000000000000000 ) ) ;
#229 = ORIENTED_EDGE ( 'NONE', *, *, #113, .T. ) ;
#230 = ADVANCED_FACE ( 'NONE', ( #471 ), #713, .T. ) ;
#231 = DIRECTION ( 'NONE',  ( 1.000000000000000000, 0.000000000000000000, 0.000000000000000000 ) ) ;
#232 = VECTOR ( 'NONE', #353, 1000.000000000000000 ) ;
#233 = LINE ( 'NONE', #691, #279 ) ;
#234 = VERTEX_POINT ( 'NONE', #198 ) ;
#235 = CARTESIAN_POINT ( 'NONE',  ( -22.49999999999999645, -7.500000000000000888, 0.000000000000000000 ) ) ;
#236 = ORIENTED_EDGE ( 'NONE', *, *, #165, .F. ) ;
#237 = EDGE_CURVE ( 'NONE', #681, #82, #622, .T. ) ;
#238 = CYLINDRICAL_SURFACE ( 'NONE', #31, 2.100000000000000977 ) ;
#239 = EDGE_CURVE ( 'NONE', #12, #681, #738, .T. ) ;
#240 = ADVANCED_FACE ( 'NONE', ( #255 ), #540, .F. ) ;
#241 = CARTESIAN_POINT ( 'NONE',  ( -13.00000000000000000, -7.500000000000000888, 8.000000000000000000 ) ) ;
#242 = ORIENTED_EDGE ( 'NONE', *, *, #5, .F. ) ;
#243 = LINE ( 'NONE', #71, #701 ) ;
#244 = AXIS2_PLACEMENT_3D ( 'NONE', #9, #228, #461 ) ;
#245 = CARTESIAN_POINT ( 'NONE',  ( -17.75000000000000000, -10.50000000000000000, 1.899999999999999245 ) ) ;
#246 = ORIENTED_EDGE ( 'NONE', *, *, #185, .T. ) ;
#247 = CARTESIAN_POINT ( 'NONE',  ( -13.00000000000000000, -9.077851480992146724E-14, 8.000000000000000000 ) ) ;
#248 = FILL_AREA_STYLE ('',( #24 ) ) ;
#249 = CARTESIAN_POINT ( 'NONE',  ( -7.310095758606724559, 10.75000000000000000, 0.000000000000000000 ) ) ;
#250 = CARTESIAN_POINT ( 'NONE',  ( -7.310095758606723670, 10.75000000000000000, 8.000000000000000000 ) ) ;
#251 = CARTESIAN_POINT ( 'NONE',  ( -22.50000000000000000, -10.50000000000000000, 8.000000000000000000 ) ) ;
#252 = AXIS2_PLACEMENT_3D ( 'NONE', #690, #588, #11 ) ;
#253 = LINE ( 'NONE', #483, #485 ) ;
#254 = VECTOR ( 'NONE', #214, 1000.000000000000000 ) ;
#255 = FACE_OUTER_BOUND ( 'NONE', #158, .T. ) ;
#256 = ORIENTED_EDGE ( 'NONE', *, *, #163, .F. ) ;
#257 = LINE ( 'NONE', #443, #398 ) ;
#258 = DIRECTION ( 'NONE',  ( -0.000000000000000000, -0.000000000000000000, -1.000000000000000000 ) ) ;
#259 = ORIENTED_EDGE ( 'NONE', *, *, #133, .T. ) ;
#260 = EDGE_CURVE ( 'NONE', #462, #149, #369, .T. ) ;
#261 = EDGE_CURVE ( 'NONE', #655, #274, #143, .T. ) ;
#262 = CARTESIAN_POINT ( 'NONE',  ( 0.000000000000000000, 0.000000000000000000, 8.000000000000000000 ) ) ;
#263 = ORIENTED_EDGE ( 'NONE', *, *, #393, .T. ) ;
#264 = DIRECTION ( 'NONE',  ( 1.000000000000000000, 0.000000000000000000, 0.000000000000000000 ) ) ;
#265 = ORIENTED_EDGE ( 'NONE', *, *, #552, .F. ) ;
#266 = DIRECTION ( 'NONE',  ( 1.000000000000000000, 0.000000000000000000, 0.000000000000000000 ) ) ;
#267 = CARTESIAN_POINT ( 'NONE',  ( 0.000000000000000000, 0.000000000000000000, 0.000000000000000000 ) ) ;
#268 = DIRECTION ( 'NONE',  ( -0.000000000000000000, 0.000000000000000000, -1.000000000000000000 ) ) ;
#269 = CARTESIAN_POINT ( 'NONE',  ( -10.19999999999999929, -7.122621931239990783E-14, 8.000000000000000000 ) ) ;
#270 = DIRECTION ( 'NONE',  ( -1.000000000000000000, 0.000000000000000000, 0.000000000000000000 ) ) ;
#271 = VERTEX_POINT ( 'NONE', #481 ) ;
#272 = LINE ( 'NONE', #735, #254 ) ;
#273 = CARTESIAN_POINT ( 'NONE',  ( -13.00000000000000000, -9.077851480992146724E-14, 8.000000000000000000 ) ) ;
#274 = VERTEX_POINT ( 'NONE', #251 ) ;
#275 = LINE ( 'NONE', #107, #725 ) ;
#276 = CIRCLE ( 'NONE', #64, 2.100000000000000977 ) ;
#277 = CIRCLE ( 'NONE', #336, 13.00000000000000000 ) ;
#278 = VERTEX_POINT ( 'NONE', #249 ) ;
#279 = VECTOR ( 'NONE', #466, 1000.000000000000000 ) ;
#280 = CIRCLE ( 'NONE', #411, 2.100000000000000977 ) ;
#281 = ORIENTED_EDGE ( 'NONE', *, *, #134, .T. ) ;
#282 = FACE_OUTER_BOUND ( 'NONE', #403, .T. ) ;
#283 = ORIENTED_EDGE ( 'NONE', *, *, #455, .F. ) ;
#284 = EDGE_CURVE ( 'NONE', #114, #93, #39, .T. ) ;
#285 = DIRECTION ( 'NONE',  ( 0.000000000000000000, 1.000000000000000000, 0.000000000000000000 ) ) ;
#286 = ORIENTED_EDGE ( 'NONE', *, *, #136, .F. ) ;
#287 = CARTESIAN_POINT ( 'NONE',  ( 7.310095758606723670, 10.75000000000000000, 0.000000000000000000 ) ) ;
#288 = AXIS2_PLACEMENT_3D ( 'NONE', #597, #307, #710 ) ;
#289 = VECTOR ( 'NONE', #599, 1000.000000000000000 ) ;
#290 = ORIENTED_EDGE ( 'NONE', *, *, #457, .F. ) ;
#291 = ADVANCED_FACE ( 'NONE', ( #600, #100 ), #140, .F. ) ;
#292 = DIRECTION ( 'NONE',  ( 1.000000000000000000, -1.652117596168388002E-16, 0.000000000000000000 ) ) ;
#293 = EDGE_CURVE ( 'NONE', #695, #298, #313, .T. ) ;
#294 = CARTESIAN_POINT ( 'NONE',  ( 10.19999999999999751, -10.50000000000000000, 8.000000000000000000 ) ) ;
#295 = ORIENTED_EDGE ( 'NONE', *, *, #577, .T. ) ;
#296 = CARTESIAN_POINT ( 'NONE',  ( 17.75000000000000000, -10.50000000000000000, 6.100000000000001421 ) ) ;
#297 = PLANE ( 'NONE',  #514 ) ;
#298 = VERTEX_POINT ( 'NONE', #491 ) ;
#299 = DIRECTION ( 'NONE',  ( 1.156482317317871331E-15, -1.000000000000000000, 0.000000000000000000 ) ) ;
#300 = AXIS2_PLACEMENT_3D ( 'NONE', #181, #631, #83 ) ;
#301 = CARTESIAN_POINT ( 'NONE',  ( -13.00000000000000000, -9.077851480992146724E-14, 0.000000000000000000 ) ) ;
#302 = CYLINDRICAL_SURFACE ( 'NONE', #686, 10.19999999999999929 ) ;
#303 = CARTESIAN_POINT ( 'NONE',  ( 22.49999999999999645, -7.500000000000000888, 0.000000000000000000 ) ) ;
#304 = EDGE_CURVE ( 'NONE', #478, #655, #193, .T. ) ;
#305 = DIRECTION ( 'NONE',  ( -0.000000000000000000, -0.000000000000000000, -1.000000000000000000 ) ) ;
#306 = DIRECTION ( 'NONE',  ( 0.000000000000000000, 1.000000000000000000, 0.000000000000000000 ) ) ;
#307 = DIRECTION ( 'NONE',  ( 0.000000000000000000, 1.000000000000000000, 0.000000000000000000 ) ) ;
#308 = ORIENTED_EDGE ( 'NONE', *, *, #530, .T. ) ;
#309 = AXIS2_PLACEMENT_3D ( 'NONE', #388, #395, #268 ) ;
#310 = DIRECTION ( 'NONE',  ( 1.000000000000000000, 0.000000000000000000, 0.000000000000000000 ) ) ;
#311 = CARTESIAN_POINT ( 'NONE',  ( 17.75000000000000000, -7.500000000000000888, 1.899999999999999245 ) ) ;
#312 = EDGE_CURVE ( 'NONE', #695, #319, #194, .T. ) ;
#313 = LINE ( 'NONE', #202, #557 ) ;
#314 = EDGE_CURVE ( 'NONE', #720, #234, #542, .T. ) ;
#315 = VERTEX_POINT ( 'NONE', #538 ) ;
#316 = ADVANCED_FACE ( 'NONE', ( #661 ), #147, .F. ) ;
#317 = CARTESIAN_POINT ( 'NONE',  ( 0.000000000000000000, 0.000000000000000000, 0.000000000000000000 ) ) ;
#318 = DIRECTION ( 'NONE',  ( -0.000000000000000000, -0.000000000000000000, -1.000000000000000000 ) ) ;
#319 = VERTEX_POINT ( 'NONE', #550 ) ;
#320 = DIRECTION ( 'NONE',  ( 0.000000000000000000, 0.000000000000000000, 1.000000000000000000 ) ) ;
#321 = ORIENTED_EDGE ( 'NONE', *, *, #237, .F. ) ;
#322 = LINE ( 'NONE', #553, #699 ) ;
#323 = DIRECTION ( 'NONE',  ( 0.000000000000000000, 0.000000000000000000, 1.000000000000000000 ) ) ;
#324 = CARTESIAN_POINT ( 'NONE',  ( 13.00000000000000000, 0.000000000000000000, 8.000000000000000000 ) ) ;
#325 = ORIENTED_EDGE ( 'NONE', *, *, #656, .T. ) ;
#326 = AXIS2_PLACEMENT_3D ( 'NONE', #331, #110, #56 ) ;
#327 = AXIS2_PLACEMENT_3D ( 'NONE', #250, #46, #607 ) ;
#328 = CARTESIAN_POINT ( 'NONE',  ( -10.19999999999999929, -10.50000000000000000, 0.000000000000000000 ) ) ;
#329 = FACE_OUTER_BOUND ( 'NONE', #573, .T. ) ;
#330 = EDGE_LOOP ( 'NONE', ( #620, #106, #576, #169 ) ) ;
#331 = CARTESIAN_POINT ( 'NONE',  ( 17.75000000000000000, -10.50000000000000000, 4.000000000000000000 ) ) ;
#332 = DIRECTION ( 'NONE',  ( 1.000000000000000000, 0.000000000000000000, 0.000000000000000000 ) ) ;
#333 = CARTESIAN_POINT ( 'NONE',  ( -22.50000000000000000, -10.50000000000000000, 8.000000000000000000 ) ) ;
#334 = CARTESIAN_POINT ( 'NONE',  ( 22.50000000000000000, -10.50000000000000000, 8.000000000000000000 ) ) ;
#335 = ORIENTED_EDGE ( 'NONE', *, *, #314, .T. ) ;
#336 = AXIS2_PLACEMENT_3D ( 'NONE', #429, #99, #727 ) ;
#337 = EDGE_LOOP ( 'NONE', ( #521, #7, #488, #325 ) ) ;
#338 = EDGE_CURVE ( 'NONE', #447, #500, #44, .T. ) ;
#339 = ORIENTED_EDGE ( 'NONE', *, *, #629, .F. ) ;
#340 = CARTESIAN_POINT ( 'NONE',  ( 10.19999999999999929, 0.000000000000000000, 8.000000000000000000 ) ) ;
#341 = CARTESIAN_POINT ( 'NONE',  ( 10.19999999999999929, 0.000000000000000000, 8.000000000000000000 ) ) ;
#342 = VERTEX_POINT ( 'NONE', #209 ) ;
#343 = CARTESIAN_POINT ( 'NONE',  ( 17.75000000000000000, -10.50000000000000000, 4.000000000000000000 ) ) ;
#344 = SURFACE_STYLE_USAGE ( .BOTH. , #687 ) ;
#345 = ORIENTED_EDGE ( 'NONE', *, *, #338, .T. ) ;
#346 = VECTOR ( 'NONE', #332, 1000.000000000000000 ) ;
#347 = PLANE ( 'NONE',  #49 ) ;
#348 = VECTOR ( 'NONE', #444, 1000.000000000000000 ) ;
#349 = VECTOR ( 'NONE', #613, 1000.000000000000000 ) ;
#350 = AXIS2_PLACEMENT_3D ( 'NONE', #23, #705, #192 ) ;
#351 = ORIENTED_EDGE ( 'NONE', *, *, #717, .T. ) ;
#352 = FACE_OUTER_BOUND ( 'NONE', #378, .T. ) ;
#353 = DIRECTION ( 'NONE',  ( -0.000000000000000000, -0.000000000000000000, -1.000000000000000000 ) ) ;
#354 = EDGE_LOOP ( 'NONE', ( #308, #265, #154, #335 ) ) ;
#355 = DIRECTION ( 'NONE',  ( -0.000000000000000000, -0.000000000000000000, -1.000000000000000000 ) ) ;
#356 = CARTESIAN_POINT ( 'NONE',  ( 0.000000000000000000, 0.000000000000000000, 8.000000000000000000 ) ) ;
#357 = CARTESIAN_POINT ( 'NONE',  ( -22.50000000000000000, -10.50000000000000000, 0.000000000000000000 ) ) ;
#358 = VECTOR ( 'NONE', #85, 1000.000000000000000 ) ;
#359 = EDGE_CURVE ( 'NONE', #35, #608, #646, .T. ) ;
#360 = CARTESIAN_POINT ( 'NONE',  ( 0.000000000000000000, 0.000000000000000000, 8.000000000000000000 ) ) ;
#361 = DIRECTION ( 'NONE',  ( 1.000000000000000000, 0.000000000000000000, 0.000000000000000000 ) ) ;
#362 = PLANE ( 'NONE',  #174 ) ;
#363 = DIRECTION ( 'NONE',  ( 0.000000000000000000, -1.000000000000000000, 0.000000000000000000 ) ) ;
#364 = ORIENTED_EDGE ( 'NONE', *, *, #185, .F. ) ;
#365 =( NAMED_UNIT ( * ) SI_UNIT ( $, .STERADIAN. ) SOLID_ANGLE_UNIT ( ) );
#366 = DIRECTION ( 'NONE',  ( -0.000000000000000000, 1.000000000000000000, -0.000000000000000000 ) ) ;
#367 = PRODUCT_DEFINITION_SHAPE ( 'NONE', 'NONE',  #155 ) ;
#368 = ADVANCED_FACE ( 'NONE', ( #87 ), #302, .F. ) ;
#369 = LINE ( 'NONE', #92, #173 ) ;
#370 = ORIENTED_EDGE ( 'NONE', *, *, #552, .T. ) ;
#371 = DIRECTION ( 'NONE',  ( -1.156482317317871331E-15, 1.000000000000000000, 0.000000000000000000 ) ) ;
#372 = STYLED_ITEM ( 'NONE', ( #175 ), #712 ) ;
#373 = ORIENTED_EDGE ( 'NONE', *, *, #91, .T. ) ;
#374 = AXIS2_PLACEMENT_3D ( 'NONE', #417, #702, #465 ) ;
#375 = DIRECTION ( 'NONE',  ( -0.000000000000000000, 1.000000000000000000, -0.000000000000000000 ) ) ;
#376 = EDGE_LOOP ( 'NONE', ( #170, #70, #339, #219 ) ) ;
#377 = DIRECTION ( 'NONE',  ( -0.000000000000000000, -0.000000000000000000, -1.000000000000000000 ) ) ;
#378 = EDGE_LOOP ( 'NONE', ( #670, #460, #666, #568 ) ) ;
#379 = DIRECTION ( 'NONE',  ( 0.000000000000000000, 1.000000000000000000, 0.000000000000000000 ) ) ;
#380 = ORIENTED_EDGE ( 'NONE', *, *, #639, .F. ) ;
#381 = ORIENTED_EDGE ( 'NONE', *, *, #583, .F. ) ;
#382 = FACE_BOUND ( 'NONE', #532, .T. ) ;
#383 = CARTESIAN_POINT ( 'NONE',  ( 10.19999999999999751, -10.50000000000000000, 8.000000000000000000 ) ) ;
#384 = VECTOR ( 'NONE', #591, 1000.000000000000000 ) ;
#385 = PRODUCT_DEFINITION_CONTEXT ( 'detailed design', #69, 'design' ) ;
#386 = VECTOR ( 'NONE', #27, 1000.000000000000000 ) ;
#387 = CARTESIAN_POINT ( 'NONE',  ( -13.00000000000000000, -7.500000000000000888, 0.000000000000000000 ) ) ;
#388 = CARTESIAN_POINT ( 'NONE',  ( -13.00000000000000000, -9.077851480992146724E-14, 8.000000000000000000 ) ) ;
#389 = CARTESIAN_POINT ( 'NONE',  ( 0.000000000000000000, 0.000000000000000000, 8.000000000000000000 ) ) ;
#390 = ORIENTED_EDGE ( 'NONE', *, *, #639, .T. ) ;
#391 = EDGE_CURVE ( 'NONE', #128, #114, #207, .T. ) ;
#392 = ORIENTED_EDGE ( 'NONE', *, *, #577, .F. ) ;
#393 = EDGE_CURVE ( 'NONE', #655, #105, #621, .T. ) ;
#394 = EDGE_CURVE ( 'NONE', #274, #638, #502, .T. ) ;
#395 = DIRECTION ( 'NONE',  ( 1.000000000000000000, 0.000000000000000000, -0.000000000000000000 ) ) ;
#396 = ORIENTED_EDGE ( 'NONE', *, *, #153, .T. ) ;
#397 = AXIS2_PLACEMENT_3D ( 'NONE', #644, #127, #408 ) ;
#398 = VECTOR ( 'NONE', #197, 1000.000000000000000 ) ;
#399 = FACE_OUTER_BOUND ( 'NONE', #354, .T. ) ;
#400 = ORIENTED_EDGE ( 'NONE', *, *, #606, .T. ) ;
#401 = DIRECTION ( 'NONE',  ( -0.000000000000000000, 1.000000000000000000, -0.000000000000000000 ) ) ;
#402 = DIRECTION ( 'NONE',  ( -0.000000000000000000, -0.000000000000000000, -1.000000000000000000 ) ) ;
#403 = EDGE_LOOP ( 'NONE', ( #191, #494, #630, #688 ) ) ;
#404 = CARTESIAN_POINT ( 'NONE',  ( 22.50000000000000000, -10.50000000000000000, 8.000000000000000000 ) ) ;
#405 = DIRECTION ( 'NONE',  ( -0.000000000000000000, -0.000000000000000000, -1.000000000000000000 ) ) ;
#406 = ORIENTED_EDGE ( 'NONE', *, *, #61, .T. ) ;
#407 = AXIS2_PLACEMENT_3D ( 'NONE', #404, #578, #299 ) ;
#408 = DIRECTION ( 'NONE',  ( 1.000000000000000000, 0.000000000000000000, -0.000000000000000000 ) ) ;
#409 = VECTOR ( 'NONE', #405, 1000.000000000000000 ) ;
#410 = AXIS2_PLACEMENT_3D ( 'NONE', #317, #652, #310 ) ;
#411 = AXIS2_PLACEMENT_3D ( 'NONE', #80, #14, #522 ) ;
#412 = LINE ( 'NONE', #131, #232 ) ;
#413 = ORIENTED_EDGE ( 'NONE', *, *, #91, .F. ) ;
#414 = CARTESIAN_POINT ( 'NONE',  ( -6.631553362523744610, 7.750000000000000000, 0.000000000000000000 ) ) ;
#415 = CARTESIAN_POINT ( 'NONE',  ( -17.75000000000000000, -7.500000000000000888, 6.100000000000001421 ) ) ;
#416 = ORIENTED_EDGE ( 'NONE', *, *, #561, .T. ) ;
#417 = CARTESIAN_POINT ( 'NONE',  ( 17.75000000000000000, -10.50000000000000000, 4.000000000000000000 ) ) ;
#418 = EDGE_CURVE ( 'NONE', #278, #643, #497, .T. ) ;
#419 = CARTESIAN_POINT ( 'NONE',  ( -6.631553362523744610, 7.750000000000000000, 8.000000000000000000 ) ) ;
#420 = CARTESIAN_POINT ( 'NONE',  ( 0.000000000000000000, 0.000000000000000000, 8.000000000000000000 ) ) ;
#421 = VECTOR ( 'NONE', #371, 1000.000000000000000 ) ;
#422 = PRODUCT_CONTEXT ( 'NONE', #212, 'mechanical' ) ;
#423 = CARTESIAN_POINT ( 'NONE',  ( -10.19999999999999929, -10.50000000000000000, 8.000000000000000000 ) ) ;
#424 = CARTESIAN_POINT ( 'NONE',  ( 10.19999999999999929, 0.000000000000000000, 8.000000000000000000 ) ) ;
#425 = ADVANCED_FACE ( 'NONE', ( #674 ), #225, .F. ) ;
#426 = ADVANCED_FACE ( 'NONE', ( #382, #151 ), #667, .F. ) ;
#427 = SHAPE_DEFINITION_REPRESENTATION ( #367, #111 ) ;
#428 = EDGE_CURVE ( 'NONE', #12, #598, #272, .T. ) ;
#429 = CARTESIAN_POINT ( 'NONE',  ( 0.000000000000000000, 0.000000000000000000, 0.000000000000000000 ) ) ;
#430 = DIRECTION ( 'NONE',  ( -1.652117596168387756E-16, -1.000000000000000000, 0.000000000000000000 ) ) ;
#431 = ORIENTED_EDGE ( 'NONE', *, *, #684, .T. ) ;
#432 = APPLICATION_PROTOCOL_DEFINITION ( 'draft international standard', 'automotive_design', 1998, #212 ) ;
#433 = DIRECTION ( 'NONE',  ( -1.652117596168387756E-16, -1.000000000000000000, 0.000000000000000000 ) ) ;
#434 = ORIENTED_EDGE ( 'NONE', *, *, #116, .F. ) ;
#435 = DIRECTION ( 'NONE',  ( -1.000000000000000000, 0.000000000000000000, 0.000000000000000000 ) ) ;
#436 = ORIENTED_EDGE ( 'NONE', *, *, #312, .T. ) ;
#437 = CIRCLE ( 'NONE', #244, 2.100000000000000977 ) ;
#438 = VECTOR ( 'NONE', #430, 1000.000000000000000 ) ;
#439 = DIRECTION ( 'NONE',  ( 0.000000000000000000, -1.000000000000000000, 0.000000000000000000 ) ) ;
#440 = VECTOR ( 'NONE', #586, 1000.000000000000000 ) ;
#441 = CARTESIAN_POINT ( 'NONE',  ( -17.75000000000000000, -7.500000000000000888, 4.000000000000000000 ) ) ;
#442 = ORIENTED_EDGE ( 'NONE', *, *, #660, .T. ) ;
#443 = CARTESIAN_POINT ( 'NONE',  ( 17.75000000000000000, -10.50000000000000000, 1.899999999999999245 ) ) ;
#444 = DIRECTION ( 'NONE',  ( -0.000000000000000000, -0.000000000000000000, -1.000000000000000000 ) ) ;
#445 = LINE ( 'NONE', #273, #676 ) ;
#446 = EDGE_CURVE ( 'NONE', #55, #720, #60, .T. ) ;
#447 = VERTEX_POINT ( 'NONE', #159 ) ;
#448 = DIRECTION ( 'NONE',  ( -0.000000000000000000, 1.000000000000000000, -0.000000000000000000 ) ) ;
#449 = DIRECTION ( 'NONE',  ( -0.000000000000000000, 1.000000000000000000, -0.000000000000000000 ) ) ;
#450 = ORIENTED_EDGE ( 'NONE', *, *, #394, .F. ) ;
#451 = AXIS2_PLACEMENT_3D ( 'NONE', #262, #29, #266 ) ;
#452 = DIRECTION ( 'NONE',  ( 1.000000000000000000, 0.000000000000000000, 0.000000000000000000 ) ) ;
#454 = EDGE_CURVE ( 'NONE', #274, #447, #618, .T. ) ;
#453 = VERTEX_POINT ( 'NONE', #387 ) ;
#455 = EDGE_CURVE ( 'NONE', #105, #447, #275, .T. ) ;
#456 = ORIENTED_EDGE ( 'NONE', *, *, #391, .T. ) ;
#457 = EDGE_CURVE ( 'NONE', #500, #149, #3, .T. ) ;
#458 = CARTESIAN_POINT ( 'NONE',  ( 13.00000000000000000, 0.000000000000000000, 0.000000000000000000 ) ) ;
#459 = CARTESIAN_POINT ( 'NONE',  ( 6.631553362523744610, 7.750000000000000000, 8.000000000000000000 ) ) ;
#460 = ORIENTED_EDGE ( 'NONE', *, *, #684, .F. ) ;
#461 = DIRECTION ( 'NONE',  ( 0.000000000000000000, 0.000000000000000000, 1.000000000000000000 ) ) ;
#462 = VERTEX_POINT ( 'NONE', #269 ) ;
#463 = AXIS2_PLACEMENT_3D ( 'NONE', #333, #567, #729 ) ;
#464 = PRESENTATION_LAYER_ASSIGNMENT (  '', '', ( #372 ) ) ;
#465 = DIRECTION ( 'NONE',  ( 0.000000000000000000, 0.000000000000000000, 1.000000000000000000 ) ) ;
#466 = DIRECTION ( 'NONE',  ( -1.000000000000000000, -0.000000000000000000, -0.000000000000000000 ) ) ;
#467 = ORIENTED_EDGE ( 'NONE', *, *, #314, .F. ) ;
#468 = FACE_OUTER_BOUND ( 'NONE', #216, .T. ) ;
#469 = SURFACE_STYLE_FILL_AREA ( #248 ) ;
#470 = EDGE_LOOP ( 'NONE', ( #728, #132, #164, #351 ) ) ;
#471 = FACE_OUTER_BOUND ( 'NONE', #376, .T. ) ;
#472 = DIRECTION ( 'NONE',  ( -0.000000000000000000, -0.000000000000000000, -1.000000000000000000 ) ) ;
#473 = VERTEX_POINT ( 'NONE', #458 ) ;
#474 = FACE_OUTER_BOUND ( 'NONE', #697, .T. ) ;
#475 = AXIS2_PLACEMENT_3D ( 'NONE', #719, #363, #96 ) ;
#476 = VECTOR ( 'NONE', #401, 1000.000000000000000 ) ;
#477 = CARTESIAN_POINT ( 'NONE',  ( 13.00000000000000000, -7.500000000000000888, 0.000000000000000000 ) ) ;
#478 = VERTEX_POINT ( 'NONE', #509 ) ;
#479 = EDGE_CURVE ( 'NONE', #298, #683, #558, .T. ) ;
#480 = CARTESIAN_POINT ( 'NONE',  ( -7.310095758606723670, 10.75000000000000000, 8.000000000000000000 ) ) ;
#481 = CARTESIAN_POINT ( 'NONE',  ( 17.75000000000000000, -10.50000000000000000, 6.100000000000001421 ) ) ;
#482 = CARTESIAN_POINT ( 'NONE',  ( 13.00000000000000000, -7.500000000000000888, 8.000000000000000000 ) ) ;
#483 = CARTESIAN_POINT ( 'NONE',  ( 13.00000000000000000, 0.000000000000000000, 0.000000000000000000 ) ) ;
#484 = CARTESIAN_POINT ( 'NONE',  ( -13.00000000000000000, -7.500000000000000888, 8.000000000000000000 ) ) ;
#485 = VECTOR ( 'NONE', #493, 1000.000000000000000 ) ;
#486 = CARTESIAN_POINT ( 'NONE',  ( 10.19999999999999929, 0.000000000000000000, 0.000000000000000000 ) ) ;
#487 = DIRECTION ( 'NONE',  ( 1.156482317317871331E-15, 1.000000000000000000, 0.000000000000000000 ) ) ;
#488 = ORIENTED_EDGE ( 'NONE', *, *, #304, .F. ) ;
#489 =( LENGTH_UNIT ( ) NAMED_UNIT ( * ) SI_UNIT ( .MILLI., .METRE. ) );
#490 = LINE ( 'NONE', #718, #289 ) ;
#491 = CARTESIAN_POINT ( 'NONE',  ( -17.75000000000000000, -7.500000000000000888, 1.899999999999999245 ) ) ;
#492 = ORIENTED_EDGE ( 'NONE', *, *, #457, .T. ) ;
#493 = DIRECTION ( 'NONE',  ( -0.000000000000000000, 1.000000000000000000, -0.000000000000000000 ) ) ;
#494 = ORIENTED_EDGE ( 'NONE', *, *, #293, .T. ) ;
#495 = CARTESIAN_POINT ( 'NONE',  ( -17.75000000000000000, -10.50000000000000000, 4.000000000000000000 ) ) ;
#496 = EDGE_LOOP ( 'NONE', ( #224, #467, #168, #431 ) ) ;
#497 = CIRCLE ( 'NONE', #543, 13.00000000000000000 ) ;
#498 = VECTOR ( 'NONE', #452, 1000.000000000000000 ) ;
#499 = LINE ( 'NONE', #195, #386 ) ;
#500 = VERTEX_POINT ( 'NONE', #328 ) ;
#501 = EDGE_CURVE ( 'NONE', #319, #683, #53, .T. ) ;
#502 = LINE ( 'NONE', #610, #498 ) ;
#503 = CARTESIAN_POINT ( 'NONE',  ( -10.19999999999999929, -7.122621931239990783E-14, 8.000000000000000000 ) ) ;
#504 = ORIENTED_EDGE ( 'NONE', *, *, #604, .F. ) ;
#505 = CARTESIAN_POINT ( 'NONE',  ( -10.19999999999999929, -7.122621931239990783E-14, 0.000000000000000000 ) ) ;
#506 = LINE ( 'NONE', #218, #662 ) ;
#507 = ORIENTED_EDGE ( 'NONE', *, *, #189, .T. ) ;
#508 = EDGE_CURVE ( 'NONE', #720, #128, #555, .T. ) ;
#509 = CARTESIAN_POINT ( 'NONE',  ( -13.00000000000000000, -7.500000000000000888, 8.000000000000000000 ) ) ;
#510 = EDGE_CURVE ( 'NONE', #453, #105, #490, .T. ) ;
#511 = LINE ( 'NONE', #414, #95 ) ;
#512 = EDGE_CURVE ( 'NONE', #473, #93, #277, .T. ) ;
#513 = ORIENTED_EDGE ( 'NONE', *, *, #134, .F. ) ;
#514 = AXIS2_PLACEMENT_3D ( 'NONE', #356, #531, #19 ) ;
#515 = CARTESIAN_POINT ( 'NONE',  ( 13.00000000000000000, -7.500000000000000888, 8.000000000000000000 ) ) ;
#516 = PLANE ( 'NONE',  #309 ) ;
#517 = EDGE_LOOP ( 'NONE', ( #246, #504, #715, #623 ) ) ;
#518 = DIRECTION ( 'NONE',  ( 0.000000000000000000, -0.000000000000000000, 1.000000000000000000 ) ) ;
#519 = ORIENTED_EDGE ( 'NONE', *, *, #338, .F. ) ;
#520 = LINE ( 'NONE', #296, #533 ) ;
#521 = ORIENTED_EDGE ( 'NONE', *, *, #510, .T. ) ;
#522 = DIRECTION ( 'NONE',  ( 0.000000000000000000, 0.000000000000000000, 1.000000000000000000 ) ) ;
#523 = ORIENTED_EDGE ( 'NONE', *, *, #714, .F. ) ;
#524 = DIRECTION ( 'NONE',  ( -1.000000000000000000, -0.000000000000000000, -0.000000000000000000 ) ) ;
#525 = CARTESIAN_POINT ( 'NONE',  ( -22.49999999999999645, -7.500000000000000888, 8.000000000000000000 ) ) ;
#526 = ORIENTED_EDGE ( 'NONE', *, *, #36, .F. ) ;
#527 = EDGE_CURVE ( 'NONE', #638, #500, #37, .T. ) ;
#528 = PLANE ( 'NONE',  #407 ) ;
#529 = ADVANCED_FACE ( 'NONE', ( #204 ), #102, .F. ) ;
#530 = EDGE_CURVE ( 'NONE', #234, #473, #253, .T. ) ;
#531 = DIRECTION ( 'NONE',  ( 0.000000000000000000, 0.000000000000000000, 1.000000000000000000 ) ) ;
#532 = EDGE_LOOP ( 'NONE', ( #507, #436 ) ) ;
#533 = VECTOR ( 'NONE', #18, 1000.000000000000000 ) ;
#534 = CARTESIAN_POINT ( 'NONE',  ( 7.310095758606723670, 10.75000000000000000, 8.000000000000000000 ) ) ;
#535 = AXIS2_PLACEMENT_3D ( 'NONE', #706, #89, #595 ) ;
#536 = AXIS2_PLACEMENT_3D ( 'NONE', #441, #379, #323 ) ;
#537 = LINE ( 'NONE', #179, #726 ) ;
#538 = CARTESIAN_POINT ( 'NONE',  ( 17.75000000000000000, -10.50000000000000000, 1.899999999999999245 ) ) ;
#539 = DIRECTION ( 'NONE',  ( -0.000000000000000000, -0.000000000000000000, -1.000000000000000000 ) ) ;
#540 = PLANE ( 'NONE',  #627 ) ;
#541 = CARTESIAN_POINT ( 'NONE',  ( 22.50000000000000000, -10.50000000000000000, 8.000000000000000000 ) ) ;
#542 = LINE ( 'NONE', #647, #677 ) ;
#543 = AXIS2_PLACEMENT_3D ( 'NONE', #267, #671, #104 ) ;
#544 = ORIENTED_EDGE ( 'NONE', *, *, #637, .T. ) ;
#545 = LINE ( 'NONE', #721, #129 ) ;
#546 = DIRECTION ( 'NONE',  ( -0.000000000000000000, 1.000000000000000000, -0.000000000000000000 ) ) ;
#547 = ORIENTED_EDGE ( 'NONE', *, *, #65, .F. ) ;
#548 = CARTESIAN_POINT ( 'NONE',  ( -17.75000000000000000, -7.500000000000000888, 4.000000000000000000 ) ) ;
#549 = ORIENTED_EDGE ( 'NONE', *, *, #260, .F. ) ;
#550 = CARTESIAN_POINT ( 'NONE',  ( -17.75000000000000000, -10.50000000000000000, 6.100000000000001421 ) ) ;
#551 = ORIENTED_EDGE ( 'NONE', *, *, #163, .T. ) ;
#552 = EDGE_CURVE ( 'NONE', #128, #473, #499, .T. ) ;
#553 = CARTESIAN_POINT ( 'NONE',  ( 10.19999999999999929, 0.000000000000000000, 8.000000000000000000 ) ) ;
#554 = EDGE_LOOP ( 'NONE', ( #551, #79 ) ) ;
#555 = LINE ( 'NONE', #48, #13 ) ;
#556 = DIRECTION ( 'NONE',  ( 0.000000000000000000, 0.000000000000000000, 1.000000000000000000 ) ) ;
#557 = VECTOR ( 'NONE', #546, 1000.000000000000000 ) ;
#558 = CIRCLE ( 'NONE', #536, 2.100000000000000977 ) ;
#559 = DIRECTION ( 'NONE',  ( -1.000000000000000000, 0.000000000000000000, 0.000000000000000000 ) ) ;
#560 = DIRECTION ( 'NONE',  ( 0.000000000000000000, 1.000000000000000000, 0.000000000000000000 ) ) ;
#561 = EDGE_CURVE ( 'NONE', #611, #55, #94, .T. ) ;
#562 = ORIENTED_EDGE ( 'NONE', *, *, #512, .T. ) ;
#563 = DIRECTION ( 'NONE',  ( 0.000000000000000000, 0.000000000000000000, 1.000000000000000000 ) ) ;
#564 = ADVANCED_FACE ( 'NONE', ( #708, #213 ), #362, .F. ) ;
#565 = CARTESIAN_POINT ( 'NONE',  ( 10.19999999999999751, -10.50000000000000000, 8.000000000000000000 ) ) ;
#566 = VERTEX_POINT ( 'NONE', #311 ) ;
#567 = DIRECTION ( 'NONE',  ( 0.000000000000000000, 1.000000000000000000, 0.000000000000000000 ) ) ;
#568 = ORIENTED_EDGE ( 'NONE', *, *, #5, .T. ) ;
#569 = VERTEX_POINT ( 'NONE', #486 ) ;
#570 = VECTOR ( 'NONE', #264, 1000.000000000000000 ) ;
#571 = DIRECTION ( 'NONE',  ( 0.000000000000000000, 0.000000000000000000, 1.000000000000000000 ) ) ;
#572 = CARTESIAN_POINT ( 'NONE',  ( -10.19999999999999929, -10.50000000000000000, 8.000000000000000000 ) ) ;
#573 = EDGE_LOOP ( 'NONE', ( #492, #549, #236, #227 ) ) ;
#574 = CARTESIAN_POINT ( 'NONE',  ( -7.310095758606724559, 10.75000000000000000, 8.000000000000000000 ) ) ;
#575 = LINE ( 'NONE', #703, #97 ) ;
#576 = ORIENTED_EDGE ( 'NONE', *, *, #133, .F. ) ;
#577 = EDGE_CURVE ( 'NONE', #315, #566, #257, .T. ) ;
#578 = DIRECTION ( 'NONE',  ( -1.000000000000000000, -1.156482317317871331E-15, 0.000000000000000000 ) ) ;
#579 = ORIENTED_EDGE ( 'NONE', *, *, #508, .T. ) ;
#580 = CIRCLE ( 'NONE', #220, 10.19999999999999929 ) ;
#581 = DIRECTION ( 'NONE',  ( 1.000000000000000000, 0.000000000000000000, 0.000000000000000000 ) ) ;
#582 = ORIENTED_EDGE ( 'NONE', *, *, #454, .T. ) ;
#583 = EDGE_CURVE ( 'NONE', #569, #199, #200, .T. ) ;
#584 = FACE_OUTER_BOUND ( 'NONE', #103, .T. ) ;
#585 = ADVANCED_FACE ( 'NONE', ( #649 ), #150, .F. ) ;
#586 = DIRECTION ( 'NONE',  ( -0.000000000000000000, -0.000000000000000000, -1.000000000000000000 ) ) ;
#587 = ORIENTED_EDGE ( 'NONE', *, *, #239, .T. ) ;
#588 = DIRECTION ( 'NONE',  ( 0.000000000000000000, 1.000000000000000000, 0.000000000000000000 ) ) ;
#589 = LINE ( 'NONE', #241, #689 ) ;
#590 = VECTOR ( 'NONE', #258, 1000.000000000000000 ) ;
#591 = DIRECTION ( 'NONE',  ( -1.156482317317871331E-15, 1.000000000000000000, 0.000000000000000000 ) ) ;
#592 = AXIS2_PLACEMENT_3D ( 'NONE', #548, #306, #41 ) ;
#593 =( GEOMETRIC_REPRESENTATION_CONTEXT ( 3 ) GLOBAL_UNCERTAINTY_ASSIGNED_CONTEXT ( ( #166 ) ) GLOBAL_UNIT_ASSIGNED_CONTEXT ( ( #489, #657, #365 ) ) REPRESENTATION_CONTEXT ( 'NONE', 'WORKASPACE' ) );
#594 = CARTESIAN_POINT ( 'NONE',  ( -6.631553362523744610, 7.750000000000000000, 0.000000000000000000 ) ) ;
#595 = DIRECTION ( 'NONE',  ( -1.000000000000000000, 0.000000000000000000, 0.000000000000000000 ) ) ;
#596 = CARTESIAN_POINT ( 'NONE',  ( 10.19999999999999929, 0.000000000000000000, 0.000000000000000000 ) ) ;
#597 = CARTESIAN_POINT ( 'NONE',  ( -17.75000000000000000, -10.50000000000000000, 4.000000000000000000 ) ) ;
#598 = VERTEX_POINT ( 'NONE', #145 ) ;
#599 = DIRECTION ( 'NONE',  ( -1.000000000000000000, 0.000000000000000000, 0.000000000000000000 ) ) ;
#600 = FACE_BOUND ( 'NONE', #42, .T. ) ;
#601 = EDGE_LOOP ( 'NONE', ( #724, #45 ) ) ;
#602 = CARTESIAN_POINT ( 'NONE',  ( 0.000000000000000000, 0.000000000000000000, 8.000000000000000000 ) ) ;
#603 = DIRECTION ( 'NONE',  ( 1.000000000000000000, -1.156482317317871331E-15, 0.000000000000000000 ) ) ;
#604 = EDGE_CURVE ( 'NONE', #681, #569, #322, .T. ) ;
#605 = ORIENTED_EDGE ( 'NONE', *, *, #455, .T. ) ;
#606 = EDGE_CURVE ( 'NONE', #683, #298, #664, .T. ) ;
#607 = DIRECTION ( 'NONE',  ( 0.000000000000000000, -0.000000000000000000, -1.000000000000000000 ) ) ;
#608 = VERTEX_POINT ( 'NONE', #303 ) ;
#609 = PRODUCT_RELATED_PRODUCT_CATEGORY ( 'part', '', ( #38 ) ) ;
#610 = CARTESIAN_POINT ( 'NONE',  ( -22.50000000000000000, -10.50000000000000000, 8.000000000000000000 ) ) ;
#611 = VERTEX_POINT ( 'NONE', #541 ) ;
#612 = VERTEX_POINT ( 'NONE', #594 ) ;
#613 = DIRECTION ( 'NONE',  ( -0.000000000000000000, -0.000000000000000000, -1.000000000000000000 ) ) ;
#614 = DIRECTION ( 'NONE',  ( -1.000000000000000000, 0.000000000000000000, 0.000000000000000000 ) ) ;
#615 = AXIS2_PLACEMENT_3D ( 'NONE', #420, #305, #361 ) ;
#616 = PRODUCT_DEFINITION_FORMATION_WITH_SPECIFIED_SOURCE ( 'ANY', '', #38, .NOT_KNOWN. ) ;
#617 = ORIENTED_EDGE ( 'NONE', *, *, #304, .T. ) ;
#618 = LINE ( 'NONE', #221, #349 ) ;
#619 = CYLINDRICAL_SURFACE ( 'NONE', #66, 2.100000000000000977 ) ;
#620 = ORIENTED_EDGE ( 'NONE', *, *, #714, .T. ) ;
#621 = LINE ( 'NONE', #115, #348 ) ;
#622 = LINE ( 'NONE', #424, #438 ) ;
#623 = ORIENTED_EDGE ( 'NONE', *, *, #428, .T. ) ;
#624 = PLANE ( 'NONE',  #625 ) ;
#625 = AXIS2_PLACEMENT_3D ( 'NONE', #383, #560, #226 ) ;
#626 = ORIENTED_EDGE ( 'NONE', *, *, #604, .T. ) ;
#627 = AXIS2_PLACEMENT_3D ( 'NONE', #28, #603, #487 ) ;
#628 = PLANE ( 'NONE',  #1 ) ;
#629 = EDGE_CURVE ( 'NONE', #141, #203, #34, .T. ) ;
#630 = ORIENTED_EDGE ( 'NONE', *, *, #479, .T. ) ;
#631 = DIRECTION ( 'NONE',  ( -0.000000000000000000, -0.000000000000000000, -1.000000000000000000 ) ) ;
#632 = LINE ( 'NONE', #645, #440 ) ;
#633 = ORIENTED_EDGE ( 'NONE', *, *, #65, .T. ) ;
#634 = PLANE ( 'NONE',  #397 ) ;
#635 = ADVANCED_FACE ( 'NONE', ( #711 ), #669, .T. ) ;
#636 = DIRECTION ( 'NONE',  ( -0.000000000000000000, -0.000000000000000000, -1.000000000000000000 ) ) ;
#638 = VERTEX_POINT ( 'NONE', #572 ) ;
#637 = EDGE_CURVE ( 'NONE', #643, #453, #545, .T. ) ;
#639 = EDGE_CURVE ( 'NONE', #82, #199, #182, .T. ) ;
#640 = AXIS2_PLACEMENT_3D ( 'NONE', #360, #653, #142 ) ;
#641 = CLOSED_SHELL ( 'NONE', ( #178, #6, #368, #33, #585, #208, #30, #187, #291, #52, #635, #529, #230, #8, #564, #240, #426, #25, #694, #161, #316, #425 ) ) ;
#642 = CARTESIAN_POINT ( 'NONE',  ( 13.00000000000000000, 0.000000000000000000, 8.000000000000000000 ) ) ;
#643 = VERTEX_POINT ( 'NONE', #301 ) ;
#644 = CARTESIAN_POINT ( 'NONE',  ( 0.000000000000000000, 0.000000000000000000, 0.000000000000000000 ) ) ;
#645 = CARTESIAN_POINT ( 'NONE',  ( 22.49999999999999645, -7.500000000000000888, 8.000000000000000000 ) ) ;
#646 = LINE ( 'NONE', #137, #384 ) ;
#647 = CARTESIAN_POINT ( 'NONE',  ( 13.00000000000000000, -7.500000000000000888, 8.000000000000000000 ) ) ;
#648 = MECHANICAL_DESIGN_GEOMETRIC_PRESENTATION_REPRESENTATION (  '', ( #372 ), #700 ) ;
#649 = FACE_OUTER_BOUND ( 'NONE', #517, .T. ) ;
#650 = DIRECTION ( 'NONE',  ( -1.156482317317871331E-15, -1.000000000000000000, 0.000000000000000000 ) ) ;
#651 = EDGE_LOOP ( 'NONE', ( #396, #242, #547, #390 ) ) ;
#652 = DIRECTION ( 'NONE',  ( 0.000000000000000000, 0.000000000000000000, 1.000000000000000000 ) ) ;
#653 = DIRECTION ( 'NONE',  ( -0.000000000000000000, -0.000000000000000000, -1.000000000000000000 ) ) ;
#654 = DIRECTION ( 'NONE',  ( -0.000000000000000000, -0.000000000000000000, -1.000000000000000000 ) ) ;
#655 = VERTEX_POINT ( 'NONE', #525 ) ;
#656 = EDGE_CURVE ( 'NONE', #478, #453, #589, .T. ) ;
#657 =( NAMED_UNIT ( * ) PLANE_ANGLE_UNIT ( ) SI_UNIT ( $, .RADIAN. ) );
#658 = DIRECTION ( 'NONE',  ( 0.000000000000000000, -0.000000000000000000, -1.000000000000000000 ) ) ;
#659 = EDGE_CURVE ( 'NONE', #141, #278, #575, .T. ) ;
#660 = EDGE_CURVE ( 'NONE', #203, #643, #412, .T. ) ;
#661 = FACE_OUTER_BOUND ( 'NONE', #673, .T. ) ;
#662 = VECTOR ( 'NONE', #112, 1000.000000000000000 ) ;
#663 = ORIENTED_EDGE ( 'NONE', *, *, #261, .T. ) ;
#664 = CIRCLE ( 'NONE', #592, 2.100000000000000977 ) ;
#665 = CARTESIAN_POINT ( 'NONE',  ( 22.50000000000000000, -10.50000000000000000, 8.000000000000000000 ) ) ;
#666 = ORIENTED_EDGE ( 'NONE', *, *, #561, .F. ) ;
#667 = PLANE ( 'NONE',  #463 ) ;
#668 = ORIENTED_EDGE ( 'NONE', *, *, #418, .F. ) ;
#669 = CYLINDRICAL_SURFACE ( 'NONE', #640, 13.00000000000000000 ) ;
#670 = ORIENTED_EDGE ( 'NONE', *, *, #359, .T. ) ;
#671 = DIRECTION ( 'NONE',  ( 0.000000000000000000, 0.000000000000000000, 1.000000000000000000 ) ) ;
#672 = DIRECTION ( 'NONE',  ( 0.000000000000000000, -1.000000000000000000, 0.000000000000000000 ) ) ;
#673 = EDGE_LOOP ( 'NONE', ( #109, #126, #171, #400 ) ) ;
#674 = FACE_OUTER_BOUND ( 'NONE', #118, .T. ) ;
#675 = LINE ( 'NONE', #160, #346 ) ;
#676 = VECTOR ( 'NONE', #672, 1000.000000000000000 ) ;
#677 = VECTOR ( 'NONE', #196, 1000.000000000000000 ) ;
#678 = VECTOR ( 'NONE', #448, 1000.000000000000000 ) ;
#679 = DIRECTION ( 'NONE',  ( -1.156482317317871331E-15, -1.000000000000000000, 0.000000000000000000 ) ) ;
#680 = PLANE ( 'NONE',  #63 ) ;
#681 = VERTEX_POINT ( 'NONE', #341 ) ;
#682 = CARTESIAN_POINT ( 'NONE',  ( -6.631553362523744610, 7.750000000000000000, 8.000000000000000000 ) ) ;
#683 = VERTEX_POINT ( 'NONE', #415 ) ;
#684 = EDGE_CURVE ( 'NONE', #55, #608, #632, .T. ) ;
#685 = PLANE ( 'NONE',  #162 ) ;
#686 = AXIS2_PLACEMENT_3D ( 'NONE', #26, #138, #559 ) ;
#687 = SURFACE_SIDE_STYLE ('',( #469 ) ) ;
#688 = ORIENTED_EDGE ( 'NONE', *, *, #501, .F. ) ;
#689 = VECTOR ( 'NONE', #636, 1000.000000000000000 ) ;
#690 = CARTESIAN_POINT ( 'NONE',  ( 17.75000000000000000, -7.500000000000000888, 4.000000000000000000 ) ) ;
#691 = CARTESIAN_POINT ( 'NONE',  ( -7.310095758606723670, 10.75000000000000000, 0.000000000000000000 ) ) ;
#692 = ORIENTED_EDGE ( 'NONE', *, *, #260, .T. ) ;
#693 = CARTESIAN_POINT ( 'NONE',  ( 10.19999999999999751, -10.50000000000000000, 0.000000000000000000 ) ) ;
#694 = ADVANCED_FACE ( 'NONE', ( #81 ), #297, .T. ) ;
#695 = VERTEX_POINT ( 'NONE', #245 ) ;
#696 = LINE ( 'NONE', #480, #186 ) ;
#697 = EDGE_LOOP ( 'NONE', ( #40, #290, #519, #283, #98, #736, #668, #523, #76, #47, #17, #20, #172, #381, #364, #704 ) ) ;
#698 = VECTOR ( 'NONE', #650, 1000.000000000000000 ) ;
#699 = VECTOR ( 'NONE', #318, 1000.000000000000000 ) ;
#700 =( GEOMETRIC_REPRESENTATION_CONTEXT ( 3 ) GLOBAL_UNCERTAINTY_ASSIGNED_CONTEXT ( ( #43 ) ) GLOBAL_UNIT_ASSIGNED_CONTEXT ( ( #122, #75, #72 ) ) REPRESENTATION_CONTEXT ( 'NONE', 'WORKASPACE' ) );
#701 = VECTOR ( 'NONE', #231, 1000.000000000000000 ) ;
#702 = DIRECTION ( 'NONE',  ( 0.000000000000000000, 1.000000000000000000, 0.000000000000000000 ) ) ;
#703 = CARTESIAN_POINT ( 'NONE',  ( -7.310095758606724559, 10.75000000000000000, 8.000000000000000000 ) ) ;
#704 = ORIENTED_EDGE ( 'NONE', *, *, #84, .F. ) ;
#705 = DIRECTION ( 'NONE',  ( -0.000000000000000000, -0.000000000000000000, -1.000000000000000000 ) ) ;
#706 = CARTESIAN_POINT ( 'NONE',  ( 0.000000000000000000, 0.000000000000000000, 8.000000000000000000 ) ) ;
#707 = EDGE_CURVE ( 'NONE', #608, #234, #125, .T. ) ;
#708 = FACE_BOUND ( 'NONE', #601, .T. ) ;
#709 = AXIS2_PLACEMENT_3D ( 'NONE', #495, #375, #320 ) ;
#710 = DIRECTION ( 'NONE',  ( 0.000000000000000000, 0.000000000000000000, 1.000000000000000000 ) ) ;
#711 = FACE_OUTER_BOUND ( 'NONE', #211, .T. ) ;
#712 = MANIFOLD_SOLID_BREP ( 'Screw Hole', #641 ) ;
#713 = CYLINDRICAL_SURFACE ( 'NONE', #535, 13.00000000000000000 ) ;
#714 = EDGE_CURVE ( 'NONE', #93, #278, #233, .T. ) ;
#715 = ORIENTED_EDGE ( 'NONE', *, *, #239, .F. ) ;
#716 = APPLICATION_PROTOCOL_DEFINITION ( 'draft international standard', 'automotive_design', 1998, #69 ) ;
#717 = EDGE_CURVE ( 'NONE', #730, #612, #537, .T. ) ;
#718 = CARTESIAN_POINT ( 'NONE',  ( -13.00000000000000000, -7.500000000000000888, 0.000000000000000000 ) ) ;
#719 = CARTESIAN_POINT ( 'NONE',  ( 13.00000000000000000, -7.500000000000000888, 8.000000000000000000 ) ) ;
#720 = VERTEX_POINT ( 'NONE', #482 ) ;
#721 = CARTESIAN_POINT ( 'NONE',  ( -13.00000000000000000, -9.077851480992146724E-14, 0.000000000000000000 ) ) ;
#722 = CARTESIAN_POINT ( 'NONE',  ( 7.310095758606723670, 10.75000000000000000, 8.000000000000000000 ) ) ;
#723 = AXIS2_PLACEMENT_3D ( 'NONE', #389, #563, #167 ) ;
#724 = ORIENTED_EDGE ( 'NONE', *, *, #606, .F. ) ;
#725 = VECTOR ( 'NONE', #679, 1000.000000000000000 ) ;
#726 = VECTOR ( 'NONE', #402, 1000.000000000000000 ) ;
#727 = DIRECTION ( 'NONE',  ( 1.000000000000000000, 0.000000000000000000, 0.000000000000000000 ) ) ;
#728 = ORIENTED_EDGE ( 'NONE', *, *, #84, .T. ) ;
#729 = DIRECTION ( 'NONE',  ( 0.000000000000000000, -0.000000000000000000, 1.000000000000000000 ) ) ;
#730 = VERTEX_POINT ( 'NONE', #419 ) ;
#731 = EDGE_LOOP ( 'NONE', ( #281, #406, #587, #205, #633, #416, #144, #579, #456, #259, #188, #67, #617, #663, #734, #176 ) ) ;
#732 = CARTESIAN_POINT ( 'NONE',  ( -17.75000000000000000, -10.50000000000000000, 6.100000000000001421 ) ) ;
#733 = LINE ( 'NONE', #334, #223 ) ;
#734 = ORIENTED_EDGE ( 'NONE', *, *, #394, .T. ) ;
#735 = CARTESIAN_POINT ( 'NONE',  ( 6.631553362523744610, 7.750000000000000000, 8.000000000000000000 ) ) ;
#736 = ORIENTED_EDGE ( 'NONE', *, *, #637, .F. ) ;
#737 = CIRCLE ( 'NONE', #252, 2.100000000000000977 ) ;
#738 = CIRCLE ( 'NONE', #615, 10.19999999999999929 ) ;
#739 = VECTOR ( 'NONE', #156, 1000.000000000000000 ) ;
ENDSEC;
END-ISO-10303-21;
