ISO-10303-21;
HEADER;
FILE_DESCRIPTION (( 'STEP AP214' ),
    '1' );
FILE_NAME ('clamp1.STEP',
    '2025-12-12T15:36:51',
    ( '' ),
    ( '' ),
    'SwSTEP 2.0',
    'SolidWorks 2025',
    '' );
FILE_SCHEMA (( 'AUTOMOTIVE_DESIGN' ));
ENDSEC;

DATA;
#1 = CARTESIAN_POINT ( 'NONE',  ( -12.99999999999999822, -9.077851480992145462E-14, 8.000000000000000000 ) ) ;
#2 = ORIENTED_EDGE ( 'NONE', *, *, #524, .F. ) ;
#3 = CARTESIAN_POINT ( 'NONE',  ( 0.000000000000000000, 0.000000000000000000, 8.000000000000000000 ) ) ;
#4 = CARTESIAN_POINT ( 'NONE',  ( -22.50000000000000000, -10.50000000000000355, 0.000000000000000000 ) ) ;
#5 = ORIENTED_EDGE ( 'NONE', *, *, #331, .F. ) ;
#6 = FACE_OUTER_BOUND ( 'NONE', #510, .T. ) ;
#7 = LINE ( 'NONE', #93, #380 ) ;
#8 = EDGE_LOOP ( 'NONE', ( #304, #30 ) ) ;
#9 = ADVANCED_FACE ( 'NONE', ( #585 ), #577, .T. ) ;
#10 = CARTESIAN_POINT ( 'NONE',  ( -22.50000000000000000, -7.500000000000004441, 8.000000000000000000 ) ) ;
#11 =( GEOMETRIC_REPRESENTATION_CONTEXT ( 3 ) GLOBAL_UNCERTAINTY_ASSIGNED_CONTEXT ( ( #72 ) ) GLOBAL_UNIT_ASSIGNED_CONTEXT ( ( #363, #88, #575 ) ) REPRESENTATION_CONTEXT ( 'NONE', 'WORKASPACE' ) );
#12 = ORIENTED_EDGE ( 'NONE', *, *, #244, .T. ) ;
#13 = EDGE_CURVE ( 'NONE', #570, #235, #579, .T. ) ;
#14 = ORIENTED_EDGE ( 'NONE', *, *, #347, .F. ) ;
#15 = VERTEX_POINT ( 'NONE', #108 ) ;
#16 = VECTOR ( 'NONE', #127, 1000.000000000000000 ) ;
#17 = DIRECTION ( 'NONE',  ( 1.000000000000000000, 0.000000000000000000, 0.000000000000000000 ) ) ;
#18 = CARTESIAN_POINT ( 'NONE',  ( -9.999999999999998224, -10.50000000000000355, 8.000000000000000000 ) ) ;
#19 = CARTESIAN_POINT ( 'NONE',  ( 0.000000000000000000, 0.000000000000000000, 8.000000000000000000 ) ) ;
#20 = DIRECTION ( 'NONE',  ( -1.000000000000000000, -1.652117596168387016E-16, 0.000000000000000000 ) ) ;
#21 = DIRECTION ( 'NONE',  ( 0.000000000000000000, 0.000000000000000000, 1.000000000000000000 ) ) ;
#22 = CARTESIAN_POINT ( 'NONE',  ( -9.999999999999998224, -10.50000000000000355, 0.000000000000000000 ) ) ;
#23 = DIRECTION ( 'NONE',  ( 0.000000000000000000, 1.000000000000000000, -0.000000000000000000 ) ) ;
#24 = STYLED_ITEM ( 'NONE', ( #545 ), #104 ) ;
#25 = DIRECTION ( 'NONE',  ( -1.652117596168387016E-16, 1.000000000000000000, -0.000000000000000000 ) ) ;
#26 = ADVANCED_FACE ( 'NONE', ( #206 ), #442, .F. ) ;
#27 = EDGE_LOOP ( 'NONE', ( #528, #288, #145, #53 ) ) ;
#28 = CARTESIAN_POINT ( 'NONE',  ( 22.50000000000000000, -7.500000000000004441, 0.000000000000000000 ) ) ;
#29 = CARTESIAN_POINT ( 'NONE',  ( -22.50000000000000000, -10.50000000000000355, 8.000000000000000000 ) ) ;
#30 = ORIENTED_EDGE ( 'NONE', *, *, #542, .F. ) ;
#31 = LINE ( 'NONE', #217, #406 ) ;
#32 = CARTESIAN_POINT ( 'NONE',  ( -10.00000000000000000, 0.000000000000000000, 8.000000000000000000 ) ) ;
#33 = ORIENTED_EDGE ( 'NONE', *, *, #398, .F. ) ;
#34 = EDGE_CURVE ( 'NONE', #383, #132, #397, .T. ) ;
#35 = VECTOR ( 'NONE', #126, 1000.000000000000000 ) ;
#36 = LINE ( 'NONE', #601, #522 ) ;
#37 = AXIS2_PLACEMENT_3D ( 'NONE', #473, #366, #552 ) ;
#38 = MECHANICAL_DESIGN_GEOMETRIC_PRESENTATION_REPRESENTATION (  '', ( #24 ), #272 ) ;
#39 = DIRECTION ( 'NONE',  ( -0.000000000000000000, 1.000000000000000000, -0.000000000000000000 ) ) ;
#40 = ORIENTED_EDGE ( 'NONE', *, *, #13, .T. ) ;
#41 = CARTESIAN_POINT ( 'NONE',  ( 0.000000000000000000, 0.000000000000000000, 8.000000000000000000 ) ) ;
#42 = EDGE_LOOP ( 'NONE', ( #453, #267, #90, #263 ) ) ;
#43 = FACE_OUTER_BOUND ( 'NONE', #392, .T. ) ;
#44 = EDGE_CURVE ( 'NONE', #333, #197, #434, .T. ) ;
#45 = DIRECTION ( 'NONE',  ( -1.000000000000000000, 0.000000000000000000, 0.000000000000000000 ) ) ;
#46 = VERTEX_POINT ( 'NONE', #536 ) ;
#47 = FACE_OUTER_BOUND ( 'NONE', #428, .T. ) ;
#48 = CARTESIAN_POINT ( 'NONE',  ( -17.75000000000000000, -10.50000000000000355, 6.100000000000001421 ) ) ;
#49 = ADVANCED_FACE ( 'NONE', ( #67 ), #253, .F. ) ;
#50 = ORIENTED_EDGE ( 'NONE', *, *, #319, .T. ) ;
#51 = DIRECTION ( 'NONE',  ( 0.000000000000000000, 1.000000000000000000, 0.000000000000000000 ) ) ;
#52 = DIRECTION ( 'NONE',  ( -0.000000000000000000, 1.000000000000000000, -0.000000000000000000 ) ) ;
#53 = ORIENTED_EDGE ( 'NONE', *, *, #377, .T. ) ;
#54 = PRODUCT_RELATED_PRODUCT_CATEGORY ( 'part', '', ( #246 ) ) ;
#55 = LINE ( 'NONE', #48, #74 ) ;
#56 = ORIENTED_EDGE ( 'NONE', *, *, #488, .F. ) ;
#57 = ADVANCED_FACE ( 'NONE', ( #390, #490 ), #247, .F. ) ;
#58 = AXIS2_PLACEMENT_3D ( 'NONE', #3, #373, #561 ) ;
#59 = ORIENTED_EDGE ( 'NONE', *, *, #309, .T. ) ;
#60 = ORIENTED_EDGE ( 'NONE', *, *, #530, .T. ) ;
#61 = DIRECTION ( 'NONE',  ( 0.000000000000000000, 0.000000000000000000, 1.000000000000000000 ) ) ;
#62 = DIRECTION ( 'NONE',  ( -0.000000000000000000, -0.000000000000000000, -1.000000000000000000 ) ) ;
#63 = CARTESIAN_POINT ( 'NONE',  ( 10.00000000000000000, -10.50000000000000355, 8.000000000000000000 ) ) ;
#64 = ORIENTED_EDGE ( 'NONE', *, *, #360, .F. ) ;
#65 = AXIS2_PLACEMENT_3D ( 'NONE', #584, #580, #79 ) ;
#66 = CARTESIAN_POINT ( 'NONE',  ( 12.99999999999999822, 0.000000000000000000, 0.000000000000000000 ) ) ;
#67 = FACE_OUTER_BOUND ( 'NONE', #216, .T. ) ;
#68 = LINE ( 'NONE', #400, #387 ) ;
#69 = CARTESIAN_POINT ( 'NONE',  ( -22.50000000000000000, -7.500000000000004441, 8.000000000000000000 ) ) ;
#70 = CYLINDRICAL_SURFACE ( 'NONE', #573, 10.00000000000000000 ) ;
#71 = ADVANCED_FACE ( 'NONE', ( #213, #297 ), #350, .F. ) ;
#72 = UNCERTAINTY_MEASURE_WITH_UNIT (LENGTH_MEASURE( 1.000000000000000082E-05 ), #363, 'distance_accuracy_value', 'NONE');
#73 = DIRECTION ( 'NONE',  ( 0.000000000000000000, 0.000000000000000000, 1.000000000000000000 ) ) ;
#74 = VECTOR ( 'NONE', #378, 1000.000000000000000 ) ;
#75 = VECTOR ( 'NONE', #82, 1000.000000000000000 ) ;
#76 = DIRECTION ( 'NONE',  ( 0.000000000000000000, 0.000000000000000000, 1.000000000000000000 ) ) ;
#77 = DIRECTION ( 'NONE',  ( 1.000000000000000000, -0.000000000000000000, -0.000000000000000000 ) ) ;
#78 = ORIENTED_EDGE ( 'NONE', *, *, #116, .T. ) ;
#79 = DIRECTION ( 'NONE',  ( 1.000000000000000000, 0.000000000000000000, 0.000000000000000000 ) ) ;
#80 = CARTESIAN_POINT ( 'NONE',  ( 22.50000000000000000, -10.50000000000000355, 8.000000000000000000 ) ) ;
#81 = ORIENTED_EDGE ( 'NONE', *, *, #221, .F. ) ;
#82 = DIRECTION ( 'NONE',  ( -0.000000000000000000, 1.000000000000000000, -0.000000000000000000 ) ) ;
#83 = DIRECTION ( 'NONE',  ( -0.000000000000000000, -0.000000000000000000, -1.000000000000000000 ) ) ;
#84 = VERTEX_POINT ( 'NONE', #209 ) ;
#85 = DIRECTION ( 'NONE',  ( -1.000000000000000000, -0.000000000000000000, -0.000000000000000000 ) ) ;
#86 = DIRECTION ( 'NONE',  ( 0.000000000000000000, 0.000000000000000000, 1.000000000000000000 ) ) ;
#87 = ORIENTED_EDGE ( 'NONE', *, *, #377, .F. ) ;
#88 =( NAMED_UNIT ( * ) PLANE_ANGLE_UNIT ( ) SI_UNIT ( $, .RADIAN. ) );
#89 = LINE ( 'NONE', #278, #389 ) ;
#90 = ORIENTED_EDGE ( 'NONE', *, *, #484, .F. ) ;
#91 = CARTESIAN_POINT ( 'NONE',  ( 22.50000000000000000, -7.500000000000004441, 0.000000000000000000 ) ) ;
#92 = EDGE_CURVE ( 'NONE', #348, #15, #308, .T. ) ;
#93 = CARTESIAN_POINT ( 'NONE',  ( -10.00000000000000000, 0.000000000000000000, 0.000000000000000000 ) ) ;
#94 = VERTEX_POINT ( 'NONE', #361 ) ;
#95 = DIRECTION ( 'NONE',  ( 1.000000000000000000, 0.000000000000000000, -0.000000000000000000 ) ) ;
#96 = VECTOR ( 'NONE', #62, 1000.000000000000000 ) ;
#97 = EDGE_CURVE ( 'NONE', #329, #342, #472, .T. ) ;
#98 = CARTESIAN_POINT ( 'NONE',  ( 17.75000000000000000, -7.500000000000004441, 1.899999999999999245 ) ) ;
#99 = ORIENTED_EDGE ( 'NONE', *, *, #414, .F. ) ;
#100 = APPLICATION_PROTOCOL_DEFINITION ( 'draft international standard', 'automotive_design', 1998, #460 ) ;
#101 = FACE_OUTER_BOUND ( 'NONE', #152, .T. ) ;
#102 = VERTEX_POINT ( 'NONE', #223 ) ;
#103 = EDGE_CURVE ( 'NONE', #132, #383, #439, .T. ) ;
#104 = MANIFOLD_SOLID_BREP ( 'Screw Hole', #113 ) ;
#105 = ORIENTED_EDGE ( 'NONE', *, *, #155, .T. ) ;
#106 = AXIS2_PLACEMENT_3D ( 'NONE', #112, #582, #21 ) ;
#107 = ORIENTED_EDGE ( 'NONE', *, *, #116, .F. ) ;
#108 = CARTESIAN_POINT ( 'NONE',  ( -10.00000000000000000, 0.000000000000000000, 0.000000000000000000 ) ) ;
#109 = CARTESIAN_POINT ( 'NONE',  ( 10.00000000000000000, 0.000000000000000000, 8.000000000000000000 ) ) ;
#110 = ORIENTED_EDGE ( 'NONE', *, *, #588, .T. ) ;
#111 = LINE ( 'NONE', #328, #147 ) ;
#112 = CARTESIAN_POINT ( 'NONE',  ( 17.75000000000000000, -10.50000000000000355, 4.000000000000000000 ) ) ;
#113 = CLOSED_SHELL ( 'NONE', ( #539, #49, #9, #502, #57, #183, #464, #435, #372, #241, #71, #26, #394, #150, #481, #508, #139, #351 ) ) ;
#114 = FACE_BOUND ( 'NONE', #479, .T. ) ;
#115 = CARTESIAN_POINT ( 'NONE',  ( 17.75000000000000000, -10.50000000000000355, 4.000000000000000000 ) ) ;
#116 = EDGE_CURVE ( 'NONE', #485, #276, #587, .T. ) ;
#117 = CARTESIAN_POINT ( 'NONE',  ( -22.50000000000000000, -10.50000000000000355, 0.000000000000000000 ) ) ;
#118 = DIRECTION ( 'NONE',  ( -0.000000000000000000, -0.000000000000000000, -1.000000000000000000 ) ) ;
#119 = DIRECTION ( 'NONE',  ( -0.000000000000000000, -1.000000000000000000, -0.000000000000000000 ) ) ;
#120 =( NAMED_UNIT ( * ) SI_UNIT ( $, .STERADIAN. ) SOLID_ANGLE_UNIT ( ) );
#121 = VECTOR ( 'NONE', #207, 1000.000000000000000 ) ;
#122 = VECTOR ( 'NONE', #426, 1000.000000000000000 ) ;
#123 = CARTESIAN_POINT ( 'NONE',  ( -12.99999999999999822, -9.077851480992145462E-14, 8.000000000000000000 ) ) ;
#124 =( LENGTH_UNIT ( ) NAMED_UNIT ( * ) SI_UNIT ( .MILLI., .METRE. ) );
#125 = VERTEX_POINT ( 'NONE', #556 ) ;
#126 = DIRECTION ( 'NONE',  ( -0.000000000000000000, -0.000000000000000000, -1.000000000000000000 ) ) ;
#127 = DIRECTION ( 'NONE',  ( 1.000000000000000000, -0.000000000000000000, -0.000000000000000000 ) ) ;
#128 = ORIENTED_EDGE ( 'NONE', *, *, #131, .T. ) ;
#129 = DIRECTION ( 'NONE',  ( 0.000000000000000000, 1.000000000000000000, -0.000000000000000000 ) ) ;
#130 = DIRECTION ( 'NONE',  ( 0.000000000000000000, 0.000000000000000000, 1.000000000000000000 ) ) ;
#131 = EDGE_CURVE ( 'NONE', #94, #300, #549, .T. ) ;
#132 = VERTEX_POINT ( 'NONE', #215 ) ;
#133 = AXIS2_PLACEMENT_3D ( 'NONE', #401, #506, #86 ) ;
#134 = LINE ( 'NONE', #185, #75 ) ;
#135 = AXIS2_PLACEMENT_3D ( 'NONE', #526, #61, #17 ) ;
#136 = AXIS2_PLACEMENT_3D ( 'NONE', #69, #258, #445 ) ;
#137 = CARTESIAN_POINT ( 'NONE',  ( 12.99999999999999822, 0.000000000000000000, 8.000000000000000000 ) ) ;
#138 = ORIENTED_EDGE ( 'NONE', *, *, #530, .F. ) ;
#139 = ADVANCED_FACE ( 'NONE', ( #178 ), #461, .F. ) ;
#140 = DIRECTION ( 'NONE',  ( 0.000000000000000000, 0.000000000000000000, 1.000000000000000000 ) ) ;
#141 = DIRECTION ( 'NONE',  ( 0.000000000000000000, 1.000000000000000000, 0.000000000000000000 ) ) ;
#142 = ORIENTED_EDGE ( 'NONE', *, *, #444, .F. ) ;
#143 = LINE ( 'NONE', #504, #438 ) ;
#144 = CARTESIAN_POINT ( 'NONE',  ( 0.000000000000000000, 0.000000000000000000, 0.000000000000000000 ) ) ;
#145 = ORIENTED_EDGE ( 'NONE', *, *, #199, .F. ) ;
#146 = CYLINDRICAL_SURFACE ( 'NONE', #284, 2.100000000000000977 ) ;
#147 = VECTOR ( 'NONE', #52, 1000.000000000000000 ) ;
#148 = AXIS2_PLACEMENT_3D ( 'NONE', #514, #511, #95 ) ;
#149 = AXIS2_PLACEMENT_3D ( 'NONE', #115, #201, #306 ) ;
#150 = ADVANCED_FACE ( 'NONE', ( #227 ), #353, .F. ) ;
#151 = DIRECTION ( 'NONE',  ( -0.000000000000000000, 1.000000000000000000, -0.000000000000000000 ) ) ;
#152 = EDGE_LOOP ( 'NONE', ( #326, #181, #174, #521 ) ) ;
#153 = SHAPE_DEFINITION_REPRESENTATION ( #299, #416 ) ;
#154 = VERTEX_POINT ( 'NONE', #408 ) ;
#155 = EDGE_CURVE ( 'NONE', #383, #290, #89, .T. ) ;
#156 = AXIS2_PLACEMENT_3D ( 'NONE', #562, #388, #576 ) ;
#157 = EDGE_LOOP ( 'NONE', ( #250, #482 ) ) ;
#158 = EDGE_CURVE ( 'NONE', #271, #433, #594, .T. ) ;
#159 = CARTESIAN_POINT ( 'NONE',  ( 12.99999999999999822, -7.500000000000004441, 0.000000000000000000 ) ) ;
#160 = EDGE_LOOP ( 'NONE', ( #339, #191, #563, #40 ) ) ;
#161 = DIRECTION ( 'NONE',  ( -0.000000000000000000, -0.000000000000000000, -1.000000000000000000 ) ) ;
#162 = EDGE_CURVE ( 'NONE', #570, #167, #465, .T. ) ;
#163 = CARTESIAN_POINT ( 'NONE',  ( -22.50000000000000000, -10.50000000000000355, 8.000000000000000000 ) ) ;
#164 = DIRECTION ( 'NONE',  ( -0.000000000000000000, -0.000000000000000000, -1.000000000000000000 ) ) ;
#165 = EDGE_CURVE ( 'NONE', #290, #477, #436, .T. ) ;
#166 = VECTOR ( 'NONE', #578, 1000.000000000000000 ) ;
#167 = VERTEX_POINT ( 'NONE', #275 ) ;
#168 = LINE ( 'NONE', #345, #35 ) ;
#169 = CARTESIAN_POINT ( 'NONE',  ( -12.99999999999999822, -9.077851480992145462E-14, 0.000000000000000000 ) ) ;
#170 = LINE ( 'NONE', #28, #121 ) ;
#171 = PRODUCT_DEFINITION ( 'UNKNOWN', '', #422, #581 ) ;
#172 = LINE ( 'NONE', #123, #516 ) ;
#173 = SURFACE_STYLE_USAGE ( .BOTH. , #498 ) ;
#174 = ORIENTED_EDGE ( 'NONE', *, *, #293, .F. ) ;
#175 = VECTOR ( 'NONE', #119, 1000.000000000000000 ) ;
#176 = AXIS2_PLACEMENT_3D ( 'NONE', #322, #509, #356 ) ;
#177 = CARTESIAN_POINT ( 'NONE',  ( 22.50000000000000000, -10.50000000000000355, 0.000000000000000000 ) ) ;
#178 = FACE_OUTER_BOUND ( 'NONE', #598, .T. ) ;
#179 = EDGE_LOOP ( 'NONE', ( #379, #336, #196, #462 ) ) ;
#180 = DIRECTION ( 'NONE',  ( -0.000000000000000000, -0.000000000000000000, -1.000000000000000000 ) ) ;
#181 = ORIENTED_EDGE ( 'NONE', *, *, #244, .F. ) ;
#182 = DIRECTION ( 'NONE',  ( 1.000000000000000000, 0.000000000000000000, -0.000000000000000000 ) ) ;
#183 = ADVANCED_FACE ( 'NONE', ( #495 ), #262, .F. ) ;
#184 = ORIENTED_EDGE ( 'NONE', *, *, #398, .T. ) ;
#185 = CARTESIAN_POINT ( 'NONE',  ( 12.99999999999999822, 0.000000000000000000, 8.000000000000000000 ) ) ;
#186 = AXIS2_PLACEMENT_3D ( 'NONE', #541, #411, #269 ) ;
#187 = DIRECTION ( 'NONE',  ( 0.000000000000000000, -1.000000000000000000, 0.000000000000000000 ) ) ;
#188 = ORIENTED_EDGE ( 'NONE', *, *, #92, .F. ) ;
#189 = LINE ( 'NONE', #277, #122 ) ;
#190 = CARTESIAN_POINT ( 'NONE',  ( -12.99999999999999822, -7.500000000000004441, 0.000000000000000000 ) ) ;
#191 = ORIENTED_EDGE ( 'NONE', *, *, #266, .F. ) ;
#192 = PLANE ( 'NONE',  #311 ) ;
#193 = LINE ( 'NONE', #287, #166 ) ;
#194 = ORIENTED_EDGE ( 'NONE', *, *, #261, .F. ) ;
#195 = AXIS2_PLACEMENT_3D ( 'NONE', #538, #23, #73 ) ;
#196 = ORIENTED_EDGE ( 'NONE', *, *, #588, .F. ) ;
#197 = VERTEX_POINT ( 'NONE', #190 ) ;
#198 = ORIENTED_EDGE ( 'NONE', *, *, #251, .F. ) ;
#199 = EDGE_CURVE ( 'NONE', #300, #296, #341, .T. ) ;
#200 = DIRECTION ( 'NONE',  ( -0.000000000000000000, -0.000000000000000000, -1.000000000000000000 ) ) ;
#201 = DIRECTION ( 'NONE',  ( -0.000000000000000000, 1.000000000000000000, -0.000000000000000000 ) ) ;
#202 = DIRECTION ( 'NONE',  ( 0.000000000000000000, 0.000000000000000000, 1.000000000000000000 ) ) ;
#203 = DIRECTION ( 'NONE',  ( -1.000000000000000000, 0.000000000000000000, 0.000000000000000000 ) ) ;
#204 = FACE_OUTER_BOUND ( 'NONE', #499, .T. ) ;
#205 = EDGE_CURVE ( 'NONE', #433, #333, #208, .T. ) ;
#206 = FACE_OUTER_BOUND ( 'NONE', #27, .T. ) ;
#207 = DIRECTION ( 'NONE',  ( -0.000000000000000000, 1.000000000000000000, -0.000000000000000000 ) ) ;
#208 = CIRCLE ( 'NONE', #553, 12.99999999999999822 ) ;
#209 = CARTESIAN_POINT ( 'NONE',  ( 10.00000000000000000, 0.000000000000000000, 8.000000000000000000 ) ) ;
#210 = PRESENTATION_LAYER_ASSIGNMENT (  '', '', ( #24 ) ) ;
#211 = DIRECTION ( 'NONE',  ( -1.000000000000000000, 0.000000000000000000, 0.000000000000000000 ) ) ;
#212 = UNCERTAINTY_MEASURE_WITH_UNIT (LENGTH_MEASURE( 1.000000000000000082E-05 ), #124, 'distance_accuracy_value', 'NONE');
#213 = FACE_BOUND ( 'NONE', #157, .T. ) ;
#214 = FACE_OUTER_BOUND ( 'NONE', #600, .T. ) ;
#215 = CARTESIAN_POINT ( 'NONE',  ( 17.75000000000000000, -10.50000000000000355, 6.100000000000001421 ) ) ;
#216 = EDGE_LOOP ( 'NONE', ( #219, #105, #312, #138 ) ) ;
#217 = CARTESIAN_POINT ( 'NONE',  ( 12.99999999999999822, -7.500000000000004441, 8.000000000000000000 ) ) ;
#218 = DIRECTION ( 'NONE',  ( -1.000000000000000000, -0.000000000000000000, -0.000000000000000000 ) ) ;
#219 = ORIENTED_EDGE ( 'NONE', *, *, #34, .F. ) ;
#220 = AXIS2_PLACEMENT_3D ( 'NONE', #137, #45, #452 ) ;
#221 = EDGE_CURVE ( 'NONE', #513, #276, #424, .T. ) ;
#222 = CARTESIAN_POINT ( 'NONE',  ( 10.00000000000000000, -10.50000000000000355, 0.000000000000000000 ) ) ;
#223 = CARTESIAN_POINT ( 'NONE',  ( -12.99999999999999822, -9.077851480992145462E-14, 8.000000000000000000 ) ) ;
#224 = EDGE_LOOP ( 'NONE', ( #338, #458, #56, #282 ) ) ;
#225 = CARTESIAN_POINT ( 'NONE',  ( 12.99999999999999822, -7.500000000000004441, 8.000000000000000000 ) ) ;
#226 = EDGE_CURVE ( 'NONE', #329, #375, #55, .T. ) ;
#227 = FACE_OUTER_BOUND ( 'NONE', #42, .T. ) ;
#228 = ORIENTED_EDGE ( 'NONE', *, *, #494, .F. ) ;
#229 = CARTESIAN_POINT ( 'NONE',  ( -17.75000000000000000, -10.50000000000000355, 6.100000000000001421 ) ) ;
#230 = EDGE_LOOP ( 'NONE', ( #99, #279 ) ) ;
#231 = VECTOR ( 'NONE', #491, 1000.000000000000000 ) ;
#232 = CARTESIAN_POINT ( 'NONE',  ( -22.50000000000000000, -10.50000000000000355, 8.000000000000000000 ) ) ;
#233 = AXIS2_PLACEMENT_3D ( 'NONE', #558, #459, #369 ) ;
#234 = LINE ( 'NONE', #63, #447 ) ;
#235 = VERTEX_POINT ( 'NONE', #4 ) ;
#236 = DIRECTION ( 'NONE',  ( 0.000000000000000000, 0.000000000000000000, 1.000000000000000000 ) ) ;
#237 = CARTESIAN_POINT ( 'NONE',  ( -12.99999999999999822, -7.500000000000004441, 8.000000000000000000 ) ) ;
#238 = VERTEX_POINT ( 'NONE', #10 ) ;
#239 = LINE ( 'NONE', #1, #249 ) ;
#240 = ORIENTED_EDGE ( 'NONE', *, *, #44, .F. ) ;
#241 = ADVANCED_FACE ( 'NONE', ( #101 ), #437, .F. ) ;
#242 = VECTOR ( 'NONE', #476, 1000.000000000000000 ) ;
#243 = ORIENTED_EDGE ( 'NONE', *, *, #386, .T. ) ;
#244 = EDGE_CURVE ( 'NONE', #94, #560, #234, .T. ) ;
#245 = ORIENTED_EDGE ( 'NONE', *, *, #289, .F. ) ;
#246 = PRODUCT ( 'clamp1', 'clamp1', '', ( #291 ) ) ;
#247 = PLANE ( 'NONE',  #136 ) ;
#248 = DIRECTION ( 'NONE',  ( 1.000000000000000000, -0.000000000000000000, -0.000000000000000000 ) ) ;
#249 = VECTOR ( 'NONE', #187, 1000.000000000000000 ) ;
#250 = ORIENTED_EDGE ( 'NONE', *, *, #103, .T. ) ;
#251 = EDGE_CURVE ( 'NONE', #102, #316, #239, .T. ) ;
#252 = PLANE ( 'NONE',  #532 ) ;
#253 = CYLINDRICAL_SURFACE ( 'NONE', #149, 2.100000000000000977 ) ;
#254 = CARTESIAN_POINT ( 'NONE',  ( 17.75000000000000000, -7.500000000000004441, 4.000000000000000000 ) ) ;
#255 = ORIENTED_EDGE ( 'NONE', *, *, #309, .F. ) ;
#256 = CARTESIAN_POINT ( 'NONE',  ( 0.000000000000000000, 0.000000000000000000, 8.000000000000000000 ) ) ;
#257 = EDGE_CURVE ( 'NONE', #235, #365, #518, .T. ) ;
#258 = DIRECTION ( 'NONE',  ( 0.000000000000000000, -1.000000000000000000, 0.000000000000000000 ) ) ;
#259 = COLOUR_RGB ( '',0.7921568627450980005, 0.8196078431372548767, 0.9333333333333333481 ) ;
#260 = DIRECTION ( 'NONE',  ( -0.000000000000000000, -0.000000000000000000, -1.000000000000000000 ) ) ;
#261 = EDGE_CURVE ( 'NONE', #316, #197, #193, .T. ) ;
#262 = PLANE ( 'NONE',  #295 ) ;
#263 = ORIENTED_EDGE ( 'NONE', *, *, #221, .T. ) ;
#264 = DIRECTION ( 'NONE',  ( 0.000000000000000000, 1.000000000000000000, 0.000000000000000000 ) ) ;
#265 = SURFACE_STYLE_FILL_AREA ( #590 ) ;
#266 = EDGE_CURVE ( 'NONE', #167, #365, #512, .T. ) ;
#267 = ORIENTED_EDGE ( 'NONE', *, *, #158, .F. ) ;
#268 = LINE ( 'NONE', #283, #533 ) ;
#269 = DIRECTION ( 'NONE',  ( 0.000000000000000000, 0.000000000000000000, 1.000000000000000000 ) ) ;
#270 = CIRCLE ( 'NONE', #555, 10.00000000000000000 ) ;
#271 = VERTEX_POINT ( 'NONE', #430 ) ;
#272 =( GEOMETRIC_REPRESENTATION_CONTEXT ( 3 ) GLOBAL_UNCERTAINTY_ASSIGNED_CONTEXT ( ( #212 ) ) GLOBAL_UNIT_ASSIGNED_CONTEXT ( ( #124, #364, #120 ) ) REPRESENTATION_CONTEXT ( 'NONE', 'WORKASPACE' ) );
#273 = EDGE_CURVE ( 'NONE', #342, #329, #554, .T. ) ;
#274 = CARTESIAN_POINT ( 'NONE',  ( -9.999999999999998224, -10.50000000000000355, 8.000000000000000000 ) ) ;
#275 = CARTESIAN_POINT ( 'NONE',  ( -9.999999999999998224, -10.50000000000000355, 8.000000000000000000 ) ) ;
#276 = VERTEX_POINT ( 'NONE', #159 ) ;
#277 = CARTESIAN_POINT ( 'NONE',  ( -22.50000000000000000, -10.50000000000000355, 8.000000000000000000 ) ) ;
#278 = CARTESIAN_POINT ( 'NONE',  ( 17.75000000000000000, -10.50000000000000355, 1.899999999999999245 ) ) ;
#279 = ORIENTED_EDGE ( 'NONE', *, *, #165, .F. ) ;
#280 = LINE ( 'NONE', #327, #543 ) ;
#281 = CARTESIAN_POINT ( 'NONE',  ( -12.99999999999999822, -9.077851480992145462E-14, 0.000000000000000000 ) ) ;
#282 = ORIENTED_EDGE ( 'NONE', *, *, #597, .T. ) ;
#283 = CARTESIAN_POINT ( 'NONE',  ( 17.75000000000000000, -10.50000000000000355, 6.100000000000001421 ) ) ;
#284 = AXIS2_PLACEMENT_3D ( 'NONE', #599, #410, #140 ) ;
#285 = LINE ( 'NONE', #559, #294 ) ;
#286 = ORIENTED_EDGE ( 'NONE', *, *, #162, .T. ) ;
#287 = CARTESIAN_POINT ( 'NONE',  ( -12.99999999999999822, -7.500000000000004441, 8.000000000000000000 ) ) ;
#288 = ORIENTED_EDGE ( 'NONE', *, *, #429, .F. ) ;
#289 = EDGE_CURVE ( 'NONE', #84, #154, #391, .T. ) ;
#290 = VERTEX_POINT ( 'NONE', #98 ) ;
#291 = PRODUCT_CONTEXT ( 'NONE', #337, 'mechanical' ) ;
#292 = VECTOR ( 'NONE', #200, 1000.000000000000000 ) ;
#293 = EDGE_CURVE ( 'NONE', #84, #94, #285, .T. ) ;
#294 = VECTOR ( 'NONE', #343, 1000.000000000000000 ) ;
#295 = AXIS2_PLACEMENT_3D ( 'NONE', #29, #403, #298 ) ;
#296 = VERTEX_POINT ( 'NONE', #529 ) ;
#297 = FACE_OUTER_BOUND ( 'NONE', #367, .T. ) ;
#298 = DIRECTION ( 'NONE',  ( 0.000000000000000000, 0.000000000000000000, -1.000000000000000000 ) ) ;
#299 = PRODUCT_DEFINITION_SHAPE ( 'NONE', 'NONE',  #171 ) ;
#300 = VERTEX_POINT ( 'NONE', #474 ) ;
#301 = LINE ( 'NONE', #427, #355 ) ;
#302 = CIRCLE ( 'NONE', #37, 2.100000000000000977 ) ;
#303 = VECTOR ( 'NONE', #487, 1000.000000000000000 ) ;
#304 = ORIENTED_EDGE ( 'NONE', *, *, #571, .F. ) ;
#305 = FACE_OUTER_BOUND ( 'NONE', #160, .T. ) ;
#306 = DIRECTION ( 'NONE',  ( 0.000000000000000000, 0.000000000000000000, 1.000000000000000000 ) ) ;
#307 = CARTESIAN_POINT ( 'NONE',  ( -10.00000000000000000, 0.000000000000000000, 8.000000000000000000 ) ) ;
#308 = LINE ( 'NONE', #32, #535 ) ;
#309 = EDGE_CURVE ( 'NONE', #342, #46, #111, .T. ) ;
#310 = DIRECTION ( 'NONE',  ( -0.000000000000000000, 1.000000000000000000, -0.000000000000000000 ) ) ;
#311 = AXIS2_PLACEMENT_3D ( 'NONE', #41, #321, #182 ) ;
#312 = ORIENTED_EDGE ( 'NONE', *, *, #165, .T. ) ;
#313 = AXIS2_PLACEMENT_3D ( 'NONE', #318, #39, #130 ) ;
#314 = DIRECTION ( 'NONE',  ( 0.000000000000000000, -1.000000000000000000, 0.000000000000000000 ) ) ;
#315 = CARTESIAN_POINT ( 'NONE',  ( 12.99999999999999822, -7.500000000000004441, 0.000000000000000000 ) ) ;
#316 = VERTEX_POINT ( 'NONE', #237 ) ;
#317 = LINE ( 'NONE', #117, #175 ) ;
#318 = CARTESIAN_POINT ( 'NONE',  ( 17.75000000000000000, -10.50000000000000355, 4.000000000000000000 ) ) ;
#319 = EDGE_CURVE ( 'NONE', #316, #238, #301, .T. ) ;
#320 = ORIENTED_EDGE ( 'NONE', *, *, #155, .F. ) ;
#321 = DIRECTION ( 'NONE',  ( 0.000000000000000000, 0.000000000000000000, 1.000000000000000000 ) ) ;
#322 = CARTESIAN_POINT ( 'NONE',  ( -17.75000000000000000, -10.50000000000000355, 4.000000000000000000 ) ) ;
#323 = VECTOR ( 'NONE', #161, 1000.000000000000000 ) ;
#324 = ORIENTED_EDGE ( 'NONE', *, *, #293, .T. ) ;
#325 = CARTESIAN_POINT ( 'NONE',  ( -22.50000000000000000, -7.500000000000004441, 0.000000000000000000 ) ) ;
#326 = ORIENTED_EDGE ( 'NONE', *, *, #524, .T. ) ;
#327 = CARTESIAN_POINT ( 'NONE',  ( 12.99999999999999822, 0.000000000000000000, 0.000000000000000000 ) ) ;
#328 = CARTESIAN_POINT ( 'NONE',  ( -17.75000000000000000, -10.50000000000000355, 1.899999999999999245 ) ) ;
#329 = VERTEX_POINT ( 'NONE', #229 ) ;
#330 = DIRECTION ( 'NONE',  ( -0.000000000000000000, 1.000000000000000000, -0.000000000000000000 ) ) ;
#331 = EDGE_CURVE ( 'NONE', #365, #15, #7, .T. ) ;
#332 = CARTESIAN_POINT ( 'NONE',  ( -9.999999999999998224, -10.50000000000000355, 0.000000000000000000 ) ) ;
#333 = VERTEX_POINT ( 'NONE', #281 ) ;
#334 = EDGE_CURVE ( 'NONE', #167, #348, #419, .T. ) ;
#335 = DIRECTION ( 'NONE',  ( -0.000000000000000000, -0.000000000000000000, -1.000000000000000000 ) ) ;
#336 = ORIENTED_EDGE ( 'NONE', *, *, #386, .F. ) ;
#337 = APPLICATION_CONTEXT ( 'automotive_design' ) ;
#338 = ORIENTED_EDGE ( 'NONE', *, *, #347, .T. ) ;
#339 = ORIENTED_EDGE ( 'NONE', *, *, #257, .T. ) ;
#340 = ORIENTED_EDGE ( 'NONE', *, *, #571, .T. ) ;
#341 = LINE ( 'NONE', #483, #478 ) ;
#342 = VERTEX_POINT ( 'NONE', #537 ) ;
#343 = DIRECTION ( 'NONE',  ( 0.000000000000000000, -1.000000000000000000, 0.000000000000000000 ) ) ;
#344 = CARTESIAN_POINT ( 'NONE',  ( 22.50000000000000000, -7.500000000000004441, 8.000000000000000000 ) ) ;
#345 = CARTESIAN_POINT ( 'NONE',  ( 22.50000000000000000, -7.500000000000004441, 8.000000000000000000 ) ) ;
#346 = AXIS2_PLACEMENT_3D ( 'NONE', #344, #525, #531 ) ;
#347 = EDGE_CURVE ( 'NONE', #395, #235, #317, .T. ) ;
#348 = VERTEX_POINT ( 'NONE', #307 ) ;
#349 = CARTESIAN_POINT ( 'NONE',  ( 0.000000000000000000, 0.000000000000000000, 0.000000000000000000 ) ) ;
#350 = PLANE ( 'NONE',  #195 ) ;
#351 = ADVANCED_FACE ( 'NONE', ( #443 ), #493, .F. ) ;
#352 = DIRECTION ( 'NONE',  ( -0.000000000000000000, 1.000000000000000000, -0.000000000000000000 ) ) ;
#353 = PLANE ( 'NONE',  #220 ) ;
#354 = CARTESIAN_POINT ( 'NONE',  ( 12.99999999999999822, -7.500000000000004441, 8.000000000000000000 ) ) ;
#355 = VECTOR ( 'NONE', #486, 1000.000000000000000 ) ;
#356 = DIRECTION ( 'NONE',  ( 0.000000000000000000, 0.000000000000000000, 1.000000000000000000 ) ) ;
#357 = AXIS2_PLACEMENT_3D ( 'NONE', #274, #129, #500 ) ;
#358 = ORIENTED_EDGE ( 'NONE', *, *, #226, .F. ) ;
#359 = CARTESIAN_POINT ( 'NONE',  ( -17.75000000000000000, -7.500000000000004441, 6.100000000000001421 ) ) ;
#360 = EDGE_CURVE ( 'NONE', #560, #125, #589, .T. ) ;
#361 = CARTESIAN_POINT ( 'NONE',  ( 10.00000000000000000, -10.50000000000000355, 8.000000000000000000 ) ) ;
#362 = ORIENTED_EDGE ( 'NONE', *, *, #97, .T. ) ;
#363 =( LENGTH_UNIT ( ) NAMED_UNIT ( * ) SI_UNIT ( .MILLI., .METRE. ) );
#364 =( NAMED_UNIT ( * ) PLANE_ANGLE_UNIT ( ) SI_UNIT ( $, .RADIAN. ) );
#365 = VERTEX_POINT ( 'NONE', #22 ) ;
#366 = DIRECTION ( 'NONE',  ( 0.000000000000000000, 1.000000000000000000, 0.000000000000000000 ) ) ;
#367 = EDGE_LOOP ( 'NONE', ( #384, #87, #371, #12 ) ) ;
#368 = VECTOR ( 'NONE', #85, 1000.000000000000000 ) ;
#369 = DIRECTION ( 'NONE',  ( -0.000000000000000000, 0.000000000000000000, -1.000000000000000000 ) ) ;
#370 = DIRECTION ( 'NONE',  ( 1.000000000000000000, 0.000000000000000000, 0.000000000000000000 ) ) ;
#371 = ORIENTED_EDGE ( 'NONE', *, *, #131, .F. ) ;
#372 = ADVANCED_FACE ( 'NONE', ( #592 ), #70, .F. ) ;
#373 = DIRECTION ( 'NONE',  ( 0.000000000000000000, 0.000000000000000000, 1.000000000000000000 ) ) ;
#374 = DIRECTION ( 'NONE',  ( 0.000000000000000000, 0.000000000000000000, 1.000000000000000000 ) ) ;
#375 = VERTEX_POINT ( 'NONE', #359 ) ;
#376 = PLANE ( 'NONE',  #148 ) ;
#377 = EDGE_CURVE ( 'NONE', #300, #125, #68, .T. ) ;
#378 = DIRECTION ( 'NONE',  ( -0.000000000000000000, 1.000000000000000000, -0.000000000000000000 ) ) ;
#379 = ORIENTED_EDGE ( 'NONE', *, *, #205, .T. ) ;
#380 = VECTOR ( 'NONE', #566, 1000.000000000000000 ) ;
#381 = AXIS2_PLACEMENT_3D ( 'NONE', #19, #118, #203 ) ;
#382 = EDGE_CURVE ( 'NONE', #125, #485, #170, .T. ) ;
#383 = VERTEX_POINT ( 'NONE', #540 ) ;
#384 = ORIENTED_EDGE ( 'NONE', *, *, #360, .T. ) ;
#385 = ORIENTED_EDGE ( 'NONE', *, *, #331, .T. ) ;
#386 = EDGE_CURVE ( 'NONE', #102, #333, #172, .T. ) ;
#387 = VECTOR ( 'NONE', #446, 1000.000000000000000 ) ;
#388 = DIRECTION ( 'NONE',  ( 1.000000000000000000, 0.000000000000000000, -0.000000000000000000 ) ) ;
#389 = VECTOR ( 'NONE', #310, 1000.000000000000000 ) ;
#390 = FACE_BOUND ( 'NONE', #8, .T. ) ;
#391 = LINE ( 'NONE', #109, #323 ) ;
#392 = EDGE_LOOP ( 'NONE', ( #110, #503, #50, #399, #286, #595, #184, #324, #128, #496, #517, #551 ) ) ;
#393 = DIRECTION ( 'NONE',  ( 1.652117596168387016E-16, -1.000000000000000000, 0.000000000000000000 ) ) ;
#394 = ADVANCED_FACE ( 'NONE', ( #497, #214 ), #402, .F. ) ;
#395 = VERTEX_POINT ( 'NONE', #405 ) ;
#396 = DIRECTION ( 'NONE',  ( 0.000000000000000000, -0.000000000000000000, -1.000000000000000000 ) ) ;
#397 = CIRCLE ( 'NONE', #106, 2.100000000000000977 ) ;
#398 = EDGE_CURVE ( 'NONE', #348, #84, #593, .T. ) ;
#399 = ORIENTED_EDGE ( 'NONE', *, *, #488, .T. ) ;
#400 = CARTESIAN_POINT ( 'NONE',  ( 22.50000000000000000, -10.50000000000000355, 8.000000000000000000 ) ) ;
#401 = CARTESIAN_POINT ( 'NONE',  ( 17.75000000000000000, -7.500000000000004441, 4.000000000000000000 ) ) ;
#402 = PLANE ( 'NONE',  #470 ) ;
#403 = DIRECTION ( 'NONE',  ( 1.000000000000000000, 0.000000000000000000, 0.000000000000000000 ) ) ;
#404 = ORIENTED_EDGE ( 'NONE', *, *, #597, .F. ) ;
#405 = CARTESIAN_POINT ( 'NONE',  ( -22.50000000000000000, -7.500000000000004441, 0.000000000000000000 ) ) ;
#406 = VECTOR ( 'NONE', #547, 1000.000000000000000 ) ;
#407 = AXIS2_PLACEMENT_3D ( 'NONE', #254, #264, #451 ) ;
#408 = CARTESIAN_POINT ( 'NONE',  ( 10.00000000000000000, 0.000000000000000000, 0.000000000000000000 ) ) ;
#409 = ORIENTED_EDGE ( 'NONE', *, *, #92, .T. ) ;
#410 = DIRECTION ( 'NONE',  ( -0.000000000000000000, 1.000000000000000000, -0.000000000000000000 ) ) ;
#411 = DIRECTION ( 'NONE',  ( 0.000000000000000000, 1.000000000000000000, 0.000000000000000000 ) ) ;
#412 = ORIENTED_EDGE ( 'NONE', *, *, #319, .F. ) ;
#413 = FACE_OUTER_BOUND ( 'NONE', #519, .T. ) ;
#414 = EDGE_CURVE ( 'NONE', #477, #290, #565, .T. ) ;
#415 = FILL_AREA_STYLE_COLOUR ( '', #259 ) ;
#416 = ADVANCED_BREP_SHAPE_REPRESENTATION ( 'clamp1', ( #104, #135 ), #11 ) ;
#417 = ORIENTED_EDGE ( 'NONE', *, *, #273, .F. ) ;
#418 = PLANE ( 'NONE',  #233 ) ;
#419 = LINE ( 'NONE', #469, #455 ) ;
#420 = EDGE_CURVE ( 'NONE', #296, #513, #31, .T. ) ;
#421 = ORIENTED_EDGE ( 'NONE', *, *, #226, .T. ) ;
#422 = PRODUCT_DEFINITION_FORMATION_WITH_SPECIFIED_SOURCE ( 'ANY', '', #246, .NOT_KNOWN. ) ;
#423 = CARTESIAN_POINT ( 'NONE',  ( -17.75000000000000000, -7.500000000000004441, 4.000000000000000000 ) ) ;
#424 = LINE ( 'NONE', #527, #292 ) ;
#425 = ORIENTED_EDGE ( 'NONE', *, *, #550, .T. ) ;
#426 = DIRECTION ( 'NONE',  ( -0.000000000000000000, -1.000000000000000000, -0.000000000000000000 ) ) ;
#427 = CARTESIAN_POINT ( 'NONE',  ( -22.50000000000000000, -7.500000000000004441, 8.000000000000000000 ) ) ;
#428 = EDGE_LOOP ( 'NONE', ( #557, #194, #198, #243 ) ) ;
#429 = EDGE_CURVE ( 'NONE', #296, #485, #168, .T. ) ;
#430 = CARTESIAN_POINT ( 'NONE',  ( 12.99999999999999822, 0.000000000000000000, 8.000000000000000000 ) ) ;
#431 = ORIENTED_EDGE ( 'NONE', *, *, #420, .F. ) ;
#432 = ORIENTED_EDGE ( 'NONE', *, *, #97, .F. ) ;
#433 = VERTEX_POINT ( 'NONE', #66 ) ;
#434 = LINE ( 'NONE', #169, #303 ) ;
#435 = ADVANCED_FACE ( 'NONE', ( #204 ), #252, .F. ) ;
#436 = CIRCLE ( 'NONE', #133, 2.100000000000000977 ) ;
#437 = PLANE ( 'NONE',  #156 ) ;
#438 = VECTOR ( 'NONE', #596, 1000.000000000000000 ) ;
#439 = CIRCLE ( 'NONE', #186, 2.100000000000000977 ) ;
#440 = ORIENTED_EDGE ( 'NONE', *, *, #414, .T. ) ;
#441 = CARTESIAN_POINT ( 'NONE',  ( -10.00000000000000000, 0.000000000000000000, 8.000000000000000000 ) ) ;
#442 = PLANE ( 'NONE',  #346 ) ;
#443 = FACE_OUTER_BOUND ( 'NONE', #480, .T. ) ;
#444 = EDGE_CURVE ( 'NONE', #15, #154, #270, .T. ) ;
#445 = DIRECTION ( 'NONE',  ( 0.000000000000000000, -0.000000000000000000, -1.000000000000000000 ) ) ;
#446 = DIRECTION ( 'NONE',  ( -0.000000000000000000, -0.000000000000000000, -1.000000000000000000 ) ) ;
#447 = VECTOR ( 'NONE', #335, 1000.000000000000000 ) ;
#448 = ORIENTED_EDGE ( 'NONE', *, *, #261, .T. ) ;
#449 = CARTESIAN_POINT ( 'NONE',  ( -17.75000000000000000, -10.50000000000000355, 4.000000000000000000 ) ) ;
#450 = ORIENTED_EDGE ( 'NONE', *, *, #273, .T. ) ;
#451 = DIRECTION ( 'NONE',  ( 0.000000000000000000, 0.000000000000000000, 1.000000000000000000 ) ) ;
#452 = DIRECTION ( 'NONE',  ( 0.000000000000000000, 0.000000000000000000, 1.000000000000000000 ) ) ;
#453 = ORIENTED_EDGE ( 'NONE', *, *, #494, .T. ) ;
#454 = LINE ( 'NONE', #325, #368 ) ;
#455 = VECTOR ( 'NONE', #25, 1000.000000000000000 ) ;
#456 = AXIS2_PLACEMENT_3D ( 'NONE', #423, #51, #236 ) ;
#457 = CARTESIAN_POINT ( 'NONE',  ( -9.999999999999998224, -10.50000000000000355, 8.000000000000000000 ) ) ;
#458 = ORIENTED_EDGE ( 'NONE', *, *, #13, .F. ) ;
#459 = DIRECTION ( 'NONE',  ( 1.000000000000000000, 0.000000000000000000, -0.000000000000000000 ) ) ;
#460 = APPLICATION_CONTEXT ( 'automotive_design' ) ;
#461 = CYLINDRICAL_SURFACE ( 'NONE', #313, 2.100000000000000977 ) ;
#462 = ORIENTED_EDGE ( 'NONE', *, *, #158, .T. ) ;
#463 = DIRECTION ( 'NONE',  ( -0.000000000000000000, 1.000000000000000000, -0.000000000000000000 ) ) ;
#464 = ADVANCED_FACE ( 'NONE', ( #114, #305 ), #489, .F. ) ;
#465 = LINE ( 'NONE', #457, #468 ) ;
#466 = ORIENTED_EDGE ( 'NONE', *, *, #550, .F. ) ;
#467 = DIRECTION ( 'NONE',  ( 0.000000000000000000, -1.000000000000000000, 0.000000000000000000 ) ) ;
#468 = VECTOR ( 'NONE', #77, 1000.000000000000000 ) ;
#469 = CARTESIAN_POINT ( 'NONE',  ( -10.00000000000000000, 0.000000000000000000, 8.000000000000000000 ) ) ;
#470 = AXIS2_PLACEMENT_3D ( 'NONE', #354, #314, #396 ) ;
#471 = ORIENTED_EDGE ( 'NONE', *, *, #542, .T. ) ;
#472 = CIRCLE ( 'NONE', #176, 2.100000000000000977 ) ;
#473 = CARTESIAN_POINT ( 'NONE',  ( -17.75000000000000000, -7.500000000000004441, 4.000000000000000000 ) ) ;
#474 = CARTESIAN_POINT ( 'NONE',  ( 22.50000000000000000, -10.50000000000000355, 8.000000000000000000 ) ) ;
#475 = ORIENTED_EDGE ( 'NONE', *, *, #444, .T. ) ;
#476 = DIRECTION ( 'NONE',  ( -0.000000000000000000, -0.000000000000000000, -1.000000000000000000 ) ) ;
#477 = VERTEX_POINT ( 'NONE', #564 ) ;
#478 = VECTOR ( 'NONE', #151, 1000.000000000000000 ) ;
#479 = EDGE_LOOP ( 'NONE', ( #362, #450 ) ) ;
#480 = EDGE_LOOP ( 'NONE', ( #255, #432, #421, #340 ) ) ;
#481 = ADVANCED_FACE ( 'NONE', ( #43 ), #192, .T. ) ;
#482 = ORIENTED_EDGE ( 'NONE', *, *, #34, .T. ) ;
#483 = CARTESIAN_POINT ( 'NONE',  ( 22.50000000000000000, -7.500000000000004441, 8.000000000000000000 ) ) ;
#484 = EDGE_CURVE ( 'NONE', #513, #271, #134, .T. ) ;
#485 = VERTEX_POINT ( 'NONE', #91 ) ;
#486 = DIRECTION ( 'NONE',  ( -1.000000000000000000, -0.000000000000000000, -0.000000000000000000 ) ) ;
#487 = DIRECTION ( 'NONE',  ( 0.000000000000000000, -1.000000000000000000, 0.000000000000000000 ) ) ;
#488 = EDGE_CURVE ( 'NONE', #238, #570, #189, .T. ) ;
#489 = PLANE ( 'NONE',  #357 ) ;
#490 = FACE_OUTER_BOUND ( 'NONE', #591, .T. ) ;
#491 = DIRECTION ( 'NONE',  ( 1.000000000000000000, -0.000000000000000000, -0.000000000000000000 ) ) ;
#492 = ORIENTED_EDGE ( 'NONE', *, *, #257, .F. ) ;
#493 = CYLINDRICAL_SURFACE ( 'NONE', #602, 2.100000000000000977 ) ;
#494 = EDGE_CURVE ( 'NONE', #276, #433, #280, .T. ) ;
#495 = FACE_OUTER_BOUND ( 'NONE', #224, .T. ) ;
#496 = ORIENTED_EDGE ( 'NONE', *, *, #199, .T. ) ;
#497 = FACE_BOUND ( 'NONE', #230, .T. ) ;
#498 = SURFACE_SIDE_STYLE ('',( #265 ) ) ;
#499 = EDGE_LOOP ( 'NONE', ( #385, #188, #572, #548 ) ) ;
#500 = DIRECTION ( 'NONE',  ( 0.000000000000000000, 0.000000000000000000, 1.000000000000000000 ) ) ;
#501 = CARTESIAN_POINT ( 'NONE',  ( 12.99999999999999822, 0.000000000000000000, 8.000000000000000000 ) ) ;
#502 = ADVANCED_FACE ( 'NONE', ( #47 ), #418, .F. ) ;
#503 = ORIENTED_EDGE ( 'NONE', *, *, #251, .T. ) ;
#504 = CARTESIAN_POINT ( 'NONE',  ( -22.50000000000000000, -7.500000000000004441, 8.000000000000000000 ) ) ;
#505 = VECTOR ( 'NONE', #248, 1000.000000000000000 ) ;
#506 = DIRECTION ( 'NONE',  ( 0.000000000000000000, 1.000000000000000000, 0.000000000000000000 ) ) ;
#507 = EDGE_LOOP ( 'NONE', ( #475, #245, #33, #409 ) ) ;
#508 = ADVANCED_FACE ( 'NONE', ( #6 ), #376, .F. ) ;
#509 = DIRECTION ( 'NONE',  ( 0.000000000000000000, 1.000000000000000000, 0.000000000000000000 ) ) ;
#510 = EDGE_LOOP ( 'NONE', ( #568, #228, #107, #520, #64, #2, #142, #5, #492, #14, #466, #240 ) ) ;
#511 = DIRECTION ( 'NONE',  ( 0.000000000000000000, 0.000000000000000000, 1.000000000000000000 ) ) ;
#512 = LINE ( 'NONE', #18, #242 ) ;
#513 = VERTEX_POINT ( 'NONE', #225 ) ;
#514 = CARTESIAN_POINT ( 'NONE',  ( 0.000000000000000000, 0.000000000000000000, 0.000000000000000000 ) ) ;
#515 = CARTESIAN_POINT ( 'NONE',  ( -17.75000000000000000, -10.50000000000000355, 4.000000000000000000 ) ) ;
#516 = VECTOR ( 'NONE', #260, 1000.000000000000000 ) ;
#517 = ORIENTED_EDGE ( 'NONE', *, *, #420, .T. ) ;
#518 = LINE ( 'NONE', #332, #505 ) ;
#519 = EDGE_LOOP ( 'NONE', ( #417, #59, #471, #358 ) ) ;
#520 = ORIENTED_EDGE ( 'NONE', *, *, #382, .F. ) ;
#521 = ORIENTED_EDGE ( 'NONE', *, *, #289, .T. ) ;
#522 = VECTOR ( 'NONE', #467, 1000.000000000000000 ) ;
#523 = VECTOR ( 'NONE', #83, 1000.000000000000000 ) ;
#524 = EDGE_CURVE ( 'NONE', #154, #560, #36, .T. ) ;
#525 = DIRECTION ( 'NONE',  ( -1.000000000000000000, 0.000000000000000000, 0.000000000000000000 ) ) ;
#526 = CARTESIAN_POINT ( 'NONE',  ( 0.000000000000000000, 0.000000000000000000, 0.000000000000000000 ) ) ;
#527 = CARTESIAN_POINT ( 'NONE',  ( 12.99999999999999822, -7.500000000000004441, 8.000000000000000000 ) ) ;
#528 = ORIENTED_EDGE ( 'NONE', *, *, #382, .T. ) ;
#529 = CARTESIAN_POINT ( 'NONE',  ( 22.50000000000000000, -7.500000000000004441, 8.000000000000000000 ) ) ;
#530 = EDGE_CURVE ( 'NONE', #132, #477, #268, .T. ) ;
#531 = DIRECTION ( 'NONE',  ( 0.000000000000000000, 0.000000000000000000, 1.000000000000000000 ) ) ;
#532 = AXIS2_PLACEMENT_3D ( 'NONE', #441, #20, #393 ) ;
#533 = VECTOR ( 'NONE', #463, 1000.000000000000000 ) ;
#534 = DIRECTION ( 'NONE',  ( 1.000000000000000000, 0.000000000000000000, 0.000000000000000000 ) ) ;
#535 = VECTOR ( 'NONE', #180, 1000.000000000000000 ) ;
#536 = CARTESIAN_POINT ( 'NONE',  ( -17.75000000000000000, -7.500000000000004441, 1.899999999999999245 ) ) ;
#537 = CARTESIAN_POINT ( 'NONE',  ( -17.75000000000000000, -10.50000000000000355, 1.899999999999999245 ) ) ;
#538 = CARTESIAN_POINT ( 'NONE',  ( 22.50000000000000000, -10.50000000000000355, 8.000000000000000000 ) ) ;
#539 = ADVANCED_FACE ( 'NONE', ( #413 ), #146, .F. ) ;
#540 = CARTESIAN_POINT ( 'NONE',  ( 17.75000000000000000, -10.50000000000000355, 1.899999999999999245 ) ) ;
#541 = CARTESIAN_POINT ( 'NONE',  ( 17.75000000000000000, -10.50000000000000355, 4.000000000000000000 ) ) ;
#542 = EDGE_CURVE ( 'NONE', #46, #375, #302, .T. ) ;
#543 = VECTOR ( 'NONE', #330, 1000.000000000000000 ) ;
#544 = VECTOR ( 'NONE', #218, 1000.000000000000000 ) ;
#545 = PRESENTATION_STYLE_ASSIGNMENT (( #173 ) ) ;
#546 = ORIENTED_EDGE ( 'NONE', *, *, #429, .T. ) ;
#547 = DIRECTION ( 'NONE',  ( -1.000000000000000000, -0.000000000000000000, -0.000000000000000000 ) ) ;
#548 = ORIENTED_EDGE ( 'NONE', *, *, #266, .T. ) ;
#549 = LINE ( 'NONE', #80, #16 ) ;
#550 = EDGE_CURVE ( 'NONE', #197, #395, #454, .T. ) ;
#551 = ORIENTED_EDGE ( 'NONE', *, *, #484, .T. ) ;
#552 = DIRECTION ( 'NONE',  ( 0.000000000000000000, 0.000000000000000000, 1.000000000000000000 ) ) ;
#553 = AXIS2_PLACEMENT_3D ( 'NONE', #144, #374, #370 ) ;
#554 = CIRCLE ( 'NONE', #583, 2.100000000000000977 ) ;
#555 = AXIS2_PLACEMENT_3D ( 'NONE', #349, #164, #534 ) ;
#556 = CARTESIAN_POINT ( 'NONE',  ( 22.50000000000000000, -10.50000000000000355, 0.000000000000000000 ) ) ;
#557 = ORIENTED_EDGE ( 'NONE', *, *, #44, .T. ) ;
#558 = CARTESIAN_POINT ( 'NONE',  ( -12.99999999999999822, -9.077851480992145462E-14, 8.000000000000000000 ) ) ;
#559 = CARTESIAN_POINT ( 'NONE',  ( 10.00000000000000000, 0.000000000000000000, 8.000000000000000000 ) ) ;
#560 = VERTEX_POINT ( 'NONE', #222 ) ;
#561 = DIRECTION ( 'NONE',  ( 1.000000000000000000, 0.000000000000000000, 0.000000000000000000 ) ) ;
#562 = CARTESIAN_POINT ( 'NONE',  ( 10.00000000000000000, 0.000000000000000000, 8.000000000000000000 ) ) ;
#563 = ORIENTED_EDGE ( 'NONE', *, *, #162, .F. ) ;
#564 = CARTESIAN_POINT ( 'NONE',  ( 17.75000000000000000, -7.500000000000004441, 6.100000000000001421 ) ) ;
#565 = CIRCLE ( 'NONE', #407, 2.100000000000000977 ) ;
#566 = DIRECTION ( 'NONE',  ( -1.652117596168387016E-16, 1.000000000000000000, -0.000000000000000000 ) ) ;
#567 = ORIENTED_EDGE ( 'NONE', *, *, #103, .F. ) ;
#568 = ORIENTED_EDGE ( 'NONE', *, *, #205, .F. ) ;
#569 = APPLICATION_PROTOCOL_DEFINITION ( 'draft international standard', 'automotive_design', 1998, #337 ) ;
#570 = VERTEX_POINT ( 'NONE', #232 ) ;
#571 = EDGE_CURVE ( 'NONE', #375, #46, #603, .T. ) ;
#572 = ORIENTED_EDGE ( 'NONE', *, *, #334, .F. ) ;
#573 = AXIS2_PLACEMENT_3D ( 'NONE', #256, #586, #211 ) ;
#574 = CIRCLE ( 'NONE', #58, 12.99999999999999822 ) ;
#575 =( NAMED_UNIT ( * ) SI_UNIT ( $, .STERADIAN. ) SOLID_ANGLE_UNIT ( ) );
#576 = DIRECTION ( 'NONE',  ( -0.000000000000000000, 0.000000000000000000, -1.000000000000000000 ) ) ;
#577 = CYLINDRICAL_SURFACE ( 'NONE', #381, 12.99999999999999822 ) ;
#578 = DIRECTION ( 'NONE',  ( -0.000000000000000000, -0.000000000000000000, -1.000000000000000000 ) ) ;
#579 = LINE ( 'NONE', #163, #96 ) ;
#580 = DIRECTION ( 'NONE',  ( -0.000000000000000000, -0.000000000000000000, -1.000000000000000000 ) ) ;
#581 = PRODUCT_DEFINITION_CONTEXT ( 'detailed design', #460, 'design' ) ;
#582 = DIRECTION ( 'NONE',  ( 0.000000000000000000, 1.000000000000000000, 0.000000000000000000 ) ) ;
#583 = AXIS2_PLACEMENT_3D ( 'NONE', #515, #141, #202 ) ;
#584 = CARTESIAN_POINT ( 'NONE',  ( 0.000000000000000000, 0.000000000000000000, 8.000000000000000000 ) ) ;
#585 = FACE_OUTER_BOUND ( 'NONE', #179, .T. ) ;
#586 = DIRECTION ( 'NONE',  ( -0.000000000000000000, -0.000000000000000000, -1.000000000000000000 ) ) ;
#587 = LINE ( 'NONE', #315, #544 ) ;
#588 = EDGE_CURVE ( 'NONE', #271, #102, #574, .T. ) ;
#589 = LINE ( 'NONE', #177, #231 ) ;
#590 = FILL_AREA_STYLE ('',( #415 ) ) ;
#591 = EDGE_LOOP ( 'NONE', ( #425, #404, #412, #448 ) ) ;
#592 = FACE_OUTER_BOUND ( 'NONE', #507, .T. ) ;
#593 = CIRCLE ( 'NONE', #65, 10.00000000000000000 ) ;
#594 = LINE ( 'NONE', #501, #523 ) ;
#595 = ORIENTED_EDGE ( 'NONE', *, *, #334, .T. ) ;
#596 = DIRECTION ( 'NONE',  ( -0.000000000000000000, -0.000000000000000000, -1.000000000000000000 ) ) ;
#597 = EDGE_CURVE ( 'NONE', #238, #395, #143, .T. ) ;
#598 = EDGE_LOOP ( 'NONE', ( #320, #567, #60, #440 ) ) ;
#599 = CARTESIAN_POINT ( 'NONE',  ( -17.75000000000000000, -10.50000000000000355, 4.000000000000000000 ) ) ;
#600 = EDGE_LOOP ( 'NONE', ( #78, #81, #431, #546 ) ) ;
#601 = CARTESIAN_POINT ( 'NONE',  ( 10.00000000000000000, 0.000000000000000000, 0.000000000000000000 ) ) ;
#602 = AXIS2_PLACEMENT_3D ( 'NONE', #449, #352, #76 ) ;
#603 = CIRCLE ( 'NONE', #456, 2.100000000000000977 ) ;
ENDSEC;
END-ISO-10303-21;
