ISO-10303-21;
HEADER;
FILE_DESCRIPTION (( 'STEP AP214' ),
    '1' );
FILE_NAME ('wheel_rim.STEP',
    '2025-12-13T03:10:35',
    ( '' ),
    ( '' ),
    'SwSTEP 2.0',
    'SolidWorks 2025',
    '' );
FILE_SCHEMA (( 'AUTOMOTIVE_DESIGN' ));
ENDSEC;

DATA;
#1 = LINE ( 'NONE', #502, #427 ) ;
#2 = AXIS2_PLACEMENT_3D ( 'NONE', #387, #124, #712 ) ;
#3 = ORIENTED_EDGE ( 'NONE', *, *, #44, .T. ) ;
#4 = VECTOR ( 'NONE', #338, 1000.000000000000000 ) ;
#5 = DIRECTION ( 'NONE',  ( -1.000000000000000000, 0.000000000000000000, 0.000000000000000000 ) ) ;
#6 = CARTESIAN_POINT ( 'NONE',  ( 0.000000000000000000, 32.50000000000000000, 8.250000000000000000 ) ) ;
#7 = EDGE_LOOP ( 'NONE', ( #337, #977, #452, #306 ) ) ;
#8 = DIRECTION ( 'NONE',  ( -0.000000000000000000, -0.000000000000000000, 1.000000000000000000 ) ) ;
#9 = CARTESIAN_POINT ( 'NONE',  ( 32.50000000000000000, 0.000000000000000000, 5.000000000000000000 ) ) ;
#10 = LINE ( 'NONE', #1047, #953 ) ;
#11 =( GEOMETRIC_REPRESENTATION_CONTEXT ( 3 ) GLOBAL_UNCERTAINTY_ASSIGNED_CONTEXT ( ( #419 ) ) GLOBAL_UNIT_ASSIGNED_CONTEXT ( ( #375, #531, #543 ) ) REPRESENTATION_CONTEXT ( 'NONE', 'WORKASPACE' ) );
#12 = ORIENTED_EDGE ( 'NONE', *, *, #82, .F. ) ;
#13 = DIRECTION ( 'NONE',  ( 0.000000000000000000, -1.000000000000000000, 0.000000000000000000 ) ) ;
#14 = CARTESIAN_POINT ( 'NONE',  ( 0.000000000000000000, 0.000000000000000000, 19.00000000000000000 ) ) ;
#15 = EDGE_LOOP ( 'NONE', ( #27, #734, #809, #128, #638 ) ) ;
#16 = DIRECTION ( 'NONE',  ( 1.000000000000000000, 0.000000000000000000, 0.000000000000000000 ) ) ;
#17 = DIRECTION ( 'NONE',  ( -1.000000000000000000, 0.000000000000000000, 0.000000000000000000 ) ) ;
#18 = CARTESIAN_POINT ( 'NONE',  ( -3.750000000000003553, 27.50000000000000000, 13.99999999999999822 ) ) ;
#19 = SURFACE_STYLE_USAGE ( .BOTH. , #122 ) ;
#20 = ORIENTED_EDGE ( 'NONE', *, *, #73, .F. ) ;
#21 = EDGE_LOOP ( 'NONE', ( #390, #1073, #625, #879, #348 ) ) ;
#22 = VECTOR ( 'NONE', #906, 1000.000000000000000 ) ;
#23 = DIRECTION ( 'NONE',  ( 1.000000000000000000, 0.000000000000000000, 0.000000000000000000 ) ) ;
#24 = VECTOR ( 'NONE', #490, 1000.000000000000000 ) ;
#25 = ADVANCED_FACE ( 'NONE', ( #222 ), #564, .T. ) ;
#26 = CARTESIAN_POINT ( 'NONE',  ( 0.000000000000000000, 0.000000000000000000, 10.75000000000000000 ) ) ;
#27 = ORIENTED_EDGE ( 'NONE', *, *, #1084, .F. ) ;
#28 = ORIENTED_EDGE ( 'NONE', *, *, #737, .T. ) ;
#29 = DIRECTION ( 'NONE',  ( -1.000000000000000000, 0.000000000000000000, 0.000000000000000000 ) ) ;
#30 = DIRECTION ( 'NONE',  ( 1.000000000000000000, 0.000000000000000000, 0.000000000000000000 ) ) ;
#31 = FILL_AREA_STYLE_COLOUR ( '', #360 ) ;
#32 = EDGE_LOOP ( 'NONE', ( #20, #145 ) ) ;
#33 = ORIENTED_EDGE ( 'NONE', *, *, #386, .F. ) ;
#34 = DIRECTION ( 'NONE',  ( 0.000000000000000000, 1.000000000000000000, 0.000000000000000000 ) ) ;
#35 = FACE_OUTER_BOUND ( 'NONE', #622, .T. ) ;
#36 = CARTESIAN_POINT ( 'NONE',  ( 0.000000000000000000, 27.50000000000000000, 8.250000000000000000 ) ) ;
#37 = CARTESIAN_POINT ( 'NONE',  ( 0.000000000000000000, 0.000000000000000000, 5.000000000000000000 ) ) ;
#38 = EDGE_LOOP ( 'NONE', ( #405, #771, #631, #459 ) ) ;
#39 = DIRECTION ( 'NONE',  ( 1.000000000000000000, 0.000000000000000000, 0.000000000000000000 ) ) ;
#40 = VECTOR ( 'NONE', #496, 1000.000000000000000 ) ;
#41 = FACE_OUTER_BOUND ( 'NONE', #316, .T. ) ;
#42 = CARTESIAN_POINT ( 'NONE',  ( 0.000000000000000000, 0.000000000000000000, 0.000000000000000000 ) ) ;
#43 = ORIENTED_EDGE ( 'NONE', *, *, #797, .T. ) ;
#44 = EDGE_CURVE ( 'NONE', #643, #674, #732, .T. ) ;
#45 = DIRECTION ( 'NONE',  ( -0.000000000000000000, -0.000000000000000000, 1.000000000000000000 ) ) ;
#46 = DIRECTION ( 'NONE',  ( 0.000000000000000000, 0.000000000000000000, 1.000000000000000000 ) ) ;
#47 = EDGE_LOOP ( 'NONE', ( #127, #139, #965, #730, #954 ) ) ;
#48 = VERTEX_POINT ( 'NONE', #653 ) ;
#49 = AXIS2_PLACEMENT_3D ( 'NONE', #130, #45, #328 ) ;
#50 = DIRECTION ( 'NONE',  ( 0.000000000000000000, -1.000000000000000000, 0.000000000000000000 ) ) ;
#51 = PRODUCT_DEFINITION_CONTEXT ( 'detailed design', #666, 'design' ) ;
#52 = VECTOR ( 'NONE', #1035, 1000.000000000000000 ) ;
#53 = DIRECTION ( 'NONE',  ( 0.000000000000000000, -1.000000000000000000, 0.000000000000000000 ) ) ;
#54 = ORIENTED_EDGE ( 'NONE', *, *, #827, .F. ) ;
#55 = ORIENTED_EDGE ( 'NONE', *, *, #347, .F. ) ;
#56 = DIRECTION ( 'NONE',  ( -0.000000000000000000, 0.000000000000000000, 1.000000000000000000 ) ) ;
#57 = EDGE_CURVE ( 'NONE', #340, #1092, #983, .T. ) ;
#58 = CARTESIAN_POINT ( 'NONE',  ( 0.000000000000000000, 0.000000000000000000, 10.75000000000000000 ) ) ;
#59 = LINE ( 'NONE', #173, #910 ) ;
#60 = ORIENTED_EDGE ( 'NONE', *, *, #591, .F. ) ;
#61 = VECTOR ( 'NONE', #748, 1000.000000000000000 ) ;
#62 = PRODUCT_RELATED_PRODUCT_CATEGORY ( 'part', '', ( #524 ) ) ;
#63 = DIRECTION ( 'NONE',  ( 1.000000000000000000, 0.000000000000000000, 0.000000000000000000 ) ) ;
#64 = CARTESIAN_POINT ( 'NONE',  ( 1.360147050873544705, 1.600000000000000755, 5.000000000000002665 ) ) ;
#65 = DIRECTION ( 'NONE',  ( -0.000000000000000000, 0.000000000000000000, 1.000000000000000000 ) ) ;
#66 = ADVANCED_FACE ( 'NONE', ( #903 ), #132, .T. ) ;
#67 = ORIENTED_EDGE ( 'NONE', *, *, #92, .T. ) ;
#68 = CARTESIAN_POINT ( 'NONE',  ( 0.000000000000000000, 0.000000000000000000, 5.000000000000002665 ) ) ;
#69 = CARTESIAN_POINT ( 'NONE',  ( 2.100000000000000089, 2.571758278209441957E-16, 0.000000000000000000 ) ) ;
#70 = AXIS2_PLACEMENT_3D ( 'NONE', #746, #1071, #1093 ) ;
#71 = FACE_OUTER_BOUND ( 'NONE', #927, .T. ) ;
#72 = VERTEX_POINT ( 'NONE', #820 ) ;
#73 = EDGE_CURVE ( 'NONE', #607, #174, #782, .T. ) ;
#74 = DIRECTION ( 'NONE',  ( -1.000000000000000000, 0.000000000000000000, 0.000000000000000000 ) ) ;
#75 = CARTESIAN_POINT ( 'NONE',  ( 0.000000000000000000, 27.50000000000000000, 10.75000000000000000 ) ) ;
#76 = CIRCLE ( 'NONE', #224, 2.100000000000000089 ) ;
#77 = DIRECTION ( 'NONE',  ( 1.000000000000000000, 0.000000000000000000, 0.000000000000000000 ) ) ;
#78 = EDGE_CURVE ( 'NONE', #523, #223, #157, .T. ) ;
#79 = ORIENTED_EDGE ( 'NONE', *, *, #218, .F. ) ;
#80 = VECTOR ( 'NONE', #813, 1000.000000000000000 ) ;
#81 = CARTESIAN_POINT ( 'NONE',  ( 0.000000000000000000, 0.000000000000000000, 19.00000000000000000 ) ) ;
#82 = EDGE_CURVE ( 'NONE', #947, #555, #675, .T. ) ;
#83 = DIRECTION ( 'NONE',  ( 0.000000000000000000, 0.000000000000000000, -1.000000000000000000 ) ) ;
#84 = CARTESIAN_POINT ( 'NONE',  ( 0.000000000000000000, 27.50000000000000000, 0.000000000000000000 ) ) ;
#85 = ORIENTED_EDGE ( 'NONE', *, *, #197, .F. ) ;
#86 = AXIS2_PLACEMENT_3D ( 'NONE', #876, #866, #861 ) ;
#87 = CARTESIAN_POINT ( 'NONE',  ( 3.749999999999996447, -27.50000000000000000, 10.75000000000000000 ) ) ;
#88 = AXIS2_PLACEMENT_3D ( 'NONE', #794, #720, #193 ) ;
#89 = VERTEX_POINT ( 'NONE', #690 ) ;
#90 = CARTESIAN_POINT ( 'NONE',  ( -3.750000000000003553, 27.50000000000000000, 5.000000000000000000 ) ) ;
#91 = DIRECTION ( 'NONE',  ( -1.000000000000000000, -0.000000000000000000, -0.000000000000000000 ) ) ;
#92 = EDGE_CURVE ( 'NONE', #555, #790, #839, .T. ) ;
#93 = CARTESIAN_POINT ( 'NONE',  ( -3.750000000000003553, -32.28292892536239833, 5.000000000000000000 ) ) ;
#94 = ORIENTED_EDGE ( 'NONE', *, *, #529, .T. ) ;
#95 = CIRCLE ( 'NONE', #735, 32.50000000000000000 ) ;
#96 = VERTEX_POINT ( 'NONE', #590 ) ;
#97 = EDGE_CURVE ( 'NONE', #223, #1091, #1053, .T. ) ;
#98 = DIRECTION ( 'NONE',  ( 1.000000000000000000, 0.000000000000000000, 0.000000000000000000 ) ) ;
#99 = DIRECTION ( 'NONE',  ( 1.000000000000000000, 0.000000000000000000, 0.000000000000000000 ) ) ;
#100 = ORIENTED_EDGE ( 'NONE', *, *, #966, .T. ) ;
#101 = EDGE_LOOP ( 'NONE', ( #94, #310, #740, #932 ) ) ;
#102 = DIRECTION ( 'NONE',  ( 0.000000000000000000, 0.000000000000000000, 1.000000000000000000 ) ) ;
#103 = FACE_BOUND ( 'NONE', #7, .T. ) ;
#104 = DIRECTION ( 'NONE',  ( -0.000000000000000000, -0.000000000000000000, 1.000000000000000000 ) ) ;
#105 = DIRECTION ( 'NONE',  ( 0.000000000000000000, 1.000000000000000000, 0.000000000000000000 ) ) ;
#106 = VECTOR ( 'NONE', #1060, 1000.000000000000000 ) ;
#107 = ORIENTED_EDGE ( 'NONE', *, *, #624, .F. ) ;
#108 = EDGE_LOOP ( 'NONE', ( #55, #959, #587, #1058 ) ) ;
#109 = AXIS2_PLACEMENT_3D ( 'NONE', #517, #689, #426 ) ;
#110 = CARTESIAN_POINT ( 'NONE',  ( 3.749999999999996447, -32.28292892536239833, 5.000000000000000000 ) ) ;
#111 = EDGE_CURVE ( 'NONE', #799, #471, #59, .T. ) ;
#112 = PLANE ( 'NONE',  #575 ) ;
#113 = DIRECTION ( 'NONE',  ( 1.000000000000000000, 0.000000000000000000, 0.000000000000000000 ) ) ;
#114 = DIRECTION ( 'NONE',  ( 0.000000000000000000, 0.000000000000000000, -1.000000000000000000 ) ) ;
#115 = EDGE_CURVE ( 'NONE', #307, #840, #137, .T. ) ;
#116 = VERTEX_POINT ( 'NONE', #855 ) ;
#117 = VERTEX_POINT ( 'NONE', #923 ) ;
#118 = CARTESIAN_POINT ( 'NONE',  ( 0.000000000000000000, 27.50000000000000000, 8.250000000000000000 ) ) ;
#119 = DIRECTION ( 'NONE',  ( -0.000000000000000000, -0.000000000000000000, 1.000000000000000000 ) ) ;
#120 = VECTOR ( 'NONE', #53, 1000.000000000000000 ) ;
#121 = DIRECTION ( 'NONE',  ( -0.000000000000000000, 1.000000000000000000, -0.000000000000000000 ) ) ;
#122 = SURFACE_SIDE_STYLE ('',( #208 ) ) ;
#123 = CARTESIAN_POINT ( 'NONE',  ( 0.000000000000000000, 0.000000000000000000, 5.000000000000002665 ) ) ;
#124 = DIRECTION ( 'NONE',  ( 0.000000000000000000, 0.000000000000000000, -1.000000000000000000 ) ) ;
#125 = DIRECTION ( 'NONE',  ( -0.000000000000000000, -0.000000000000000000, -1.000000000000000000 ) ) ;
#126 = FACE_BOUND ( 'NONE', #213, .T. ) ;
#127 = ORIENTED_EDGE ( 'NONE', *, *, #301, .T. ) ;
#128 = ORIENTED_EDGE ( 'NONE', *, *, #814, .F. ) ;
#129 = VECTOR ( 'NONE', #1056, 1000.000000000000000 ) ;
#130 = CARTESIAN_POINT ( 'NONE',  ( 0.000000000000000000, 0.000000000000000000, 10.75000000000000000 ) ) ;
#131 = LINE ( 'NONE', #473, #175 ) ;
#132 = CYLINDRICAL_SURFACE ( 'NONE', #299, 32.50000000000000000 ) ;
#133 = VERTEX_POINT ( 'NONE', #760 ) ;
#134 = EDGE_CURVE ( 'NONE', #116, #434, #1020, .T. ) ;
#135 = VECTOR ( 'NONE', #1110, 1000.000000000000000 ) ;
#136 = DIRECTION ( 'NONE',  ( 0.000000000000000000, -1.000000000000000000, 0.000000000000000000 ) ) ;
#137 = CIRCLE ( 'NONE', #244, 27.50000000000000000 ) ;
#138 = CARTESIAN_POINT ( 'NONE',  ( 1.360147050873544705, 1.600000000000000089, 19.00000000000000000 ) ) ;
#139 = ORIENTED_EDGE ( 'NONE', *, *, #684, .T. ) ;
#140 = EDGE_LOOP ( 'NONE', ( #825, #1027, #990, #212, #924, #639, #326, #278 ) ) ;
#141 = CARTESIAN_POINT ( 'NONE',  ( 0.000000000000000000, 27.50000000000000000, 0.000000000000000000 ) ) ;
#142 = PLANE ( 'NONE',  #460 ) ;
#143 = VERTEX_POINT ( 'NONE', #1113 ) ;
#144 = CIRCLE ( 'NONE', #572, 32.50000000000000000 ) ;
#145 = ORIENTED_EDGE ( 'NONE', *, *, #857, .F. ) ;
#146 = ADVANCED_FACE ( 'NONE', ( #71 ), #428, .F. ) ;
#147 = AXIS2_PLACEMENT_3D ( 'NONE', #525, #886, #30 ) ;
#148 = DIRECTION ( 'NONE',  ( 0.000000000000000000, 0.000000000000000000, -1.000000000000000000 ) ) ;
#149 = EDGE_CURVE ( 'NONE', #790, #1049, #279, .T. ) ;
#150 = AXIS2_PLACEMENT_3D ( 'NONE', #842, #466, #1054 ) ;
#151 = DIRECTION ( 'NONE',  ( 1.000000000000000000, -0.000000000000000000, 0.000000000000000000 ) ) ;
#152 = FACE_OUTER_BOUND ( 'NONE', #1097, .T. ) ;
#153 = ORIENTED_EDGE ( 'NONE', *, *, #577, .T. ) ;
#154 = LINE ( 'NONE', #663, #172 ) ;
#155 = EDGE_CURVE ( 'NONE', #1103, #556, #335, .T. ) ;
#156 = DIRECTION ( 'NONE',  ( 1.000000000000000000, 0.000000000000000000, 0.000000000000000000 ) ) ;
#157 = LINE ( 'NONE', #667, #40 ) ;
#158 = VERTEX_POINT ( 'NONE', #1108 ) ;
#159 = PRODUCT_DEFINITION_FORMATION_WITH_SPECIFIED_SOURCE ( 'ANY', '', #524, .NOT_KNOWN. ) ;
#160 = CARTESIAN_POINT ( 'NONE',  ( 0.000000000000000000, 0.000000000000000000, 19.00000000000000000 ) ) ;
#161 = CARTESIAN_POINT ( 'NONE',  ( 25.50000000000000355, 0.000000000000000000, 5.000000000000004441 ) ) ;
#162 = DIRECTION ( 'NONE',  ( 1.000000000000000000, 0.000000000000000000, 0.000000000000000000 ) ) ;
#163 = ORIENTED_EDGE ( 'NONE', *, *, #115, .F. ) ;
#164 = ADVANCED_FACE ( 'NONE', ( #152 ), #940, .F. ) ;
#165 = CARTESIAN_POINT ( 'NONE',  ( 3.749999999999996447, -27.50000000000000000, 13.99999999999999822 ) ) ;
#166 = CARTESIAN_POINT ( 'NONE',  ( -32.50000000000000000, 3.980102097228898626E-15, 0.000000000000000000 ) ) ;
#167 = VECTOR ( 'NONE', #302, 1000.000000000000000 ) ;
#168 = VERTEX_POINT ( 'NONE', #1031 ) ;
#169 = ADVANCED_FACE ( 'NONE', ( #336 ), #432, .T. ) ;
#170 = CARTESIAN_POINT ( 'NONE',  ( 3.749999999999996447, -27.50000000000000000, 13.99999999999999822 ) ) ;
#171 = CARTESIAN_POINT ( 'NONE',  ( -3.750000000000003553, -27.50000000000000000, 13.99999999999999822 ) ) ;
#172 = VECTOR ( 'NONE', #136, 1000.000000000000000 ) ;
#173 = CARTESIAN_POINT ( 'NONE',  ( 0.000000000000000000, 1.600000000000000755, 5.000000000000002665 ) ) ;
#174 = VERTEX_POINT ( 'NONE', #166 ) ;
#175 = VECTOR ( 'NONE', #457, 1000.000000000000000 ) ;
#176 = CARTESIAN_POINT ( 'NONE',  ( -25.50000000000000355, 3.122849337825751011E-15, 19.00000000000000000 ) ) ;
#177 = FACE_OUTER_BOUND ( 'NONE', #751, .T. ) ;
#178 = CARTESIAN_POINT ( 'NONE',  ( 0.000000000000000000, 0.000000000000000000, 5.000000000000004441 ) ) ;
#179 = VERTEX_POINT ( 'NONE', #506 ) ;
#180 = ADVANCED_FACE ( 'NONE', ( #345 ), #422, .T. ) ;
#181 = FACE_OUTER_BOUND ( 'NONE', #736, .T. ) ;
#182 = DIRECTION ( 'NONE',  ( 0.000000000000000000, 0.000000000000000000, -1.000000000000000000 ) ) ;
#183 = MECHANICAL_DESIGN_GEOMETRIC_PRESENTATION_REPRESENTATION (  '', ( #270 ), #812 ) ;
#184 = ORIENTED_EDGE ( 'NONE', *, *, #276, .F. ) ;
#185 = EDGE_CURVE ( 'NONE', #168, #158, #1, .T. ) ;
#186 = VERTEX_POINT ( 'NONE', #836 ) ;
#187 = PRODUCT_CONTEXT ( 'NONE', #650, 'mechanical' ) ;
#188 = DIRECTION ( 'NONE',  ( 1.000000000000000000, 0.000000000000000000, 0.000000000000000000 ) ) ;
#189 = EDGE_CURVE ( 'NONE', #352, #143, #617, .T. ) ;
#190 = ORIENTED_EDGE ( 'NONE', *, *, #318, .T. ) ;
#191 = AXIS2_PLACEMENT_3D ( 'NONE', #1016, #1120, #1011 ) ;
#192 = DIRECTION ( 'NONE',  ( 0.000000000000000000, -0.000000000000000000, 1.000000000000000000 ) ) ;
#193 = DIRECTION ( 'NONE',  ( 1.000000000000000000, 0.000000000000000000, 0.000000000000000000 ) ) ;
#194 = CARTESIAN_POINT ( 'NONE',  ( 0.000000000000000000, 0.000000000000000000, 8.250000000000000000 ) ) ;
#195 = LINE ( 'NONE', #896, #609 ) ;
#196 = ORIENTED_EDGE ( 'NONE', *, *, #702, .F. ) ;
#197 = EDGE_CURVE ( 'NONE', #556, #971, #95, .T. ) ;
#198 = EDGE_CURVE ( 'NONE', #117, #340, #789, .T. ) ;
#199 = EDGE_CURVE ( 'NONE', #840, #298, #1062, .T. ) ;
#200 = CARTESIAN_POINT ( 'NONE',  ( -3.750000000000003553, -27.50000000000000000, 13.99999999999999822 ) ) ;
#201 = DIRECTION ( 'NONE',  ( -0.000000000000000000, -0.000000000000000000, 1.000000000000000000 ) ) ;
#202 = LINE ( 'NONE', #707, #219 ) ;
#203 = AXIS2_PLACEMENT_3D ( 'NONE', #920, #413, #63 ) ;
#204 = ORIENTED_EDGE ( 'NONE', *, *, #1066, .F. ) ;
#205 = VERTEX_POINT ( 'NONE', #1041 ) ;
#206 = CIRCLE ( 'NONE', #793, 27.50000000000000000 ) ;
#207 = DIRECTION ( 'NONE',  ( 0.000000000000000000, 0.000000000000000000, -1.000000000000000000 ) ) ;
#208 = SURFACE_STYLE_FILL_AREA ( #370 ) ;
#209 = ORIENTED_EDGE ( 'NONE', *, *, #155, .T. ) ;
#210 = LINE ( 'NONE', #616, #291 ) ;
#211 = DIRECTION ( 'NONE',  ( -1.000000000000000000, 0.000000000000000000, -0.000000000000000000 ) ) ;
#212 = ORIENTED_EDGE ( 'NONE', *, *, #831, .T. ) ;
#213 = EDGE_LOOP ( 'NONE', ( #322, #515 ) ) ;
#214 = PLANE ( 'NONE',  #371 ) ;
#215 = CARTESIAN_POINT ( 'NONE',  ( 3.749999999999996447, -32.28292892536239833, 13.99999999999999822 ) ) ;
#216 = ORIENTED_EDGE ( 'NONE', *, *, #904, .T. ) ;
#217 = ORIENTED_EDGE ( 'NONE', *, *, #218, .T. ) ;
#218 = EDGE_CURVE ( 'NONE', #434, #307, #623, .T. ) ;
#219 = VECTOR ( 'NONE', #618, 1000.000000000000000 ) ;
#220 = FACE_OUTER_BOUND ( 'NONE', #539, .T. ) ;
#221 = CARTESIAN_POINT ( 'NONE',  ( 0.000000000000000000, 27.50000000000000000, 10.75000000000000000 ) ) ;
#222 = FACE_OUTER_BOUND ( 'NONE', #873, .T. ) ;
#223 = VERTEX_POINT ( 'NONE', #93 ) ;
#224 = AXIS2_PLACEMENT_3D ( 'NONE', #998, #1086, #1104 ) ;
#225 = CARTESIAN_POINT ( 'NONE',  ( 0.000000000000000000, 0.000000000000000000, 5.000000000000000000 ) ) ;
#226 = FACE_OUTER_BOUND ( 'NONE', #749, .T. ) ;
#227 = AXIS2_PLACEMENT_3D ( 'NONE', #26, #1063, #290 ) ;
#228 = ORIENTED_EDGE ( 'NONE', *, *, #149, .T. ) ;
#229 = ORIENTED_EDGE ( 'NONE', *, *, #197, .T. ) ;
#230 = EDGE_CURVE ( 'NONE', #1008, #179, #144, .T. ) ;
#231 = DIRECTION ( 'NONE',  ( -1.000000000000000000, 0.000000000000000000, 0.000000000000000000 ) ) ;
#232 = LINE ( 'NONE', #489, #475 ) ;
#233 = DIRECTION ( 'NONE',  ( -0.000000000000000000, -0.000000000000000000, 1.000000000000000000 ) ) ;
#234 = DIRECTION ( 'NONE',  ( -0.000000000000000000, 1.000000000000000000, -0.000000000000000000 ) ) ;
#235 = AXIS2_PLACEMENT_3D ( 'NONE', #178, #526, #99 ) ;
#236 = ORIENTED_EDGE ( 'NONE', *, *, #577, .F. ) ;
#237 = CARTESIAN_POINT ( 'NONE',  ( -25.50000000000000355, 3.122849337825751011E-15, 5.000000000000004441 ) ) ;
#238 = DIRECTION ( 'NONE',  ( -1.000000000000000000, 0.000000000000000000, -0.000000000000000000 ) ) ;
#239 = DIRECTION ( 'NONE',  ( 1.000000000000000000, 0.000000000000000000, 0.000000000000000000 ) ) ;
#240 = VERTEX_POINT ( 'NONE', #456 ) ;
#241 = AXIS2_PLACEMENT_3D ( 'NONE', #729, #398, #660 ) ;
#242 = DIRECTION ( 'NONE',  ( 1.000000000000000000, 0.000000000000000000, 0.000000000000000000 ) ) ;
#243 = DIRECTION ( 'NONE',  ( 1.000000000000000000, 0.000000000000000000, 0.000000000000000000 ) ) ;
#244 = AXIS2_PLACEMENT_3D ( 'NONE', #1024, #325, #843 ) ;
#245 = DIRECTION ( 'NONE',  ( -0.000000000000000000, 0.000000000000000000, 1.000000000000000000 ) ) ;
#246 = EDGE_LOOP ( 'NONE', ( #941, #614, #1038, #592 ) ) ;
#247 = CARTESIAN_POINT ( 'NONE',  ( 2.100000000000000089, 2.571758278209441957E-16, 5.000000000000002665 ) ) ;
#248 = DIRECTION ( 'NONE',  ( 1.000000000000000000, 0.000000000000000000, 0.000000000000000000 ) ) ;
#249 = EDGE_CURVE ( 'NONE', #298, #569, #450, .T. ) ;
#250 = ORIENTED_EDGE ( 'NONE', *, *, #78, .F. ) ;
#251 = VECTOR ( 'NONE', #788, 1000.000000000000000 ) ;
#252 = LINE ( 'NONE', #939, #1088 ) ;
#253 = CARTESIAN_POINT ( 'NONE',  ( 0.000000000000000000, 27.50000000000000000, 8.250000000000000000 ) ) ;
#254 = VECTOR ( 'NONE', #355, 1000.000000000000000 ) ;
#255 = ORIENTED_EDGE ( 'NONE', *, *, #111, .F. ) ;
#256 = DIRECTION ( 'NONE',  ( -1.000000000000000000, 0.000000000000000000, 0.000000000000000000 ) ) ;
#257 = DIRECTION ( 'NONE',  ( -1.000000000000000000, 0.000000000000000000, -0.000000000000000000 ) ) ;
#258 = CARTESIAN_POINT ( 'NONE',  ( 3.749999999999996447, -27.50000000000000000, 5.000000000000000000 ) ) ;
#259 = ORIENTED_EDGE ( 'NONE', *, *, #318, .F. ) ;
#260 = EDGE_CURVE ( 'NONE', #918, #133, #795, .T. ) ;
#261 = AXIS2_PLACEMENT_3D ( 'NONE', #324, #313, #308 ) ;
#262 = AXIS2_PLACEMENT_3D ( 'NONE', #287, #192, #955 ) ;
#263 = CARTESIAN_POINT ( 'NONE',  ( 0.000000000000000000, 0.000000000000000000, 5.000000000000000000 ) ) ;
#264 = PRODUCT_DEFINITION ( 'UNKNOWN', '', #159, #51 ) ;
#265 = DIRECTION ( 'NONE',  ( -0.000000000000000000, -1.000000000000000000, -0.000000000000000000 ) ) ;
#266 = ORIENTED_EDGE ( 'NONE', *, *, #333, .T. ) ;
#267 = ORIENTED_EDGE ( 'NONE', *, *, #544, .F. ) ;
#268 = EDGE_CURVE ( 'NONE', #168, #1091, #801, .T. ) ;
#269 = CARTESIAN_POINT ( 'NONE',  ( -1.360147050873544705, 1.600000000000000089, 0.000000000000000000 ) ) ;
#270 = STYLED_ITEM ( 'NONE', ( #297 ), #364 ) ;
#271 = ORIENTED_EDGE ( 'NONE', *, *, #893, .F. ) ;
#272 = VERTEX_POINT ( 'NONE', #369 ) ;
#273 = DIRECTION ( 'NONE',  ( -0.000000000000000000, -1.000000000000000000, -0.000000000000000000 ) ) ;
#274 = CARTESIAN_POINT ( 'NONE',  ( 0.000000000000000000, -27.50000000000000000, 10.75000000000000000 ) ) ;
#275 = CARTESIAN_POINT ( 'NONE',  ( -3.750000000000003553, 27.50000000000000000, 13.99999999999999822 ) ) ;
#276 = EDGE_CURVE ( 'NONE', #555, #947, #773, .T. ) ;
#277 = AXIS2_PLACEMENT_3D ( 'NONE', #160, #864, #256 ) ;
#278 = ORIENTED_EDGE ( 'NONE', *, *, #814, .T. ) ;
#279 = CIRCLE ( 'NONE', #191, 25.50000000000000355 ) ;
#280 = EDGE_CURVE ( 'NONE', #179, #1008, #901, .T. ) ;
#281 = CARTESIAN_POINT ( 'NONE',  ( -3.750000000000003553, -27.50000000000000000, 5.000000000000000000 ) ) ;
#282 = FACE_OUTER_BOUND ( 'NONE', #108, .T. ) ;
#283 = LINE ( 'NONE', #969, #1098 ) ;
#284 = ORIENTED_EDGE ( 'NONE', *, *, #499, .F. ) ;
#285 = ADVANCED_FACE ( 'NONE', ( #282 ), #601, .F. ) ;
#286 = ORIENTED_EDGE ( 'NONE', *, *, #1117, .F. ) ;
#287 = CARTESIAN_POINT ( 'NONE',  ( 0.000000000000000000, 27.50000000000000000, 10.75000000000000000 ) ) ;
#288 = VECTOR ( 'NONE', #700, 1000.000000000000000 ) ;
#289 = CARTESIAN_POINT ( 'NONE',  ( 3.749999999999996447, -27.50000000000000000, 13.99999999999999822 ) ) ;
#290 = DIRECTION ( 'NONE',  ( 1.000000000000000000, 0.000000000000000000, 0.000000000000000000 ) ) ;
#291 = VECTOR ( 'NONE', #34, 1000.000000000000000 ) ;
#292 = ORIENTED_EDGE ( 'NONE', *, *, #863, .T. ) ;
#293 = ORIENTED_EDGE ( 'NONE', *, *, #362, .T. ) ;
#294 = APPLICATION_PROTOCOL_DEFINITION ( 'draft international standard', 'automotive_design', 1998, #650 ) ;
#295 = FACE_OUTER_BOUND ( 'NONE', #32, .T. ) ;
#296 = PLANE ( 'NONE',  #327 ) ;
#297 = PRESENTATION_STYLE_ASSIGNMENT (( #19 ) ) ;
#298 = VERTEX_POINT ( 'NONE', #951 ) ;
#299 = AXIS2_PLACEMENT_3D ( 'NONE', #37, #474, #994 ) ;
#300 = ORIENTED_EDGE ( 'NONE', *, *, #260, .F. ) ;
#301 = EDGE_CURVE ( 'NONE', #116, #757, #10, .T. ) ;
#302 = DIRECTION ( 'NONE',  ( -0.000000000000000000, -0.000000000000000000, 1.000000000000000000 ) ) ;
#303 = EDGE_CURVE ( 'NONE', #174, #1079, #518, .T. ) ;
#304 = CARTESIAN_POINT ( 'NONE',  ( 3.749999999999996447, -32.28292892536239833, 5.000000000000000000 ) ) ;
#305 = VECTOR ( 'NONE', #354, 1000.000000000000000 ) ;
#306 = ORIENTED_EDGE ( 'NONE', *, *, #768, .F. ) ;
#307 = VERTEX_POINT ( 'NONE', #727 ) ;
#308 = DIRECTION ( 'NONE',  ( 0.000000000000000000, 0.000000000000000000, -1.000000000000000000 ) ) ;
#309 = VERTEX_POINT ( 'NONE', #467 ) ;
#310 = ORIENTED_EDGE ( 'NONE', *, *, #437, .T. ) ;
#311 = VECTOR ( 'NONE', #83, 1000.000000000000000 ) ;
#312 = CARTESIAN_POINT ( 'NONE',  ( 0.000000000000000000, 25.50000000000000355, 5.000000000000002665 ) ) ;
#313 = DIRECTION ( 'NONE',  ( 0.000000000000000000, 1.000000000000000000, 0.000000000000000000 ) ) ;
#314 = DIRECTION ( 'NONE',  ( -1.000000000000000000, 0.000000000000000000, 0.000000000000000000 ) ) ;
#315 = ADVANCED_FACE ( 'NONE', ( #35 ), #546, .F. ) ;
#316 = EDGE_LOOP ( 'NONE', ( #534, #655, #1021, #373, #488, #292, #1050, #958 ) ) ;
#317 = VECTOR ( 'NONE', #435, 1000.000000000000000 ) ;
#318 = EDGE_CURVE ( 'NONE', #674, #799, #669, .T. ) ;
#319 = PLANE ( 'NONE',  #999 ) ;
#320 = CARTESIAN_POINT ( 'NONE',  ( -25.50000000000000355, 3.122849337825751011E-15, 5.000000000000000000 ) ) ;
#321 = AXIS2_PLACEMENT_3D ( 'NONE', #397, #993, #393 ) ;
#322 = ORIENTED_EDGE ( 'NONE', *, *, #149, .F. ) ;
#323 = ORIENTED_EDGE ( 'NONE', *, *, #792, .T. ) ;
#324 = CARTESIAN_POINT ( 'NONE',  ( 0.000000000000000000, -27.50000000000000000, 0.000000000000000000 ) ) ;
#325 = DIRECTION ( 'NONE',  ( -0.000000000000000000, -0.000000000000000000, 1.000000000000000000 ) ) ;
#326 = ORIENTED_EDGE ( 'NONE', *, *, #1066, .T. ) ;
#327 = AXIS2_PLACEMENT_3D ( 'NONE', #981, #211, #636 ) ;
#328 = DIRECTION ( 'NONE',  ( 1.000000000000000000, 0.000000000000000000, 0.000000000000000000 ) ) ;
#329 = DIRECTION ( 'NONE',  ( -1.000000000000000000, 0.000000000000000000, -0.000000000000000000 ) ) ;
#330 = CARTESIAN_POINT ( 'NONE',  ( -3.750000000000003553, -27.50000000000000000, 13.99999999999999822 ) ) ;
#331 = ORIENTED_EDGE ( 'NONE', *, *, #82, .T. ) ;
#332 = DIRECTION ( 'NONE',  ( 0.000000000000000000, 1.000000000000000000, 0.000000000000000000 ) ) ;
#333 = EDGE_CURVE ( 'NONE', #757, #89, #406, .T. ) ;
#334 = DIRECTION ( 'NONE',  ( 1.000000000000000000, 0.000000000000000000, 0.000000000000000000 ) ) ;
#335 = CIRCLE ( 'NONE', #962, 32.50000000000000000 ) ;
#336 = FACE_OUTER_BOUND ( 'NONE', #38, .T. ) ;
#337 = ORIENTED_EDGE ( 'NONE', *, *, #584, .F. ) ;
#338 = DIRECTION ( 'NONE',  ( -0.000000000000000000, -0.000000000000000000, -1.000000000000000000 ) ) ;
#339 = DIRECTION ( 'NONE',  ( -1.000000000000000000, 0.000000000000000000, 0.000000000000000000 ) ) ;
#340 = VERTEX_POINT ( 'NONE', #1061 ) ;
#341 = DIRECTION ( 'NONE',  ( 0.000000000000000000, 0.000000000000000000, -1.000000000000000000 ) ) ;
#342 = AXIS2_PLACEMENT_3D ( 'NONE', #532, #883, #188 ) ;
#343 = DIRECTION ( 'NONE',  ( 1.000000000000000000, -0.000000000000000000, -0.000000000000000000 ) ) ;
#344 = ADVANCED_FACE ( 'NONE', ( #629 ), #296, .F. ) ;
#345 = FACE_OUTER_BOUND ( 'NONE', #1067, .T. ) ;
#346 = AXIS2_PLACEMENT_3D ( 'NONE', #6, #182, #257 ) ;
#347 = EDGE_CURVE ( 'NONE', #643, #668, #553, .T. ) ;
#348 = ORIENTED_EDGE ( 'NONE', *, *, #513, .F. ) ;
#349 = DIRECTION ( 'NONE',  ( 0.000000000000000000, 0.000000000000000000, -1.000000000000000000 ) ) ;
#350 = DIRECTION ( 'NONE',  ( 1.000000000000000000, 0.000000000000000000, 0.000000000000000000 ) ) ;
#351 = DIRECTION ( 'NONE',  ( -0.000000000000000000, -0.000000000000000000, 1.000000000000000000 ) ) ;
#352 = VERTEX_POINT ( 'NONE', #215 ) ;
#353 = AXIS2_PLACEMENT_3D ( 'NONE', #1116, #8, #242 ) ;
#354 = DIRECTION ( 'NONE',  ( 1.000000000000000000, 0.000000000000000000, 0.000000000000000000 ) ) ;
#355 = DIRECTION ( 'NONE',  ( -0.000000000000000000, -0.000000000000000000, 1.000000000000000000 ) ) ;
#356 = ORIENTED_EDGE ( 'NONE', *, *, #513, .T. ) ;
#357 = VERTEX_POINT ( 'NONE', #1048 ) ;
#358 = CARTESIAN_POINT ( 'NONE',  ( 0.000000000000000000, -27.50000000000000000, 8.250000000000000000 ) ) ;
#359 = CARTESIAN_POINT ( 'NONE',  ( 0.000000000000000000, 0.000000000000000000, 19.00000000000000000 ) ) ;
#360 = COLOUR_RGB ( '',0.7921568627450980005, 0.8196078431372548767, 0.9333333333333333481 ) ;
#361 = DIRECTION ( 'NONE',  ( 0.000000000000000000, 0.000000000000000000, -1.000000000000000000 ) ) ;
#362 = EDGE_CURVE ( 'NONE', #1042, #186, #202, .T. ) ;
#363 = ORIENTED_EDGE ( 'NONE', *, *, #249, .T. ) ;
#364 = MANIFOLD_SOLID_BREP ( 'Shaft Hole', #439 ) ;
#365 = ORIENTED_EDGE ( 'NONE', *, *, #624, .T. ) ;
#366 = LINE ( 'NONE', #461, #411 ) ;
#367 = CARTESIAN_POINT ( 'NONE',  ( 3.749999999999996447, 27.50000000000000000, 5.000000000000000000 ) ) ;
#368 = ADVANCED_FACE ( 'NONE', ( #377 ), #888, .F. ) ;
#369 = CARTESIAN_POINT ( 'NONE',  ( 3.749999999999996447, -27.50000000000000000, 13.99999999999999822 ) ) ;
#370 = FILL_AREA_STYLE ('',( #31 ) ) ;
#371 = AXIS2_PLACEMENT_3D ( 'NONE', #312, #148, #472 ) ;
#372 = VERTEX_POINT ( 'NONE', #728 ) ;
#373 = ORIENTED_EDGE ( 'NONE', *, *, #189, .F. ) ;
#374 = CIRCLE ( 'NONE', #227, 32.50000000000000000 ) ;
#375 =( LENGTH_UNIT ( ) NAMED_UNIT ( * ) SI_UNIT ( .MILLI., .METRE. ) );
#376 = CARTESIAN_POINT ( 'NONE',  ( 3.749999999999996447, -32.28292892536239833, 5.000000000000000000 ) ) ;
#377 = FACE_OUTER_BOUND ( 'NONE', #528, .T. ) ;
#378 = ORIENTED_EDGE ( 'NONE', *, *, #1102, .T. ) ;
#379 = ORIENTED_EDGE ( 'NONE', *, *, #198, .T. ) ;
#380 = CARTESIAN_POINT ( 'NONE',  ( -3.750000000000003553, 32.28292892536239833, 13.99999999999999822 ) ) ;
#381 = CARTESIAN_POINT ( 'NONE',  ( -1.360147050873544705, 1.600000000000000089, 5.000000000000002665 ) ) ;
#382 = EDGE_CURVE ( 'NONE', #840, #205, #547, .T. ) ;
#383 = ORIENTED_EDGE ( 'NONE', *, *, #199, .F. ) ;
#384 = VECTOR ( 'NONE', #121, 1000.000000000000000 ) ;
#385 = ORIENTED_EDGE ( 'NONE', *, *, #462, .T. ) ;
#386 = EDGE_CURVE ( 'NONE', #307, #48, #637, .T. ) ;
#387 = CARTESIAN_POINT ( 'NONE',  ( 0.000000000000000000, 0.000000000000000000, 0.000000000000000000 ) ) ;
#388 = LINE ( 'NONE', #304, #602 ) ;
#389 = ORIENTED_EDGE ( 'NONE', *, *, #899, .T. ) ;
#390 = ORIENTED_EDGE ( 'NONE', *, *, #613, .F. ) ;
#391 = AXIS2_PLACEMENT_3D ( 'NONE', #42, #394, #77 ) ;
#392 = LINE ( 'NONE', #900, #536 ) ;
#393 = DIRECTION ( 'NONE',  ( -1.000000000000000000, 0.000000000000000000, -0.000000000000000000 ) ) ;
#394 = DIRECTION ( 'NONE',  ( -0.000000000000000000, -0.000000000000000000, 1.000000000000000000 ) ) ;
#395 = ORIENTED_EDGE ( 'NONE', *, *, #1046, .T. ) ;
#396 = EDGE_CURVE ( 'NONE', #372, #404, #195, .T. ) ;
#397 = CARTESIAN_POINT ( 'NONE',  ( -3.750000000000003553, 27.50000000000000000, 5.000000000000000000 ) ) ;
#398 = DIRECTION ( 'NONE',  ( -0.000000000000000000, -0.000000000000000000, 1.000000000000000000 ) ) ;
#399 = VECTOR ( 'NONE', #974, 1000.000000000000000 ) ;
#400 = ADVANCED_FACE ( 'NONE', ( #126, #877 ), #538, .F. ) ;
#401 = ORIENTED_EDGE ( 'NONE', *, *, #478, .T. ) ;
#402 = CARTESIAN_POINT ( 'NONE',  ( -2.100000000000000089, 0.000000000000000000, 19.00000000000000000 ) ) ;
#403 = CARTESIAN_POINT ( 'NONE',  ( 0.000000000000000000, 0.000000000000000000, 8.250000000000000000 ) ) ;
#404 = VERTEX_POINT ( 'NONE', #796 ) ;
#405 = ORIENTED_EDGE ( 'NONE', *, *, #396, .T. ) ;
#406 = LINE ( 'NONE', #887, #384 ) ;
#407 = FACE_OUTER_BOUND ( 'NONE', #691, .T. ) ;
#408 = LINE ( 'NONE', #1010, #61 ) ;
#409 = AXIS2_PLACEMENT_3D ( 'NONE', #58, #665, #156 ) ;
#410 = CARTESIAN_POINT ( 'NONE',  ( 0.000000000000000000, 0.000000000000000000, 13.99999999999999822 ) ) ;
#411 = VECTOR ( 'NONE', #273, 1000.000000000000000 ) ;
#412 = ORIENTED_EDGE ( 'NONE', *, *, #529, .F. ) ;
#413 = DIRECTION ( 'NONE',  ( -0.000000000000000000, -0.000000000000000000, 1.000000000000000000 ) ) ;
#414 = LINE ( 'NONE', #1106, #657 ) ;
#415 = CARTESIAN_POINT ( 'NONE',  ( 0.000000000000000000, 0.000000000000000000, 8.250000000000000000 ) ) ;
#416 = ORIENTED_EDGE ( 'NONE', *, *, #230, .T. ) ;
#417 = VECTOR ( 'NONE', #784, 1000.000000000000000 ) ;
#418 = CARTESIAN_POINT ( 'NONE',  ( -3.750000000000003553, 32.50000000000000000, 8.250000000000000000 ) ) ;
#419 = UNCERTAINTY_MEASURE_WITH_UNIT (LENGTH_MEASURE( 1.000000000000000082E-05 ), #375, 'distance_accuracy_value', 'NONE');
#420 = EDGE_CURVE ( 'NONE', #143, #372, #283, .T. ) ;
#421 = LINE ( 'NONE', #505, #453 ) ;
#422 = PLANE ( 'NONE',  #477 ) ;
#423 = ORIENTED_EDGE ( 'NONE', *, *, #1090, .T. ) ;
#424 = CIRCLE ( 'NONE', #353, 27.50000000000000000 ) ;
#425 = CARTESIAN_POINT ( 'NONE',  ( -32.50000000000000000, 3.980102097228898626E-15, 8.250000000000000000 ) ) ;
#426 = DIRECTION ( 'NONE',  ( 1.000000000000000000, 0.000000000000000000, 0.000000000000000000 ) ) ;
#427 = VECTOR ( 'NONE', #598, 1000.000000000000000 ) ;
#428 = CYLINDRICAL_SURFACE ( 'NONE', #821, 25.50000000000000355 ) ;
#429 = ORIENTED_EDGE ( 'NONE', *, *, #430, .F. ) ;
#430 = EDGE_CURVE ( 'NONE', #619, #523, #468, .T. ) ;
#431 = CARTESIAN_POINT ( 'NONE',  ( -2.100000000000000089, 0.000000000000000000, 5.000000000000002665 ) ) ;
#432 = PLANE ( 'NONE',  #527 ) ;
#433 = AXIS2_PLACEMENT_3D ( 'NONE', #721, #522, #611 ) ;
#434 = VERTEX_POINT ( 'NONE', #36 ) ;
#435 = DIRECTION ( 'NONE',  ( -0.000000000000000000, -0.000000000000000000, 1.000000000000000000 ) ) ;
#436 = DIRECTION ( 'NONE',  ( -0.000000000000000000, -0.000000000000000000, 1.000000000000000000 ) ) ;
#437 = EDGE_CURVE ( 'NONE', #535, #352, #388, .T. ) ;
#438 = ORIENTED_EDGE ( 'NONE', *, *, #982, .T. ) ;
#439 = CLOSED_SHELL ( 'NONE', ( #1003, #1017, #146, #995, #66, #874, #25, #595, #509, #661, #1105, #494, #881, #664, #400, #646, #942, #987, #368, #344, #164, #561, #913, #315, #1064, #791, #465, #169, #484, #180, #1026, #552, #1069, #285, #567 ) ) ;
#440 = LINE ( 'NONE', #600, #4 ) ;
#441 = AXIS2_PLACEMENT_3D ( 'NONE', #580, #586, #239 ) ;
#442 = ORIENTED_EDGE ( 'NONE', *, *, #966, .F. ) ;
#443 = VERTEX_POINT ( 'NONE', #558 ) ;
#444 = CARTESIAN_POINT ( 'NONE',  ( 0.000000000000000000, 0.000000000000000000, 0.000000000000000000 ) ) ;
#445 = CARTESIAN_POINT ( 'NONE',  ( 0.000000000000000000, 0.000000000000000000, 19.00000000000000000 ) ) ;
#446 = EDGE_LOOP ( 'NONE', ( #541, #989, #3, #190 ) ) ;
#447 = EDGE_CURVE ( 'NONE', #404, #739, #131, .T. ) ;
#448 = FACE_OUTER_BOUND ( 'NONE', #701, .T. ) ;
#449 = DIRECTION ( 'NONE',  ( -1.000000000000000000, 0.000000000000000000, 0.000000000000000000 ) ) ;
#450 = LINE ( 'NONE', #957, #859 ) ;
#451 = DIRECTION ( 'NONE',  ( -1.000000000000000000, 0.000000000000000000, -0.000000000000000000 ) ) ;
#452 = ORIENTED_EDGE ( 'NONE', *, *, #779, .F. ) ;
#453 = VECTOR ( 'NONE', #350, 1000.000000000000000 ) ;
#454 = ORIENTED_EDGE ( 'NONE', *, *, #779, .T. ) ;
#455 = CARTESIAN_POINT ( 'NONE',  ( 0.000000000000000000, 0.000000000000000000, 0.000000000000000000 ) ) ;
#456 = CARTESIAN_POINT ( 'NONE',  ( 0.000000000000000000, -27.50000000000000000, 10.75000000000000000 ) ) ;
#457 = DIRECTION ( 'NONE',  ( 0.000000000000000000, 0.000000000000000000, 1.000000000000000000 ) ) ;
#458 = AXIS2_PLACEMENT_3D ( 'NONE', #1099, #1009, #578 ) ;
#459 = ORIENTED_EDGE ( 'NONE', *, *, #420, .T. ) ;
#460 = AXIS2_PLACEMENT_3D ( 'NONE', #138, #824, #46 ) ;
#461 = CARTESIAN_POINT ( 'NONE',  ( 3.749999999999996447, -27.50000000000000000, 13.99999999999999822 ) ) ;
#462 = EDGE_CURVE ( 'NONE', #357, #96, #374, .T. ) ;
#463 = CARTESIAN_POINT ( 'NONE',  ( -2.100000000000000089, 0.000000000000000000, 0.000000000000000000 ) ) ;
#464 = ORIENTED_EDGE ( 'NONE', *, *, #1029, .T. ) ;
#465 = ADVANCED_FACE ( 'NONE', ( #630 ), #975, .T. ) ;
#466 = DIRECTION ( 'NONE',  ( -0.000000000000000000, -0.000000000000000000, 1.000000000000000000 ) ) ;
#467 = CARTESIAN_POINT ( 'NONE',  ( 32.50000000000000000, 0.000000000000000000, 10.75000000000000000 ) ) ;
#468 = LINE ( 'NONE', #1077, #80 ) ;
#469 = ORIENTED_EDGE ( 'NONE', *, *, #915, .T. ) ;
#470 = AXIS2_PLACEMENT_3D ( 'NONE', #807, #554, #361 ) ;
#471 = VERTEX_POINT ( 'NONE', #64 ) ;
#472 = DIRECTION ( 'NONE',  ( -1.000000000000000000, 0.000000000000000000, -0.000000000000000000 ) ) ;
#473 = CARTESIAN_POINT ( 'NONE',  ( -3.750000000000003553, -27.50000000000000000, 13.99999999999999822 ) ) ;
#474 = DIRECTION ( 'NONE',  ( -0.000000000000000000, -0.000000000000000000, 1.000000000000000000 ) ) ;
#475 = VECTOR ( 'NONE', #914, 1000.000000000000000 ) ;
#476 = ORIENTED_EDGE ( 'NONE', *, *, #680, .T. ) ;
#477 = AXIS2_PLACEMENT_3D ( 'NONE', #849, #245, #162 ) ;
#478 = EDGE_CURVE ( 'NONE', #240, #569, #716, .T. ) ;
#479 = CARTESIAN_POINT ( 'NONE',  ( -3.750000000000003553, 32.28292892536239833, 5.000000000000000000 ) ) ;
#480 = EDGE_CURVE ( 'NONE', #298, #434, #514, .T. ) ;
#481 = CYLINDRICAL_SURFACE ( 'NONE', #1034, 32.50000000000000000 ) ;
#482 = ORIENTED_EDGE ( 'NONE', *, *, #1122, .T. ) ;
#483 = ORIENTED_EDGE ( 'NONE', *, *, #347, .T. ) ;
#484 = ADVANCED_FACE ( 'NONE', ( #916 ), #738, .F. ) ;
#485 = CARTESIAN_POINT ( 'NONE',  ( 27.50000000000000000, 0.000000000000000000, 10.75000000000000000 ) ) ;
#486 = EDGE_LOOP ( 'NONE', ( #429, #356, #163, #79, #423, #464, #28, #43 ) ) ;
#487 = AXIS2_PLACEMENT_3D ( 'NONE', #1070, #894, #98 ) ;
#488 = ORIENTED_EDGE ( 'NONE', *, *, #437, .F. ) ;
#489 = CARTESIAN_POINT ( 'NONE',  ( 3.749999999999996447, 27.50000000000000000, 13.99999999999999822 ) ) ;
#490 = DIRECTION ( 'NONE',  ( 1.000000000000000000, 0.000000000000000000, 0.000000000000000000 ) ) ;
#491 = DIRECTION ( 'NONE',  ( 0.000000000000000000, -1.000000000000000000, 0.000000000000000000 ) ) ;
#492 = ORIENTED_EDGE ( 'NONE', *, *, #713, .T. ) ;
#493 = LINE ( 'NONE', #852, #317 ) ;
#494 = ADVANCED_FACE ( 'NONE', ( #41 ), #481, .T. ) ;
#495 = FACE_OUTER_BOUND ( 'NONE', #530, .T. ) ;
#496 = DIRECTION ( 'NONE',  ( 0.000000000000000000, 0.000000000000000000, -1.000000000000000000 ) ) ;
#497 = AXIS2_PLACEMENT_3D ( 'NONE', #869, #550, #626 ) ;
#498 = EDGE_LOOP ( 'NONE', ( #856, #365, #872, #833 ) ) ;
#499 = EDGE_CURVE ( 'NONE', #566, #443, #408, .T. ) ;
#500 = LINE ( 'NONE', #90, #766 ) ;
#501 = LINE ( 'NONE', #1019, #540 ) ;
#502 = CARTESIAN_POINT ( 'NONE',  ( -3.750000000000003553, -27.50000000000000000, 5.000000000000000000 ) ) ;
#503 = ORIENTED_EDGE ( 'NONE', *, *, #189, .T. ) ;
#504 = CARTESIAN_POINT ( 'NONE',  ( 3.749999999999996447, 27.50000000000000000, 13.99999999999999822 ) ) ;
#505 = CARTESIAN_POINT ( 'NONE',  ( 0.000000000000000000, 27.50000000000000000, 10.75000000000000000 ) ) ;
#506 = CARTESIAN_POINT ( 'NONE',  ( 32.50000000000000000, 0.000000000000000000, 19.00000000000000000 ) ) ;
#507 = ORIENTED_EDGE ( 'NONE', *, *, #584, .T. ) ;
#508 = PRODUCT_DEFINITION_SHAPE ( 'NONE', 'NONE',  #264 ) ;
#509 = ADVANCED_FACE ( 'NONE', ( #495 ), #1015, .F. ) ;
#510 = AXIS2_PLACEMENT_3D ( 'NONE', #81, #687, #948 ) ;
#511 = DIRECTION ( 'NONE',  ( 0.000000000000000000, -0.000000000000000000, 1.000000000000000000 ) ) ;
#512 = DIRECTION ( 'NONE',  ( 1.000000000000000000, 0.000000000000000000, 0.000000000000000000 ) ) ;
#513 = EDGE_CURVE ( 'NONE', #619, #840, #573, .T. ) ;
#514 = CIRCLE ( 'NONE', #549, 27.50000000000000000 ) ;
#515 = ORIENTED_EDGE ( 'NONE', *, *, #680, .F. ) ;
#516 = LINE ( 'NONE', #418, #135 ) ;
#517 = CARTESIAN_POINT ( 'NONE',  ( 0.000000000000000000, 0.000000000000000000, 5.000000000000000000 ) ) ;
#518 = LINE ( 'NONE', #780, #417 ) ;
#519 = ORIENTED_EDGE ( 'NONE', *, *, #480, .T. ) ;
#520 = FACE_OUTER_BOUND ( 'NONE', #1096, .T. ) ;
#521 = LINE ( 'NONE', #165, #311 ) ;
#522 = DIRECTION ( 'NONE',  ( -0.000000000000000000, -0.000000000000000000, 1.000000000000000000 ) ) ;
#523 = VERTEX_POINT ( 'NONE', #1100 ) ;
#524 = PRODUCT ( 'wheel_rim', 'wheel_rim', '', ( #187 ) ) ;
#525 = CARTESIAN_POINT ( 'NONE',  ( 0.000000000000000000, 0.000000000000000000, 0.000000000000000000 ) ) ;
#526 = DIRECTION ( 'NONE',  ( -0.000000000000000000, -0.000000000000000000, 1.000000000000000000 ) ) ;
#527 = AXIS2_PLACEMENT_3D ( 'NONE', #330, #931, #678 ) ;
#528 = EDGE_LOOP ( 'NONE', ( #1085, #1018, #745, #798 ) ) ;
#529 = EDGE_CURVE ( 'NONE', #649, #535, #645, .T. ) ;
#530 = EDGE_LOOP ( 'NONE', ( #107, #209, #229, #1039, #679, #717, #383, #576 ) ) ;
#531 =( NAMED_UNIT ( * ) PLANE_ANGLE_UNIT ( ) SI_UNIT ( $, .RADIAN. ) );
#532 = CARTESIAN_POINT ( 'NONE',  ( 0.000000000000000000, 0.000000000000000000, 10.75000000000000000 ) ) ;
#533 = DIRECTION ( 'NONE',  ( -0.000000000000000000, -0.000000000000000000, 1.000000000000000000 ) ) ;
#534 = ORIENTED_EDGE ( 'NONE', *, *, #997, .F. ) ;
#535 = VERTEX_POINT ( 'NONE', #925 ) ;
#536 = VECTOR ( 'NONE', #651, 1000.000000000000000 ) ;
#537 = CARTESIAN_POINT ( 'NONE',  ( -3.750000000000003553, 27.50000000000000000, 10.75000000000000000 ) ) ;
#538 = PLANE ( 'NONE',  #890 ) ;
#539 = EDGE_LOOP ( 'NONE', ( #1074, #331 ) ) ;
#540 = VECTOR ( 'NONE', #91, 1000.000000000000000 ) ;
#541 = ORIENTED_EDGE ( 'NONE', *, *, #111, .T. ) ;
#542 = EDGE_CURVE ( 'NONE', #340, #808, #838, .T. ) ;
#543 =( NAMED_UNIT ( * ) SI_UNIT ( $, .STERADIAN. ) SOLID_ANGLE_UNIT ( ) );
#544 = EDGE_CURVE ( 'NONE', #799, #662, #414, .T. ) ;
#545 = CARTESIAN_POINT ( 'NONE',  ( 0.000000000000000000, -27.50000000000000000, 10.75000000000000000 ) ) ;
#546 = PLANE ( 'NONE',  #70 ) ;
#547 = LINE ( 'NONE', #733, #1107 ) ;
#548 = ORIENTED_EDGE ( 'NONE', *, *, #73, .T. ) ;
#549 = AXIS2_PLACEMENT_3D ( 'NONE', #403, #1006, #585 ) ;
#550 = DIRECTION ( 'NONE',  ( -0.000000000000000000, 0.000000000000000000, 1.000000000000000000 ) ) ;
#551 = CARTESIAN_POINT ( 'NONE',  ( 25.50000000000000355, 0.000000000000000000, 19.00000000000000000 ) ) ;
#552 = ADVANCED_FACE ( 'NONE', ( #742 ), #563, .T. ) ;
#553 = LINE ( 'NONE', #895, #703 ) ;
#554 = DIRECTION ( 'NONE',  ( 1.000000000000000000, 0.000000000000000000, 0.000000000000000000 ) ) ;
#555 = VERTEX_POINT ( 'NONE', #161 ) ;
#556 = VERTEX_POINT ( 'NONE', #819 ) ;
#557 = LINE ( 'NONE', #402, #22 ) ;
#558 = CARTESIAN_POINT ( 'NONE',  ( 3.749999999999996447, 27.50000000000000000, 10.75000000000000000 ) ) ;
#559 = EDGE_LOOP ( 'NONE', ( #378, #503, #54, #482 ) ) ;
#560 = ORIENTED_EDGE ( 'NONE', *, *, #199, .T. ) ;
#561 = ADVANCED_FACE ( 'NONE', ( #226 ), #1095, .F. ) ;
#562 = DIRECTION ( 'NONE',  ( 0.000000000000000000, 0.000000000000000000, -1.000000000000000000 ) ) ;
#563 = PLANE ( 'NONE',  #944 ) ;
#564 = CYLINDRICAL_SURFACE ( 'NONE', #241, 32.50000000000000000 ) ;
#565 = VECTOR ( 'NONE', #747, 1000.000000000000000 ) ;
#566 = VERTEX_POINT ( 'NONE', #221 ) ;
#567 = ADVANCED_FACE ( 'NONE', ( #568 ), #142, .F. ) ;
#568 = FACE_OUTER_BOUND ( 'NONE', #1065, .T. ) ;
#569 = VERTEX_POINT ( 'NONE', #485 ) ;
#570 = ORIENTED_EDGE ( 'NONE', *, *, #737, .F. ) ;
#571 = DIRECTION ( 'NONE',  ( -1.000000000000000000, 0.000000000000000000, 0.000000000000000000 ) ) ;
#572 = AXIS2_PLACEMENT_3D ( 'NONE', #445, #533, #113 ) ;
#573 = LINE ( 'NONE', #922, #853 ) ;
#574 = CARTESIAN_POINT ( 'NONE',  ( 0.000000000000000000, 0.000000000000000000, 5.000000000000000000 ) ) ;
#575 = AXIS2_PLACEMENT_3D ( 'NONE', #455, #800, #634 ) ;
#576 = ORIENTED_EDGE ( 'NONE', *, *, #382, .T. ) ;
#577 = EDGE_CURVE ( 'NONE', #947, #1049, #829, .T. ) ;
#578 = DIRECTION ( 'NONE',  ( 1.000000000000000000, 0.000000000000000000, 0.000000000000000000 ) ) ;
#579 = CARTESIAN_POINT ( 'NONE',  ( 0.000000000000000000, 0.000000000000000000, 5.000000000000000000 ) ) ;
#580 = CARTESIAN_POINT ( 'NONE',  ( 0.000000000000000000, 0.000000000000000000, 5.000000000000004441 ) ) ;
#581 = ORIENTED_EDGE ( 'NONE', *, *, #750, .F. ) ;
#582 = AXIS2_PLACEMENT_3D ( 'NONE', #410, #755, #968 ) ;
#583 = CYLINDRICAL_SURFACE ( 'NONE', #277, 2.100000000000000089 ) ;
#584 = EDGE_CURVE ( 'NONE', #662, #905, #1023, .T. ) ;
#585 = DIRECTION ( 'NONE',  ( 1.000000000000000000, 0.000000000000000000, 0.000000000000000000 ) ) ;
#586 = DIRECTION ( 'NONE',  ( -0.000000000000000000, -0.000000000000000000, 1.000000000000000000 ) ) ;
#587 = ORIENTED_EDGE ( 'NONE', *, *, #697, .T. ) ;
#588 = DIRECTION ( 'NONE',  ( 1.000000000000000000, 0.000000000000000000, 0.000000000000000000 ) ) ;
#589 = LINE ( 'NONE', #783, #648 ) ;
#590 = CARTESIAN_POINT ( 'NONE',  ( -32.50000000000000000, 3.980102097228898626E-15, 10.75000000000000000 ) ) ;
#591 = EDGE_CURVE ( 'NONE', #117, #566, #421, .T. ) ;
#592 = ORIENTED_EDGE ( 'NONE', *, *, #713, .F. ) ;
#593 = CIRCLE ( 'NONE', #88, 32.50000000000000000 ) ;
#594 = LINE ( 'NONE', #170, #1080 ) ;
#595 = ADVANCED_FACE ( 'NONE', ( #848 ), #682, .F. ) ;
#596 = AXIS2_PLACEMENT_3D ( 'NONE', #75, #511, #1040 ) ;
#597 = CARTESIAN_POINT ( 'NONE',  ( 1.360147050873544705, 1.600000000000000089, 0.000000000000000000 ) ) ;
#598 = DIRECTION ( 'NONE',  ( -1.000000000000000000, 0.000000000000000000, -0.000000000000000000 ) ) ;
#599 = ORIENTED_EDGE ( 'NONE', *, *, #1119, .F. ) ;
#600 = CARTESIAN_POINT ( 'NONE',  ( 1.360147050873544705, 1.600000000000000089, 19.00000000000000000 ) ) ;
#601 = CYLINDRICAL_SURFACE ( 'NONE', #845, 2.100000000000000089 ) ;
#602 = VECTOR ( 'NONE', #722, 1000.000000000000000 ) ;
#603 = EDGE_LOOP ( 'NONE', ( #723, #642, #781, #1012 ) ) ;
#604 = CARTESIAN_POINT ( 'NONE',  ( -32.50000000000000000, 3.980102097228898626E-15, 19.00000000000000000 ) ) ;
#605 = DIRECTION ( 'NONE',  ( -0.000000000000000000, -0.000000000000000000, 1.000000000000000000 ) ) ;
#606 = DIRECTION ( 'NONE',  ( 1.000000000000000000, 0.000000000000000000, 0.000000000000000000 ) ) ;
#607 = VERTEX_POINT ( 'NONE', #860 ) ;
#608 = ORIENTED_EDGE ( 'NONE', *, *, #863, .F. ) ;
#609 = VECTOR ( 'NONE', #105, 1000.000000000000000 ) ;
#610 = CARTESIAN_POINT ( 'NONE',  ( 0.000000000000000000, 0.000000000000000000, 10.75000000000000000 ) ) ;
#611 = DIRECTION ( 'NONE',  ( 1.000000000000000000, 0.000000000000000000, 0.000000000000000000 ) ) ;
#612 = ORIENTED_EDGE ( 'NONE', *, *, #893, .T. ) ;
#613 = EDGE_CURVE ( 'NONE', #158, #619, #693, .T. ) ;
#614 = ORIENTED_EDGE ( 'NONE', *, *, #301, .F. ) ;
#615 = LINE ( 'NONE', #961, #305 ) ;
#616 = CARTESIAN_POINT ( 'NONE',  ( 3.749999999999996447, 27.50000000000000000, 10.75000000000000000 ) ) ;
#617 = CIRCLE ( 'NONE', #582, 32.50000000000000000 ) ;
#618 = DIRECTION ( 'NONE',  ( -0.000000000000000000, -0.000000000000000000, 1.000000000000000000 ) ) ;
#619 = VERTEX_POINT ( 'NONE', #1118 ) ;
#620 = ORIENTED_EDGE ( 'NONE', *, *, #386, .T. ) ;
#621 = LINE ( 'NONE', #726, #106 ) ;
#622 = EDGE_LOOP ( 'NONE', ( #743, #300, #395, #952 ) ) ;
#623 = CIRCLE ( 'NONE', #86, 27.50000000000000000 ) ;
#624 = EDGE_CURVE ( 'NONE', #1103, #205, #252, .T. ) ;
#625 = ORIENTED_EDGE ( 'NONE', *, *, #670, .F. ) ;
#626 = DIRECTION ( 'NONE',  ( 1.000000000000000000, 0.000000000000000000, 0.000000000000000000 ) ) ;
#627 = AXIS2_PLACEMENT_3D ( 'NONE', #289, #449, #628 ) ;
#628 = DIRECTION ( 'NONE',  ( 0.000000000000000000, 0.000000000000000000, 1.000000000000000000 ) ) ;
#629 = FACE_OUTER_BOUND ( 'NONE', #996, .T. ) ;
#630 = FACE_OUTER_BOUND ( 'NONE', #559, .T. ) ;
#631 = ORIENTED_EDGE ( 'NONE', *, *, #827, .T. ) ;
#632 = CIRCLE ( 'NONE', #1028, 32.50000000000000000 ) ;
#633 = CARTESIAN_POINT ( 'NONE',  ( 0.000000000000000000, 0.000000000000000000, 0.000000000000000000 ) ) ;
#634 = DIRECTION ( 'NONE',  ( 1.000000000000000000, 0.000000000000000000, 0.000000000000000000 ) ) ;
#635 = VECTOR ( 'NONE', #234, 1000.000000000000000 ) ;
#636 = DIRECTION ( 'NONE',  ( -0.000000000000000000, 0.000000000000000000, 1.000000000000000000 ) ) ;
#637 = LINE ( 'NONE', #714, #129 ) ;
#638 = ORIENTED_EDGE ( 'NONE', *, *, #846, .F. ) ;
#639 = ORIENTED_EDGE ( 'NONE', *, *, #756, .T. ) ;
#640 = LINE ( 'NONE', #545, #399 ) ;
#641 = CARTESIAN_POINT ( 'NONE',  ( 0.000000000000000000, 32.50000000000000000, 19.00000000000000000 ) ) ;
#642 = ORIENTED_EDGE ( 'NONE', *, *, #817, .F. ) ;
#643 = VERTEX_POINT ( 'NONE', #247 ) ;
#644 = FACE_OUTER_BOUND ( 'NONE', #47, .T. ) ;
#645 = LINE ( 'NONE', #754, #120 ) ;
#646 = ADVANCED_FACE ( 'NONE', ( #774 ), #1123, .F. ) ;
#647 = CARTESIAN_POINT ( 'NONE',  ( -3.750000000000003553, 27.50000000000000000, 13.99999999999999822 ) ) ;
#648 = VECTOR ( 'NONE', #945, 1000.000000000000000 ) ;
#649 = VERTEX_POINT ( 'NONE', #87 ) ;
#650 = APPLICATION_CONTEXT ( 'automotive_design' ) ;
#651 = DIRECTION ( 'NONE',  ( 0.000000000000000000, 0.000000000000000000, -1.000000000000000000 ) ) ;
#652 = CARTESIAN_POINT ( 'NONE',  ( -3.750000000000003553, 27.50000000000000000, 13.99999999999999822 ) ) ;
#653 = CARTESIAN_POINT ( 'NONE',  ( -27.50000000000000000, 3.367778697655221307E-15, 10.75000000000000000 ) ) ;
#654 = AXIS2_PLACEMENT_3D ( 'NONE', #141, #50, #758 ) ;
#655 = ORIENTED_EDGE ( 'NONE', *, *, #718, .T. ) ;
#656 = CARTESIAN_POINT ( 'NONE',  ( 0.000000000000000000, 0.000000000000000000, 5.000000000000002665 ) ) ;
#657 = VECTOR ( 'NONE', #908, 1000.000000000000000 ) ;
#658 = CARTESIAN_POINT ( 'NONE',  ( -3.750000000000003553, 27.50000000000000000, 13.99999999999999822 ) ) ;
#659 = DIRECTION ( 'NONE',  ( -0.000000000000000000, -0.000000000000000000, 1.000000000000000000 ) ) ;
#660 = DIRECTION ( 'NONE',  ( 1.000000000000000000, 0.000000000000000000, 0.000000000000000000 ) ) ;
#661 = ADVANCED_FACE ( 'NONE', ( #1111 ), #698, .F. ) ;
#662 = VERTEX_POINT ( 'NONE', #269 ) ;
#663 = CARTESIAN_POINT ( 'NONE',  ( 3.749999999999996447, 32.50000000000000000, 8.250000000000000000 ) ) ;
#664 = ADVANCED_FACE ( 'NONE', ( #177 ), #854, .T. ) ;
#665 = DIRECTION ( 'NONE',  ( -0.000000000000000000, -0.000000000000000000, 1.000000000000000000 ) ) ;
#666 = APPLICATION_CONTEXT ( 'automotive_design' ) ;
#667 = CARTESIAN_POINT ( 'NONE',  ( -3.750000000000003553, -32.28292892536239833, 5.000000000000000000 ) ) ;
#668 = VERTEX_POINT ( 'NONE', #69 ) ;
#669 = CIRCLE ( 'NONE', #762, 2.100000000000000089 ) ;
#670 = EDGE_CURVE ( 'NONE', #205, #168, #521, .T. ) ;
#671 = FACE_OUTER_BOUND ( 'NONE', #498, .T. ) ;
#672 = CARTESIAN_POINT ( 'NONE',  ( -3.750000000000003553, -27.50000000000000000, 13.99999999999999822 ) ) ;
#673 = DIRECTION ( 'NONE',  ( -0.000000000000000000, -0.000000000000000000, 1.000000000000000000 ) ) ;
#674 = VERTEX_POINT ( 'NONE', #431 ) ;
#675 = CIRCLE ( 'NONE', #441, 25.50000000000000355 ) ;
#676 = FACE_OUTER_BOUND ( 'NONE', #246, .T. ) ;
#677 = LINE ( 'NONE', #9, #882 ) ;
#678 = DIRECTION ( 'NONE',  ( 0.000000000000000000, 0.000000000000000000, -1.000000000000000000 ) ) ;
#679 = ORIENTED_EDGE ( 'NONE', *, *, #134, .T. ) ;
#680 = EDGE_CURVE ( 'NONE', #1049, #790, #744, .T. ) ;
#681 = DIRECTION ( 'NONE',  ( 0.000000000000000000, 0.000000000000000000, -1.000000000000000000 ) ) ;
#682 = PLANE ( 'NONE',  #346 ) ;
#683 = DIRECTION ( 'NONE',  ( 1.000000000000000000, 0.000000000000000000, 0.000000000000000000 ) ) ;
#684 = EDGE_CURVE ( 'NONE', #757, #918, #501, .T. ) ;
#685 = EDGE_LOOP ( 'NONE', ( #286, #885, #897, #599 ) ) ;
#686 = CIRCLE ( 'NONE', #203, 32.50000000000000000 ) ;
#687 = DIRECTION ( 'NONE',  ( -0.000000000000000000, -0.000000000000000000, -1.000000000000000000 ) ) ;
#688 = CIRCLE ( 'NONE', #150, 32.50000000000000000 ) ;
#689 = DIRECTION ( 'NONE',  ( -0.000000000000000000, -0.000000000000000000, 1.000000000000000000 ) ) ;
#690 = CARTESIAN_POINT ( 'NONE',  ( 3.749999999999996447, 32.28292892536239833, 5.000000000000000000 ) ) ;
#691 = EDGE_LOOP ( 'NONE', ( #217, #620, #844, #911, #1109, #519 ) ) ;
#692 = PLANE ( 'NONE',  #907 ) ;
#693 = LINE ( 'NONE', #171, #52 ) ;
#694 = DIRECTION ( 'NONE',  ( -0.000000000000000000, -0.000000000000000000, 1.000000000000000000 ) ) ;
#695 = AXIS2_PLACEMENT_3D ( 'NONE', #759, #1000, #238 ) ;
#696 = ORIENTED_EDGE ( 'NONE', *, *, #904, .F. ) ;
#697 = EDGE_CURVE ( 'NONE', #471, #905, #440, .T. ) ;
#698 = PLANE ( 'NONE',  #596 ) ;
#699 = EDGE_CURVE ( 'NONE', #309, #179, #589, .T. ) ;
#700 = DIRECTION ( 'NONE',  ( -0.000000000000000000, -0.000000000000000000, 1.000000000000000000 ) ) ;
#701 = EDGE_LOOP ( 'NONE', ( #412, #830, #401, #389, #708, #323, #696, #608 ) ) ;
#702 = EDGE_CURVE ( 'NONE', #607, #556, #677, .T. ) ;
#703 = VECTOR ( 'NONE', #125, 1000.000000000000000 ) ;
#704 = ADVANCED_BREP_SHAPE_REPRESENTATION ( 'wheel_rim', ( #364, #929 ), #11 ) ;
#705 = PLANE ( 'NONE',  #627 ) ;
#706 = DIRECTION ( 'NONE',  ( -0.000000000000000000, -0.000000000000000000, -1.000000000000000000 ) ) ;
#707 = CARTESIAN_POINT ( 'NONE',  ( 3.749999999999996447, 32.28292892536239833, 5.000000000000000000 ) ) ;
#708 = ORIENTED_EDGE ( 'NONE', *, *, #499, .T. ) ;
#709 = ORIENTED_EDGE ( 'NONE', *, *, #198, .F. ) ;
#710 = LINE ( 'NONE', #719, #985 ) ;
#711 = AXIS2_PLACEMENT_3D ( 'NONE', #1033, #332, #349 ) ;
#712 = DIRECTION ( 'NONE',  ( -1.000000000000000000, 0.000000000000000000, 0.000000000000000000 ) ) ;
#713 = EDGE_CURVE ( 'NONE', #89, #971, #778, .T. ) ;
#714 = CARTESIAN_POINT ( 'NONE',  ( -27.50000000000000000, 3.367778697655221307E-15, 5.000000000000000000 ) ) ;
#715 = ORIENTED_EDGE ( 'NONE', *, *, #268, .F. ) ;
#716 = CIRCLE ( 'NONE', #409, 27.50000000000000000 ) ;
#717 = ORIENTED_EDGE ( 'NONE', *, *, #480, .F. ) ;
#718 = EDGE_CURVE ( 'NONE', #96, #372, #632, .T. ) ;
#719 = CARTESIAN_POINT ( 'NONE',  ( 3.749999999999996447, 27.50000000000000000, 13.99999999999999822 ) ) ;
#720 = DIRECTION ( 'NONE',  ( -0.000000000000000000, -0.000000000000000000, 1.000000000000000000 ) ) ;
#721 = CARTESIAN_POINT ( 'NONE',  ( 0.000000000000000000, 0.000000000000000000, 8.250000000000000000 ) ) ;
#722 = DIRECTION ( 'NONE',  ( -0.000000000000000000, -0.000000000000000000, 1.000000000000000000 ) ) ;
#723 = ORIENTED_EDGE ( 'NONE', *, *, #78, .T. ) ;
#724 = VECTOR ( 'NONE', #201, 1000.000000000000000 ) ;
#725 = ORIENTED_EDGE ( 'NONE', *, *, #97, .F. ) ;
#726 = CARTESIAN_POINT ( 'NONE',  ( -3.750000000000003553, -27.50000000000000000, 13.99999999999999822 ) ) ;
#727 = CARTESIAN_POINT ( 'NONE',  ( -27.50000000000000000, 3.367778697655221307E-15, 8.250000000000000000 ) ) ;
#728 = CARTESIAN_POINT ( 'NONE',  ( -3.750000000000003553, -32.28292892536239833, 10.75000000000000000 ) ) ;
#729 = CARTESIAN_POINT ( 'NONE',  ( 0.000000000000000000, 0.000000000000000000, 5.000000000000000000 ) ) ;
#730 = ORIENTED_EDGE ( 'NONE', *, *, #1090, .F. ) ;
#731 = CARTESIAN_POINT ( 'NONE',  ( 3.749999999999996447, 27.50000000000000000, 13.99999999999999822 ) ) ;
#732 = CIRCLE ( 'NONE', #868, 2.100000000000000089 ) ;
#733 = CARTESIAN_POINT ( 'NONE',  ( 0.000000000000000000, -27.49999999999999645, 8.250000000000000000 ) ) ;
#734 = ORIENTED_EDGE ( 'NONE', *, *, #1122, .F. ) ;
#735 = AXIS2_PLACEMENT_3D ( 'NONE', #194, #104, #1055 ) ;
#736 = EDGE_LOOP ( 'NONE', ( #259, #100, #469, #267 ) ) ;
#737 = EDGE_CURVE ( 'NONE', #909, #1079, #688, .T. ) ;
#738 = PLANE ( 'NONE',  #261 ) ;
#739 = VERTEX_POINT ( 'NONE', #200 ) ;
#740 = ORIENTED_EDGE ( 'NONE', *, *, #1102, .F. ) ;
#741 = CIRCLE ( 'NONE', #777, 2.100000000000000089 ) ;
#742 = FACE_OUTER_BOUND ( 'NONE', #603, .T. ) ;
#743 = ORIENTED_EDGE ( 'NONE', *, *, #1029, .F. ) ;
#744 = CIRCLE ( 'NONE', #832, 25.50000000000000355 ) ;
#745 = ORIENTED_EDGE ( 'NONE', *, *, #362, .F. ) ;
#746 = CARTESIAN_POINT ( 'NONE',  ( -3.750000000000003553, 27.50000000000000000, 13.99999999999999822 ) ) ;
#747 = DIRECTION ( 'NONE',  ( 0.000000000000000000, 0.000000000000000000, -1.000000000000000000 ) ) ;
#748 = DIRECTION ( 'NONE',  ( 1.000000000000000000, 0.000000000000000000, 0.000000000000000000 ) ) ;
#749 = EDGE_LOOP ( 'NONE', ( #867, #1121, #266, #1007 ) ) ;
#750 = EDGE_CURVE ( 'NONE', #1091, #1103, #1045, .T. ) ;
#751 = EDGE_LOOP ( 'NONE', ( #33, #826, #560, #363, #1057, #204 ) ) ;
#752 = VECTOR ( 'NONE', #659, 1000.000000000000000 ) ;
#753 = CYLINDRICAL_SURFACE ( 'NONE', #458, 27.50000000000000000 ) ;
#754 = CARTESIAN_POINT ( 'NONE',  ( 3.749999999999996447, 27.50000000000000000, 10.75000000000000000 ) ) ;
#755 = DIRECTION ( 'NONE',  ( 0.000000000000000000, 0.000000000000000000, -1.000000000000000000 ) ) ;
#756 = EDGE_CURVE ( 'NONE', #566, #48, #206, .T. ) ;
#757 = VERTEX_POINT ( 'NONE', #367 ) ;
#758 = DIRECTION ( 'NONE',  ( 0.000000000000000000, -0.000000000000000000, -1.000000000000000000 ) ) ;
#759 = CARTESIAN_POINT ( 'NONE',  ( 0.000000000000000000, 32.50000000000000000, 8.250000000000000000 ) ) ;
#760 = CARTESIAN_POINT ( 'NONE',  ( -3.750000000000003553, 27.50000000000000000, 8.250000000000000000 ) ) ;
#761 = ORIENTED_EDGE ( 'NONE', *, *, #912, .T. ) ;
#762 = AXIS2_PLACEMENT_3D ( 'NONE', #656, #1004, #231 ) ;
#763 = DIRECTION ( 'NONE',  ( 0.000000000000000000, 1.000000000000000000, 0.000000000000000000 ) ) ;
#764 = DIRECTION ( 'NONE',  ( -0.000000000000000000, -0.000000000000000000, 1.000000000000000000 ) ) ;
#765 = VERTEX_POINT ( 'NONE', #463 ) ;
#766 = VECTOR ( 'NONE', #841, 1000.000000000000000 ) ;
#767 = VECTOR ( 'NONE', #339, 1000.000000000000000 ) ;
#768 = EDGE_CURVE ( 'NONE', #905, #668, #741, .T. ) ;
#769 = DIRECTION ( 'NONE',  ( -0.000000000000000000, -0.000000000000000000, 1.000000000000000000 ) ) ;
#770 = DIRECTION ( 'NONE',  ( 1.000000000000000000, 0.000000000000000000, 0.000000000000000000 ) ) ;
#771 = ORIENTED_EDGE ( 'NONE', *, *, #447, .T. ) ;
#772 = FACE_OUTER_BOUND ( 'NONE', #21, .T. ) ;
#773 = CIRCLE ( 'NONE', #235, 25.50000000000000355 ) ;
#774 = FACE_OUTER_BOUND ( 'NONE', #1032, .T. ) ;
#775 = CARTESIAN_POINT ( 'NONE',  ( 25.50000000000000355, 0.000000000000000000, 5.000000000000000000 ) ) ;
#776 = ORIENTED_EDGE ( 'NONE', *, *, #185, .T. ) ;
#777 = AXIS2_PLACEMENT_3D ( 'NONE', #444, #207, #17 ) ;
#778 = LINE ( 'NONE', #934, #254 ) ;
#779 = EDGE_CURVE ( 'NONE', #668, #765, #1025, .T. ) ;
#780 = CARTESIAN_POINT ( 'NONE',  ( -32.50000000000000000, 3.980102097228898626E-15, 5.000000000000000000 ) ) ;
#781 = ORIENTED_EDGE ( 'NONE', *, *, #613, .T. ) ;
#782 = CIRCLE ( 'NONE', #391, 32.50000000000000000 ) ;
#783 = CARTESIAN_POINT ( 'NONE',  ( 32.50000000000000000, 0.000000000000000000, 5.000000000000000000 ) ) ;
#784 = DIRECTION ( 'NONE',  ( -0.000000000000000000, -0.000000000000000000, 1.000000000000000000 ) ) ;
#785 = ORIENTED_EDGE ( 'NONE', *, *, #44, .F. ) ;
#786 = VECTOR ( 'NONE', #29, 1000.000000000000000 ) ;
#787 = EDGE_LOOP ( 'NONE', ( #917, #416 ) ) ;
#788 = DIRECTION ( 'NONE',  ( -1.000000000000000000, 0.000000000000000000, 0.000000000000000000 ) ) ;
#789 = LINE ( 'NONE', #275, #288 ) ;
#790 = VERTEX_POINT ( 'NONE', #551 ) ;
#791 = ADVANCED_FACE ( 'NONE', ( #811 ), #705, .T. ) ;
#792 = EDGE_CURVE ( 'NONE', #443, #1042, #210, .T. ) ;
#793 = AXIS2_PLACEMENT_3D ( 'NONE', #980, #119, #23 ) ;
#794 = CARTESIAN_POINT ( 'NONE',  ( 0.000000000000000000, 0.000000000000000000, 8.250000000000000000 ) ) ;
#795 = LINE ( 'NONE', #18, #724 ) ;
#796 = CARTESIAN_POINT ( 'NONE',  ( -3.750000000000003553, -27.50000000000000000, 10.75000000000000000 ) ) ;
#797 = EDGE_CURVE ( 'NONE', #1079, #523, #593, .T. ) ;
#798 = ORIENTED_EDGE ( 'NONE', *, *, #792, .F. ) ;
#799 = VERTEX_POINT ( 'NONE', #381 ) ;
#800 = DIRECTION ( 'NONE',  ( 0.000000000000000000, -0.000000000000000000, 1.000000000000000000 ) ) ;
#801 = LINE ( 'NONE', #258, #919 ) ;
#802 =( NAMED_UNIT ( * ) SI_UNIT ( $, .STERADIAN. ) SOLID_ANGLE_UNIT ( ) );
#803 = ORIENTED_EDGE ( 'NONE', *, *, #797, .F. ) ;
#804 = AXIS2_PLACEMENT_3D ( 'NONE', #1089, #835, #329 ) ;
#805 = ORIENTED_EDGE ( 'NONE', *, *, #303, .F. ) ;
#806 = DIRECTION ( 'NONE',  ( -0.000000000000000000, -1.000000000000000000, -0.000000000000000000 ) ) ;
#807 = CARTESIAN_POINT ( 'NONE',  ( 3.749999999999996447, 27.50000000000000000, 13.99999999999999822 ) ) ;
#808 = VERTEX_POINT ( 'NONE', #731 ) ;
#809 = ORIENTED_EDGE ( 'NONE', *, *, #447, .F. ) ;
#810 = PLANE ( 'NONE',  #262 ) ;
#811 = FACE_OUTER_BOUND ( 'NONE', #101, .T. ) ;
#812 =( GEOMETRIC_REPRESENTATION_CONTEXT ( 3 ) GLOBAL_UNCERTAINTY_ASSIGNED_CONTEXT ( ( #1087 ) ) GLOBAL_UNIT_ASSIGNED_CONTEXT ( ( #902, #964, #802 ) ) REPRESENTATION_CONTEXT ( 'NONE', 'WORKASPACE' ) );
#813 = DIRECTION ( 'NONE',  ( 0.000000000000000000, -1.000000000000000000, 0.000000000000000000 ) ) ;
#814 = EDGE_CURVE ( 'NONE', #240, #404, #1075, .T. ) ;
#815 = DIRECTION ( 'NONE',  ( 0.000000000000000000, 0.000000000000000000, -1.000000000000000000 ) ) ;
#816 = EDGE_LOOP ( 'NONE', ( #548, #1083, #570, #438, #1114, #492, #85, #196 ) ) ;
#817 = EDGE_CURVE ( 'NONE', #158, #223, #963, .T. ) ;
#818 = CARTESIAN_POINT ( 'NONE',  ( 3.749999999999996447, 32.28292892536239833, 8.250000000000000000 ) ) ;
#819 = CARTESIAN_POINT ( 'NONE',  ( 32.50000000000000000, 0.000000000000000000, 8.250000000000000000 ) ) ;
#820 = CARTESIAN_POINT ( 'NONE',  ( -3.750000000000003553, 32.28292892536239833, 5.000000000000000000 ) ) ;
#821 = AXIS2_PLACEMENT_3D ( 'NONE', #574, #764, #248 ) ;
#822 = ORIENTED_EDGE ( 'NONE', *, *, #857, .T. ) ;
#823 = CARTESIAN_POINT ( 'NONE',  ( 1.360147050873544705, 1.600000000000000089, 0.000000000000000000 ) ) ;
#824 = DIRECTION ( 'NONE',  ( 0.000000000000000000, 1.000000000000000000, -0.000000000000000000 ) ) ;
#825 = ORIENTED_EDGE ( 'NONE', *, *, #396, .F. ) ;
#826 = ORIENTED_EDGE ( 'NONE', *, *, #115, .T. ) ;
#827 = EDGE_CURVE ( 'NONE', #739, #143, #621, .T. ) ;
#828 = CIRCLE ( 'NONE', #342, 32.50000000000000000 ) ;
#829 = LINE ( 'NONE', #320, #752 ) ;
#830 = ORIENTED_EDGE ( 'NONE', *, *, #846, .T. ) ;
#831 = EDGE_CURVE ( 'NONE', #357, #117, #967, .T. ) ;
#832 = AXIS2_PLACEMENT_3D ( 'NONE', #865, #1030, #334 ) ;
#833 = ORIENTED_EDGE ( 'NONE', *, *, #268, .T. ) ;
#834 = LINE ( 'NONE', #479, #565 ) ;
#835 = DIRECTION ( 'NONE',  ( 0.000000000000000000, 0.000000000000000000, -1.000000000000000000 ) ) ;
#836 = CARTESIAN_POINT ( 'NONE',  ( 3.749999999999996447, 32.28292892536239833, 13.99999999999999822 ) ) ;
#837 = ORIENTED_EDGE ( 'NONE', *, *, #57, .F. ) ;
#838 = LINE ( 'NONE', #652, #24 ) ;
#839 = LINE ( 'NONE', #775, #1115 ) ;
#840 = VERTEX_POINT ( 'NONE', #358 ) ;
#841 = DIRECTION ( 'NONE',  ( -0.000000000000000000, 1.000000000000000000, -0.000000000000000000 ) ) ;
#842 = CARTESIAN_POINT ( 'NONE',  ( 0.000000000000000000, 0.000000000000000000, 8.250000000000000000 ) ) ;
#843 = DIRECTION ( 'NONE',  ( 1.000000000000000000, 0.000000000000000000, 0.000000000000000000 ) ) ;
#844 = ORIENTED_EDGE ( 'NONE', *, *, #756, .F. ) ;
#845 = AXIS2_PLACEMENT_3D ( 'NONE', #359, #706, #1036 ) ;
#846 = EDGE_CURVE ( 'NONE', #649, #240, #640, .T. ) ;
#847 = CARTESIAN_POINT ( 'NONE',  ( 3.749999999999996447, -27.50000000000000000, 13.99999999999999822 ) ) ;
#848 = FACE_OUTER_BOUND ( 'NONE', #486, .T. ) ;
#849 = CARTESIAN_POINT ( 'NONE',  ( -3.750000000000003553, -27.50000000000000000, 5.000000000000000000 ) ) ;
#850 = ORIENTED_EDGE ( 'NONE', *, *, #831, .F. ) ;
#851 = CIRCLE ( 'NONE', #1051, 32.50000000000000000 ) ;
#852 = CARTESIAN_POINT ( 'NONE',  ( -32.50000000000000000, 3.980102097228898626E-15, 5.000000000000000000 ) ) ;
#853 = VECTOR ( 'NONE', #151, 1000.000000000000000 ) ;
#854 = CYLINDRICAL_SURFACE ( 'NONE', #109, 27.50000000000000000 ) ;
#855 = CARTESIAN_POINT ( 'NONE',  ( 3.749999999999996447, 27.50000000000000000, 8.250000000000000000 ) ) ;
#856 = ORIENTED_EDGE ( 'NONE', *, *, #750, .T. ) ;
#857 = EDGE_CURVE ( 'NONE', #174, #607, #921, .T. ) ;
#858 = DIRECTION ( 'NONE',  ( 0.000000000000000000, 0.000000000000000000, -1.000000000000000000 ) ) ;
#859 = VECTOR ( 'NONE', #351, 1000.000000000000000 ) ;
#860 = CARTESIAN_POINT ( 'NONE',  ( 32.50000000000000000, 0.000000000000000000, 0.000000000000000000 ) ) ;
#861 = DIRECTION ( 'NONE',  ( 1.000000000000000000, 0.000000000000000000, 0.000000000000000000 ) ) ;
#862 = ORIENTED_EDGE ( 'NONE', *, *, #280, .F. ) ;
#863 = EDGE_CURVE ( 'NONE', #535, #309, #828, .T. ) ;
#864 = DIRECTION ( 'NONE',  ( -0.000000000000000000, -0.000000000000000000, -1.000000000000000000 ) ) ;
#865 = CARTESIAN_POINT ( 'NONE',  ( 0.000000000000000000, 0.000000000000000000, 19.00000000000000000 ) ) ;
#866 = DIRECTION ( 'NONE',  ( -0.000000000000000000, -0.000000000000000000, 1.000000000000000000 ) ) ;
#867 = ORIENTED_EDGE ( 'NONE', *, *, #1046, .F. ) ;
#868 = AXIS2_PLACEMENT_3D ( 'NONE', #123, #815, #314 ) ;
#869 = CARTESIAN_POINT ( 'NONE',  ( 0.000000000000000000, 0.000000000000000000, 13.99999999999999822 ) ) ;
#870 = AXIS2_PLACEMENT_3D ( 'NONE', #84, #491, #1101 ) ;
#871 = FACE_OUTER_BOUND ( 'NONE', #816, .T. ) ;
#872 = ORIENTED_EDGE ( 'NONE', *, *, #670, .T. ) ;
#873 = EDGE_LOOP ( 'NONE', ( #805, #822, #889, #1078, #581, #725, #250, #803 ) ) ;
#874 = ADVANCED_FACE ( 'NONE', ( #871 ), #875, .T. ) ;
#875 = CYLINDRICAL_SURFACE ( 'NONE', #487, 32.50000000000000000 ) ;
#876 = CARTESIAN_POINT ( 'NONE',  ( 0.000000000000000000, 0.000000000000000000, 8.250000000000000000 ) ) ;
#877 = FACE_OUTER_BOUND ( 'NONE', #787, .T. ) ;
#878 = ORIENTED_EDGE ( 'NONE', *, *, #699, .F. ) ;
#879 = ORIENTED_EDGE ( 'NONE', *, *, #382, .F. ) ;
#880 = VECTOR ( 'NONE', #806, 1000.000000000000000 ) ;
#881 = ADVANCED_FACE ( 'NONE', ( #103, #295 ), #112, .F. ) ;
#882 = VECTOR ( 'NONE', #436, 1000.000000000000000 ) ;
#883 = DIRECTION ( 'NONE',  ( -0.000000000000000000, -0.000000000000000000, 1.000000000000000000 ) ) ;
#884 = ORIENTED_EDGE ( 'NONE', *, *, #92, .F. ) ;
#885 = ORIENTED_EDGE ( 'NONE', *, *, #542, .F. ) ;
#886 = DIRECTION ( 'NONE',  ( -0.000000000000000000, -0.000000000000000000, 1.000000000000000000 ) ) ;
#887 = CARTESIAN_POINT ( 'NONE',  ( 3.749999999999996447, 27.50000000000000000, 5.000000000000000000 ) ) ;
#888 = PLANE ( 'NONE',  #470 ) ;
#889 = ORIENTED_EDGE ( 'NONE', *, *, #702, .T. ) ;
#890 = AXIS2_PLACEMENT_3D ( 'NONE', #641, #988, #451 ) ;
#891 = AXIS2_PLACEMENT_3D ( 'NONE', #847, #74, #1022 ) ;
#892 = DIRECTION ( 'NONE',  ( -0.000000000000000000, 1.000000000000000000, -0.000000000000000000 ) ) ;
#893 = EDGE_CURVE ( 'NONE', #1092, #357, #392, .T. ) ;
#894 = DIRECTION ( 'NONE',  ( -0.000000000000000000, -0.000000000000000000, 1.000000000000000000 ) ) ;
#895 = CARTESIAN_POINT ( 'NONE',  ( 2.100000000000000089, 2.571758278209441957E-16, 19.00000000000000000 ) ) ;
#896 = CARTESIAN_POINT ( 'NONE',  ( -3.750000000000003553, 27.50000000000000000, 10.75000000000000000 ) ) ;
#897 = ORIENTED_EDGE ( 'NONE', *, *, #57, .T. ) ;
#898 = ORIENTED_EDGE ( 'NONE', *, *, #544, .T. ) ;
#899 = EDGE_CURVE ( 'NONE', #569, #566, #972, .T. ) ;
#900 = CARTESIAN_POINT ( 'NONE',  ( -3.750000000000003553, 32.28292892536239833, 5.000000000000000000 ) ) ;
#901 = CIRCLE ( 'NONE', #1043, 32.50000000000000000 ) ;
#902 =( LENGTH_UNIT ( ) NAMED_UNIT ( * ) SI_UNIT ( .MILLI., .METRE. ) );
#903 = FACE_OUTER_BOUND ( 'NONE', #1001, .T. ) ;
#904 = EDGE_CURVE ( 'NONE', #309, #1042, #686, .T. ) ;
#905 = VERTEX_POINT ( 'NONE', #823 ) ;
#906 = DIRECTION ( 'NONE',  ( -0.000000000000000000, -0.000000000000000000, -1.000000000000000000 ) ) ;
#907 = AXIS2_PLACEMENT_3D ( 'NONE', #504, #588, #858 ) ;
#908 = DIRECTION ( 'NONE',  ( -0.000000000000000000, -0.000000000000000000, -1.000000000000000000 ) ) ;
#909 = VERTEX_POINT ( 'NONE', #1005 ) ;
#910 = VECTOR ( 'NONE', #512, 1000.000000000000000 ) ;
#911 = ORIENTED_EDGE ( 'NONE', *, *, #899, .F. ) ;
#912 = EDGE_CURVE ( 'NONE', #808, #443, #232, .T. ) ;
#913 = ADVANCED_FACE ( 'NONE', ( #644 ), #1081, .F. ) ;
#914 = DIRECTION ( 'NONE',  ( 0.000000000000000000, 0.000000000000000000, -1.000000000000000000 ) ) ;
#915 = EDGE_CURVE ( 'NONE', #765, #662, #76, .T. ) ;
#916 = FACE_OUTER_BOUND ( 'NONE', #15, .T. ) ;
#917 = ORIENTED_EDGE ( 'NONE', *, *, #280, .T. ) ;
#918 = VERTEX_POINT ( 'NONE', #986 ) ;
#919 = VECTOR ( 'NONE', #265, 1000.000000000000000 ) ;
#920 = CARTESIAN_POINT ( 'NONE',  ( 0.000000000000000000, 0.000000000000000000, 10.75000000000000000 ) ) ;
#921 = CIRCLE ( 'NONE', #147, 32.50000000000000000 ) ;
#922 = CARTESIAN_POINT ( 'NONE',  ( 0.000000000000000000, -27.49999999999999645, 8.250000000000000000 ) ) ;
#923 = CARTESIAN_POINT ( 'NONE',  ( -3.750000000000003553, 27.50000000000000000, 10.75000000000000000 ) ) ;
#924 = ORIENTED_EDGE ( 'NONE', *, *, #591, .T. ) ;
#925 = CARTESIAN_POINT ( 'NONE',  ( 3.749999999999995559, -32.28292892536239123, 10.75000000000000000 ) ) ;
#926 = CARTESIAN_POINT ( 'NONE',  ( 0.000000000000000000, 0.000000000000000000, 5.000000000000000000 ) ) ;
#927 = EDGE_LOOP ( 'NONE', ( #12, #153, #476, #884 ) ) ;
#928 = CARTESIAN_POINT ( 'NONE',  ( 3.749999999999996447, 32.28292892536239833, 10.75000000000000000 ) ) ;
#929 = AXIS2_PLACEMENT_3D ( 'NONE', #633, #102, #16 ) ;
#930 = DIRECTION ( 'NONE',  ( 0.000000000000000000, 0.000000000000000000, -1.000000000000000000 ) ) ;
#931 = DIRECTION ( 'NONE',  ( 1.000000000000000000, 0.000000000000000000, 0.000000000000000000 ) ) ;
#932 = ORIENTED_EDGE ( 'NONE', *, *, #1084, .T. ) ;
#933 = PLANE ( 'NONE',  #891 ) ;
#934 = CARTESIAN_POINT ( 'NONE',  ( 3.749999999999996447, 32.28292892536239833, 5.000000000000000000 ) ) ;
#935 = DIRECTION ( 'NONE',  ( -0.000000000000000000, -0.000000000000000000, 1.000000000000000000 ) ) ;
#936 = ORIENTED_EDGE ( 'NONE', *, *, #1119, .T. ) ;
#937 = VECTOR ( 'NONE', #343, 1000.000000000000000 ) ;
#938 = LINE ( 'NONE', #118, #786 ) ;
#939 = CARTESIAN_POINT ( 'NONE',  ( 3.749999999999996447, 32.50000000000000000, 8.250000000000000000 ) ) ;
#940 = PLANE ( 'NONE',  #870 ) ;
#941 = ORIENTED_EDGE ( 'NONE', *, *, #333, .F. ) ;
#942 = ADVANCED_FACE ( 'NONE', ( #991, #220 ), #214, .F. ) ;
#943 = PLANE ( 'NONE',  #711 ) ;
#944 = AXIS2_PLACEMENT_3D ( 'NONE', #672, #243, #930 ) ;
#945 = DIRECTION ( 'NONE',  ( -0.000000000000000000, -0.000000000000000000, 1.000000000000000000 ) ) ;
#946 = DIRECTION ( 'NONE',  ( 0.000000000000000000, 0.000000000000000000, -1.000000000000000000 ) ) ;
#947 = VERTEX_POINT ( 'NONE', #237 ) ;
#948 = DIRECTION ( 'NONE',  ( -1.000000000000000000, 0.000000000000000000, 0.000000000000000000 ) ) ;
#949 = EDGE_CURVE ( 'NONE', #72, #89, #851, .T. ) ;
#950 = DIRECTION ( 'NONE',  ( 1.000000000000000000, 0.000000000000000000, 0.000000000000000000 ) ) ;
#951 = CARTESIAN_POINT ( 'NONE',  ( 27.50000000000000000, 0.000000000000000000, 8.250000000000000000 ) ) ;
#952 = ORIENTED_EDGE ( 'NONE', *, *, #982, .F. ) ;
#953 = VECTOR ( 'NONE', #946, 1000.000000000000000 ) ;
#954 = ORIENTED_EDGE ( 'NONE', *, *, #134, .F. ) ;
#955 = DIRECTION ( 'NONE',  ( 1.000000000000000000, 0.000000000000000000, 0.000000000000000000 ) ) ;
#956 = DIRECTION ( 'NONE',  ( 1.000000000000000000, 0.000000000000000000, 0.000000000000000000 ) ) ;
#957 = CARTESIAN_POINT ( 'NONE',  ( 27.50000000000000000, 0.000000000000000000, 5.000000000000000000 ) ) ;
#958 = ORIENTED_EDGE ( 'NONE', *, *, #230, .F. ) ;
#959 = ORIENTED_EDGE ( 'NONE', *, *, #1013, .F. ) ;
#960 = CIRCLE ( 'NONE', #1112, 2.100000000000000089 ) ;
#961 = CARTESIAN_POINT ( 'NONE',  ( -3.750000000000003553, -27.50000000000000000, 13.99999999999999822 ) ) ;
#962 = AXIS2_PLACEMENT_3D ( 'NONE', #415, #935, #683 ) ;
#963 = LINE ( 'NONE', #281, #880 ) ;
#964 =( NAMED_UNIT ( * ) PLANE_ANGLE_UNIT ( ) SI_UNIT ( $, .RADIAN. ) );
#965 = ORIENTED_EDGE ( 'NONE', *, *, #260, .T. ) ;
#966 = EDGE_CURVE ( 'NONE', #674, #765, #557, .T. ) ;
#967 = LINE ( 'NONE', #537, #1068 ) ;
#968 = DIRECTION ( 'NONE',  ( -1.000000000000000000, 0.000000000000000000, 0.000000000000000000 ) ) ;
#969 = CARTESIAN_POINT ( 'NONE',  ( -3.750000000000003553, -32.28292892536239833, 5.000000000000000000 ) ) ;
#970 = ORIENTED_EDGE ( 'NONE', *, *, #97, .T. ) ;
#971 = VERTEX_POINT ( 'NONE', #818 ) ;
#972 = CIRCLE ( 'NONE', #49, 27.50000000000000000 ) ;
#973 = AXIS2_PLACEMENT_3D ( 'NONE', #263, #605, #950 ) ;
#974 = DIRECTION ( 'NONE',  ( -1.000000000000000000, 0.000000000000000000, 0.000000000000000000 ) ) ;
#975 = PLANE ( 'NONE',  #804 ) ;
#976 = ORIENTED_EDGE ( 'NONE', *, *, #997, .T. ) ;
#977 = ORIENTED_EDGE ( 'NONE', *, *, #915, .F. ) ;
#978 = EDGE_CURVE ( 'NONE', #971, #116, #154, .T. ) ;
#979 = APPLICATION_PROTOCOL_DEFINITION ( 'draft international standard', 'automotive_design', 1998, #666 ) ;
#980 = CARTESIAN_POINT ( 'NONE',  ( 0.000000000000000000, 0.000000000000000000, 10.75000000000000000 ) ) ;
#981 = CARTESIAN_POINT ( 'NONE',  ( -3.750000000000003553, 27.50000000000000000, 13.99999999999999822 ) ) ;
#982 = EDGE_CURVE ( 'NONE', #909, #72, #834, .T. ) ;
#983 = LINE ( 'NONE', #647, #635 ) ;
#984 = ORIENTED_EDGE ( 'NONE', *, *, #817, .T. ) ;
#985 = VECTOR ( 'NONE', #892, 1000.000000000000000 ) ;
#986 = CARTESIAN_POINT ( 'NONE',  ( -3.750000000000003553, 27.50000000000000000, 5.000000000000000000 ) ) ;
#987 = ADVANCED_FACE ( 'NONE', ( #1094 ), #319, .F. ) ;
#988 = DIRECTION ( 'NONE',  ( 0.000000000000000000, 0.000000000000000000, -1.000000000000000000 ) ) ;
#989 = ORIENTED_EDGE ( 'NONE', *, *, #1013, .T. ) ;
#990 = ORIENTED_EDGE ( 'NONE', *, *, #462, .F. ) ;
#991 = FACE_BOUND ( 'NONE', #446, .T. ) ;
#992 = PRESENTATION_LAYER_ASSIGNMENT (  '', '', ( #270 ) ) ;
#993 = DIRECTION ( 'NONE',  ( 0.000000000000000000, 0.000000000000000000, -1.000000000000000000 ) ) ;
#994 = DIRECTION ( 'NONE',  ( 1.000000000000000000, 0.000000000000000000, 0.000000000000000000 ) ) ;
#995 = ADVANCED_FACE ( 'NONE', ( #407 ), #753, .T. ) ;
#996 = EDGE_LOOP ( 'NONE', ( #271, #837, #709, #850 ) ) ;
#997 = EDGE_CURVE ( 'NONE', #96, #1008, #493, .T. ) ;
#998 = CARTESIAN_POINT ( 'NONE',  ( 0.000000000000000000, 0.000000000000000000, 0.000000000000000000 ) ) ;
#999 = AXIS2_PLACEMENT_3D ( 'NONE', #658, #56, #39 ) ;
#1000 = DIRECTION ( 'NONE',  ( 0.000000000000000000, 0.000000000000000000, -1.000000000000000000 ) ) ;
#1001 = EDGE_LOOP ( 'NONE', ( #385, #976, #862, #878, #216, #293, #936, #612 ) ) ;
#1002 = ORIENTED_EDGE ( 'NONE', *, *, #697, .F. ) ;
#1003 = ADVANCED_FACE ( 'NONE', ( #520 ), #1014, .F. ) ;
#1004 = DIRECTION ( 'NONE',  ( 0.000000000000000000, 0.000000000000000000, -1.000000000000000000 ) ) ;
#1005 = CARTESIAN_POINT ( 'NONE',  ( -3.750000000000003553, 32.28292892536239833, 8.250000000000000000 ) ) ;
#1006 = DIRECTION ( 'NONE',  ( -0.000000000000000000, -0.000000000000000000, 1.000000000000000000 ) ) ;
#1007 = ORIENTED_EDGE ( 'NONE', *, *, #949, .F. ) ;
#1008 = VERTEX_POINT ( 'NONE', #604 ) ;
#1009 = DIRECTION ( 'NONE',  ( -0.000000000000000000, -0.000000000000000000, 1.000000000000000000 ) ) ;
#1010 = CARTESIAN_POINT ( 'NONE',  ( 0.000000000000000000, 27.50000000000000000, 10.75000000000000000 ) ) ;
#1011 = DIRECTION ( 'NONE',  ( 1.000000000000000000, 0.000000000000000000, 0.000000000000000000 ) ) ;
#1012 = ORIENTED_EDGE ( 'NONE', *, *, #430, .T. ) ;
#1013 = EDGE_CURVE ( 'NONE', #471, #643, #960, .T. ) ;
#1014 = CYLINDRICAL_SURFACE ( 'NONE', #510, 2.100000000000000089 ) ;
#1015 = PLANE ( 'NONE',  #695 ) ;
#1016 = CARTESIAN_POINT ( 'NONE',  ( 0.000000000000000000, 0.000000000000000000, 19.00000000000000000 ) ) ;
#1017 = ADVANCED_FACE ( 'NONE', ( #181 ), #583, .F. ) ;
#1018 = ORIENTED_EDGE ( 'NONE', *, *, #1117, .T. ) ;
#1019 = CARTESIAN_POINT ( 'NONE',  ( -3.750000000000003553, 27.50000000000000000, 5.000000000000000000 ) ) ;
#1020 = LINE ( 'NONE', #253, #767 ) ;
#1021 = ORIENTED_EDGE ( 'NONE', *, *, #420, .F. ) ;
#1022 = DIRECTION ( 'NONE',  ( 0.000000000000000000, 0.000000000000000000, 1.000000000000000000 ) ) ;
#1023 = LINE ( 'NONE', #597, #937 ) ;
#1024 = CARTESIAN_POINT ( 'NONE',  ( 0.000000000000000000, 0.000000000000000000, 8.250000000000000000 ) ) ;
#1025 = CIRCLE ( 'NONE', #2, 2.100000000000000089 ) ;
#1026 = ADVANCED_FACE ( 'NONE', ( #772 ), #943, .F. ) ;
#1027 = ORIENTED_EDGE ( 'NONE', *, *, #718, .F. ) ;
#1028 = AXIS2_PLACEMENT_3D ( 'NONE', #610, #769, #956 ) ;
#1029 = EDGE_CURVE ( 'NONE', #133, #909, #516, .T. ) ;
#1030 = DIRECTION ( 'NONE',  ( -0.000000000000000000, -0.000000000000000000, 1.000000000000000000 ) ) ;
#1031 = CARTESIAN_POINT ( 'NONE',  ( 3.749999999999996447, -27.50000000000000000, 5.000000000000000000 ) ) ;
#1032 = EDGE_LOOP ( 'NONE', ( #236, #184, #67, #228 ) ) ;
#1033 = CARTESIAN_POINT ( 'NONE',  ( 0.000000000000000000, -27.50000000000000000, 0.000000000000000000 ) ) ;
#1034 = AXIS2_PLACEMENT_3D ( 'NONE', #579, #233, #1082 ) ;
#1035 = DIRECTION ( 'NONE',  ( 0.000000000000000000, 0.000000000000000000, 1.000000000000000000 ) ) ;
#1036 = DIRECTION ( 'NONE',  ( -1.000000000000000000, 0.000000000000000000, 0.000000000000000000 ) ) ;
#1037 = CIRCLE ( 'NONE', #497, 32.50000000000000000 ) ;
#1038 = ORIENTED_EDGE ( 'NONE', *, *, #978, .F. ) ;
#1039 = ORIENTED_EDGE ( 'NONE', *, *, #978, .T. ) ;
#1040 = DIRECTION ( 'NONE',  ( 1.000000000000000000, 0.000000000000000000, 0.000000000000000000 ) ) ;
#1041 = CARTESIAN_POINT ( 'NONE',  ( 3.749999999999996447, -27.49999999999999645, 8.250000000000000000 ) ) ;
#1042 = VERTEX_POINT ( 'NONE', #928 ) ;
#1043 = AXIS2_PLACEMENT_3D ( 'NONE', #14, #694, #606 ) ;
#1044 = ORIENTED_EDGE ( 'NONE', *, *, #542, .T. ) ;
#1045 = LINE ( 'NONE', #376, #167 ) ;
#1046 = EDGE_CURVE ( 'NONE', #918, #72, #500, .T. ) ;
#1047 = CARTESIAN_POINT ( 'NONE',  ( 3.749999999999996447, 27.50000000000000000, 13.99999999999999822 ) ) ;
#1048 = CARTESIAN_POINT ( 'NONE',  ( -3.750000000000003553, 32.28292892536239833, 10.75000000000000000 ) ) ;
#1049 = VERTEX_POINT ( 'NONE', #176 ) ;
#1050 = ORIENTED_EDGE ( 'NONE', *, *, #699, .T. ) ;
#1051 = AXIS2_PLACEMENT_3D ( 'NONE', #225, #562, #571 ) ;
#1052 = SHAPE_DEFINITION_REPRESENTATION ( #508, #704 ) ;
#1053 = CIRCLE ( 'NONE', #1076, 32.50000000000000000 ) ;
#1054 = DIRECTION ( 'NONE',  ( 1.000000000000000000, 0.000000000000000000, 0.000000000000000000 ) ) ;
#1055 = DIRECTION ( 'NONE',  ( 1.000000000000000000, 0.000000000000000000, 0.000000000000000000 ) ) ;
#1056 = DIRECTION ( 'NONE',  ( -0.000000000000000000, -0.000000000000000000, 1.000000000000000000 ) ) ;
#1057 = ORIENTED_EDGE ( 'NONE', *, *, #478, .F. ) ;
#1058 = ORIENTED_EDGE ( 'NONE', *, *, #768, .T. ) ;
#1059 = CARTESIAN_POINT ( 'NONE',  ( 3.749999999999996447, -32.28292892536239833, 8.250000000000000000 ) ) ;
#1060 = DIRECTION ( 'NONE',  ( -0.000000000000000000, -1.000000000000000000, -0.000000000000000000 ) ) ;
#1061 = CARTESIAN_POINT ( 'NONE',  ( -3.750000000000003553, 27.50000000000000000, 13.99999999999999822 ) ) ;
#1062 = CIRCLE ( 'NONE', #433, 27.50000000000000000 ) ;
#1063 = DIRECTION ( 'NONE',  ( -0.000000000000000000, -0.000000000000000000, 1.000000000000000000 ) ) ;
#1064 = ADVANCED_FACE ( 'NONE', ( #676 ), #692, .F. ) ;
#1065 = EDGE_LOOP ( 'NONE', ( #898, #507, #1002, #255 ) ) ;
#1066 = EDGE_CURVE ( 'NONE', #48, #240, #424, .T. ) ;
#1067 = EDGE_LOOP ( 'NONE', ( #984, #970, #715, #776 ) ) ;
#1068 = VECTOR ( 'NONE', #13, 1000.000000000000000 ) ;
#1069 = ADVANCED_FACE ( 'NONE', ( #671 ), #933, .T. ) ;
#1070 = CARTESIAN_POINT ( 'NONE',  ( 0.000000000000000000, 0.000000000000000000, 5.000000000000000000 ) ) ;
#1071 = DIRECTION ( 'NONE',  ( -1.000000000000000000, 0.000000000000000000, -0.000000000000000000 ) ) ;
#1072 = DIRECTION ( 'NONE',  ( 1.000000000000000000, -0.000000000000000000, 0.000000000000000000 ) ) ;
#1073 = ORIENTED_EDGE ( 'NONE', *, *, #185, .F. ) ;
#1074 = ORIENTED_EDGE ( 'NONE', *, *, #276, .T. ) ;
#1075 = LINE ( 'NONE', #274, #251 ) ;
#1076 = AXIS2_PLACEMENT_3D ( 'NONE', #926, #65, #770 ) ;
#1077 = CARTESIAN_POINT ( 'NONE',  ( -3.750000000000003553, 32.50000000000000000, 8.250000000000000000 ) ) ;
#1078 = ORIENTED_EDGE ( 'NONE', *, *, #155, .F. ) ;
#1079 = VERTEX_POINT ( 'NONE', #425 ) ;
#1080 = VECTOR ( 'NONE', #681, 1000.000000000000000 ) ;
#1081 = PLANE ( 'NONE',  #654 ) ;
#1082 = DIRECTION ( 'NONE',  ( 1.000000000000000000, 0.000000000000000000, 0.000000000000000000 ) ) ;
#1083 = ORIENTED_EDGE ( 'NONE', *, *, #303, .T. ) ;
#1084 = EDGE_CURVE ( 'NONE', #272, #649, #594, .T. ) ;
#1085 = ORIENTED_EDGE ( 'NONE', *, *, #912, .F. ) ;
#1086 = DIRECTION ( 'NONE',  ( 0.000000000000000000, 0.000000000000000000, -1.000000000000000000 ) ) ;
#1087 = UNCERTAINTY_MEASURE_WITH_UNIT (LENGTH_MEASURE( 1.000000000000000082E-05 ), #902, 'distance_accuracy_value', 'NONE');
#1088 = VECTOR ( 'NONE', #763, 1000.000000000000000 ) ;
#1089 = CARTESIAN_POINT ( 'NONE',  ( -3.750000000000003553, -27.50000000000000000, 13.99999999999999822 ) ) ;
#1090 = EDGE_CURVE ( 'NONE', #434, #133, #938, .T. ) ;
#1091 = VERTEX_POINT ( 'NONE', #110 ) ;
#1092 = VERTEX_POINT ( 'NONE', #380 ) ;
#1093 = DIRECTION ( 'NONE',  ( -0.000000000000000000, 0.000000000000000000, 1.000000000000000000 ) ) ;
#1094 = FACE_OUTER_BOUND ( 'NONE', #685, .T. ) ;
#1095 = PLANE ( 'NONE',  #321 ) ;
#1096 = EDGE_LOOP ( 'NONE', ( #785, #483, #454, #442 ) ) ;
#1097 = EDGE_LOOP ( 'NONE', ( #379, #1044, #761, #284, #60 ) ) ;
#1098 = VECTOR ( 'NONE', #114, 1000.000000000000000 ) ;
#1099 = CARTESIAN_POINT ( 'NONE',  ( 0.000000000000000000, 0.000000000000000000, 5.000000000000000000 ) ) ;
#1100 = CARTESIAN_POINT ( 'NONE',  ( -3.750000000000003553, -32.28292892536239833, 8.250000000000000000 ) ) ;
#1101 = DIRECTION ( 'NONE',  ( 0.000000000000000000, -0.000000000000000000, -1.000000000000000000 ) ) ;
#1102 = EDGE_CURVE ( 'NONE', #272, #352, #366, .T. ) ;
#1103 = VERTEX_POINT ( 'NONE', #1059 ) ;
#1104 = DIRECTION ( 'NONE',  ( -1.000000000000000000, 0.000000000000000000, 0.000000000000000000 ) ) ;
#1105 = ADVANCED_FACE ( 'NONE', ( #448 ), #810, .F. ) ;
#1106 = CARTESIAN_POINT ( 'NONE',  ( -1.360147050873544705, 1.600000000000000089, 19.00000000000000000 ) ) ;
#1107 = VECTOR ( 'NONE', #1072, 1000.000000000000000 ) ;
#1108 = CARTESIAN_POINT ( 'NONE',  ( -3.750000000000003553, -27.50000000000000000, 5.000000000000000000 ) ) ;
#1109 = ORIENTED_EDGE ( 'NONE', *, *, #249, .F. ) ;
#1110 = DIRECTION ( 'NONE',  ( 0.000000000000000000, 1.000000000000000000, 0.000000000000000000 ) ) ;
#1111 = FACE_OUTER_BOUND ( 'NONE', #140, .T. ) ;
#1112 = AXIS2_PLACEMENT_3D ( 'NONE', #68, #341, #5 ) ;
#1113 = CARTESIAN_POINT ( 'NONE',  ( -3.750000000000003553, -32.28292892536239833, 13.99999999999999822 ) ) ;
#1114 = ORIENTED_EDGE ( 'NONE', *, *, #949, .T. ) ;
#1115 = VECTOR ( 'NONE', #673, 1000.000000000000000 ) ;
#1116 = CARTESIAN_POINT ( 'NONE',  ( 0.000000000000000000, 0.000000000000000000, 10.75000000000000000 ) ) ;
#1117 = EDGE_CURVE ( 'NONE', #808, #186, #710, .T. ) ;
#1118 = CARTESIAN_POINT ( 'NONE',  ( -3.750000000000003553, -27.50000000000000000, 8.250000000000000000 ) ) ;
#1119 = EDGE_CURVE ( 'NONE', #186, #1092, #1037, .T. ) ;
#1120 = DIRECTION ( 'NONE',  ( -0.000000000000000000, -0.000000000000000000, 1.000000000000000000 ) ) ;
#1121 = ORIENTED_EDGE ( 'NONE', *, *, #684, .F. ) ;
#1122 = EDGE_CURVE ( 'NONE', #739, #272, #615, .T. ) ;
#1123 = CYLINDRICAL_SURFACE ( 'NONE', #973, 25.50000000000000355 ) ;
ENDSEC;
END-ISO-10303-21;
